<svg id="Grupo_586" data-name="Grupo 586" xmlns="http://www.w3.org/2000/svg" xmlns:xlink="http://www.w3.org/1999/xlink" width="3056.797" height="646.91" viewBox="0 0 3056.797 646.91">
  <defs>
    <clipPath id="clip-path">
      <rect id="Rectángulo_676" data-name="Rectángulo 676" width="3056.797" height="646.91" fill="none"/>
    </clipPath>
  </defs>
  <g id="Grupo_585" data-name="Grupo 585">
    <g id="Grupo_584" data-name="Grupo 584" clip-path="url(#clip-path)">
      <path id="Trazado_1216" data-name="Trazado 1216" d="M3001.563,506.712H55.234A55.4,55.4,0,0,1,0,451.478v-342.3A55.4,55.4,0,0,1,55.234,53.943H3001.563a55.4,55.4,0,0,1,55.234,55.234v342.3a55.4,55.4,0,0,1-55.234,55.234" transform="translate(0 140.198)" fill="#d1d1d1"/>
      <path id="Trazado_1217" data-name="Trazado 1217" d="M2993.044,603.2H63.753A63.939,63.939,0,0,1,0,539.451V63.753A63.939,63.939,0,0,1,63.753,0H2993.044A63.939,63.939,0,0,1,3056.8,63.753v475.7a63.939,63.939,0,0,1-63.753,63.753" fill="#014675"/>
    </g>
  </g>
  <text id="Preguntas_frecuentes" data-name="Preguntas frecuentes" transform="translate(158.224 396.168)" fill="#fff" font-size="259" font-family="Museo-900, 'Museo \39 00'" font-weight="900"><tspan x="0" y="0">P</tspan><tspan y="0" letter-spacing="-0.017em">r</tspan><tspan y="0">eguntas f</tspan><tspan y="0" letter-spacing="-0.017em">r</tspan><tspan y="0">ecuen</tspan><tspan y="0" letter-spacing="-0.005em">t</tspan><tspan y="0">es</tspan></text>
</svg>
