<?xml version="1.0" encoding="UTF-8"?><svg id="Capa_2" xmlns="http://www.w3.org/2000/svg" viewBox="0 0 746.51 304.11"><defs><style>.cls-1{fill:#f9f9f9;}.cls-2,.cls-3{fill:#014675;}.cls-4{fill:#7ec0ce;}.cls-5{fill:#d1d1d1;}.cls-3{font-family:Museo-900, Museo;font-size:72px;}.cls-6{letter-spacing:0em;}</style></defs><g id="Capa_1-2"><g><rect class="cls-5" y="53.94" width="746.51" height="250.17" rx="20.29" ry="20.29"/><rect class="cls-4" width="746.51" height="291.2" rx="21.89" ry="21.89"/><g><path class="cls-2" d="M604.8,242.57h0c-7.6,0-14.72-3.37-19.54-9.25l-22.96-28.01c-4.96-6.05-4.07-14.98,1.98-19.94,6.05-4.96,14.98-4.07,19.94,1.98l20.58,25.11,32.06-39.12c4.96-6.05,13.89-6.94,19.94-1.98,6.05,4.96,6.94,13.89,1.98,19.94l-34.44,42.02c-4.82,5.88-11.94,9.25-19.54,9.25Z"/><path class="cls-2" d="M681.98,154.8c-3.62,0-7.25-1.38-10.02-4.15-5.53-5.53-5.54-14.5,0-20.04,8.77-8.78,11.88-21.59,8.09-33.43-2.38-7.45,1.73-15.43,9.19-17.81,7.45-2.38,15.43,1.73,17.81,9.19,7.02,21.98,1.26,45.77-15.04,62.08-2.77,2.77-6.39,4.15-10.02,4.15Z"/><path class="cls-2" d="M693.55,107.05c-6,0-11.57-3.84-13.49-9.86-1.61-5.03-4.33-9.48-8.09-13.25-6.24-6.23-14.53-9.67-23.34-9.67-3.44,0-6.84,.53-10.1,1.58-7.45,2.39-15.43-1.71-17.82-9.16-2.39-7.45,1.71-15.43,9.16-17.82,6.07-1.95,12.38-2.93,18.76-2.93,16.37,0,31.77,6.38,43.37,17.97,6.9,6.91,12.1,15.43,15.05,24.67,2.38,7.45-1.73,15.43-9.19,17.81-1.43,.46-2.89,.68-4.31,.68Z"/><path class="cls-2" d="M573.27,210.5c-4.1,0-8.17-1.77-10.97-5.19l-45.22-55.18c-11.25-11.52-17.44-26.71-17.44-42.85s6.38-31.79,17.97-43.38c11.59-11.59,26.99-17.97,43.38-17.97s31.77,6.38,43.36,17.97l.45,.45,.45-.45c6.9-6.89,15.41-12.08,24.62-15.04,7.45-2.39,15.43,1.71,17.82,9.16,2.39,7.45-1.71,15.43-9.16,17.82-5.01,1.61-9.47,4.33-13.24,8.1l-10.46,10.46c-5.53,5.53-14.5,5.53-20.04,0l-10.47-10.47c-6.24-6.24-14.52-9.67-23.33-9.67s-17.1,3.43-23.34,9.67c-6.24,6.24-9.67,14.52-9.67,23.34s3.43,17.1,9.67,23.34c.33,.33,.64,.68,.94,1.04l45.63,55.69c4.96,6.05,4.07,14.98-1.98,19.94-2.63,2.16-5.81,3.21-8.97,3.21Z"/><g><path class="cls-1" d="M586.75,211.69h-67.16c-6.71,0-12.14-5.44-12.14-12.14s5.44-12.14,12.14-12.14h67.16c6.71,0,12.14,5.44,12.14,12.14s-5.44,12.14-12.14,12.14Z"/><path class="cls-1" d="M553.17,245.27c-6.71,0-12.14-5.44-12.14-12.14v-67.16c0-6.71,5.44-12.14,12.14-12.14s12.14,5.44,12.14,12.14v67.16c0,6.71-5.44,12.14-12.14,12.14Z"/></g></g><text class="cls-3" transform="translate(62.13 98.54)"><tspan x="0" y="0">¿Cómo se </tspan><tspan x="0" y="66">act</tspan><tspan class="cls-6" x="109.94" y="66">iv</tspan><tspan x="174.31" y="66">a el </tspan><tspan class="cls-6" x="0" y="132">p</tspan><tspan x="46.3" y="132">ago?</tspan></text></g></g></svg>