<svg xmlns="http://www.w3.org/2000/svg" xmlns:xlink="http://www.w3.org/1999/xlink" width="2075.817" height="2070.999" viewBox="0 0 2075.817 2070.999">
  <defs>
    <clipPath id="clip-path">
      <rect id="Rectángulo_664" data-name="Rectángulo 664" width="2075.817" height="1885.181" transform="translate(0 0)" fill="#fff" stroke="#707070" stroke-width="1"/>
    </clipPath>
    <clipPath id="clip-path-2">
      <rect id="Rectángulo_647" data-name="Rectángulo 647" width="1634.452" height="2948.724" fill="none"/>
    </clipPath>
    <clipPath id="clip-path-4">
      <rect id="Rectángulo_645" data-name="Rectángulo 645" width="441.55" height="852.102" fill="none"/>
    </clipPath>
    <clipPath id="clip-path-5">
      <rect id="Rectángulo_649" data-name="Rectángulo 649" width="1261.544" height="434.401" fill="#084675"/>
    </clipPath>
  </defs>
  <g id="Grupo_681" data-name="Grupo 681" transform="translate(-2952.683 -10920)">
    <g id="Enmascarar_grupo_3" data-name="Enmascarar grupo 3" transform="translate(2952.683 10920)" clip-path="url(#clip-path)">
      <g id="Grupo_559" data-name="Grupo 559" transform="translate(0.061 164.306)">
        <g id="Grupo_558" data-name="Grupo 558" clip-path="url(#clip-path-2)">
          <g id="Grupo_557" data-name="Grupo 557">
            <g id="Grupo_556" data-name="Grupo 556" clip-path="url(#clip-path-2)">
              <path id="Trazado_1083" data-name="Trazado 1083" d="M220.243,161.226c-16.206,37.161,2.323,85.656,39.182,102.544-14.78,11.458-17.611,34.2-9.329,50.964s25.455,27.8,43.493,32.759c4.089,1.124,8.649,2.231,11.058,5.726,2.3,3.333,1.885,7.779,1.189,11.771-2.852,16.325-8.865,33.148-4.046,49.008,4.3,14.154,16.752,24.655,30.436,30.268s28.664,7.055,43.39,8.444a194.373,194.373,0,0,0-6.023,89.886c2.739,16.142,9.924,34.412,25.757,38.571,20.242,5.321,36.929-15.58,47.436-33.682q7.2-12.414,14.413-24.839c9.016-15.531,18.351-33.358,13.332-50.6-7.536-25.882-42.65-34.914-52.163-60.137-6.9-18.275,2-38.312,3.641-57.776,2.534-30.058-14.348-60.866-41.046-74.906-4.586-2.415-9.832-4.781-11.814-9.573-2.318-5.586.832-11.739,2.517-17.546,4.095-14.11-.875-29.6-9.562-41.451s-20.733-20.723-32.58-29.409c11.7-9.227,15.159-26.022,12.366-40.657s-10.761-27.681-18.583-40.359L290.93,47.743" transform="translate(943.574 210.172)" fill="#5a3d73"/>
              <path id="Trazado_1084" data-name="Trazado 1084" d="M542.217,188.022c0,103.84-84.182,188.022-188.022,188.022S166.173,291.862,166.173,188.022,250.355,0,354.195,0,542.217,84.182,542.217,188.022" transform="translate(731.518)" fill="#5a3d73"/>
              <path id="Trazado_1085" data-name="Trazado 1085" d="M741.139,1777.686H425.827c-11.982-82.982-21.263-148.748-25.79-181.809-13.046-95.542-81.826-418.288-134.492-705.051-8.011-43.606-15.655-86.413-22.662-127.447v-.022c-7.714-45.113-14.667-88.066-20.534-127.707q-4.027-26.976-7.288-51.753-1.54-11.652-2.906-22.748-1-8.168-1.9-15.991c-.465-4.084-.913-8.109-1.361-12.041-7.228-66.749-8.444-114.012-.556-130.818a205.343,205.343,0,0,1,28.194-44.13c1.675-2.069,3.409-4.062,5.2-6.056h.022a222.327,222.327,0,0,1,22.305-21.673c.221-.184.427-.373.654-.54a265.194,265.194,0,0,1,74.706-44c7.509-2.944,15.131-5.553,22.813-7.86q11.936-3.549,24.056-6.077a283.322,283.322,0,0,1,44.595-5.667c25.158-1.151,49.7,1.253,72.14,7.347a166.934,166.934,0,0,1,48.825,21.636c.724.465,1.431.951,2.139,1.431,13.495,9.3,25.7,22.365,36.751,37.961.13.205.281.394.411.6.13.184.259.368.389.556,3.468,4.976,6.861,10.21,10.086,15.672h.016q3.3,12.074,6.412,24.337h.016Q623.434,435.182,635.83,497.7q3.719,18.475,7.174,37.21a.16.16,0,0,1,.022.1q9.278,50,17.011,101.355,1.929,12.689,3.765,25.455,1.928,13.338,3.727,26.724c52.887,387.561,49.813,813.342,73.61,1089.149" transform="translate(893.313 1171.039)" fill="#7ec0ce"/>
              <path id="Trazado_1086" data-name="Trazado 1086" d="M589.393,520.083q-.478,14.31-1.21,29.706c-.837,18.222-1.939,37.513-3.241,57.695q-1.572,24.067-3.506,49.754c-2.015,26.649-4.305,54.491-6.839,83.187v.038c-4.678,53-10.14,108.983-15.99,165.932-28.961,280.852-68,585.545-73.048,677.862-1.993,36.675-6.542,113.267-12.544,209H160.371c.816-297.01-38.409-860.735-18.248-1194.642.319-5.424.675-10.793,1.026-16.1q1.677-24.569,3.8-47.258c2.328-24.58,5.089-47.425,8.346-68.245,5.926-37.826,13.473-68.985,23-91.853q2.6-6.232,5.408-11.663s10.842-18.675,23.1-35.746c6.747-9.373,13.9-18.221,19.939-23.235.821-.691,1.658-1.361,2.5-2.015,48.117-38.182,124.266-49.084,195.617-32.521a278.143,278.143,0,0,1,59.726,21.171,237.591,237.591,0,0,1,57.77,39.581h.022c1.934,1.826,3.819,3.652,5.683,5.537,2.923,2.944,5.775,5.98,8.514,9.13.168.205.357.411.54.616a200.546,200.546,0,0,1,22.608,31.608c9.762,16.936,12.149,68.894,9.67,142.465" transform="translate(600.251 1155.468)" fill="#7ec0ce"/>
              <path id="Trazado_1087" data-name="Trazado 1087" d="M951.322,612.437c-59.753,6.131-165.614.221-291.494-12.263-16.077-1.583-38.879-3.738-65.458-6.191-5.964-.551-12.139-1.118-18.475-1.685-20.728-1.912-43.163-3.96-66.025-6.013-1.194-.1-2.377-.222-3.571-.324-47.836-4.284-97.417-8.687-137.5-12.182,0,0-73.032-8.508-194.078-41.278-16.914-4.565-28.707-9.746-37.113-14.921q1.677-24.577,3.8-47.263C147.969,401.04,158,345.652,172.759,310.225c60.747-19.41,152.049-34.514,289.177-32.872q8.557.089,17.379.286c22.738.486,46.777,1.421,71.708,2.82l1.2.065c31.106,1.745,63.589,4.219,96.682,7.428,82.577,8,168.8,20.669,246.668,38.517h.016C916.949,409.1,933.9,496.75,947.568,587q1.912,12.666,3.755,25.439" transform="translate(605.793 1220.408)" fill="#67ccdf"/>
              <path id="Trazado_1088" data-name="Trazado 1088" d="M591.351,406.8c-4.008,37.993-55.831,109.793-131.542,148.624-23.586,12.112-71.26,35.676-132.58,25.941-78.282-12.43-120.284-69.023-137.188-91.772-11.712-15.763-26.141-34.963-33.4-53.6,20.452-32.548,47.053-59.926,82.55-83.431l.022-.022c14.467-5.445,22.268-10.956,32.5-17.719a68.344,68.344,0,0,0,5.964-4.468,78.048,78.048,0,0,0,18.14-22.689,170.35,170.35,0,0,0,8.822-19.2c2.5-6.1,6.564-17.357,8.622-37.934a285.261,285.261,0,0,0,1.3-31.667c-.1-10.113-.621-22.17-2.058-35.876a393.733,393.733,0,0,0-7.92-47.312c-1.14-4.97-2.393-10.037-3.814-15.229,21.112-10.794,40.111-20.031,57.193-27.854C458.474,46.5,492.9,48.855,504.047,62.344c7.1,8.579,5.451,22.43.519,40.964-9.076,34.125-29.269,84.111-26.795,146.247.238,5.489.616,11.08,1.215,16.747,1.718,16.32,4.727,30.09,9.94,42.121a87.228,87.228,0,0,0,12.328,20.555c.124.14.243.3.362.438,17.9,22.014,46.3,35.881,57.868,41.089a290.39,290.39,0,0,1,31.867,36.3" transform="translate(689.552 236.983)" fill="#efbac4"/>
              <path id="Trazado_1089" data-name="Trazado 1089" d="M313.441,355.746s.286,137.712-16.358,259.671c-2.669,19.62-5.786,38.841-9.405,57.009-4.284,21.49-17.973,78.147-33.9,98.244-44.022,55.523-98.292,36.875-102.711,32.175-28.891-30.7-19.291-145.61-35.254-351.972-1.026-13.3,18.389-301.121,39.825-288.664,27.308,15.9,59.8,44.827,89.741,81.54a476.781,476.781,0,0,1,56.144,86.11q6.426,12.746,11.922,25.887" transform="translate(509.636 712.34)" fill="#fc7980"/>
              <path id="Trazado_1090" data-name="Trazado 1090" d="M167.666,154.521c121.867,20.317,97.784,24.4,130.176,66.511,10.664,13.867,10.043,20.247,52.86,62.411,8.1,7.979,83.058,74.447,84.571,79.136,3.679,11.415-77.791,140.272-93.695,123.85-.27-.276-94.862-130.548-122.969-139.251-45.119-13.965-105.282,27.989-146.938,42.391-5.824,2.015-15.38-8.173-4.981-15.369,29.8-20.609,82.21-50.64,94.916-53.465,4.451-11.993-51.223,12.782-73.064,21.668-34.012,13.835-61.1,34.73-64.437,24.094-1.572-5.013,5.688-13.359,7.282-14.418,28.507-18.864,72.129-43.768,113.785-58.17,12.209-6.758-23.186,3.49-60.526,19.107-42.153,17.633-72.421,35.53-75.36,28.539-1.1-2.609-.221-8.811,2.7-12.128,29.263-33.223,95.062-52.1,125.384-71.379C152.2,248.621,119.576,260.2,84.8,276.9,74.052,282.055,4.985,317.428,2.041,311.7-.19,307.359-4,303.356,12.413,289.8c40.781-33.672,111-63.367,165.965-84.268,8.06-3.063-6.974-14.089-10.815-15.32-13.613-4.354-80.125-28.48-79.8-38.874.573-17.946,56.733-.681,79.9,3.182" transform="translate(0.001 630.956)" fill="#efbac4"/>
              <path id="Trazado_1091" data-name="Trazado 1091" d="M53.468,264.94s305.8,481.283,385.746,484.767c50.056,2.188,99.734-50.71,101.306-89.714,5.559-137.685-404.6-505.328-400.531-483.773,3.792,20.031-38.388,92.544-86.521,88.72" transform="translate(235.374 771.749)" fill="#efbac4"/>
              <path id="Trazado_1092" data-name="Trazado 1092" d="M69.708,156.286c-10.966.249-35.276,12.819-34.838,15.126.637,3.409,27.686-12.971,56.182,3.36,7.433,4.262,28.345,14.478,33.915,22.43,3.1,4.419-15.58-41.807-55.259-40.916" transform="translate(153.476 687.94)" fill="#4d2237"/>
              <path id="Trazado_1093" data-name="Trazado 1093" d="M316.01,516.929c-1.907,26.557-7.066,40.424-18.535,45.135-25.3,10.356-141.412-44.2-181.96-86.715-3.43-3.592,1.523-33.909,6.4-54.432.47-1.929.935-3.879,1.421-5.851,16.774-66.879,54.092-154.588,92.339-227.128,9.054-17.179,45.481-76.646,72.87-66.5,27.265,10.113,21.317,76.991,26.071,257.466,1.686,64.4,3.511,108.864,1.4,138.019" transform="translate(503.496 529.515)" fill="#7ed7e4"/>
              <path id="Trazado_1094" data-name="Trazado 1094" d="M316.01,276.716c-1.907,26.557-7.066,40.424-18.535,45.135-25.3,10.356-141.412-44.2-181.96-86.715-3.43-3.592,1.523-33.909,6.4-54.432.47-1.929.935-3.879,1.421-5.851,6.2,5.283,13.4,11.047,21.911,17.179,22.775,16.444,40.522,25.2,67.667,38.577,31.754,15.65,66.23,32.667,103.1,46.107" transform="translate(503.496 769.729)" fill="#95e8f0"/>
              <path id="Trazado_1095" data-name="Trazado 1095" d="M860.023,1227.5c-7.352,1.443-15.348,2.68-24,3.636-53.989,5.969-101.414,2.76-141.109,0-61.784-4.349-136.458,17.724-214.2,2.371-118.815-23.467-205.978-25.741-264.959-46.026-31.792-10.923-53.66-22.332-65.069-32.667-7.007-6.331-10.075-12.263-9.038-17.417,5.137-25.709,72.648-300.694,33.461-406.836C119.059,578.687,140.257,513.84,147.3,465.577q2.01-13.7,3.328-27.124c12.711-125.676-14.354-228.873,3.068-243.8,22.738-19.469,109.593-56.339,160.168-75.733,20.933-8,35.654-13.03,37.075-12.587,2.253.691,72.6,185.693,98.654,192.678,25.7,6.926,148.435-171.642,155.236-182.485.551-.891,13.6,5.337,34.779,17.422,28.891,16.482,72.913,43.855,120.927,78.855,58.414,42.574,80.157,43.552,75.83,59.672-3.106,11.55-7.59,25.925-33.823,39.549-18.011,9.34-29.847,27.248-37.421,44.163a166.126,166.126,0,0,0-7.142,19.2,158.8,158.8,0,0,0-5.04,21.117C712.015,812.989,860.552,854.018,918.9,1110c5.321,23.435,9.908,48.646,13.522,76.138,1.221,9.237-18.821,30.884-72.4,41.358" transform="translate(605.202 467.979)" fill="#7ec0ce"/>
              <path id="Trazado_1096" data-name="Trazado 1096" d="M368.038,393.1c-50.208,8.951-128.22,10.048-146.56-4.224,0,0-25.92-195.828-7.99-198.7,10.275-1.648,66.317-1,142.487,3.619,5.553,67.954,6.7,129.079,12.063,199.307" transform="translate(911.985 833.559)" fill="#95e8f0"/>
              <g id="Grupo_555" data-name="Grupo 555" transform="translate(1096.128 843.372)" opacity="0.15" style="mix-blend-mode: multiply;isolation: isolate">
                <g id="Grupo_554" data-name="Grupo 554">
                  <g id="Grupo_553" data-name="Grupo 553" clip-path="url(#clip-path-4)">
                    <path id="Trazado_1097" data-name="Trazado 1097" d="M572,1008.22c-3.349-25.077-13.316-49.64-37.134-90.778-20.323-35.082-45.356-65.82-120.862-117.756-83.938-57.722-215.4-171.367-210.992-182.269,6.58-16.26,186.882,59.3,207.113-49.187,23.753-127.383-41.775-333.134,4.538-384.158,13.765-15.164,26.26-25.46,55.3-27.956a158.77,158.77,0,0,0-5.04,21.117C423.994,593.714,572.532,634.743,630.88,890.724c5.321,23.435,9.908,48.646,13.522,76.138,1.221,9.238-18.821,30.884-72.4,41.359" transform="translate(-202.906 -156.118)" fill="#67ccdf"/>
                  </g>
                </g>
              </g>
              <path id="Trazado_1098" data-name="Trazado 1098" d="M495.879,133.946c-11.355,19.615-162.1,238.472-192.392,236.328-42.974-3.047-123.833-230.337-133.357-251.351,20.933-8,35.654-13.035,37.075-12.587,2.253.686,72.61,185.688,98.654,192.673,25.709,6.926,148.435-171.642,155.242-182.485.54-.891,13.6,5.343,34.779,17.422" transform="translate(748.937 467.983)" fill="#95e8f0"/>
              <path id="Trazado_1099" data-name="Trazado 1099" d="M236.808,352.56a2.792,2.792,0,0,1-2.274-1.167c-32.553-45.362-87.185-104.31-135.94-146.69a2.8,2.8,0,0,1,3.673-4.219C151.313,243.118,206.3,302.455,239.077,348.136a2.8,2.8,0,0,1-2.269,4.424" transform="translate(429.806 879.535)" fill="#ed6471"/>
              <path id="Trazado_1100" data-name="Trazado 1100" d="M519.1,737.348c-25.7,66.738-105.066,71.163-145.777,43.979-26.838-17.951-24.261-84.565-60.3-201.673q-2.107-6.79-4.284-13.764c-1.037-3.268-2.075-6.58-3.15-9.908Q298.764,534.6,290.866,511.6c-1.075-3.128-2.172-6.256-3.268-9.421-1.907-5.44-3.879-10.945-5.867-16.509-.324-.891-.648-1.783-.972-2.7-4.262-11.739-8-23.008-11.29-33.807-32.283-105.963-20.809-167.7-15-195.9,17.725-86.208,66.555-118.107,143.562-64.523,42.618,29.642,72.707,149.45,107.259,293.763,23.31,97.233,28.059,217.874,13.808,254.846" transform="translate(1090.199 715.322)" fill="#efbac4"/>
              <path id="Trazado_1101" data-name="Trazado 1101" d="M300.176,350.621a16.836,16.836,0,0,0-3.819-1.8q-9.5-30.184-21.155-63.713c-1.583-4.489-3.187-9.038-4.829-13.6q-6.823-21.384-14.721-44.384c33.866,17.762,185.753,64.015,196.86,161.205,3.328,28.972-103.446,9.076-152.335-37.7" transform="translate(1125.418 999.802)" fill="#4d2237"/>
              <path id="Trazado_1102" data-name="Trazado 1102" d="M564.186,492.87c.449,8.427-35.287,31.468-93.862,45.356-39.792,9.421-64.6,14.742-142.811,16.671-15.531.384-23.348.567-26.109-.124,0,0-12.755-26.071-27.167-63.772-23.186-60.623-50.737-151.32-36.605-211.942,18.918-81.194,69.434-152.179,134.892-146.9,31.311,2.517,58.878,31.64,79.185,62.6,25.3,38.582,77.375,157.84,100.377,240.412,7.007,25.152,11.49,45.762,12.1,57.7" transform="translate(1029.112 580.559)" fill="#7ec0ce"/>
              <path id="Trazado_1103" data-name="Trazado 1103" d="M263.078,148.75a290.39,290.39,0,0,0-31.867-36.3c1.3.6,2.393,1.075,3.23,1.437,20.118,8.822,21.414,11.534,25.185,16.72,3.171,4.354,4.251,10.577,3.452,18.14" transform="translate(1017.825 495.035)" fill="#fc7980"/>
              <path id="Trazado_1104" data-name="Trazado 1104" d="M357.219,221.3c-45.443-2.615-85.7-7.563-116.087-26.276-40.208-24.763-41.759-33.6-49.192-40.3a392.721,392.721,0,0,0-7.914-47.312c25.255-32.186,106.141-60.185,176.4-40.748A179.452,179.452,0,0,1,384,75.049c-9.07,34.109-29.269,84.1-26.784,146.252" transform="translate(810.11 265.254)" fill="#4d2237"/>
              <path id="Trazado_1105" data-name="Trazado 1105" d="M157.374,359.932c-15.256-1.264-25.6-10.594-36.621-32.883a2.992,2.992,0,0,1,5.364-2.653c11.76,23.78,21.182,28.966,32.651,29.631C222.124,357.712,290.953,190.7,293.848,183.59a3,3,0,1,1,5.548,2.263c-7.433,18.232-74.533,178.017-140.974,174.154-.351-.022-.7-.049-1.048-.076" transform="translate(530.201 799.99)" fill="#b1fafc"/>
              <path id="Trazado_1106" data-name="Trazado 1106" d="M192.871,398.636a35.294,35.294,0,0,1-9.864-2.344c-62.081-23.953-57.111-197.189-56.344-216.864a3,3,0,1,1,5.986.238c-.3,7.671-6.688,188.2,52.514,211.04,10.7,4.127,21.441,3.306,41.986-13.478a2.993,2.993,0,0,1,3.787,4.635c-15.261,12.474-26.768,17.708-38.064,16.774" transform="translate(555.791 777.206)" fill="#b1fafc"/>
              <path id="Trazado_1107" data-name="Trazado 1107" d="M146.357,231.335h0a8.565,8.565,0,0,0,12.068.519L164.7,226.1a8.542,8.542,0,0,0-11.55-12.587l-6.277,5.759a8.565,8.565,0,0,0-.519,12.068" transform="translate(634.431 930.04)" fill="#007382"/>
              <path id="Trazado_1108" data-name="Trazado 1108" d="M270.984,356.07a6.983,6.983,0,0,1-5.883-9.994C297.125,279.354,292.9,222.95,278.25,192.407c-8.2-17.1-20.215-28.269-33.844-31.451a68.817,68.817,0,0,0-55.939,12.976c-29.814,22.938-46.712,72.686-48.857,143.865a6.985,6.985,0,0,1-13.965-.421c2.312-76.586,20.582-128.571,54.308-154.512a83.226,83.226,0,0,1,67.624-15.51c17.838,4.165,33.207,18.016,43.271,39.014,20.777,43.347,15.861,105.31-13.154,165.749a6.985,6.985,0,0,1-6.709,3.954" transform="translate(553.092 641.01)" fill="#007382"/>
              <path id="Trazado_1109" data-name="Trazado 1109" d="M133.72,229.223h0a8.57,8.57,0,0,1-11.2-4.516l-3.333-7.839a8.544,8.544,0,0,1,15.726-6.688l3.328,7.838a8.565,8.565,0,0,1-4.516,11.2" transform="translate(521.68 902.375)" fill="#007382"/>
              <path id="Trazado_1110" data-name="Trazado 1110" d="M276.676,276.986c-30.695-33.239-46.091-49.5-49.413-52.52-23.029-20.987-44.173-38.058-51.137-31.062-5.856,5.878,9.032,32.975,27.351,51.218,27.432,27.308,79.541,39.236,73.2,32.364" transform="translate(769.639 844.381)" fill="#efbac4"/>
              <path id="Trazado_1111" data-name="Trazado 1111" d="M213.833,869.563l447.33,13.262L531.538,145.27,84.214,132.013Z" transform="translate(370.721 581.141)" fill="#efe6da"/>
              <path id="Trazado_1112" data-name="Trazado 1112" d="M114.542,169.838l223.627,5.872a5.243,5.243,0,0,0,5.418-6.5L338.715,142a8.573,8.573,0,0,0-7.806-6.85l-223.627-5.872c-3.652-.092-6.077,2.815-5.418,6.5l4.873,27.205a8.568,8.568,0,0,0,7.806,6.85" transform="translate(447.941 569.094)" fill="#5a3d73"/>
              <path id="Trazado_1113" data-name="Trazado 1113" d="M144.356,176.3l27.751.729c12.258.319,20.4-9.454,18.184-21.83l-1.075-5.991c-2.215-12.382-13.954-22.673-26.211-23l-27.751-.729c-12.258-.319-20.4,9.454-18.184,21.83l1.075,5.991c2.215,12.382,13.954,22.673,26.211,23" transform="translate(513.76 552.349)" fill="#5a3d73"/>
              <path id="Trazado_1114" data-name="Trazado 1114" d="M289.425,282.735c-13.63-5.386-69.7-56.155-99.151-84.344-10.28-9.837.248-19.383,6.369-16.109,43.725,23.391,153.426,100.9,199.507,127.345,58.37,33.51,138.338,58.629,129.652,96-5.851,25.034-14.343,135.724-29.847,123.569-4.894-3.846-22.905-14.127-28.2-17.951-30.506-22.246-61.579-33.758-92.906-51.688-39.8-22.727-72.13-39.047-76.516-41.564C240.973,385,205.9,364.184,166.547,319.535c-15.807-17.973-18.205-25.612-14.953-30.047,4.284-5.851,44.411,24.942,55.442,32.6,35.676,24.715,69.871,43.379,55.059,30.279-30.263-26.8-88.973-60.758-113.148-92.144-3.031-3.938-7.4-14.105-5.7-16.8,4.505-7.266,26.341,11.409,70.039,38.49C252,305.9,289.489,323.576,277.135,313.89c-43.73-23.4-87.774-58.808-116.076-84.83-1.588-1.459-8.184-12.009-5.537-17.308,5.586-11.231,30.058,10.918,65.388,32.332,22.689,13.748,69.936,44.611,68.515,38.652" transform="translate(628.913 799.547)" fill="#efbac4"/>
              <path id="Trazado_1115" data-name="Trazado 1115" d="M259.14,17.133c-42.1,17.611-71.114,56.512-76.964,87.607-3.8,20.2-20.782,157.5,1.259,218.23,23.494,64.734,122.748,123.169,228.441,45.886,55.5-40.592,62.3-185.693,60.482-220.143C464.275-4.945,296.285,1.6,259.14,17.133" transform="translate(758.701 41.777)" fill="#efbac4"/>
              <path id="Trazado_1116" data-name="Trazado 1116" d="M269.528,94.348A53.546,53.546,0,1,1,215.982,40.8a53.548,53.548,0,0,1,53.546,53.546" transform="translate(715.067 179.616)" fill="#efbac4"/>
              <path id="Trazado_1117" data-name="Trazado 1117" d="M394.657,155.047c-9.724-24.78-25.406-46.221-41.71-66.576C326.179,55.059,295.474,22.5,255.957,9.735a161.344,161.344,0,0,0-29.15-6.175c-4.279-.546-8.66-.978-12.884.059-7.234,1.777-14.651,16.228-14.651,16.228-11.717,28.664-1.448,62.487,16.255,86.829s41.953,42.061,63.151,62.951c25.844,25.466,115.574,77.742,120.182,64.41,8.811-25.493,5.521-54.211-4.2-78.99" transform="translate(855.2 13.154)" fill="#5a3d73"/>
              <path id="Trazado_1118" data-name="Trazado 1118" d="M341.628,5.949C304.553,9,268.656,23.863,239.409,47.146s-51.834,54.826-65.625,89.811c-3.16,8.017-5.91,16.687-4.262,25.152s9.167,16.336,17.633,15.315c5.2-.627,9.492-4.284,13.408-7.817A888.077,888.077,0,0,0,339.613,9.9l-1.577.81a9.23,9.23,0,0,0,3.592-4.765" transform="translate(744.085 26.188)" fill="#5a3d73"/>
              <path id="Trazado_1119" data-name="Trazado 1119" d="M216.335,204.7c19.383,9.875,88.169,52.86,260.816,113.191,127.107,44.416,255.441,90.162,303.628,141.261,30.133,31.959,35.827,51.871,31.37,84.787-14.64,108.027-211.775,57.625-297.88,18.351-49.921-22.775-142.152-93.16-293.893-204.336-8.573-6.283-42.542-17.379-38.971-31.478,2.469-9.773,13.716-132.585,34.93-121.775" transform="translate(797.416 898.167)" fill="#efbac4"/>
              <path id="Trazado_1120" data-name="Trazado 1120" d="M531.214,245.723c.449,8.427-35.287,31.468-93.862,45.356-39.792,9.421-64.6,14.742-142.811,16.671-15.531.384-23.348.567-26.109-.124,0,0-12.754-26.071-27.167-63.772,86.958,12.02,187.438-5.056,246.846-37.377,12.954-7.066,22.759-13.522,31-18.454,7.007,25.152,11.49,45.762,12.1,57.7" transform="translate(1062.084 827.705)" fill="#95e8f0"/>
              <path id="Trazado_1121" data-name="Trazado 1121" d="M325.45,95.379A53.543,53.543,0,1,1,271.9,41.838,53.548,53.548,0,0,1,325.45,95.379" transform="translate(961.266 184.177)" fill="#efbac4"/>
              <path id="Trazado_1122" data-name="Trazado 1122" d="M249.067,47.931c.637,8.989-5.888,19.437-8.914,27.859-2.879,8.006-4.365,18.837-10.313,25.082-1.707,1.794-4.214.254-4.451-1.842-1.021-9.005,5.44-19.923,8.708-28.232,2.966-7.531,5.527-18.8,11.831-24.169a1.867,1.867,0,0,1,3.139,1.3" transform="translate(991.72 203.09)" fill="#38192a"/>
              <path id="Trazado_1123" data-name="Trazado 1123" d="M230.426,48.954c7.244,2.409,12.6,8.995,14.726,16.25,1.956,6.7,1.934,17.411-3.992,22.16a2.992,2.992,0,0,1-4.954-2.885c1.178-6.288,3.69-10.68,2.08-17.384-1.523-6.326-4.905-10.669-9.821-14.769-1.55-1.3.108-3.987,1.961-3.371" transform="translate(1003.035 215.103)" fill="#38192a"/>
              <path id="Trazado_1124" data-name="Trazado 1124" d="M178.944,106.384c-3.641-18.762-9.173-38.3-10.216-57.4-.249-4.505,5.824-5.813,7-1.28,4.8,18.54,5.44,38.868,7.649,57.868.335,2.863-3.873,3.684-4.43.81" transform="translate(742.733 197.606)" fill="#38192a"/>
              <path id="Trazado_1125" data-name="Trazado 1125" d="M181.882,51.739c-3.63,3.447-6.564,6.742-8.022,11.652-1.442,4.873-.281,9.092.383,13.932.319,2.334-2.793,4.143-4.365,2.042-7.158-9.551-.751-26.714,10.178-30.506a1.727,1.727,0,0,1,1.826,2.879" transform="translate(734.511 214.581)" fill="#38192a"/>
              <path id="Trazado_1126" data-name="Trazado 1126" d="M226.321,46.782c2.62,12.792-7.774,26.168-14.451,36.162-4.084,6.121-8.325,12.528-10.226,19.723-1.583,5.991-1.307,10.237,5.246,12.063,5.9,1.642,11.064,1.032,17.044.978,4.171-.038,4.608,5.683.945,6.985-8.222,2.917-21.155,2.123-28.372-3.317-7.007-5.278-3.949-16.158-1.27-22.975,3.42-8.714,9.092-16.406,14.532-23.942,6.013-8.33,9.567-16.784,13.738-26.044a1.553,1.553,0,0,1,2.814.367" transform="translate(846.135 201.02)" fill="#38192a"/>
              <path id="Trazado_1127" data-name="Trazado 1127" d="M208.057,60.747a13.338,13.338,0,1,0,13.338-13.338,13.339,13.339,0,0,0-13.338,13.338" transform="translate(915.898 208.701)" fill="#38192a"/>
              <path id="Trazado_1128" data-name="Trazado 1128" d="M180.613,61.135A13.335,13.335,0,1,0,193.945,47.8a13.334,13.334,0,0,0-13.332,13.338" transform="translate(795.085 210.409)" fill="#38192a"/>
              <path id="Trazado_1129" data-name="Trazado 1129" d="M270.04,51.14c-10.372-.292-20.944-.7-31.268.6-9.913,1.248-19.151,5.915-28.977,6.753-4.052.346-6.726-5.742-3.468-8.363,8.173-6.564,20.085-7.979,30.268-8.951,11.777-1.129,23.2-.157,34.223,4.219,2.858,1.134,2.777,5.84-.778,5.742" transform="translate(901.875 179.37)" fill="#38192a"/>
              <path id="Trazado_1130" data-name="Trazado 1130" d="M225.162,56.453c-14.478-3.636-27.194-6.531-42.142-3.133-7,1.594-9.881-9.427-2.944-10.669,15.753-2.825,34.228-2.15,47.89,7.158,3.333,2.269,1.34,7.687-2.8,6.645" transform="translate(775.213 181.285)" fill="#38192a"/>
              <path id="Trazado_1131" data-name="Trazado 1131" d="M199.853,103.25a23.311,23.311,0,1,1,32.9-2.069,23.308,23.308,0,0,1-32.9,2.069" transform="translate(845.003 274.916)" fill="#fc90ad"/>
              <path id="Trazado_1132" data-name="Trazado 1132" d="M254.43,70.446C248.52,79.3,238.1,83.282,227.284,84.125c-11.128.859-27.281-.367-35.67-7.92a4.349,4.349,0,0,1,2.08-7.385c9.054-1.767,17.541,2.431,26.589,3.209,10.583.908,19.453-1.929,28.383-6.985,3.56-2.02,8.011,2.037,5.764,5.4" transform="translate(837.614 283.956)" fill="#38192a"/>
              <path id="Trazado_1133" data-name="Trazado 1133" d="M211.226,346.459c6.466,66.522,11.631,133.266,13.792,200.079.173,5.213,8.379,5.208,8.1,0-3.522-66.938-8.7-133.573-17.211-200.079-.373-2.923-4.981-3.036-4.684,0" transform="translate(929.788 1515.326)" fill="#5a3d73"/>
            </g>
          </g>
        </g>
      </g>
    </g>
    <g id="Grupo_580" data-name="Grupo 580" transform="translate(3389.988 12556.598)">
      <g id="Grupo_562" data-name="Grupo 562" transform="translate(0 0)" clip-path="url(#clip-path-5)">
        <path id="Trazado_1195" data-name="Trazado 1195" d="M6.44,365.35c-4.232-.865-4.395-3.983-4.189-8.378.805-16.987,1.062-34,1.448-51.005.625-27.147,1.131-54.295,1.859-81.442.06-2.39.66-5.405,2.193-7.007,6.459-6.733,6.6-6.613-1.4-12.053-.617-.42-1.011-1.165-.66-.745,0-31.362-.231-61.713.086-92.056.214-19.857,1.371-39.706,1.8-59.572.12-5.688-2.364-11.8-1-17.022C9.661,24.2,5.977,12.819,5.96,1.3,6.714.792,7.391-.056,7.973,0,27.608,1.828,46.737,5.426,63.639,16.46c1.636,1.071,2.9,2.861,4.652,3.589,26.445,11.017,45.051,31.174,62.236,53.044,2.9,3.7,6.117,7.153,8.961,10.9,16.388,21.622,33.135,42.978,48.881,65.063,8.781,12.31,16.037,25.734,23.524,38.918,1.825,3.221,1.842,7.461,2.9,12.156,8.181-1.353,12.087,4.489,15.428,11.171,1,2.013,1.9,5.174,3.487,5.637,10.4,3.007,16.2,12.019,23.952,18.255,15.394,12.379,33.007,17.964,51.99,19.892,5.56.557,11.488-1.551,17.116-2.938,14.075-3.469,28.184-6.579,39.269-17.313,8.686-8.4,19.549-14.812,27.216-23.969,11.736-14.023,22.1-29.3,32.013-44.709,8.507-13.244,13.672-28.6,25.417-40.451,4.043,3.718,7.993,7.35,12.284,11.3,3.564-2.433,6.708-4.583,10.451-7.145-.771-3.7.488-8.421-6.511-9.226v7.23c-7.35-2.519-7.461-9.44-12.165-14.34,3.778-4.249,7.29-8.2,10.8-12.156.48-.54,1.354-1.062,1.371-1.619.385-13.509,11.573-20.628,18.127-30.454,1.825-2.724,4.977-4.575,7.539-6.8,1.756-1.533,4.18-2.681,5.234-4.592,5.123-9.252,12.053-15.934,22.179-19.883,3.384-1.328,5.594-5.251,10.1-2.844.9.48,2.793.54,3.35-.043,6-6.288,14.666-6.3,21.913-9.6,6.742-3.084,12.961-5.491,21.142-3.958,8.609,1.619,17.861-.154,26.83-.377,1.474-.034,3.221-.18,4.395.5,10.665,6.211,23.746,4.66,34.5,10.965,2.793,1.636,6.81.917,8.455,5.02.437,1.079,2.964,2.459,3.744,2.082,5.594-2.758,6.922,2.065,10.228,4.583,19.695,15.026,31.474,36.613,46.868,55.177,1.191,1.431,2.981,3.307,2.8,4.772-.651,5.388,2.176,6.519,6.622,7.53,2.279.514,4.609,3.067,5.894,5.286,7.847,13.527,19.617,24.123,27.173,38.018,5.251,9.646,13.741,17.493,20.448,26.385,8.686,11.513,17.022,23.284,25.537,34.917a9.584,9.584,0,0,0,2.441,2.441c10.657,6.742,17.279,17.15,25.091,26.616,7.958,9.637,17.373,18.075,26.136,27.045,1.559,1.6,3.075,3.264,5.072,5.38-2.536,1.593-4.4,2.767-6.331,3.975.266.591.369,1.508.823,1.73,3.8,1.919,7.676,3.709,11.522,5.543,1.037.488,2.587,1.7,3.032,1.379,7.333-5.277,12.276,1.7,18.17,3.452,11.239,3.341,22.461,6.973,34.283,3.187a37.329,37.329,0,0,0,9.286-4.754c17.878-12.113,33.127-26.573,42.893-46.362,2.33-4.729,7.35-8.1,10.914-12.267,8.481-9.92,16.825-19.951,25.734-30.548,3.007,2.2,5.671,4.146,8.121,5.945,6.63-2.99,6.3-9.937,4.909-13.355-3.692-9.038.711-15.266,5-21.562,9.518-13.989,20-27.344,29.152-41.565,3.624-5.628,7.333-8.644,13.878-8.481.977.026,1.979-1.156,3.384-2.047-.548-2.476-1.114-5.011-1.816-8.215,2.733-.377,5.174-.711,7.873-1.079-5.217-12.045,4.292-18.324,10.777-23.258,7.187-5.474,10.485-16.251,21.425-16.73,5.911-9.792,15.548-15.968,24.663-21.545,12.37-7.564,24.021-17.441,39.792-18.521,5.671-.386,11.308-2.853,16.722-4.977,17.2-6.75,35.645-5.919,53.447-8.978,4.412-.754,9.218.8,13.852,1.285.48,16.456,1.293,32.476,1.311,48.5.009,14.306-1.071,28.621-1.3,42.936-.18,11.145.351,22.3.308,33.452-.1,22.727-.522,45.446-.557,68.173-.026,17.4.54,34.8.488,52.2-.077,22.359-.711,44.726-.694,67.085.009,12.276.84,24.552,1.319,36.828.034.771.625,1.919.3,2.262-5.568,5.782-1.4,11.813-.942,17.93.9,12.353.84,24.783.84,37.179,0,3.6-2.484,5.4-6.314,5.474-6.254.12-12.524.925-18.752.651-1.987-.086-4.326-2.339-5.688-4.2-2.99-4.086-6.879-4.892-7.915-.788-1.713,6.845-6.168,5.954-10.819,5.834q-23.142-.617-46.294-1.294c-1.122-.034-2.244-.291-4.009-.54-.24-2.9-.471-5.722-.883-10.871-3.375,3.23-5.842,4.874-7.333,7.162-2.955,4.532-9.038,7.085-13.329,4.9-1.4-.7-2.6-1.773-3.949-2.57-1.336-.788-2.741-1.439-4.172-2.176-8.147,6.956-17.707,4.378-26.847,4.583-12.019.274-24.029.848-36.048,1.028-3.4.06-6.819-1.234-10.211-1.182-17.125.274-34.249,1.131-51.365,1.114-14.049-.009-28.09-1.139-42.139-1.388-8.121-.146-16.268.78-24.389.608-4.266-.086-9.123-.48-10.4-6.887-7.153,5.5-15.069,5.234-23.336,5.954-22.667,2-45.2.086-67.77.257-6.845.043-13.492.171-20.3-.66-4.095-.5-8.507.7-12.653,1.671-8.678,2.047-15.334-.24-19.206-7.624-5.046,4.883-10.143,7.222-18.024,6.862-19.472-.874-39.055,1.114-58.6,1.311-12.636.129-25.28-1.071-37.924-1.311-15.24-.291-30.471-.188-45.711-.266-3.015-.017-6.031-.111-9.046-.12-8.909-.017-17.81,0-27.43,0-.077-.137-.84-1.448-2.219-3.812-6.185,12.7-16.953-.437-24.1,6-3.838-3.367-7.076-6.2-10.494-9.2-6.51,7.093-14.092,8.387-23.609,7.77-19.343-1.242-38.815-.617-58.236-.5-15.505.086-31,.72-46.508.84-12.019.094-24.038-.18-36.065-.385-17.733-.308-35.465-.625-53.2-1.122-3.427-.1-6.836-1.011-10.228-1.662-1.088-.206-2.51-1.422-3.1-1.062-12.353,7.59-25.6,1.756-38.361,2.5-16.808.977-33.684,1.114-50.525,1.268-15.077.137-30.154-.171-45.223-.334-13.921-.154-27.953-1.559-41.728-.231-16.516,1.585-33.041-1.611-49.283.814-13.3,1.987-26.205-1.413-39.295-.463-2.339.171-4.8-.411-7.033.094-13.766,3.11-27.353-.514-41.025-.891-1.491-.043-3.572-.822-4.36-.12-3.624,3.247-4.7.334-5.62-2.193-.5-1.371-.034-3.092,0-4.652.326-16.354.4-32.733,1.191-49.069.163-3.289,3.015-6.451,5.02-10.46m51.9-35.44c-4.318-1.294-8.644-2.579-13.921-4.155-1.611,4.9-2.973,9.029-4.18,12.721,5.688,1.268,9.929,2.21,13.835,3.084,1.388-4,2.75-7.933,4.018-12,1.473-3.015,2.938-6.022,4.823-9.886-7.7,2.056-5.346,6.4-4.575,10.237m441.263,14.1c-9.946-3.752-18.3-6.9-26.968-10.177-2.707,4.789-5.474,8.584-1.9,12.533,4.506-.334,8.824-1.962,11.531-.531,3.375,1.782,5.423,6.074,9.063,10.537,2.981-4.455,5.346-7.993,8.275-12.362m602.888-140.183c-.471.917-.951,1.842-1.431,2.758,1.97,2.861,1.251,9.86,8.738,4.24.891-.668,3.478.428,5.011,1.208,3.838,1.97,7.522,4.223,11.3,6.374,2.921-4.934,4.926-8.3,7.316-12.336-5.859.754-10.314,2.107-14.58,1.67-5.526-.557-10.905-2.544-16.354-3.915M1239.68,79.707c6.2-6.057,7.59-10.648,4.729-18.872-.634-1.816-3.675-2.8-7.838-5.748,1.431,5.86,2.167,8.866,3.281,13.432-4.043-1.139-6.51-1.833-9.02-2.544-2.7,8.841,2.553,11.633,8.849,13.732M592.443,332.094c-5.3-10.965-15.428-6.887-23.558-10.434,4.754,14.769,8.841,16.542,23.558,10.434m412.976-77.681c-1.011,5.243-1.628,8.43-2.236,11.573,16.739,3.778,19.155,3.8,24.132.668-6.648-3.718-13.381-7.479-21.9-12.242M567.052,366.969c.625-.146,1.251-.3,1.876-.445V347.908c1.842-1.294,3.752-2.639,6.382-4.5-4.172-2.065-7.316-3.632-10.169-5.046-1.482,6.005-2.707,10.991-4.24,17.2,1.636,3.033,3.889,7.222,6.151,11.4m-356.72-51.194v-12.79c-3.684-1.139-7.222-2.227-11.531-3.555a33.641,33.641,0,0,1,.977,5.217,36.078,36.078,0,0,1-.66,4.515c-1.037,9.038,1.071,10.357,11.214,6.613m797.862,38.935c-5.166,2.125-9.226,4.857-13.492,5.226-3.615.308-6.63.908-6.956,4.206-.223,2.236,2.193,4.746,3.726,7.7,6.151-6.262,15.12-7.479,16.722-17.133m149.032-85.88c4.189,7.778,3.015,15.06-1.362,22.359.728.274,1.456.54,2.185.814,3.144-2.493,6.3-4.977,11.256-8.9-10.023-1.9-1.036-13.792-12.079-14.272M27.591,267.554c-9.989-.994-9.989-.994-15.985,3.769,3.2,3.744,5.877,9.106,11.693,6.7,2.184-.9,2.613-6.048,4.292-10.468M563.873,113.939c-.848-.557-2.013-1.885-3.324-2.056-1.79-.24-3.692.4-5.543.668,1.105,1.808,1.859,4.737,3.392,5.243,7.2,2.347,15.677-2.364,19.189-10.46-6.2-1.234-8.464,5.114-13.715,6.6M266.88,315.647c9.012-1.525,17.493-2.955,28.852-4.874-10-1.576-17.467-2.75-25.426-4-.977,2.519-2.279,5.885-3.427,8.875m615.909,30.771c5.851-5.859,10.537-10.554,15.874-15.891-7.976-1.885-12.156,3.538-17.339,6.425.488,3.144.891,5.714,1.465,9.466m144.663,28.749c3.881-11.642,3.255-13.115-5.594-15.077,1.071,3.452.934,6.485-3.5,8.369,2.981,2.193,5.663,4.172,9.1,6.708M580.21,351.1c1.036,5.517,2.073,11.068,3.11,16.593,5.808-1.251,5.808-1.251,5.243-7.658-.711-7.975-1.679-8.952-8.352-8.935m594.8-270.4c-.831.043-1.662.086-2.493.12a29.225,29.225,0,0,0-.471,4.112c.017,1.439.805,2.973.5,4.283-1.893,7.9-1.311,8.4,8.344,6.031-1.979-4.9-3.923-9.723-5.877-14.546M108.039,121.512c4.472,1.165,7.958,2.073,12.079,3.144.642-10.383-10.443-6.151-12.876-11.942.24,2.621.471,5.251.8,8.8m629.487,208.3c5.508,6.039,5.508,6.039,19.36,4.84-5.191-6.6-12.045-2.107-19.36-4.84M379.633,286.075c-.694-.831-1.388-1.662-2.082-2.5-2.176.437-4.352.857-6.519,1.311-3.332.694-5.1,3.212-3.332,5.791,1.054,1.533,5.106,2.45,6.913,1.645,2.167-.968,3.392-4.069,5.02-6.245m748.939-22.067c-.068,8.447,5.192,9.338,12.55,9.56-3.144-5.791-4.455-11.907-12.55-9.56m1.191-152.228c-6.725,3.35-4.909,10.023-8.207,16.251,11.334-2.621,4.686-11.685,8.207-16.251M86.22,218.014c-8.806-3.6-11.565-1.876-14.272,9.792q7.466-5.114,14.272-9.792M1043.926,393.7c1.148,10.751,1.148,10.751,9.92,10.451.463-7.067-6.1-6.631-9.92-10.451m148-78.2c-2.253,2.527-3.281,3.264-3.675,4.249a7.091,7.091,0,0,0-.017,3c5.14.128,3.289,10.674,11.488,7.307-2.5-4.669-4.78-8.918-7.8-14.555M564.841,175.147c-.7.78-1.4,1.559-2.1,2.33,2.09,2.75,4.172,5.491,7.35,9.663,3.144-2.519,5.071-4.061,8.841-7.076-7.136-2.493-10.614-3.7-14.092-4.917m-369.7,120.728c2.836-5.765,11.025-5.234,10.734-12.233-4.566,1.165-8.892,2.262-13.5,3.427.805,2.553,1.585,5.029,2.767,8.806m418.879-72.319c-7.624,4.806-4.532,8.883-2.553,13.527,9.466-3.315,4.96-7.924,2.553-13.527m470.706,5.688c-2.313-4.66-8.926-4.583-7.547-10.314.043-.188-2.656-1.645-3.641-1.294-.959.343-2.013,2.3-1.91,3.452.334,3.821,7.213,8.344,13.1,8.155M209.415,339.333c-7.119,12.49-6.468,14.717,1.362,16.011-.445-5.251-.9-10.631-1.362-16.011m850.093-176.608c-1.962-5.037-2.322-9.809-7.778-8.661-5.757,1.216-2.467,5.217-1.825,8.661ZM467.4,225.835c-.942.385-1.885.771-2.818,1.156,5.568,4.412-5.371,9.629,2.587,14.769,2-4.72,3.761-8.832,5.765-13.535-2.21-.959-3.872-1.67-5.534-2.39m-189.552,186c-3.033,3.881-5.44,6.965-7.856,10.049.334.711.668,1.413,1,2.124,3.238-.788,6.476-1.576,10.443-2.544-1.414-3.786-2.33-6.245-3.589-9.629m737.5-90.771c1.49-2.707,2.827-5.14,5.68-10.314-6.57,1.936-10.288,3.041-15.368,4.54,3.941,2.347,6.519,3.881,9.689,5.774M666.038,178.428c-5.363-2.5-8.995-2.433-11.059,1.808-.437.908,1.191,3.932,2.424,4.352,4.934,1.688,6.211-2.27,8.635-6.159m-654.321-.994c4.36-2.013,10.922,3.2,14.366-3.761-6.288-3.487-10.657-1.156-14.366,3.761m82.719-36.665c-4.8-3.538-8.789-6.485-13.818-10.194,3.932,10.468,4.129,10.605,13.818,10.194m505.444,7.718c-.017.857-.043,1.713-.06,2.57,2.433,1.079,4.789,2.6,7.333,3.041,1.311.231,2.955-1.448,4.446-2.262-.977-1.508-1.842-4.172-2.955-4.283-2.861-.3-5.834.548-8.763.934M105.1,153.216c13.509.129,13.509.129,12.362-6-4.172,2.022-8.267,4.009-12.362,6m53.018,242.416c.754.891,1.516,1.773,2.279,2.664,2.716-.848,5.431-1.7,10.52-3.281-3.555-2.57-5.988-5.371-7.119-4.926-2.27.908-3.829,3.589-5.68,5.543M631.464,49.544c1.336-4.575,2.21-7.59,3.332-11.436-9.989,4.772-9.989,4.772-3.332,11.436m162.13,242.964c-9.766-4.575-9.843-4.506-9.989,6.6l9.989-6.6M91.677,68.7c-1.679,4.78-.625,6.6,3.084,6.279,3.332-.283,6.648-.848,11.745-1.525-5.765-1.85-10-3.2-14.829-4.754M641.958,314.781c-10.537,3.178-10.537,3.178-7.624,9.106,2.536-3.024,4.96-5.928,7.624-9.106M80.609,62.608c-5.945,10.614-5.8,11.059,4.112,12.687-1.379-4.258-2.553-7.89-4.112-12.687m759.63,353.97c4.335.3,7.419.522,11.042.78-5.226-8.027-5.226-8.027-11.042-.78M525.744,42.425c-5.877,6.8-5.877,6.8,3.093,10.434-1.028-3.469-1.825-6.176-3.093-10.434M965.85,335.444c-6.536-2.244-6.536-2.244-12.884,8.849,4.8-3.3,8.121-5.577,12.884-8.849M448.285,411.72c2.09-2.262,3.624-3.915,6.082-6.562-4.429-.685-7.256-1.122-12.156-1.876,2.673,3.718,4.121,5.722,6.074,8.438m336.554-20.68c-1.079-.463-2.15-.925-3.23-1.388a74.053,74.053,0,0,0-3.632,9.6c-.171.685,2.356,2.03,4.617,3.863.917-4.951,1.576-8.515,2.244-12.079m260.483-199.249c-5.7-.086-9.183.257-7.616,5.44.531,1.773,2.51,3.11,5.1,6.108,1.045-4.789,1.653-7.564,2.519-11.548M953.274,352.646q-2.724,6.232-5.44,12.473c6.733-2.356,6.476-7.3,5.44-12.473M352.006,389.439c-1.276-5.251-3.315-7.007-6.725-5.054-1.088.617-1.122,3.067-1.636,4.686,2.553.111,5.114.223,8.361.368m333.873-78.067c-2.065,4.086-6.528,6.374-5.14,12.1,7.5-7.5,7.5-7.5,5.14-12.1M109.966,270.938v7.53c2.9-.505,5.4-.942,9.226-1.611-3.872-2.484-6.254-4.018-9.226-5.919M64.735,169.878c-2.836-5.585-5.56-6.493-8.507-2.467-.882,1.2-.411,3.4-.66,6.279,3.555-1.482,5.928-2.467,9.166-3.812M176.314,219.59c.762-.368,1.533-.737,2.3-1.105a65.418,65.418,0,0,0-3.23-7.581c-.223-.394-2.433.317-4.891.7l5.825,7.984M616.267,111.3c-.925-.4-1.85-.805-2.767-1.216q-2.287,5.076-4.566,10.151c.711.334,1.431.677,2.15,1.011,2.244-3.033,6.742-4.866,5.183-9.946M23.59,99.444c3.358-1.156,4.7-1.525,5.962-2.082,1.413-.625,2.75-1.431,4.969-2.613-5.868-4.3-7.941-1.542-10.931,4.694M371.914,402.863c3.435-3.427,3.547-6.082.094-7.924-1.268-.677-3.435.334-7.941.942l7.847,6.982M790.793,376.5c-4.4,3.769-5.688,7.324,1.054,12.053-.454-5.191-.754-8.618-1.054-12.053M1218.949,83.271c1.259,5.705,3.564,8.181,8.952,5.148-.206-5.688-3.247-6.613-8.952-5.148M745.4,367.474c-9.988-1.131-9.988-1.131-8.995,6.8,3.016-2.279,5.457-4.129,8.995-6.8m-368.6-7.342c1.91-1.628,3.221-2.741,4.523-3.846-1.422-1.3-2.681-3.2-4.343-3.667-.874-.248-3.281,1.885-3.469,3.161-.154,1.114,1.825,2.536,3.29,4.352m-60.72-11.042c.882-3.212,1.765-6.416,3.11-11.325-4.215,3.846-7.753,6.039-3.11,11.325M53.359,29.156c3.384-2.167,5.894-3.778,9.063-5.8-6.382-1.919-6.382-1.919-9.063,5.8M1196.933,367.2l-4.266-.668a51.662,51.662,0,0,0-.085,6.511c.017.291,2.93.668,2.955.565.608-2.1.977-4.258,1.4-6.408M302.414,383.982c-3.092,6.048-4.917,10.134,3.2,12.053-1.071-4.035-1.893-7.153-3.2-12.053M257.388,306.72c-2.03-5.363-4.575-6.288-8.2-4.737-.471.206-.574,1.259-1.1,2.519,2.724.651,5.337,1.276,9.295,2.219m198.2-142.8c-1.105,7.376-1.105,7.376,6.451,4.772-2.373-1.748-4.275-3.152-6.451-4.772m213.881,14.623c7.8,2.544,7.933-2.964,9.449-6.639-2.818,1.979-5.637,3.958-9.449,6.639m293.644,99.809c-.583.308-1.165.617-1.748.934.728,2.013,1,4.48,2.373,5.868.737.754,3.349-.351,6.862-.882-3.572-2.818-5.534-4.369-7.487-5.919M623.762,226.957c1.148.223,2.3.437,3.444.66q.218-3.264.437-6.536c-1.036.009-2.887-.206-2.955.069a43.415,43.415,0,0,0-.925,5.808m41.668,28.775c.42-4.634-.523-7.984-6.665-5.354l6.665,5.354m427.248-2.3c-6.8-3.684-6.8-3.684-7.89,3.41,2.407-1.037,4.343-1.876,7.89-3.41M901.935,426.121c7.89.874,7.89.874,5.842-8.113-2.219,3.075-3.427,4.754-5.842,8.113m127.813-136.594c-2.836,2.476-4.515,3.949-6.836,5.979,5.723,2.8,7.427,1.388,6.836-5.979M63.4,140.624l-7.864,4.814c4.652,2.784,7.153,2.15,7.864-4.814M786.09,306.412c.223,1.216.445,2.424.668,3.641q4.1-.771,8.181-1.542c-.188-1.079-.385-2.167-.583-3.255l-8.267,1.156M51.782,82.037c-3.512,6.656.565,7.71,4.737,8.712-1.4-2.57-2.8-5.148-4.737-8.712M565.827,80.9c-2.947-6.057-5.688-6.922-11.633-3.178,4.523,1.234,7.3,2,11.633,3.178m-429.4,328.279c4.155-7.616,1.336-9.089-4.515-10.657,1.6,3.769,2.63,6.194,4.515,10.657m1046.592-82.95c-.5-1.079-.985-2.159-1.482-3.247q-3.585,1.773-7.17,3.538c.3.7.6,1.414.908,2.116q3.868-1.208,7.744-2.407m-94.249,40.426c-3.53,2.8-5.783,4.583-9.578,7.59,7.119,1.234,10.494.874,9.578-7.59M695.113,348.182c0-6.6-1.413-8.652-5.971-6.468-.505.248-.634,1.276-1.148,2.4,1.825,1.045,3.667,2.1,7.119,4.069M1213.269,78.208l2.647-.488c-.437-2.176-.882-4.36-1.319-6.545-.805.154-1.611.3-2.424.445.368,2.193.728,4.386,1.1,6.588m-67.436,2.955c-.266-.925-.523-1.859-.788-2.784-2.064.78-4.129,1.551-6.193,2.33.189.634.385,1.268.574,1.9q3.212-.72,6.408-1.448M657.026,80.041c-.908-.146-1.816-.3-2.724-.445-.471,1.859-.951,3.709-1.422,5.568a27.853,27.853,0,0,0,2.844.574c.557-1.868.908-3.786,1.3-5.7m-117.208,61.7c.6-5.465-.822-8.387-6.913-6.014l6.913,6.014m178.621,21,2.519.745,2.185-6.348a18.452,18.452,0,0,0-2.956-.608c-.72,2.022-1.208,4.129-1.748,6.211M308.513,408.971c-1.122,1.679-2.484,2.827-2.484,3.966.009.917,1.739,2.6,2.587,2.527,1.037-.086,2.758-1.679,2.716-2.561-.043-1.148-1.516-2.244-2.818-3.932m422.271,3.469c1.165.214,2.339.42,3.5.634q.3-3.508.591-7c-.745-.154-1.491-.3-2.236-.454-.617,2.279-1.242,4.549-1.859,6.819m-332.442-9.749c-.608-.625-1.208-1.251-1.808-1.876-1.139.7-2.7,1.148-3.315,2.167-.737,1.216-.668,2.921-1.448,7.085,3.452-3.872,5.011-5.628,6.57-7.376M513.425,221.869c-4.532-4.2-5.885.308-8.524,1.73.334.2.677.394,1.473.865,2.142-.788,4.592-1.688,7.05-2.6m-16.679,170.56c-3.144,2.33-7.4,4.412-2.57,9.963,1.062-4.112,1.816-7.042,2.57-9.963m30.865,5.714c1-.377,2-.754,3.015-1.131-.8-1.662-1.525-3.358-2.459-4.934-.1-.171-1.319.3-2.013.48.48,1.859.968,3.726,1.456,5.585M579.148,232.68c2.116-4.4,3.4-5.868,3.067-6.69a4.592,4.592,0,0,0-3.289-2.339c-.66-.069-2.142,1.859-2.167,2.9-.043,1.371.994,2.776,2.39,6.125m-40.134-1.319h10.109c-3.778-5.44-6.356-4.575-10.109,0M800.259,357.186c-.214.968-.428,1.936-.643,2.9a53.8,53.8,0,0,0,5.594.488c.317-.009.617-1.3.925-2q-2.93-.681-5.877-1.379m363.419-25.091c-5,3.692-4.772,6.082,0,9.192Zm-835.958-8.31c-.7.951-1.414,1.91-2.125,2.861l6.631,4.549c.463-.617.925-1.234,1.379-1.85q-2.943-2.776-5.885-5.56m521.386-12.019c.368-.583.737-1.157,1.105-1.73l-4.369-3.649-2.03,3.341q2.647,1.015,5.294,2.039M259.4,285.689q-1.426-1.439-2.836-2.878c-2.459,1.045-6.065,1.234-1.756,7.847q2.287-2.493,4.592-4.969m698.585,20.4c.274,1.062.548,2.116.823,3.178,2.081-.694,4.172-1.4,6.253-2.09-.24-.788-.471-1.585-.711-2.373q-3.174.642-6.365,1.285m-410.749-4.095c-.317-.891-.634-1.782-.959-2.673-1.611.368-3.4.42-4.754,1.216-.865.5-1.079,2.1-2.536,5.286,4.163-1.928,6.2-2.878,8.25-3.829m45.831-6.314c6.836.4,7.65-1.979,6.245-7.41-2.219,2.639-3.752,4.455-6.245,7.41M345.761,290.47c-.84-.848-1.679-1.7-2.519-2.561-1.628,1.439-3.264,2.87-4.891,4.3.968.977,1.927,1.953,2.9,2.938,1.508-1.559,3.007-3.118,4.515-4.677m181.748,1.953-1.756,1.422q2.069,2.647,4.138,5.277c.617-.505,1.242-1.011,1.867-1.516-1.413-1.73-2.836-3.461-4.249-5.183m529.678,7.282c2.022,1.542,3,2.87,4.044,2.921,1.113.06,2.3-1.088,3.452-1.7-.857-1.037-1.542-2.63-2.613-2.955-.977-.3-2.373.771-4.883,1.739M165.075,311c.034-.951.06-1.9.094-2.853a32.875,32.875,0,0,0-4.849-.188c-.231.017-.308,1.756-.463,2.707l5.217.334m366.8-30.428c.608-.343,1.208-.694,1.807-1.037-.84-1.7-1.679-3.4-2.519-5.106a13.615,13.615,0,0,0-2.116,1.593,52.1,52.1,0,0,0,2.827,4.549m8.481-26.856c-.668.694-1.328,1.388-2,2.09q2.814,2.686,5.628,5.38l2.022-2.125-5.654-5.346m615.866,4.5c.557.668,1.114,1.345,1.67,2.013,1.962-1.182,3.932-2.364,5.894-3.555-.334-.583-.668-1.174-.994-1.765-2.193,1.105-4.386,2.2-6.571,3.307M868.26,325.4l.051-1.748c-2.27-.154-4.532-.3-6.8-.446-.017.728-.043,1.465-.06,2.193Zm254.795-4.42c-.514.9-1.028,1.79-1.542,2.69q3.033,1.246,6.065,2.5c.326-.754.66-1.516.985-2.27-1.833-.977-3.667-1.945-5.508-2.921M548.043,335.667c.848.608,1.7,1.208,2.561,1.808a53.07,53.07,0,0,0,2.527-5.029,15.7,15.7,0,0,0-2.45-1.5c-.882,1.576-1.756,3.152-2.638,4.72M660.436,244.09c1-1.413,2.159-2.407,1.979-2.93a15.765,15.765,0,0,0-2.347-3.5c-.925.959-2.613,1.953-2.579,2.87.043,1.062,1.611,2.065,2.947,3.564M212.191,370.627c-.737-.206-1.473-.4-2.21-.608-.5,1.919-.994,3.829-1.491,5.748.685.163,1.371.334,2.056.5.548-1.876,1.1-3.761,1.645-5.637M307,374.139c-.7-.1-1.414-.2-2.124-.3-.248,1.748-.523,3.5-.651,5.26a15.006,15.006,0,0,0,1.97.394q.411-2.686.805-5.354m34.523,33.684c-.231.925-.471,1.85-.711,2.776l6.159.771.308-1.85-5.757-1.7m784.027,1.6.463,1.765c1.859-.437,3.727-.865,5.594-1.3-.2-.694-.385-1.379-.574-2.064-1.833.531-3.658,1.071-5.483,1.6m-740.21,3.932c-1.079.129-2.159.266-3.238.4.54,2.065,1.079,4.138,1.619,6.2l2.27-.437c-.214-2.056-.437-4.112-.651-6.168m310.94-313.022-1.4,1.713c1.491,1.508,2.973,3.024,4.463,4.532.4-.411.814-.822,1.216-1.242-1.422-1.67-2.853-3.332-4.275-5m435.84-.146c.531-.857,1.062-1.713,1.6-2.561-1.662-1.114-3.324-2.236-4.986-3.35-.488.934-1.551,2.544-1.379,2.69a45.487,45.487,0,0,0,4.763,3.221" transform="translate(0.002 0.002)" fill="#084675"/>
      </g>
    </g>
  </g>
</svg>
