<svg xmlns="http://www.w3.org/2000/svg" xmlns:xlink="http://www.w3.org/1999/xlink" width="1774.992" height="1965.206" viewBox="0 0 1774.992 1965.206">
  <defs>
    <clipPath id="clip-path">
      <rect id="Rectángulo_658" data-name="Rectángulo 658" width="1774.992" height="1822.283" fill="#fff" stroke="#707070" stroke-width="1"/>
    </clipPath>
    <clipPath id="clip-path-2">
      <rect id="Rectángulo_642" data-name="Rectángulo 642" width="1129.557" height="2816.869" fill="none"/>
    </clipPath>
    <clipPath id="clip-path-4">
      <rect id="Rectángulo_640" data-name="Rectángulo 640" width="758.045" height="741.24" fill="none"/>
    </clipPath>
    <clipPath id="clip-path-5">
      <rect id="Rectángulo_649" data-name="Rectángulo 649" width="1437.175" height="494.878" fill="#084675"/>
    </clipPath>
  </defs>
  <g id="Grupo_680" data-name="Grupo 680" transform="translate(-2949.508 -4494.793)">
    <g id="Enmascarar_grupo_2" data-name="Enmascarar grupo 2" transform="translate(2949.508 4494.793)" clip-path="url(#clip-path)">
      <g id="Grupo_550" data-name="Grupo 550" transform="translate(310.547 123.797)">
        <g id="Grupo_549" data-name="Grupo 549" clip-path="url(#clip-path-2)">
          <g id="Grupo_548" data-name="Grupo 548">
            <g id="Grupo_547" data-name="Grupo 547" clip-path="url(#clip-path-2)">
              <path id="Trazado_973" data-name="Trazado 973" d="M418.8,193.013c0,99.66-75.829,180.454-169.373,180.454S80.059,292.673,80.059,193.013,155.888,12.559,249.427,12.559,418.8,93.352,418.8,193.013" transform="translate(326.313 51.189)" fill="#4d2237"/>
              <path id="Trazado_974" data-name="Trazado 974" d="M477.371,549.639c-.02.071-.02.142-.041.193-1.051,6.218-2.208,12.8-3.381,19.679q-.6,3.441-1.259,7.04c-2.766,15.583-5.9,32.658-9.335,51.023-7.248,38.577-15.827,82.788-25.212,130.557v.035c-1.995,10.066-3.939,21.623-5.847,34.562v.02c-4.609,31.166-9.035,70.337-13.273,115.827-.157,1.736-.335,3.452-.472,5.218-15.289,165.713-28.171,412.625-38.7,662.142H38.949c-4.512-437.137-6.827-893.273.269-1034.125.558-10.751,1.152-19.664,1.8-26.583.117-1.523.274-2.954.437-4.289.142-1.4.3-2.782.452-4.167q.868-7.644,1.741-14.933c3.254-27.527,6.492-51.637,9.68-72.6,7.264-47.7,14.309-79.027,20.979-96.711a79.571,79.571,0,0,1,3.624-8.37,33.162,33.162,0,0,1,4.152-6.512l.218-.264c2.391-2.609,4.66-3.431,6.888-2.645.142.056.264.091.4.142h.025c.838.315,1.68.594,2.538.878,52.911,18.014,126.421,24.5,197.874,42.653.883.208,1.777.457,2.65.68,15.091,3.888,30.06,8.319,44.719,13.487,3.558,1.259,7.055,2.538,10.573,3.883.579.228,1.178.457,1.771.685q14.68,5.7,28.75,12.588c36.577,18,69.555,42.673,94.975,78.062,4.254,5.919,8.3,12.116,12.116,18.649,2.31,3.974-1.035,30.623-8.208,73.19" transform="translate(141.423 1240.933)" fill="#7ec0ce"/>
              <path id="Trazado_975" data-name="Trazado 975" d="M553.309,1410.792c-.193,132.167-.436,281.474-.716,431.168H231.055c-15.639-238.207-33.724-478.358-52.48-657.818-.137-1.436-.294-2.853-.452-4.289v-.035q-6.281-60.149-12.8-121.045v-.021c-.071-.665-.142-1.314-.208-1.979-.472-4.518-.964-9.035-1.436-13.533v-.02q-.921-8.642-1.873-17.314c-.949-8.72-.736-18-3.416-30.75-7.528-35.739-24.567-55.175-42.445-94.519-2.817-6.162-5.639-12.8-8.441-20.065a101.319,101.319,0,0,1-6.2-21.943c-.279-1.924-.543-4.5-.7-7.634-.437-7.863-.508-19.156-.279-32.425.015-1.051.051-2.1.071-3.172.036-1.979.071-4.025.107-6.076.122-3.609.208-7.335.33-11.152v-.122c.822-25.481,2.279-54.617,3.837-79.793,1.345-21.73,2.746-40.536,3.868-51.515.487-5.081,1.472-12.172,2.974-20.979.213-1.208.442-2.452.665-3.731.213-1.086.406-2.223.614-3.36.315-1.767.685-3.609,1.051-5.5a825.649,825.649,0,0,1,28.963-107.2c1.665-4.868,3.431-9.837,5.233-14.847.056-.178.142-.335.193-.508,1.107-3.03,2.223-6.061,3.381-9.121.909-2.416,1.858-4.853,2.8-7.3.68-1.751,1.381-3.5,2.066-5.254,8.228-20.766,17.72-42.074,28.557-63.246a5.3,5.3,0,0,1,.249-.472q5.962-11.687,12.537-23.273a541.888,541.888,0,0,1,42.5-64.383q5.6-7.2,11.451-14.2,10.4-12.418,21.73-24.04c7.705-7.863,15.725-15.41,24.075-22.552A333.539,333.539,0,0,1,337.5,247.2c2.7-1.721,5.431-3.381,8.2-5.01.858-.492,1.7-.98,2.553-1.472.65-.386,1.315-.772,1.98-1.137,2.33-1.33,7.5.772,14.69,5.36,4.152,2.639,8.984,6.126,14.344,10.258,3.152,2.436,6.477,5.076,9.944,7.934,2.436,1.995,4.954,4.076,7.528,6.269,6.583,5.533,13.573,11.609,20.806,18.014.68.614,1.365,1.229,2.066,1.858,3.675,3.238,7.406,6.6,11.167,10,27.968,25.248,57.683,53.332,79.671,73.281v.015c2.98,2.7,5.817,5.254,8.492,7.634,1.015.893,2.594,11.766,4.482,28.684,1.386,12.34,2.929,27.907,4.518,45.12.32,3.294.614,6.639.929,10.05.563,6.233,1.142,12.644,1.7,19.141.807,9.208,1.629,18.613,2.431,28.034.807,9.594,1.614,19.187,2.4,28.608,1.365,16.7,2.68,32.816,3.817,47.175.437,5.426.843,10.609,1.228,15.477,1.208,15.426,2.167,27.806,2.731,35.212,0,.091.015.157.015.264v.015c.371,4.68.543,7.289.543,7.319.036.685.051,1.386.107,2.066,0,.056.173,5.289.472,14.344v.35c.33,10.344.822,25.562,1.416,43.754,1.492,46.089,3.574,111.122,5.254,163.546,1.472,46.176,2.629,82.56,2.751,87.636.015.665.035,4.467.015,11.121.071,44.8-.122,219.279-.436,442.67" transform="translate(408.397 974.91)" fill="#7ec0ce"/>
              <path id="Trazado_976" data-name="Trazado 976" d="M481.2,405.943c-3.832,36.323-53.378,104.96-125.756,142.085-22.547,11.578-68.124,34.11-126.745,24.8-74.839-11.883-115-65.987-131.156-87.737-11.2-15.07-24.994-33.42-31.938-51.241,19.557-31.11,44.988-57.287,78.925-79.758l.015-.02c13.832-5.208,21.293-10.472,31.08-16.938a67.318,67.318,0,0,0,5.705-4.274,74.729,74.729,0,0,0,17.339-21.689,162.742,162.742,0,0,0,8.431-18.355c2.386-5.837,6.279-16.6,8.243-36.267a271.891,271.891,0,0,0,1.239-30.273c-.1-9.675-.589-21.2-1.964-34.3a376.653,376.653,0,0,0-7.573-45.231c-1.086-4.746-2.289-9.593-3.644-14.553,20.182-10.324,38.343-19.156,54.673-26.633,96.092-44.069,129-41.815,139.664-28.923,6.791,8.208,5.208,21.446.5,39.166-8.68,32.623-27.984,80.412-25.618,139.816.228,5.248.589,10.588,1.162,16.009,1.639,15.6,4.523,28.765,9.5,40.267a83.725,83.725,0,0,0,11.791,19.649c.117.137.228.289.345.421,17.111,21.045,44.257,34.3,55.322,39.282a277.883,277.883,0,0,1,30.466,34.7" transform="translate(267.383 279.193)" fill="#efbac4"/>
              <path id="Trazado_977" data-name="Trazado 977" d="M171.941,162.841a277.88,277.88,0,0,0-30.466-34.7c1.238.568,2.289,1.03,3.091,1.37,19.228,8.431,20.471,11.025,24.075,15.989,3.03,4.157,4.061,10.111,3.3,17.339" transform="translate(576.639 522.295)" fill="#fc7980"/>
              <path id="Trazado_978" data-name="Trazado 978" d="M259.042,228.994c-43.445-2.5-81.93-7.228-110.98-25.121-38.44-23.674-39.927-32.12-47.028-38.531a375.644,375.644,0,0,0-7.568-45.226C117.612,89.341,194.944,62.581,262.1,81.159a171.371,171.371,0,0,1,22.547,8.02c-8.67,32.608-27.983,80.392-25.608,139.816" transform="translate(380.959 305.823)" fill="#4d2237"/>
              <path id="Trazado_979" data-name="Trazado 979" d="M810.775,688.878c-51.317-11.294-138.156-26.9-298.9-50.881-9.725-1.467-23.689-1.142-41.739-2.629-1.508-.132-3.051-.269-4.634-.421a280.841,280.841,0,0,1-28.9-4.233c-3.837-.766-7.746-1.528-11.695-2.289-21.674-4.081-44.643-7.842-64.291-10.873-12.609-1.949-23.862-3.609-32.526-4.868-2.152-.3-4.157-.609-5.99-.878-9.9-1.447-31.42-5.934-55.094-10.928-3.243-.67-6.523-1.355-9.807-2.041C229,592.9,167.384,572.7,71.043,575.35c-3.832.117-22.74-.553-34.582,2.02,10.68-90.138,21.06-143.836,30.653-169.307a81.419,81.419,0,0,1,3.624-8.375c61.962,9.634,133.045,17.781,198.615,36.628,4.04,1.162,8.03,2.35,12.035,3.609.228-1.015.477-2.046.741-3.112.233-.934.462-1.888.711-2.863q1.2-4.8,2.65-10.167a638.888,638.888,0,0,1,33.212-91.59q3.091-6.807,6.411-13.791c.056-.173.152-.3.208-.457q31.506-3.381,60.647-6.411,15.487-1.606,30.293-3.091c186.976-18.923,298.215-25.887,372.384-24.877.878.02,1.736.02,2.6.04.3,2.919.589,5.893.873,8.929.553,6.045,1.106,12.339,1.66,18.943,3.188,37.963,6.147,85.006,8.852,139.263.02.34.041.721.061,1.086.015.65.036,1.279.091,1.909.02.34.041.706.061,1.066.035.8.076,1.6.112,2.406,0,.091.02.167.02.264v.02q.571,11.649,1.127,23.73v.345c1.183,36.592,4.33,134.207,6.675,207.31" transform="translate(148.612 1155.402)" fill="#efe6da"/>
              <path id="Trazado_980" data-name="Trazado 980" d="M850.1,1183.16c-.345,7.7-40.521,7.152-60.8,7.02-21.06-.152-56.83,3.741-93.077,8.355-54.18,6.867-109.426,15.375-118.218,14.441-5.893-.629-37.775-3.452-44.394-5.457-8.832-2.705-62.555-2.5-92.864-3.3-17.192-.477-26.6-2.365-51.835-6.827-2.538-.441-5.228-.919-8.127-1.431-64.708-11.274-97.061-16.9-115.284-16.274-40.5,1.411-182.758-6.675-183.636-14.649-.949-8.852.634-30.029,2.1-54.622.5-8.451.99-17.3,1.37-26.212.173-4.426.325-8.868.442-13.273.188-7.883,1.239-20.492,2.69-36.877,6.274-70.474,19.994-210.782,5.091-345.258a284.375,284.375,0,0,1-1.01-43.363c2.386-55.129,14.9-112.056-2.345-149.125C64.2,440.453,16.4,315.154,29.216,276.049c9.675-29.572,86.534-49.318,178.2-95.138,23.715-11.847,47.368-23.217,66.829-32.166.837-.381,1.64-.761,2.457-1.127,24.171-11.06,41.3-18.121,42.983-17.263,7.67,3.949,78.519,188.768,107.1,192.448,20.908,2.711,71.56-63.22,125.72-200.671,1.68-4.289,23.654,4.482,52.8,18.466q7.294,3.495,15.111,7.365c41.318,20.527,88.1,49.886,107.533,60.129,41.5,21.862,73.905,29.78,84.666,41.247,34.587,36.912-8.984,144.567-11.9,268.358,0,.609.878,12.949,2.117,30.313,3.106,43.13,8.507,117.436,8.507,119.02q-.053,2.2-.056,4.523c0,1.508.02,3.106.035,4.842.919,62.251,20.74,234.04,31.785,365.516,1.279,15.091,2.421,29.648,3.411,43.419,1.188,16.481,2.157,31.877,2.827,45.8,1.031,21.192,1.355,38.973.761,52.023" transform="translate(110.351 493.341)" fill="#7ec0ce"/>
              <path id="Trazado_981" data-name="Trazado 981" d="M404.863,140.6c-25.248,63.22-158.647,262.876-178.54,259.059C200.695,394.745,107.11,223.59,76.254,147.619c24.166-11.066,41.3-18.121,42.973-17.263,7.685,3.949,78.54,188.768,107.1,192.448,20.923,2.71,71.56-63.22,125.715-200.671,1.7-4.294,23.659,4.482,52.82,18.466" transform="translate(310.804 493.336)" fill="#95e8f0"/>
              <path id="Trazado_982" data-name="Trazado 982" d="M305.954,482.145c-58.774,10.568-149.755,9.538-170.738-10.492,0,0-24.8-267.556-3.817-270.9,12.02-1.9,77.337.782,166,9.543,4.6,92.732,4.244,176.022,8.553,271.845" transform="translate(501.207 815.902)" fill="#95e8f0"/>
              <g id="Grupo_546" data-name="Grupo 546" transform="translate(198.824 837.433)" opacity="0.3" style="mix-blend-mode: multiply;isolation: isolate">
                <g id="Grupo_545" data-name="Grupo 545">
                  <g id="Grupo_544" data-name="Grupo 544" clip-path="url(#clip-path-4)">
                    <path id="Trazado_983" data-name="Trazado 983" d="M797.216,906.224C759.157,902.158,625.1,851.8,547.1,818.68c-1.142-.477-2.249-.974-3.355-1.452a197.546,197.546,0,0,0-82.869-16.938c-52.8.975-123.411,8.583-218.6,31.973-35.81,8.8-167,29.664-203.1,22.684,6.279-70.474,19.994-210.782,5.1-345.258a284.379,284.379,0,0,1-1.01-43.364C88.543,291.943,38.18,289.044,97.2,432.657c17.9,43.531,13.319,165.378,33.577,193.458,32.8,45.48,92.3,64.4,159.216,71.824,86.326-64.977,208.437-149.161,256.47-186.266,97.3-75.164,50.272-301.874,106.833-346.06,18.41-14.38,89.432,221.6,100.229,203.285,3.112,43.135,8.512,117.441,8.512,119.025q-.061,2.2-.061,4.517c0,1.507.02,3.112.041,4.848.913,62.251,20.735,234.035,31.78,365.516,1.279,15.091,2.426,29.643,3.416,43.419" transform="translate(-39.171 -164.984)" fill="#67ccdf"/>
                  </g>
                </g>
              </g>
              <path id="Trazado_984" data-name="Trazado 984" d="M285.968,241.026c-10.766-14.746-39.43-10.411-54.424-10.685-41.034-.741-71.129,22.045-91.407,37.394-27.253,20.634-41,40.785-68.261,80.722-20.958,30.719-31.359,46.313-27.3,57.576,8.974,24.892,66.7,31.44,109.807,18.994,43.216-12.482,67.682-42.881,84.285-63.51,6.9-8.573,71.352-87.539,47.3-120.492" transform="translate(178.153 937.255)" fill="#efbac4"/>
              <path id="Trazado_985" data-name="Trazado 985" d="M84.344,204.368c5.274,45.622-4.761,41.186,7.776,88.615,13.69,51.784,64.007,106.4,130.578,108.234,51.089,1.411,92.635-34.912,108.32-52.5,35.019-39.257,43-99.5,47.429-126.278,3.294-19.943,22.72-74.3-8.786-129.862C349.3,56.664,312.633,50.187,296.893,39.716,271.9,23.092,234.266,20.173,187.533,25.087,121.495,32.036,73.878,113.834,84.344,204.368" transform="translate(337.89 93.461)" fill="#efbac4"/>
              <path id="Trazado_986" data-name="Trazado 986" d="M418.4,671.178C379.257,704.7,301.819,691.908,294.89,687.37c-28.4-18.679-57.667-88.844-80.732-168.886q-2.916-10.2-5.721-20.547c-6.127-22.644-11.715-45.81-16.619-68.545-7.705-35.709-13.756-70.428-17.532-100.686-5.609-44.983-6.238-80.093.061-93.919,27.887-61.292,128.441-50.13,183.291,6.122,16.177,16.6,30.562-9.69,50.246,103.442,1.107,6.289,2.213,13,3.34,20.2q2.688,17.063,4.959,33.141c25.638,180.636,19.156,258.973,2.218,273.49" transform="translate(692.288 788.82)" fill="#efbac4"/>
              <path id="Trazado_987" data-name="Trazado 987" d="M491.3,619.189c-5.091,21.2-97.853,35.272-151.516,36.572-62.626,1.487-124.421-3.035-138.613-11.446-5.589-3.32-11.771-27.374-17.7-62.708C164.7,470.028,148.342,246.155,160.92,209.928c18.162-52.383,16.172-77.281,79.433-64.439,79.194,16.08,132.74,77.144,158.724,145.516,28.78,75.773,63.794,189.722,81.4,262.1,8.2,33.826,12.634,58.546,10.822,66.083" transform="translate(637.86 579.431)" fill="#7ec0ce"/>
              <path id="Trazado_988" data-name="Trazado 988" d="M460.463,339.752c-9.233,22.38-113.716,23.715-171.693-36.247-2.005-2.081-135.242-36.354-137.039-38.47-6.122-22.644,135.451-35.161,221.614-1.909,63.124,24.359,94.422,58.886,87.118,76.626" transform="translate(617.659 989.547)" fill="#4d2237"/>
              <path id="Trazado_989" data-name="Trazado 989" d="M339.541,577.617c-.249.02-.477.041-.706.041a6.69,6.69,0,0,1-6.639-5.974c-.284-2.69-.629-6.6-1.051-11.6-2.919-34.359-9.766-114.807-34.6-199.356C278.533,299.416,254.971,249.185,226.11,210.5a278.242,278.242,0,0,0-30.466-34.7A227.1,227.1,0,0,0,156.4,145.428c-5.34-3.264-10.72-6.223-16.08-8.908-.117-.137-.228-.289-.345-.421a83.829,83.829,0,0,1-11.791-19.649,234.159,234.159,0,0,1,35.161,17.568c65.073,39.6,114.193,114.614,146.014,222.934C334.582,442.8,341.505,524.2,344.464,558.957c.4,4.868.726,8.68,1.01,11.294a6.685,6.685,0,0,1-5.934,7.365" transform="translate(522.47 474.639)" fill="#007382"/>
              <path id="Trazado_990" data-name="Trazado 990" d="M220.624,244.04a30.032,30.032,0,1,1-13.355-40.318,30.032,30.032,0,0,1,13.355,40.318" transform="translate(667.421 817.297)" fill="#007382"/>
              <path id="Trazado_991" data-name="Trazado 991" d="M469.637,289.2c-5.091,21.2-97.853,35.272-151.516,36.572C255.5,327.262,193.7,322.74,179.509,314.329c-5.589-3.32-11.771-27.374-17.7-62.708,72.936,5.4,167.287,25.237,261.561-10.111,13.284-4.979,24.76-12.857,35.445-18.39,8.2,33.826,12.634,58.546,10.822,66.083" transform="translate(659.518 909.416)" fill="#95e8f0"/>
              <path id="Trazado_992" data-name="Trazado 992" d="M202.375,222.315a18.167,18.167,0,1,1-16.832-19.41,18.168,18.168,0,0,1,16.832,19.41" transform="translate(676.954 826.829)" fill="#028e99"/>
              <path id="Trazado_993" data-name="Trazado 993" d="M242.663,453.54c-5.035,26.44-11.045,53.053-17.953,78.463-19.933,73.525-47.216,136.994-79.7,156.754-7.076,4.314-80.6,28.273-119.213-5.853C8.09,667.241-17.6,568.134,17.44,365.92,41.018,229.9,35.714,255.768,53.058,238.525c55.723-55.383,175.565-60.018,202.483,1.716,11,25.258,5.34,118.05-12.878,213.3" transform="translate(0.001 796.665)" fill="#efbac4"/>
              <path id="Trazado_994" data-name="Trazado 994" d="M280.706,591.519c-6.314,25.105-13.01,43.4-19.781,50.8-5.193,5.685-10.969,18.867-141.973,8.05-66.52-5.472-110.8-30.1-116.827-40.516-3.7-6.431-2.233-28.121,2.766-58.337.761-4.7,1.64-9.6,2.573-14.669C20.55,466.469,48.884,361.469,76.37,289.127c25.963-68.367,79.514-129.436,158.7-145.516,63.276-12.842,61.276,12.055,79.438,64.439,13.431,38.729-6.543,274.942-33.806,383.47" transform="translate(0.225 571.772)" fill="#7ec0ce"/>
              <path id="Trazado_995" data-name="Trazado 995" d="M198.49,247.063c-5.035,26.44-11.045,53.053-17.953,78.463a291.045,291.045,0,0,1-28.577,21.938c-52.079,35.085-127.167,44.262-138,23.522-12.248-23.466,10.8-76.935,82.169-106.315,10.208-4.2,74.266-22.943,102.361-17.608" transform="translate(44.174 1003.143)" fill="#4d2237"/>
              <path id="Trazado_996" data-name="Trazado 996" d="M280.706,261.3c-6.314,25.105-13.01,43.4-19.781,50.8-5.193,5.685-10.969,18.867-141.973,8.05-66.52-5.472-110.8-30.1-116.827-40.516-3.7-6.431-2.233-28.121,2.766-58.337,14.289,6.563,31.151,12.7,44.277,18.1,81.935,33.785,176.824,28.9,231.537,21.9" transform="translate(0.225 901.99)" fill="#95e8f0"/>
              <path id="Trazado_997" data-name="Trazado 997" d="M166.589,263.461c-1.178-5.284-3.553-11.172-8.583-15.263-17.329-14.075-52.551,4.3-68.677,15.74-18.238,12.933-38.506,35.745-33.861,42.445,3.99,5.761,27.445,1.127,111.122-42.922" transform="translate(223.337 990.882)" fill="#4d2237"/>
              <path id="Trazado_998" data-name="Trazado 998" d="M236.348,293.69c-5.355-32.481-64.7-48.632-121.142-33.871C73.2,270.8,52.935,302.766,57.975,332.8c5.3,31.572,27.887,47.262,76.311,40.059,52.13-7.756,107.157-48.242,102.061-79.169" transform="translate(233.219 1036.563)" fill="#ed6471"/>
              <path id="Trazado_999" data-name="Trazado 999" d="M394.873,336.361c10.741-6.751,59.139-16.5,93.894-22.623,12.137-2.137,12.477,11.461,7.061,14.06C457.1,346.34,355.27,365.913,321.445,397.084c-26.537,24.456-111.771,66.54-133.4,41.338-14.476-16.9-86-87.143-69.575-91.742q7.789-2.17,15.852-4.766c31.156-9.9,64.824-23.791,93.387-36.475,36.247-16.141,64.19-30.354,68.2-32.125,52.4-23.141,121.385-50.632,172.7-55.231,20.639-1.832,20.735,3.548,22.166,8.091,1.888,5.99-70.185,28.75-81.174,32.526-35.521,12.248-66.063,26.552-49.333,22.928,34.207-7.4,92.737-39.354,135.755-36.359,4.289.284,9.157,3.985,10.167,6.543,2.766,6.868-30.466,15.187-71.748,31.821-36.572,14.745-68.1,31.856-55.018,28.2,38.724-18.542,86-31.156,118.659-37.582,1.827-.366,12.568.436,14.918,4.995,4.979,9.654-28.1,13.72-61.144,27.415-21.212,8.8-61.865,27.643-56.982,29.7" transform="translate(472.925 887.384)" fill="#efbac4"/>
              <path id="Trazado_1000" data-name="Trazado 1000" d="M788.6,284.854c-2.254,8.812-23.811,48.576-67.195,72.611-40.079,22.187-90.63,53.728-158.18,79.215-80.945,30.542-202.047,56.363-310.879,76.925C87.1,544.858,19.45,533.848,3.73,465.531c-10.609-46.049,6.279-105,65-145.039,45.841-31.268,118.121-38,239.415-36.247,44.8.645,71.484,2.381,113.193,3.721,29.867.959,76.631-10.03,99.64-13.177C622.1,260.916,684.633,241.369,705.6,239.633c43.917-3.665,91.778,10.827,83,45.221" transform="translate(3.082 974.468)" fill="#efbac4"/>
              <path id="Trazado_1001" data-name="Trazado 1001" d="M428.359,300.41c-52.632,17.913-300.22-18.141-309.925-22.644-.457-.228-.579-.421-.269-.594a52.369,52.369,0,0,0,8.142-5.7c31.156-9.9,64.83-23.791,93.381-36.475-2.386,1.771-4.025,3.756-3.106,5.568,5.457,6.716,206.209,50.744,211.777,59.845" transform="translate(480.933 957.826)" fill="#4d2237"/>
              <path id="Trazado_1002" data-name="Trazado 1002" d="M227.732,250.956c80.316,4.5,195.808,28.024,215.8,77.951-40.079,22.187-65.337,67.342-140.816,94.214C169.806,345.367,108.393,262,68.293,266.6c-4.746.543,62.063-23.324,61.738-25.517Z" transform="translate(277.371 982.652)" fill="#4d2237"/>
              <path id="Trazado_1003" data-name="Trazado 1003" d="M842.464,521.956c-20.608,44.069-73.9,50.272-237.918,13.167C292.784,464.593,117.163,292.337,89.925,296.784c-48.962,7.995-6.5-39.871-6.5-39.871,19.2-14.7,45.505-32.288,89.026-25.435,30.993,4.883,92.645,6.974,316.462,56.322,90.448,18.131,245.354,24.2,318.8,89.935,52.962,47.4,54.769,101.411,34.75,144.221" transform="translate(270.403 937.256)" fill="#efbac4"/>
              <path id="Trazado_1004" data-name="Trazado 1004" d="M64.082,368.987c-14.588-1.2-24.471-10.126-35.014-31.435a2.863,2.863,0,0,1,5.132-2.538c11.243,22.735,20.248,27.694,31.217,28.329,60.566,3.523,126.37-156.14,129.141-162.937a2.861,2.861,0,0,1,5.3,2.157c-7.106,17.431-71.256,170.19-134.775,166.495-.335-.02-.67-.046-1-.071" transform="translate(117.27 809.583)" fill="#b1fafc"/>
              <path id="Trazado_1005" data-name="Trazado 1005" d="M98.372,405.672a33.722,33.722,0,0,1-9.426-2.243c-59.358-22.9-54.607-188.514-53.871-207.32a2.862,2.862,0,0,1,5.721.223C40.512,203.666,34.406,376.257,91,398.089c10.228,3.949,20.5,3.162,40.135-12.888a2.862,2.862,0,1,1,3.624,4.431c-14.593,11.928-25.593,16.933-36.389,16.04" transform="translate(141.373 788.115)" fill="#b1fafc"/>
              <path id="Trazado_1006" data-name="Trazado 1006" d="M55,247.867h0a8.191,8.191,0,0,0,11.538.5l6-5.507A8.166,8.166,0,1,0,61.5,230.822l-6,5.507a8.19,8.19,0,0,0-.5,11.538" transform="translate(215.464 932.093)" fill="#007382"/>
              <path id="Trazado_1007" data-name="Trazado 1007" d="M53.666,360.952q1.546-6.784,3.167-13.279c10.3-41.7,22.644-74.458,38.247-102.635a273.151,273.151,0,0,1,14.827-23.862,264.05,264.05,0,0,1,47.044-51.566c20.466-17.324,44.3-32.506,72.093-46.074a192.283,192.283,0,0,1,18.273-7.228A74.732,74.732,0,0,1,229.978,138,361.812,361.812,0,0,0,193.2,159.21l-.02.02c-33.938,22.476-59.368,48.648-78.92,79.763C94.547,270.3,80.736,306.6,70.112,349.16Q68.505,355.571,67,362.175Z" transform="translate(218.738 474.061)" fill="#007382"/>
              <path id="Trazado_1008" data-name="Trazado 1008" d="M173.013,363.084a6.682,6.682,0,0,1-5.629-9.558c30.618-63.784,26.572-117.71,12.578-146.907-7.842-16.349-19.334-27.029-32.359-30.07a65.764,65.764,0,0,0-53.48,12.411c-28.511,21.928-44.658,69.484-46.709,137.532a6.678,6.678,0,0,1-13.35-.4c2.208-73.215,19.669-122.913,51.916-147.719a79.556,79.556,0,0,1,64.652-14.827c17.05,3.98,31.745,17.228,41.364,37.3,19.867,41.44,15.162,100.676-12.568,158.465a6.7,6.7,0,0,1-6.416,3.776" transform="translate(138.835 659.808)" fill="#007382"/>
              <path id="Trazado_1009" data-name="Trazado 1009" d="M41.347,245.463h0a8.192,8.192,0,0,1-10.71-4.32l-3.188-7.492a8.166,8.166,0,1,1,15.03-6.391l3.188,7.492a8.192,8.192,0,0,1-4.32,10.71" transform="translate(109.245 906.031)" fill="#007382"/>
              <path id="Trazado_1010" data-name="Trazado 1010" d="M183.368,109.123A55.723,55.723,0,1,1,127.644,53.4a55.723,55.723,0,0,1,55.723,55.723" transform="translate(293.143 217.653)" fill="#efbac4"/>
              <path id="Trazado_1011" data-name="Trazado 1011" d="M241.462,109.123A55.723,55.723,0,1,1,185.738,53.4a55.723,55.723,0,0,1,55.723,55.723" transform="translate(529.929 217.653)" fill="#efbac4"/>
              <path id="Trazado_1012" data-name="Trazado 1012" d="M334.7,86.813c-25.791,7.34-53.358-4.751-74.585-20.847-21.222-16.08-39.145-36.435-62.271-49.8a124.029,124.029,0,0,0-40.46-14.7c-11.233-1.98-23.075-2.36-33.811,1.426s-20.167,12.35-22.542,23.253C98.365,38.4,105.152,51.307,115.4,58.84s23.324,10.436,36.115,11.274c2.518-8.258-9.634-13.512-18.288-11.857-17.055,3.264-30.775,18.877-31.5,35.846s11.629,33.633,28.349,38.267c-14.035-3.249-29.8-2.5-41.582,5.624s-17.8,24.872-10.649,37.1c4.523,7.741,13.1,12.34,21.659,15.4a104.189,104.189,0,0,0,80.275-4.751L234.2,169.454s15.613-14.05,65.941-2.807,79.088,14.725,89.874-5.99c10.791-20.7-55.312-73.844-55.312-73.844" transform="translate(304.717 0)" fill="#4d2237"/>
              <path id="Trazado_1013" data-name="Trazado 1013" d="M79.5,59.512C78.84,68.847,85.621,79.7,88.763,88.44,91.753,96.759,93.3,108,99.468,114.494c1.771,1.858,4.38.264,4.624-1.919,1.061-9.35-5.649-20.684-9.045-29.313-3.076-7.822-5.736-19.522-12.284-25.1a1.937,1.937,0,0,0-3.259,1.35" transform="translate(323.867 234.961)" fill="#4d2237"/>
              <path id="Trazado_1014" data-name="Trazado 1014" d="M94.215,60.756c-7.522,2.5-13.091,9.34-15.289,16.872-2.035,6.959-2.015,18.08,4.142,23.014a3.106,3.106,0,0,0,5.142-2.995c-1.218-6.528-3.827-11.091-2.157-18.05,1.579-6.573,5.091-11.086,10.2-15.344,1.609-1.34-.112-4.137-2.035-3.5" transform="translate(316.771 247.255)" fill="#4d2237"/>
              <path id="Trazado_1015" data-name="Trazado 1015" d="M143.882,115.217c10.2-17.025,22.522-34.135,30.308-52.414,1.837-4.309-3.624-7.741-6.38-3.731-11.253,16.4-19.075,36.019-27.968,53.784-1.34,2.675,2.477,4.964,4.04,2.36" transform="translate(568.841 233.518)" fill="#4d2237"/>
              <path id="Trazado_1016" data-name="Trazado 1016" d="M145.582,63.935c2.325,4.655,4.02,8.9,3.7,14.218-.315,5.269-2.944,8.974-5.3,13.466-1.137,2.162,1.254,5.03,3.533,3.538,10.37-6.792,10.2-25.816.873-33.384a1.792,1.792,0,0,0-2.8,2.162" transform="translate(585.648 249.899)" fill="#4d2237"/>
              <path id="Trazado_1017" data-name="Trazado 1017" d="M111.091,56.271c-2.721,13.284,8.076,27.171,15,37.552,4.248,6.355,8.649,13.015,10.624,20.486,1.645,6.218,1.355,10.634-5.452,12.527-6.127,1.706-11.487,1.071-17.695,1.015-4.335-.041-4.792,5.9-.98,7.253,8.538,3.03,21.963,2.2,29.461-3.447,7.274-5.477,4.1-16.776,1.32-23.857-3.553-9.05-9.441-17.035-15.091-24.867-6.243-8.649-9.934-17.426-14.268-27.044a1.614,1.614,0,0,0-2.924.381" transform="translate(448.366 224.63)" fill="#4d2237"/>
              <path id="Trazado_1018" data-name="Trazado 1018" d="M121.924,70.892A13.85,13.85,0,1,1,108.072,57.04a13.853,13.853,0,0,1,13.852,13.852" transform="translate(384.052 232.49)" fill="#4d2237"/>
              <path id="Trazado_1019" data-name="Trazado 1019" d="M152.257,71.32a13.85,13.85,0,1,1-13.852-13.852A13.853,13.853,0,0,1,152.257,71.32" transform="translate(507.687 234.234)" fill="#4d2237"/>
              <path id="Trazado_1020" data-name="Trazado 1020" d="M105.652,80.378c4.837,7.72,13.36,11.2,22.212,11.933,9.1.756,22.319-.315,29.186-6.9,2.005-1.929,1.152-5.858-1.7-6.452-7.411-1.538-14.355,2.127-21.755,2.8-8.66.792-15.918-1.685-23.227-6.1-2.908-1.761-6.553,1.777-4.716,4.715" transform="translate(428.603 306.473)" fill="#4d2237"/>
              <path id="Trazado_1021" data-name="Trazado 1021" d="M92.207,60.469c10.771-.3,21.75-.731,32.471.624,10.294,1.3,19.893,6.142,30.1,7.015,4.2.36,6.984-5.969,3.6-8.69-8.487-6.817-20.862-8.284-31.43-9.294-12.233-1.173-24.1-.162-35.541,4.38-2.964,1.178-2.883,6.066.807,5.964" transform="translate(363.965 202.473)" fill="#4d2237"/>
              <path id="Trazado_1022" data-name="Trazado 1022" d="M128.7,66.011c15.035-3.776,28.242-6.781,43.764-3.254,7.269,1.655,10.263-9.781,3.056-11.076-16.36-2.934-35.541-2.228-49.729,7.431-3.462,2.355-1.4,7.979,2.908,6.9" transform="translate(505.609 204.434)" fill="#4d2237"/>
              <path id="Trazado_1023" data-name="Trazado 1023" d="M109.41,369.138c6.076,62.5,10.928,125.218,12.959,188,.162,4.9,7.873,4.893,7.614,0-3.31-62.9-8.177-125.507-16.172-188-.35-2.746-4.68-2.853-4.4,0" transform="translate(445.894 1496.014)" fill="#5a3d73"/>
            </g>
          </g>
        </g>
      </g>
    </g>
    <g id="Grupo_571" data-name="Grupo 571" transform="translate(3150.995 5965.121)">
      <g id="Grupo_562" data-name="Grupo 562" transform="translate(0 0)" clip-path="url(#clip-path-5)">
        <path id="Trazado_1195" data-name="Trazado 1195" d="M7.336,416.213c-4.821-.986-5.006-4.538-4.772-9.544.917-19.352,1.21-38.734,1.649-58.106.712-30.927,1.288-61.854,2.118-92.781.068-2.723.751-6.158,2.5-7.983,7.358-7.671,7.524-7.534-1.591-13.731-.7-.478-1.152-1.327-.751-.849,0-35.728-.263-70.305.1-104.872.244-22.622,1.561-45.234,2.049-67.865C8.771,54,5.941,47.043,7.492,41.09c3.513-13.516-.683-26.486-.7-39.612C7.648.9,8.419-.064,9.083,0,31.451,2.083,53.243,6.182,72.5,18.751c1.864,1.22,3.308,3.26,5.3,4.089,30.127,12.55,51.324,35.514,70.9,60.429,3.308,4.216,6.968,8.149,10.208,12.414,18.669,24.632,37.748,48.962,55.686,74.121,10,14.024,18.269,29.317,26.8,44.336,2.079,3.669,2.1,8.5,3.3,13.848,9.32-1.542,13.77,5.114,17.576,12.726,1.142,2.293,2.167,5.895,3.972,6.422,11.848,3.425,18.455,13.692,27.287,20.8,17.537,14.1,37.6,20.465,59.228,22.661,6.334.634,13.087-1.766,19.5-3.347,16.034-3.953,32.108-7.5,44.736-19.723,9.9-9.574,22.27-16.874,31-27.306,13.37-15.976,25.179-33.376,36.47-50.933,9.691-15.088,15.576-32.586,28.956-46.083,4.606,4.235,9.105,8.373,13.995,12.872,4.06-2.772,7.641-5.221,11.906-8.139-.878-4.216.556-9.593-7.417-10.511v8.237c-8.373-2.869-8.5-10.755-13.858-16.337,4.3-4.841,8.305-9.34,12.306-13.848.547-.615,1.542-1.21,1.562-1.844.439-15.39,13.185-23.5,20.65-34.694,2.079-3.1,5.67-5.211,8.588-7.749,2-1.747,4.762-3.055,5.963-5.231,5.836-10.54,13.731-18.152,25.267-22.651,3.855-1.513,6.373-5.982,11.506-3.24,1.025.547,3.182.615,3.816-.049,6.832-7.163,16.708-7.173,24.964-10.94,7.68-3.513,14.766-6.256,24.086-4.509,9.808,1.844,20.348-.176,30.566-.429,1.679-.039,3.669-.2,5.007.566,12.15,7.075,27.052,5.309,39.3,12.492,3.181,1.864,7.758,1.044,9.632,5.719.5,1.23,3.377,2.8,4.265,2.371,6.373-3.142,7.885,2.352,11.652,5.221,22.436,17.118,35.855,41.711,53.392,62.859,1.357,1.63,3.4,3.767,3.191,5.436-.742,6.139,2.479,7.427,7.544,8.578,2.6.586,5.25,3.494,6.714,6.021,8.939,15.41,22.349,27.482,30.956,43.311,5.982,10.989,15.654,19.928,23.3,30.058,9.9,13.116,19.391,26.525,29.092,39.778a10.919,10.919,0,0,0,2.781,2.781c12.14,7.68,19.684,19.538,28.585,30.322,9.066,10.979,19.792,20.592,29.775,30.81,1.776,1.825,3.5,3.718,5.778,6.129-2.889,1.815-5.016,3.152-7.212,4.528.3.673.42,1.718.937,1.971,4.333,2.186,8.744,4.226,13.126,6.314,1.181.556,2.947,1.942,3.455,1.571,8.354-6.012,13.985,1.932,20.7,3.933,12.8,3.806,25.589,7.944,39.056,3.63a42.525,42.525,0,0,0,10.579-5.416c20.367-13.8,37.739-30.273,48.864-52.817,2.655-5.387,8.373-9.223,12.433-13.975,9.661-11.3,19.167-22.729,29.317-34.8,3.425,2.508,6.461,4.723,9.252,6.773,7.554-3.406,7.183-11.321,5.592-15.215-4.206-10.3.81-17.391,5.7-24.564,10.843-15.937,22.788-31.151,33.211-47.352,4.128-6.412,8.354-9.847,15.81-9.662,1.113.029,2.255-1.317,3.855-2.332-.625-2.82-1.269-5.709-2.069-9.359,3.113-.429,5.895-.81,8.969-1.23-5.943-13.721,4.89-20.875,12.277-26.5,8.188-6.236,11.945-18.513,24.408-19.06,6.734-11.155,17.713-18.191,28.1-24.544,14.092-8.617,27.365-19.87,45.331-21.1,6.461-.439,12.882-3.25,19.05-5.67,19.6-7.69,40.608-6.744,60.887-10.228,5.026-.859,10.5.908,15.781,1.464.547,18.747,1.474,37,1.493,55.247.01,16.3-1.22,32.605-1.484,48.913-.2,12.7.4,25.4.351,38.11-.117,25.891-.6,51.772-.635,77.664-.029,19.821.615,39.642.556,59.463-.088,25.471-.81,50.953-.79,76.424.01,13.985.956,27.97,1.5,41.955.039.878.712,2.186.342,2.576-6.343,6.587-1.591,13.458-1.073,20.426,1.025,14.073.956,28.233.956,42.355,0,4.1-2.83,6.148-7.193,6.236-7.124.137-14.268,1.054-21.363.742-2.264-.1-4.929-2.664-6.48-4.782-3.406-4.655-7.836-5.572-9.017-.9-1.952,7.8-7.027,6.783-12.326,6.646q-26.364-.7-52.739-1.474c-1.278-.039-2.557-.332-4.567-.615-.273-3.308-.537-6.519-1.005-12.384-3.845,3.679-6.656,5.553-8.354,8.159-3.367,5.163-10.3,8.071-15.185,5.582-1.591-.8-2.957-2.02-4.5-2.928-1.522-.9-3.123-1.64-4.753-2.479-9.281,7.924-20.172,4.987-30.585,5.221-13.692.312-27.375.966-41.067,1.171-3.875.068-7.768-1.405-11.633-1.347-19.509.312-39.017,1.288-58.516,1.269-16.005-.01-32-1.3-48.005-1.581-9.252-.166-18.532.888-27.784.693-4.86-.1-10.393-.547-11.848-7.846-8.149,6.265-17.167,5.963-26.584,6.783-25.823,2.274-51.489.1-77.2.293-7.8.049-15.371.2-23.129-.751-4.665-.566-9.691.8-14.414,1.9-9.886,2.332-17.469-.273-21.88-8.686-5.748,5.563-11.555,8.227-20.533,7.817-22.183-1-44.492,1.269-66.762,1.493-14.395.146-28.8-1.22-43.2-1.493-17.362-.332-34.713-.215-52.075-.3-3.435-.02-6.871-.127-10.306-.137-10.15-.02-20.289,0-31.249,0-.088-.156-.956-1.649-2.528-4.343-7.046,14.463-19.313-.5-27.453,6.831-4.372-3.835-8.061-7.066-11.955-10.481-7.417,8.081-16.054,9.554-26.9,8.852-22.036-1.415-44.219-.7-66.343-.566-17.664.1-35.318.82-52.982.956-13.692.107-27.384-.2-41.086-.439-20.2-.351-40.4-.712-60.6-1.278-3.9-.117-7.788-1.152-11.652-1.893-1.239-.234-2.859-1.62-3.533-1.21-14.073,8.647-29.16,2-43.7,2.85-19.147,1.113-38.373,1.269-57.56,1.444-17.176.156-34.352-.2-51.519-.381-15.859-.176-31.844-1.776-47.537-.264-18.816,1.806-37.641-1.835-56.145.927-15.156,2.264-29.853-1.61-44.765-.527-2.664.2-5.465-.468-8.012.107-15.683,3.543-31.161-.585-46.737-1.015-1.7-.049-4.07-.937-4.967-.137-4.128,3.7-5.358.381-6.4-2.5-.566-1.561-.039-3.523,0-5.3.371-18.63.459-37.29,1.357-55.9.185-3.747,3.435-7.349,5.719-11.916M66.457,375.84c-4.919-1.474-9.847-2.938-15.859-4.733-1.835,5.582-3.386,10.286-4.762,14.492,6.48,1.444,11.311,2.518,15.761,3.513,1.581-4.558,3.133-9.037,4.577-13.673,1.679-3.435,3.347-6.861,5.494-11.262-8.774,2.342-6.09,7.29-5.211,11.662m502.7,16.064c-11.331-4.275-20.846-7.866-30.722-11.594-3.084,5.455-6.236,9.779-2.167,14.278,5.133-.381,10.052-2.235,13.136-.605,3.845,2.03,6.178,6.919,10.325,12,3.4-5.075,6.09-9.105,9.427-14.082m686.821-159.7c-.537,1.044-1.083,2.1-1.63,3.142,2.245,3.26,1.425,11.233,9.954,4.831,1.015-.761,3.962.488,5.709,1.376,4.372,2.245,8.569,4.811,12.872,7.261,3.328-5.621,5.612-9.457,8.335-14.053-6.675.859-11.75,2.4-16.61,1.9-6.295-.634-12.423-2.9-18.63-4.46M1412.267,90.8c7.066-6.9,8.647-12.131,5.387-21.5-.722-2.069-4.187-3.191-8.93-6.548,1.63,6.675,2.469,10.1,3.738,15.3-4.606-1.3-7.417-2.088-10.276-2.9-3.074,10.071,2.908,13.253,10.081,15.644M674.922,378.328c-6.041-12.492-17.576-7.846-26.838-11.887,5.416,16.825,10.072,18.845,26.838,11.887m470.47-88.5c-1.151,5.973-1.854,9.6-2.547,13.185,19.069,4.3,21.821,4.323,27.491.761-7.573-4.235-15.244-8.52-24.944-13.946M646,418.058c.712-.166,1.425-.342,2.137-.507V396.344c2.1-1.474,4.274-3.006,7.27-5.124-4.753-2.352-8.334-4.138-11.584-5.748-1.688,6.841-3.084,12.521-4.831,19.6,1.864,3.455,4.431,8.227,7.007,12.989M239.614,359.737v-14.57c-4.2-1.3-8.227-2.537-13.136-4.05.517,2.625,1.093,4.275,1.113,5.943a41.1,41.1,0,0,1-.751,5.143c-1.181,10.3,1.22,11.8,12.775,7.534m908.94,44.355c-5.885,2.42-10.51,5.533-15.371,5.953-4.118.351-7.553,1.035-7.924,4.792-.254,2.547,2.5,5.407,4.245,8.773,7.007-7.134,17.225-8.52,19.05-19.518m169.78-97.836c4.772,8.861,3.435,17.157-1.552,25.471.83.312,1.659.615,2.489.927,3.582-2.84,7.173-5.67,12.823-10.14-11.418-2.167-1.181-15.712-13.76-16.259M31.432,304.8c-11.379-1.132-11.379-1.132-18.211,4.294,3.64,4.265,6.695,10.374,13.321,7.632,2.489-1.025,2.977-6.89,4.889-11.926m610.944-175c-.966-.634-2.293-2.147-3.787-2.342-2.04-.273-4.206.459-6.314.761,1.259,2.059,2.118,5.4,3.865,5.973C644.347,136.867,654,131.5,658,122.277c-7.066-1.405-9.642,5.826-15.625,7.524M304.035,359.591c10.267-1.737,19.928-3.367,32.869-5.553-11.389-1.8-19.9-3.133-28.965-4.558-1.113,2.869-2.6,6.7-3.9,10.11m701.656,35.055c6.665-6.675,12-12.023,18.084-18.1-9.086-2.147-13.848,4.031-19.753,7.319.556,3.582,1.015,6.509,1.669,10.784m164.8,32.752c4.421-13.263,3.709-14.941-6.373-17.176,1.22,3.933,1.064,7.388-3.992,9.535,3.4,2.5,6.451,4.753,10.364,7.641M660.986,399.974c1.181,6.285,2.362,12.609,3.543,18.9,6.617-1.425,6.617-1.425,5.973-8.725-.81-9.086-1.913-10.2-9.515-10.179M1338.595,91.926c-.947.049-1.893.1-2.84.137a33.268,33.268,0,0,0-.537,4.684c.019,1.64.917,3.386.566,4.88-2.157,9-1.493,9.574,9.505,6.87-2.254-5.582-4.469-11.077-6.695-16.571M123.08,138.428c5.094,1.327,9.066,2.362,13.76,3.582.732-11.828-11.9-7.007-14.668-13.6.273,2.986.537,5.982.908,10.023M840.2,375.732c6.275,6.88,6.275,6.88,22.056,5.514-5.914-7.524-13.721-2.4-22.056-5.514M432.485,325.9c-.79-.947-1.581-1.893-2.371-2.85-2.479.5-4.958.976-7.427,1.493-3.8.79-5.807,3.66-3.8,6.6,1.2,1.747,5.816,2.791,7.876,1.874,2.469-1.1,3.865-4.636,5.719-7.114m853.206-25.14c-.078,9.623,5.914,10.638,14.3,10.891-3.582-6.6-5.075-13.565-14.3-10.891m1.357-173.421c-7.661,3.816-5.592,11.418-9.349,18.513,12.911-2.986,5.338-13.311,9.349-18.513M98.223,248.365c-10.032-4.1-13.175-2.137-16.259,11.155q8.505-5.826,16.259-11.155M1189.26,448.507c1.308,12.248,1.308,12.248,11.3,11.906.527-8.051-6.948-7.554-11.3-11.906m168.609-89.082c-2.567,2.879-3.738,3.718-4.187,4.841a8.078,8.078,0,0,0-.019,3.416c5.855.146,3.747,12.16,13.087,8.325-2.85-5.319-5.446-10.159-8.881-16.581M643.478,199.53c-.8.888-1.591,1.776-2.391,2.655,2.381,3.133,4.753,6.256,8.373,11.008,3.582-2.869,5.777-4.626,10.071-8.061-8.129-2.84-12.092-4.216-16.054-5.6M222.311,337.067c3.23-6.568,12.56-5.963,12.228-13.936-5.2,1.327-10.13,2.576-15.38,3.9.917,2.908,1.805,5.729,3.152,10.032M699.506,254.68c-8.686,5.475-5.163,10.12-2.908,15.41,10.784-3.777,5.651-9.027,2.908-15.41m536.237,6.48c-2.635-5.309-10.169-5.221-8.6-11.75.049-.215-3.025-1.874-4.148-1.474-1.093.39-2.293,2.615-2.176,3.933.38,4.353,8.217,9.505,14.922,9.291M238.57,386.575c-8.11,14.229-7.368,16.766,1.552,18.24-.507-5.982-1.025-12.111-1.552-18.24m968.442-201.2c-2.235-5.738-2.645-11.174-8.861-9.867-6.558,1.386-2.811,5.943-2.079,9.867Zm-674.544,71.9c-1.074.439-2.147.878-3.211,1.317,6.343,5.026-6.119,10.969,2.947,16.825,2.284-5.377,4.284-10.062,6.568-15.419-2.518-1.093-4.411-1.9-6.3-2.723M316.526,469.167c-3.455,4.421-6.2,7.934-8.949,11.448.381.81.761,1.61,1.142,2.42,3.689-.9,7.378-1.8,11.9-2.9-1.61-4.314-2.654-7.114-4.089-10.969M1156.7,365.759c1.7-3.084,3.221-5.855,6.47-11.75-7.485,2.206-11.721,3.464-17.508,5.172,4.489,2.674,7.427,4.421,11.038,6.578m-397.94-162.49c-6.109-2.85-10.247-2.772-12.6,2.059-.5,1.034,1.356,4.479,2.762,4.958,5.621,1.923,7.075-2.586,9.837-7.017M13.348,202.136c4.967-2.293,12.443,3.65,16.366-4.284-7.163-3.972-12.14-1.318-16.366,4.284m94.235-41.769c-5.465-4.031-10.013-7.388-15.742-11.613,4.479,11.926,4.7,12.082,15.742,11.613m575.811,8.793c-.02.976-.049,1.952-.068,2.928,2.772,1.23,5.455,2.957,8.354,3.464,1.493.264,3.367-1.649,5.065-2.576-1.112-1.718-2.1-4.753-3.367-4.88-3.26-.342-6.646.625-9.984,1.064m-563.661,5.387c15.39.146,15.39.146,14.082-6.831-4.753,2.3-9.418,4.567-14.082,6.831m60.4,276.165c.859,1.015,1.727,2.02,2.6,3.035,3.094-.966,6.187-1.932,11.984-3.738-4.05-2.928-6.822-6.119-8.11-5.612-2.586,1.034-4.362,4.089-6.47,6.314M719.375,56.441c1.523-5.211,2.518-8.647,3.8-13.028-11.379,5.436-11.379,5.436-3.8,13.028m184.7,276.79c-11.125-5.211-11.213-5.133-11.379,7.515l11.379-7.515M104.44,78.263c-1.913,5.446-.712,7.524,3.513,7.153,3.8-.322,7.573-.966,13.38-1.737-6.568-2.108-11.389-3.65-16.893-5.416M731.33,358.605c-12,3.621-12,3.621-8.686,10.374,2.889-3.445,5.651-6.753,8.686-10.374M91.831,71.324c-6.773,12.092-6.607,12.6,4.684,14.453-1.571-4.85-2.908-8.988-4.684-14.453M957.216,474.573c4.938.342,8.451.6,12.58.888-5.953-9.144-5.953-9.144-12.58-.888M598.938,48.332c-6.695,7.749-6.695,7.749,3.523,11.887-1.171-3.952-2.079-7.036-3.523-11.887m501.377,333.813c-7.446-2.557-7.446-2.557-14.678,10.081,5.465-3.757,9.252-6.353,14.678-10.081m-589.62,86.9c2.381-2.576,4.128-4.46,6.929-7.476-5.045-.781-8.266-1.278-13.848-2.137,3.045,4.235,4.694,6.519,6.919,9.613M894.1,445.481c-1.23-.527-2.45-1.054-3.679-1.581-1.454,3.621-3.211,7.183-4.138,10.94-.2.781,2.684,2.313,5.26,4.4,1.044-5.641,1.8-9.7,2.557-13.76m296.747-226.989c-6.49-.1-10.462.293-8.676,6.2.6,2.02,2.859,3.543,5.807,6.958,1.191-5.455,1.883-8.617,2.869-13.155M1085.988,401.741q-3.1,7.1-6.2,14.209c7.671-2.684,7.378-8.315,6.2-14.209M401.012,443.656c-1.454-5.982-3.777-7.983-7.661-5.758-1.239.7-1.278,3.494-1.864,5.338,2.908.127,5.826.254,9.525.42m380.354-88.935c-2.352,4.655-7.436,7.261-5.856,13.79,8.539-8.539,8.539-8.539,5.856-13.79m-656.09-46.063v8.578c3.308-.576,6.148-1.074,10.511-1.835-4.411-2.83-7.124-4.577-10.511-6.744M73.747,193.529c-3.23-6.363-6.334-7.4-9.691-2.811-1.005,1.366-.468,3.874-.751,7.153,4.05-1.688,6.753-2.811,10.442-4.343m127.113,56.633c.869-.42,1.747-.839,2.615-1.259a74.525,74.525,0,0,0-3.679-8.637c-.254-.449-2.772.361-5.572.8l6.636,9.1M702.063,126.8c-1.054-.459-2.108-.917-3.152-1.386q-2.606,5.782-5.2,11.565c.81.381,1.63.771,2.45,1.152,2.557-3.455,7.68-5.543,5.9-11.33M26.874,113.289c3.826-1.317,5.358-1.737,6.792-2.371,1.61-.712,3.133-1.63,5.66-2.977-6.685-4.9-9.047-1.757-12.453,5.348m396.818,345.66c3.913-3.9,4.04-6.929.107-9.027-1.444-.771-3.913.381-9.047,1.074,4.167,3.708,6.383,5.68,8.939,7.954M900.886,428.92c-5.016,4.294-6.48,8.344,1.2,13.731-.517-5.914-.859-9.818-1.2-13.731M1388.65,94.863c1.435,6.5,4.06,9.32,10.2,5.865-.234-6.48-3.7-7.534-10.2-5.865M849.172,418.634c-11.379-1.288-11.379-1.288-10.247,7.749,3.435-2.6,6.217-4.7,10.247-7.749M429.255,410.27c2.176-1.854,3.669-3.123,5.153-4.382-1.62-1.483-3.055-3.65-4.948-4.177-1-.283-3.738,2.147-3.952,3.6-.176,1.269,2.079,2.889,3.748,4.958m-69.173-12.58c1.005-3.66,2.01-7.31,3.543-12.9-4.8,4.382-8.832,6.88-3.543,12.9M60.787,33.215c3.855-2.469,6.714-4.3,10.325-6.607-7.271-2.186-7.271-2.186-10.325,6.607M1363.569,418.321l-4.86-.761a58.87,58.87,0,0,0-.1,7.417c.019.332,3.337.761,3.367.644.693-2.391,1.113-4.85,1.591-7.3M344.516,437.44c-3.523,6.89-5.6,11.545,3.64,13.731-1.22-4.6-2.157-8.149-3.64-13.731m-51.294-88.018c-2.313-6.109-5.211-7.163-9.34-5.4-.537.234-.654,1.435-1.249,2.869,3.1.742,6.08,1.454,10.589,2.528M519.01,186.736c-1.259,8.4-1.259,8.4,7.349,5.436-2.7-1.991-4.87-3.591-7.349-5.436M762.667,203.4c8.891,2.9,9.037-3.377,10.764-7.563-3.211,2.254-6.422,4.509-10.764,7.563m334.525,113.7c-.664.351-1.327.7-1.991,1.064.829,2.293,1.142,5.1,2.7,6.685.839.859,3.816-.4,7.817-1.005-4.07-3.211-6.3-4.977-8.529-6.744M710.6,258.554c1.308.254,2.615.5,3.923.751q.249-3.718.5-7.446c-1.181.01-3.289-.234-3.367.078a49.46,49.46,0,0,0-1.054,6.617m47.469,32.781c.478-5.28-.6-9.1-7.593-6.1,3.221,2.586,5.407,4.343,7.593,6.1M1244.8,288.71c-7.749-4.2-7.749-4.2-8.988,3.884,2.742-1.181,4.948-2.137,8.988-3.884M1027.5,485.445c8.988,1,8.988,1,6.656-9.242-2.528,3.5-3.9,5.416-6.656,9.242m145.607-155.61c-3.23,2.82-5.143,4.5-7.788,6.812,6.519,3.191,8.462,1.581,7.788-6.812M72.225,160.2l-8.959,5.485c5.3,3.172,8.149,2.45,8.959-5.485m823.3,188.869c.254,1.386.507,2.762.761,4.148q4.67-.878,9.32-1.757c-.215-1.23-.439-2.469-.664-3.708l-9.417,1.317M58.991,93.458c-4,7.583.644,8.783,5.4,9.925-1.591-2.928-3.191-5.865-5.4-9.925M644.6,92.16c-3.357-6.9-6.48-7.885-13.253-3.621,5.153,1.405,8.315,2.274,13.253,3.621M155.422,466.141c4.733-8.676,1.522-10.354-5.143-12.14,1.825,4.294,3,7.056,5.143,12.14m1192.3-94.5c-.566-1.23-1.122-2.459-1.688-3.7q-4.085,2.02-8.169,4.031c.342.8.683,1.61,1.035,2.411q4.406-1.376,8.822-2.742M1240.349,417.7c-4.021,3.191-6.588,5.221-10.911,8.647,8.11,1.405,11.955,1,10.911-8.647M791.886,396.656c0-7.524-1.61-9.857-6.8-7.368-.576.283-.722,1.454-1.308,2.733,2.079,1.191,4.177,2.391,8.11,4.636M1382.179,89.1l3.016-.556c-.5-2.479-1.005-4.967-1.5-7.456-.917.176-1.835.342-2.762.507.42,2.5.829,5,1.249,7.5m-76.824,3.367c-.3-1.054-.6-2.118-.9-3.172-2.352.888-4.7,1.766-7.056,2.654.215.722.439,1.444.654,2.167q3.66-.82,7.3-1.649M748.5,91.184c-1.034-.166-2.069-.342-3.1-.507-.537,2.118-1.083,4.226-1.62,6.343a31.73,31.73,0,0,0,3.24.654c.634-2.128,1.034-4.314,1.483-6.49M614.972,161.47c.683-6.226-.937-9.554-7.876-6.851l7.876,6.851m203.489,23.92,2.869.849,2.489-7.232a21.018,21.018,0,0,0-3.367-.693c-.82,2.3-1.376,4.7-1.991,7.075m-467,280.518c-1.278,1.913-2.83,3.22-2.83,4.518.01,1.044,1.981,2.957,2.947,2.879,1.181-.1,3.142-1.913,3.094-2.918-.049-1.308-1.727-2.557-3.211-4.479m481.059,3.952c1.327.244,2.664.478,3.992.722q.337-4,.673-7.973c-.849-.176-1.7-.341-2.547-.517-.7,2.6-1.415,5.182-2.118,7.768M453.8,458.754c-.693-.712-1.376-1.425-2.059-2.137-1.3.8-3.074,1.308-3.777,2.469-.839,1.386-.761,3.328-1.649,8.071,3.933-4.411,5.709-6.412,7.485-8.4m131.1-206c-5.163-4.782-6.7.351-9.71,1.971.381.224.771.449,1.679.986,2.44-.9,5.231-1.923,8.032-2.957m-19,194.305c-3.582,2.654-8.432,5.026-2.928,11.35,1.21-4.684,2.069-8.022,2.928-11.35m35.162,6.509c1.142-.429,2.284-.859,3.435-1.288-.908-1.893-1.737-3.826-2.8-5.621-.117-.2-1.5.342-2.293.546.547,2.118,1.1,4.245,1.659,6.363m58.711-188.5c2.411-5.016,3.874-6.685,3.494-7.622a5.231,5.231,0,0,0-3.747-2.664c-.751-.078-2.44,2.118-2.469,3.308-.049,1.561,1.132,3.162,2.723,6.978m-45.722-1.5H625.57c-4.3-6.2-7.241-5.211-11.516,0M911.67,406.913c-.244,1.1-.488,2.206-.732,3.3a61.278,61.278,0,0,0,6.373.556c.361-.01.7-1.483,1.054-2.284q-3.338-.776-6.695-1.571m414.013-28.585c-5.7,4.206-5.436,6.929,0,10.472Zm-952.339-9.466c-.8,1.083-1.61,2.176-2.42,3.26l7.554,5.182c.527-.7,1.054-1.405,1.571-2.108q-3.352-3.162-6.7-6.334M967.317,355.17c.42-.664.839-1.318,1.259-1.971l-4.977-4.157-2.313,3.806q3.015,1.156,6.031,2.323m-671.8-29.707q-1.625-1.639-3.23-3.279c-2.8,1.191-6.91,1.405-2,8.939q2.606-2.84,5.231-5.66M1091.356,348.7c.312,1.21.625,2.41.937,3.621,2.371-.791,4.753-1.591,7.124-2.381-.273-.9-.537-1.805-.81-2.7q-3.616.732-7.251,1.464m-467.933-4.665c-.361-1.015-.722-2.03-1.093-3.045-1.835.42-3.874.478-5.416,1.386-.986.566-1.23,2.391-2.889,6.021,4.743-2.2,7.066-3.279,9.4-4.362m52.211-7.193c7.788.459,8.715-2.254,7.115-8.442-2.528,3.006-4.275,5.075-7.115,8.442M393.9,330.909c-.956-.966-1.913-1.942-2.869-2.918-1.854,1.64-3.718,3.269-5.572,4.9,1.1,1.113,2.2,2.225,3.3,3.347,1.718-1.776,3.426-3.552,5.143-5.329m207.051,2.225-2,1.62q2.357,3.016,4.714,6.012c.7-.576,1.415-1.152,2.128-1.727-1.61-1.971-3.23-3.943-4.841-5.9m603.419,8.3c2.3,1.757,3.416,3.269,4.607,3.328,1.268.068,2.615-1.239,3.933-1.942-.976-1.181-1.757-3-2.977-3.367-1.113-.342-2.7.878-5.563,1.981M188.057,354.3c.039-1.083.068-2.167.107-3.25a37.454,37.454,0,0,0-5.524-.215c-.263.02-.351,2-.527,3.084l5.943.381m417.869-34.665c.693-.39,1.376-.79,2.059-1.181-.956-1.942-1.913-3.874-2.869-5.816a15.513,15.513,0,0,0-2.411,1.815,59.358,59.358,0,0,0,3.221,5.182m9.661-30.6c-.761.79-1.513,1.581-2.274,2.381q3.206,3.06,6.412,6.129l2.3-2.42-6.441-6.09m701.607,5.124c.634.761,1.269,1.532,1.9,2.293,2.235-1.347,4.479-2.694,6.714-4.05-.381-.664-.761-1.337-1.132-2.01-2.5,1.259-5,2.508-7.485,3.767M989.139,370.706l.059-1.991c-2.586-.176-5.163-.342-7.749-.508-.02.83-.049,1.669-.068,2.5Zm290.267-5.036c-.586,1.025-1.171,2.04-1.757,3.064q3.455,1.42,6.909,2.85c.371-.859.752-1.727,1.122-2.586-2.089-1.113-4.177-2.215-6.275-3.328M624.341,382.4c.966.693,1.942,1.376,2.918,2.059a60.434,60.434,0,0,0,2.879-5.729,17.883,17.883,0,0,0-2.791-1.708c-1.005,1.8-2,3.591-3.006,5.377m128.04-104.326c1.142-1.61,2.459-2.742,2.254-3.338-.517-1.464-1.737-2.674-2.674-3.991-1.054,1.093-2.977,2.225-2.938,3.269.049,1.21,1.835,2.352,3.357,4.06M241.732,422.225c-.839-.234-1.679-.459-2.518-.693-.566,2.186-1.132,4.362-1.7,6.548.781.185,1.561.381,2.342.566.625-2.137,1.249-4.284,1.874-6.422m108,4c-.8-.117-1.61-.224-2.42-.342-.283,1.991-.6,3.992-.742,5.992a17.086,17.086,0,0,0,2.245.449q.468-3.059.917-6.1M389.066,464.6c-.263,1.054-.537,2.108-.81,3.162l7.017.878.351-2.108-6.558-1.932m893.179,1.825.527,2.01c2.118-.5,4.245-.986,6.373-1.483-.224-.79-.439-1.571-.654-2.352-2.089.605-4.167,1.22-6.246,1.825M438.984,470.9c-1.23.146-2.459.3-3.689.459.615,2.352,1.23,4.714,1.844,7.066l2.586-.5c-.244-2.342-.5-4.684-.742-7.027M793.213,114.3l-1.6,1.952c1.7,1.718,3.386,3.445,5.085,5.163.459-.468.927-.937,1.386-1.415-1.62-1.9-3.25-3.8-4.87-5.7m496.517-.166c.6-.976,1.21-1.952,1.825-2.918-1.893-1.269-3.787-2.547-5.68-3.816-.556,1.064-1.766,2.9-1.571,3.064a51.8,51.8,0,0,0,5.426,3.669" transform="translate(0.003 0.003)" fill="#084675"/>
      </g>
    </g>
  </g>
</svg>
