<svg xmlns="http://www.w3.org/2000/svg" xmlns:xlink="http://www.w3.org/1999/xlink" width="2077.373" height="2199.232" viewBox="0 0 2077.373 2199.232">
  <defs>
    <clipPath id="clip-path">
      <rect id="Rectángulo_670" data-name="Rectángulo 670" width="2077.373" height="2155.441" transform="translate(0 0)" fill="#fff" stroke="#707070" stroke-width="1"/>
    </clipPath>
    <clipPath id="clip-path-2">
      <rect id="Rectángulo_648" data-name="Rectángulo 648" width="1759.2" height="2748.465" fill="none"/>
    </clipPath>
    <clipPath id="clip-path-3">
      <rect id="Rectángulo_649" data-name="Rectángulo 649" width="1301.975" height="448.323" fill="#084675"/>
    </clipPath>
  </defs>
  <g id="Grupo_682" data-name="Grupo 682" transform="translate(-2871.127 -17372.066)">
    <g id="Enmascarar_grupo_4" data-name="Enmascarar grupo 4" transform="translate(2871.127 17372.066)" clip-path="url(#clip-path)">
      <g id="Grupo_561" data-name="Grupo 561" transform="translate(103.74 79.036)">
        <g id="Grupo_560" data-name="Grupo 560" clip-path="url(#clip-path-2)">
          <path id="Trazado_1134" data-name="Trazado 1134" d="M247.015,151.1c91.855,88.886,68.955,78.218,71.8,133.109.941,18.075-3.341,23.145,8.362,84.2,2.214,11.56,27.01,112.193,25.545,117.076-3.571,11.888-148.652,73.775-152.546,50.449-.064-.392-4.11-166.908-22.944-190.832-30.213-38.4-106.1-38-150.038-50.2-6.143-1.71-8.293-16,4.786-16.013,37.487-.054,99.766,5.153,112.242,10.213,10.84-7.6-51.134-19.2-74.95-24.463-37.1-8.2-72.447-6.314-69.038-17.331,1.607-5.192,12.692-8.038,14.676-8,35.357.676,87.142,5.089,131.081,17.291,14.367,1.411-21.8-10.644-62.783-19.28C36.952,227.574.66,225.036,2.261,217.361c.6-2.87,4.982-7.632,9.425-8.744,44.438-11.11,111.566,11.462,148.715,12.858,18.168.681-16.414-8.621-55.847-14.832-12.182-1.92-91.786-12.359-90.924-18.962.651-5.016-.25-10.664,21.695-12.564,54.509-4.727,131.762,11.237,190.846,25.717,8.67,2.126,2.332-16.1-.211-19.4-9.038-11.707-51.516-71.326-45.129-79.981,11.026-14.95,48.715,32.741,66.182,49.64" transform="translate(0.002 384.358)" fill="#914141"/>
          <path id="Trazado_1135" data-name="Trazado 1135" d="M83.757,132.744c-9.483-6.231-37.571-9.8-38.555-7.578-1.46,3.277,31.2,5.212,45.878,35.861,3.821,7.994,15.636,28.979,15.7,39.021.039,5.584,11.291-44.757-23.027-67.3" transform="translate(176.029 485.36)" fill="#4d2237"/>
          <path id="Trazado_1136" data-name="Trazado 1136" d="M487.953,476.055c-4.237,13.206-10.174,30.708-17.291,50.973-4.751,13.608-10.037,28.435-15.665,44.086-.612,1.7-1.225,3.4-1.832,5.114q-.463,1.264-.916,2.577c-.309.857-.612,1.739-.936,2.616C411.366,692.888,319.227,972.3,233.466,1053.258c-.573.554-1.205,1.009-1.8,1.489a181.856,181.856,0,0,1-31.81,21.411h-.02c-29.523,15.249-49.5,11.8-63.3,11.124-67.73-3.336-105.325-167.8-83.493-257.082,5.687-23.243,35.077-76.146,63.547-127.824,20.862-37.767,41.166-74.867,51.414-99.222.1-.245.191-.475.309-.74,6.162-14.715,13.622-34.049,21.6-55.69,6.49-17.595,13.319-36.738,20.093-56.185C227.26,440.787,244,388.917,253.217,355.212c8.415-30.914,58.11-190.69,150.077-214.525,17.767-4.634,37.767-22.631,77.958-6.774,25.824,13.725,21.318,44.566,36.566,98.267,9.542,33.529-5.819,168.534-29.865,243.876" transform="translate(182.574 497.065)" fill="#d7eeff"/>
          <path id="Trazado_1137" data-name="Trazado 1137" d="M470.074,45.2c12.031,14.3,19.1,21.073,28.455,52.57,7.338,24.693,3.61,62.783,1.837,83.958-4.325,51.492-28.127,114.534-81.245,136.5-83.023,34.338-209.485-1.308-243.352-52.937-6.441-9.816-15.112-39.564-18.408-99.33-2.214-40.191-.931-58.869,10.718-78.962,12.559-21.68,30.992-34.323,40.387-40.632,73.892-49.606,215.1-56.449,261.609-1.171" transform="translate(609.954 24.928)" fill="#4d2237"/>
          <path id="Trazado_1138" data-name="Trazado 1138" d="M588.032,437.015c-.514,1.871-1.127,3.742-1.832,5.628-31.453,83.782-116.7,126.016-128.553,131.7-26.755,12.8-105.134,50.36-192.174,21.431-56.856-18.893-98.84-52.29-122.009-85.173.519-1.832,1.014-3.625,1.548-5.418,19.638-66.834,52.521-118.953,98.11-155.749,20.573-10.287,30.86-16.3,37.14-25.036a32.332,32.332,0,0,0,2.082-3.208c1.029-1.793,3.2-7.539,5.628-15.856a279.756,279.756,0,0,0,6.853-29.008,194.282,194.282,0,0,0,2.8-22.827c1.759-28.494-3.737-49.866-8.224-68.362a18.026,18.026,0,0,1-.436-1.793c-3.571-14.715-6.3-27.691-3.914-41.161,13-73.554,155.764-94.715,205.155-90.023,2.444.23.744,17.864-2.273,44.007-4.139,36.091-13.853,88.416-16.39,133.667-.48,8.322-.705,16.395-.612,24.085a139.044,139.044,0,0,0,7.215,43.111,88.731,88.731,0,0,0,7.117,15.9,26.515,26.515,0,0,0,3.341,4.428c4.521,4.83,11.257,8.837,19.025,12.442,28.3,21.107,52.408,51.031,71.967,89.469,2.919,5.76,5.746,11.678,8.435,17.747" transform="translate(559.276 200.932)" fill="#914141"/>
          <path id="Trazado_1139" data-name="Trazado 1139" d="M218.969,132.49c16.777-8.474,30.017-14.867,40.554-20.132-45.594,36.792-78.472,88.911-98.11,155.744-.539,1.793-1.034,3.586-1.548,5.423a137.231,137.231,0,0,1-9.429-15.249c-12.324-23.111-14.749-44.771-5.819-59.506,8.014-13.245,14.754-35.974,67.809-62.959,2.229-1.146,4.423-2.253,6.544-3.321" transform="translate(542.879 438.012)" fill="#914141"/>
          <path id="Trazado_1140" data-name="Trazado 1140" d="M298.209,215.564c-2.689-6.069-5.516-11.986-8.435-17.747-19.559-38.438-43.664-68.362-71.967-89.469,11.051,5.153,24.2,9.5,36.033,14.259h.02c14.445,5.839,26.946,12.3,31.276,21.661,1.719,3.7,13.133,21.964,15.268,45.016v.02a72.754,72.754,0,0,1-2.195,26.26" transform="translate(849.098 422.383)" fill="#914141"/>
          <path id="Trazado_1141" data-name="Trazado 1141" d="M372.505,74.312c-4.139,36.086-13.853,88.416-16.395,133.667-24.007,8.891-57.194,11.756-92.193,4.521-57.693-11.908-84.659-31.051-89.944-49.219-.171-.593-.323-1.181-.441-1.793C165.651,122,260.787,36.467,345.025,61.738a112.555,112.555,0,0,1,27.48,12.574" transform="translate(674.708 222.79)" fill="#4d2237"/>
          <path id="Trazado_1142" data-name="Trazado 1142" d="M165.963,94.107c-7.088,17.561-10.326,38.57-6.363,71.345,5.472,45.3,4.379,52.031,14.1,99.8,10.625,52.207,21.573,68.088,29.665,77.409a111.64,111.64,0,0,0,36.674,27.632c28.435,13.3,54.49,10.6,64.556,9.415,50.439-5.893,89.709-29.136,103.106-48.332,27.264-39.07,38.1-99.32,40.887-129.014,1.871-20,.519-71.786-30.321-127.255-19.927-35.846-28.175-48.342-43.728-58.879C349.858-.5,204.268-.8,165.963,94.107" transform="translate(615.503 30.146)" fill="#914141"/>
          <path id="Trazado_1143" data-name="Trazado 1143" d="M199.163,28.463c-1.754,6.564,59.075,40.9,63.194,55.861C288.612,179.74,280.75,197.7,285.585,187.808c9.767-19.99,22.915-12.368,23.15-24.321.607-31.173-7.842-122.22-23.071-136.009-17.879-16.184-84.1-8.028-86.5.985" transform="translate(776.269 71.053)" fill="#4d2237"/>
          <path id="Trazado_1144" data-name="Trazado 1144" d="M205.854,28.549c1.1,10.825-5.227,14.044-14.362,25.07C155.968,96.5,172.569,184.5,169.062,182.9c-1.083-.495-3.311-13.559-6.613-14.1-6.672-1.087-17.11-132.639,32.2-149.274,12.212-4.124,9.944-3.36,11.207,9.018" transform="translate(610.846 67.381)" fill="#4d2237"/>
          <path id="Trazado_1145" data-name="Trazado 1145" d="M164.825,33.894c-15.69,24.472,3.826,56.821,22.16,70.076,30.272,21.886,91.389,22.41,125.806,14.328,30.693-7.21,68.24-13.73,100.8-13.049,65.217,1.376,37.238,42.729,44.629-20.524,4.007-34.279-49.322-64.331-78.365-75.112C356.627,1,335.392,4.224,311.263,3.7c-22.048-.48-45.251-6.481-67.191-2.111C225.423,5.3,209.5,16.887,191.321,22.2c-7.681,2.243-22.092,4.825-26.5,11.692" transform="translate(620.182 -0.002)" fill="#4d2237"/>
          <path id="Trazado_1146" data-name="Trazado 1146" d="M911.215,1670.7H107.378c4.291-93.853,12.207-215.171,22.44-346.267C142.48,1161.965,158.7,984.466,176.01,825.484c9.895-91.086,20.162-176.093,30.3-248.7,2.454-17.5,4.9-34.3,7.323-50.277q1.367-8.986,2.733-17.62c8.425-53.53,16.655-96.812,24.419-126.119,4.428-16.748,8.7-28.92,12.785-35.856,14.47-24.575,34.979-41.969,59.765-53.3,15.905-7.289,33.564-12.07,52.516-14.7,44.649-6.187,96.464-.3,149.328,13.573,5.942,1.543,11.878,3.208,17.815,4.957,56.67,16.679,113.755,41.989,163.749,70.978,15.66,9.077,30.615,18.5,44.649,28.151,27.166,18.653,50.884,38.1,69.435,57.208,11.492,11.825,21.827,44.071,31.09,91.3.211,1.068.421,2.136.617,3.223,7.269,37.7,13.853,84.605,19.843,138.086q.632,5.908,1.3,11.928c.47,4.394.945,8.846,1.416,13.328,4.433,42.513,8.513,88.632,12.266,137.189,20.51,266.639,30.757,606.461,33.858,821.863" transform="translate(418.602 1077.768)" fill="#b4dcf9"/>
          <path id="Trazado_1147" data-name="Trazado 1147" d="M562.491,486.832c-1.592,14.783-5.08,37.189-10,65.565-3.36,19.354-7.392,41.48-11.962,65.878-7.255,38.609-15.856,82.837-25.241,130.606v.014c-.441,2.263-.877,4.575-1.313,6.975a.907.907,0,0,0-.039.225c-.436,2.312-.857,4.712-1.279,7.167-23.63,137.856-42.65,487.2-57.1,835.171H116.149c-1.21-115.607-2.258-233.09-3.047-346.267-1.278-181.471-1.837-351.823-1.122-485.387.612-116.518,2.19-205.032,5.08-248.54q.661-9.934,1.421-16.679,1.815-16.025,3.591-30.688c6.9-56.366,13.681-97.6,20.176-125.889,5.888-25.648,11.565-40.676,16.89-46.77,2.469-2.822,4.835-3.747,7.127-2.924.122.034.245.1.367.137h.034c17.135,6.045,36.542,10.791,57.4,15.082,24.683,5.1,51.374,9.527,78.805,14.661,13.382,2.508,26.941,5.187,40.5,8.2a606.789,606.789,0,0,1,71.169,19.809,373.245,373.245,0,0,1,47.26,20.27,276.639,276.639,0,0,1,38.325,23.875,231.658,231.658,0,0,1,62.641,69.8c1.088,1.842.931,8.636-.279,19.706" transform="translate(435.317 1150.031)" fill="#71a4cd"/>
          <path id="Trazado_1148" data-name="Trazado 1148" d="M283.838,1675.428c-12.016-113.716-23.987-231.865-35.337-350.4-16.1-168.123-31.12-334.272-43.6-484.775q-.529-6.326-1.034-12.628-1-12.087-1.979-24.032-3.784-46.327-7.22-90.351l-.01-.122c-.392-30.478-.705-64.267-1.024-97.605-.171-21.523-.367-42.861-.524-63-.264-29.743-.49-56.895-.735-78.2-.157-13.853-.313-25.256-.475-33.28-.838-42.092-1.274-80.172-1.293-113.525-.02-10.581.039-20.686.1-30.287.02-2.2.054-4.379.073-6.515,36.116-9.057,87.422-14.328,172.957-15.293,16.674-.191,34.666-.211,54.088-.069,1.788.015,3.581.034,5.4.054,42.229.367,91.154,1.5,148.2,3.483,2.341,4.134,9.841,117.571,17.036,242.485.911,15.533,1.8,31.247,2.684,46.941q.654,11.506,1.274,22.983c1.176,21.107,2.3,42.023,3.35,62.288,2.219,42.112,4.164,81.416,5.6,113.79,1.7,38.06,2.714,66.545,2.66,78.683,0,0,.122,6.01.353,17.36,1.646,80.716,9.268,431.627,24.331,812.017Z" transform="translate(743.066 1073.037)" fill="#71a4cd"/>
          <path id="Trazado_1149" data-name="Trazado 1149" d="M930.275,787.954c-60.133-19.731,6.353-67.216-302.045-131.929-13.97-2.919-47.466-12.559-80.04-21.7-26.662-7.5-52.731-14.656-67.025-17.6-13.853-2.841-22.939-6.147-36.547-10.458-3.566-1.127-7.46-2.327-11.83-3.605-14.617-4.276-32.08-8.9-55.19-13.417A836,836,0,0,0,291.715,577.8c-56.258-4.257-113.932,8.553-164.694,23.571l-14.254-1.205q.654-9.934,1.411-16.679c14.426-128.264,28.435-189.372,40.667-203.342,2.464-2.822,4.83-3.737,7.122-2.919.132.039.245.1.377.132h.02c64.772,22.827,161.779,27.328,247.888,57.752a372.158,372.158,0,0,1,47.25,20.265,788.248,788.248,0,0,1,29.812-104.831c1.773-4.923,3.605-9.885,5.535-14.9q5.121-13.453,11.012-27.314c220.114-32.746,319.3-39.256,379.523-31.237,5.1,40.725,10.424,91.223,15.861,149.484,3.875,41.489,18.148,173.055,28,270.651v.137q1.573,44.056,3.032,90.591" transform="translate(439.61 1068.097)" fill="#5f91d1"/>
          <path id="Trazado_1150" data-name="Trazado 1150" d="M756.891,751.677c-6.26,46.544-72.521,53.779-106.756,66.525-26.01,9.7-114.392,42.542-167.961,6.167a76.477,76.477,0,0,1-6.221-4.658,53.369,53.369,0,0,1-8.112-8.127,46.764,46.764,0,0,1-4.791-7.539v-.02c-4.33-8.322-7.539-18.932-18.051-37.884-.916-1.68-1.93-3.434-2.978-5.266-1.587-2.748-3.321-5.667-5.231-8.758-2.023-3.287-4.237-6.76-6.657-10.458-6.412-9.792-11.492-16.777-16.3-22.866-3.816-4.844-7.46-9.1-11.428-13.72-1.778-2.043-3.61-4.178-5.555-6.451-4.678-5.418-10-11.737-16.64-20.059-4.56-5.721-9.733-12.383-15.743-20.382-33.417-44.561-50.537-67.363-59.334-94.025-.23-.632-.421-1.278-.632-1.93-7.8-24.9-16.488-36.909-22.537-62.347a254.556,254.556,0,0,1-5.668-37.213c-6.794-77.042-4.923-90.194-4.752-128.686.172-38.188-58.781-140.687,29.008-206.854,46.354,13.76,78.242,33.8,94.941,47.309,29.371,23.723,186.472,241.266,246.076,344.7C659.447,550.148,674.01,576.369,702,627.327c40.461,73.682,58.188,99.9,54.886,124.351" transform="translate(983.686 495.591)" fill="#d7eeff"/>
          <path id="Trazado_1151" data-name="Trazado 1151" d="M898.837,1127.2c10.081,42.371-32.06,48.494-35.46,50.669-46.775,30.057-216.348,70.811-409.134,18.051-113.114-30.953-291.141-22.366-309.079-41.372-21.661-22.92-21.166-58.4-20.118-97.444,1.127-41.793,28.754-214.021,9.307-379.822-7.842-66.7-12.662-141.2-10.811-193.54,4.041-114.378-16.189-196.906-2.64-236.029,10.247-29.577,29.679-33.652,126.687-79.5,25.094-11.849,50.13-23.223,70.723-32.173.877-.382,1.739-.764,2.6-1.127,25.575-11.07,43.7-18.129,45.477-17.272C374.518,121.6,449.5,306.488,479.73,310.172c22.136,2.709,75.724-63.243,133.036-200.746,1.793-4.3,25.036,4.482,55.9,18.472,5.134,2.327,10.478,4.791,15.974,7.367,43.743,20.534,94.755,47.309,113.8,60.152,60,40.441,74.122,6.294,77.3,39.893,8.2,86.6-12.314,743.013,23.1,891.9" transform="translate(452.856 422.31)" fill="#71a4cd"/>
          <path id="Trazado_1152" data-name="Trazado 1152" d="M354.9,495.642c-4.678-5.418-10-11.737-16.64-20.059-4.56-5.726-9.733-12.383-15.748-20.382-33.412-44.561-50.532-67.368-59.329-94.025-2.292-34.906,37.272-148.132,30.037-171.434,11.07-69.523,57.865,224.371,61.681,305.9" transform="translate(1025.63 698.573)" fill="#b4dcf9"/>
          <path id="Trazado_1153" data-name="Trazado 1153" d="M348.892,419c-4.751,13.608-10.037,28.435-15.67,44.086-.607,1.7-1.22,3.395-1.832,5.114-.3.838-.607,1.7-.916,2.577-.3.857-.607,1.734-.936,2.616C289.6,584.855,197.458,864.27,111.692,945.226c-.568.554-1.2,1.009-1.793,1.489a182.135,182.135,0,0,1-31.81,21.411h-.02c108.686-66.99,135.411-369.794,225.1-713.309,51.374-196.769,20.079-46.378,24.487-16.645,1.832,12.481,12.613,100.29,21.239,180.824" transform="translate(304.344 605.102)" fill="#b4dcf9"/>
          <path id="Trazado_1154" data-name="Trazado 1154" d="M505.788,127.9c-26.721,63.243-167.9,262.975-188.936,259.16-27.122-4.923-126.163-176.137-158.816-252.135,25.575-11.07,43.7-18.134,45.477-17.272,8.126,3.948,83.106,188.838,113.339,192.522,22.136,2.709,75.724-63.248,133.036-200.746,1.793-4.3,25.041,4.482,55.9,18.472" transform="translate(616.087 422.31)" fill="#8fb7ef"/>
          <path id="Trazado_1155" data-name="Trazado 1155" d="M452.392,110.475a.145.145,0,0,1-.02.088l-.1.367c-.122.387-.245.769-.348,1.176a1.358,1.358,0,0,0-.108.348c-6.745,22.528-10.3,52.795-12,86.236-2.694,52.462-.838,112.737.475,163.058.931,35.651,1.592,66.3.157,85.658-3.924,53.515-16.64,300.884-25.119,479.886-2.327,49.219-4.345,93.295-5.761,126.717-1.4,32.682-2.224,55.21-2.243,62.479-.02,11.1-1.122,28.832-3.047,51.448-1.3,15.4-2.978,33.035-4.942,52.393-.137,1.4-.294,2.817-.436,4.237-17.115,166.3-54.97,452.048-62.273,515.953-.456,4.061-17.639,343.848-29.621,578.554H94.687c7.269-244.111,31.075-645,50.027-828.642,5.29-51.218,8.562-84.287,8.724-90.561.4-15.656,10.683-99.109,22.366-206.026,14.7-134.829,26.608-242.73,30.022-380.831,1.087-44.262,1.318-91.629.475-143.988-.265-16.341-1.754-49.341-3.889-90.121C195.844,452.065,183.25,250.03,183.25,240.64c0-10.37,5.849-18.55,17.218-26.5,22.929-16.067,68.244-31.252,133.109-61.906,22.16-10.473,44.928-19.549,64.531-26.535,5.325-1.91,10.4-3.664,15.185-5.241,14.96-4.972,26.907-8.317,33.476-9.65,3.625-.735,5.623-.877,5.623-.333" transform="translate(369.127 429.392)" fill="#d7eeff"/>
          <path id="Trazado_1156" data-name="Trazado 1156" d="M393.163,463.423c-58.8,10.571-149.813,9.542-170.8-10.5,0,0-24.81-267.653-3.816-270.994,12.021-1.91,77.36.784,166.065,9.542,4.6,92.766,4.237,176.088,8.553,271.949" transform="translate(819.092 706.971)" fill="#8fb7ef"/>
          <path id="Trazado_1157" data-name="Trazado 1157" d="M608.3,2326.231H352.91c-4.977-188.059-18.5-514.64-57.664-976.622-.279-3.292-1.279-14.152-2.822-30.7-2.155-23.262-5.359-57.752-9.106-98.32q-.764-8.229-1.543-16.782c-5.026-54.671-10.826-118.36-16.272-179.844-1.646-18.482-3.257-36.733-4.8-54.495q-1.234-14.107-2.415-27.764c-.284-3.272-.563-6.534-.843-9.758q-.235-2.888-.475-5.726c-1.327-15.817-2.591-30.933-3.762-45.085-2.523-31.217-4.575-57.84-5.834-77.076-.9-13.662-1.367-23.61-1.367-28.886,0-7.651-.02-14.94-.074-21.91-.206-30.321-.906-54.848-1.646-78.022-1.367-42.214-2.9-80.05-2.1-140.515.23-17.815,1.332-41.377,2.611-67.142,2.91-58.12,6.745-127.466,3.747-167.6-.1-1.455-.245-3.311-.4-5.569A1023.1,1023.1,0,0,0,236.215,192.48c-4.325-25.521-10.194-53.794-18.163-82.974a.908.908,0,0,1-.054-.318v-.015a.457.457,0,0,1,.054-.23.932.932,0,0,1,.715-.524c2.8-.754,13.314,2.469,28.117,8.058,8.847,3.326,19.211,7.495,30.424,12.172,47.451,19.78,109.656,48.45,132.1,59.785,9.459,4.781,17.688,8.67,25,12.05,27.921,12.893,42.6,18.217,62.41,36.175,4.9,4.448-13.471,64.091-10.634,248.226.911,58.962,3.977,130.694,10.688,217.435q1.153,14.952,2.557,30.688c8.019,90.807,21.279,200.584,30.3,319.748.088,1.224.191,2.434.279,3.664q1.315,17.6,2.488,35.45,1.47,22.388,2.7,45.144c.069,1.416.157,2.851.225,4.271q1.315,26.01,2.665,52.462c.1,2.224.225,4.433.333,6.657.049,1.034.1,2.067.157,3.12.387,7.705.769,15.464,1.156,23.209,4.1,82.695,8.112,167.966,11.981,253.428q.316,6.671.612,13.348c.265,5.956.544,11.893.808,17.849q.808,18.207,1.68,36.38c14.152,297.646,36.978,590.487,53.5,778.492" transform="translate(849.842 422.234)" fill="#d7eeff"/>
          <path id="Trazado_1158" data-name="Trazado 1158" d="M233.157,447.65c-6.069,82.636-33.054,627.338-33.128,669.092-.039,19.2-3.306,58.286-8.42,108.073-41.4-59.707-45.129-591.447-43.424-626.4,2.028-41.45,14.455-280.232,31.536-395.041,4.9-32.976,8.381-58.188,11.09-77.424,32.486-15.552,54.94-17.233,54.274-15.136-25.609,81.911-7.176,272.258-11.928,336.838" transform="translate(576.421 429.148)" fill="#ebf8ff"/>
          <path id="Trazado_1159" data-name="Trazado 1159" d="M322.825,620.186c-2.542,23.262.3,569.982-41.039,584.487-6.549-71.091-14.391-157.464-21.092-234.335-.818-9.41-1.621-18.687-2.4-27.769-1.832-21.45-3.551-41.852-5.08-60.574-2.537-31.222-4.58-57.845-5.839-77.081-.9-13.662-1.371-23.605-1.371-28.876.034-40.877-.8-71.409-1.719-99.942-1.357-42.214-2.9-80.04-2.1-140.515.784-58.017,10.688-176.818,6.358-234.736-1.337-18-5.726-99.868-30.5-190.479-1.278-4.678,24.458-3.865,59.275,19.138,3.013,20.612,19.912,61.783,24.663,110.082,11.276,114.706,23.209,358.969,20.843,380.6" transform="translate(849.841 421.37)" fill="#ebf8ff"/>
          <path id="Trazado_1160" data-name="Trazado 1160" d="M442.947,647.321c-58.8,10.571-126.472-3-170.67-42.464,0,0-41.029-271.469-20.039-274.81,12.026-1.91,88.607,23.894,177.312,32.653,4.6,92.766,9.086,188.76,13.4,284.621" transform="translate(960.018 1286.261)" fill="#ebf8ff"/>
          <path id="Trazado_1161" data-name="Trazado 1161" d="M232.633,601.354c-33.7,30.1-81.068,45.134-127.731,45.878,5.285-51.223,8.548-84.3,8.719-90.557.4-15.665,10.688-99.119,22.371-206.031,60.9-10.933,107.52-25.555,116.68-24.105,20.99,3.341-20.039,274.815-20.039,274.815" transform="translate(408.949 1272.591)" fill="#ebf8ff"/>
          <path id="Trazado_1162" data-name="Trazado 1162" d="M370.125,317.714c-5.065,1.558-38.237,94.676-52.677,109.46-7.352,7.529-16.89,24.291-35.5,61.6-15.655,31.369-24.051,44.855-19.75,48.891,2.3,2.16,7.068.529,10.909-.788,10.654-3.645,16.689-10.615,26.74-22.812,14.225-17.252,20.955-26.113,33.177-35.592,6.921-5.369,10.429-8.029,12.716-6.926,7.455,3.581,14.926,65.212,15.925,72.751,4.962,37.492,3.13,88.994-3.1,119.188-8.166,39.584-3.781,78.732,13.417,35.979,24.957-62.033,23.395-112.619,23.38-83.851-.025,45.364-34.191,124.7-21.818,128.353,12.28,3.615,28.861-47.382,30.154-52.5,31.634-125.458,13.27-94.838,16.086-95.342s-39.364,166.928-18.79,145.257c42.577-44.835,30.987-159.036,30.865-159.046-.358-.034-19.442,82.91-12.716,133.7,3.306,25,41.847-102.563,35.19-151.1-3.811-27.813-11.937-85.247,5.192-140.021,1.974-6.309-17.718-33.113-32.236-58.717-10.076-17.757-44.713-52.31-57.164-48.479" transform="translate(1017.786 1237.428)" fill="#914141"/>
          <path id="Trazado_1163" data-name="Trazado 1163" d="M518.058,253.543c.495,3.169-28.342,30.728-123.684,73.265-35.058,15.665-48.626,45.114-65.536,55.151a26.184,26.184,0,0,1-4.81,2.273l-9.522-15.058-4.791-7.539v-.02c-4.33-8.322-7.539-18.932-18.051-37.879,32.692-21.607,87.941-52.658,101.069-57.35,83.018-29.581,122.176-33.476,125.325-12.844" transform="translate(1137.022 937.997)" fill="#b4dcf9"/>
          <path id="Trazado_1164" data-name="Trazado 1164" d="M274.268,648.583c1.024,5.388,27.622,30.292,66.109,59.991,18.624,14.367,46.4,23.458,70.7,37.933,16.253,9.65,65.256-44.644,78.007-63.238.994-1.45,3.669-5.6,7.661-11.883,32.491-51,151.934-242.98,161.216-279.16,10.262-40.059,14.538-60.294,14.8-67.637.563-16.86-6.025-46.251-55.695-84.38-21.553-2.817-52.854,1.166-91.076,16.7C467.309,280.767,414.22,337.539,397.649,364.26c-41.7,67.24-75.744,157.606-80.525,166.541-2.307,4.3-4.595,8.719-6.853,13.235-20.676,41.387-38.683,90.121-36,104.547" transform="translate(1068.172 933.163)" fill="#d7eeff"/>
          <path id="Trazado_1165" data-name="Trazado 1165" d="M277.99,649.807c1.024,5.388,27.622,30.292,66.109,59.991,18.624,14.367,46.4,23.458,70.7,37.933,16.253,9.65,65.256-44.644,78.007-63.238.994-1.45,3.669-5.6,7.661-11.883,32.491-51,151.934-242.98,161.216-279.16,10.262-40.059,14.539-60.294,14.8-67.637.563-16.86-6.025-46.251-55.695-84.38-21.553-2.817-52.854,1.166-91.076,16.7-58.683,23.855-111.772,80.628-128.343,107.348-41.7,67.24-75.744,157.606-80.525,166.54q-3.461,6.444-6.853,13.24c-20.676,41.382-38.683,90.116-36,104.542" transform="translate(1082.681 937.935)" fill="#d7eeff"/>
          <path id="Trazado_1166" data-name="Trazado 1166" d="M274.268,406.115c1.024,5.388,27.622,30.292,66.109,59.991,18.624,14.367,46.4,23.458,70.7,37.933,16.253,9.65,65.256-44.644,78.007-63.238.994-1.45,3.669-5.6,7.661-11.884-38.864-7.117-84.605-18.315-127.667-55.793-34.568-30.071-44.909-57.507-58.81-71.556-20.676,41.387-38.683,90.121-36,104.547" transform="translate(1068.172 1175.632)" fill="#ebf8ff"/>
          <path id="Trazado_1167" data-name="Trazado 1167" d="M164.387,955.15C118.352,933.343,61.178,825,50.686,711.548c-6.241-67.441.754-65.222-7.054-128.2-11.31-91.154-17.463-217.871-11.918-260.413.3-2.361.725-6.838,1.254-12.795C36.3,273.147,44.357,179.1,61.286,180.155c15.391.965,48.915,6.324,117.669-11.266,31.311-8.019,47.054-11.981,51.017-10.081,6.461,3.115,20.706,47.8,37.321,113.359,32.05,126.462,59.207,294.668,64.38,471.446,1.665,57.056,10.14,160.623-50.61,205.155-27.3,20.01-75.9,25.7-116.675,6.383" transform="translate(115.571 617.264)" fill="#d7eeff"/>
          <path id="Trazado_1168" data-name="Trazado 1168" d="M264.649,272.168c-11.7,2.616-33.069,1.886-48.7,5.07C148.013,291.1,125.4,295.328,74.086,300.153c-14.3,1.357-31.9,8.979-43.762,9.988C33.66,273.148,41.713,179.1,58.642,180.157c15.391.965,48.915,6.324,117.669-11.266,31.311-8.019,47.054-11.986,51.017-10.081,6.461,3.11,20.705,47.8,37.321,113.359" transform="translate(118.215 617.263)" fill="#ebf8ff"/>
          <path id="Trazado_1169" data-name="Trazado 1169" d="M121.431,484.721a3.5,3.5,0,0,1-3.493-3.267C110.64,373.5,97.894,290.935,81.014,200.173a3.5,3.5,0,0,1,6.887-1.279c16.929,91,29.7,173.8,37.027,282.089a3.5,3.5,0,0,1-3.257,3.728,2.013,2.013,0,0,1-.24.01" transform="translate(315.589 764.199)" fill="#b4dcf9"/>
          <path id="Trazado_1170" data-name="Trazado 1170" d="M355.118,387.291c-.4,0-.8,0-1.215-.02C290.288,385.366,239.79,227.5,234.24,209.508a2.866,2.866,0,0,1,5.476-1.69c2.16,7.019,53.7,171.914,114.358,173.731,10.953.362,20.4-3.821,33.6-25.486a2.862,2.862,0,0,1,4.889,2.978c-12.314,20.211-22.91,28.249-37.443,28.249" transform="translate(912.665 802.29)" fill="#77c0e0"/>
          <path id="Trazado_1171" data-name="Trazado 1171" d="M274.251,407.619c-11.124,0-21.7-6.147-35.234-19.932a2.863,2.863,0,0,1,4.085-4.012c17.771,18.1,27.9,20,38.5,17.2,58.663-15.538,71.433-187.824,71.948-195.152a2.863,2.863,0,1,1,5.711.4c-1.323,18.785-14.676,183.994-76.195,200.286a34.316,34.316,0,0,1-8.817,1.21" transform="translate(928.584 791.601)" fill="#77c0e0"/>
          <path id="Trazado_1172" data-name="Trazado 1172" d="M254.514,257.589h0a8.2,8.2,0,0,1-11.531-.764l-5.364-6.128a8.171,8.171,0,0,1,12.295-10.767l5.364,6.128a8.194,8.194,0,0,1-.764,11.531" transform="translate(918.486 924.517)" fill="#006989"/>
          <path id="Trazado_1173" data-name="Trazado 1173" d="M315.286,103.353c-2.425,8.322-4.6,14.063-5.628,15.861a31.7,31.7,0,0,1-2.082,3.2,262.619,262.619,0,0,0-37.14,25.041c-45.589,36.792-78.472,88.911-98.11,155.744-.534,1.793-1.029,3.586-1.548,5.423C147.9,391.487,147.3,510.7,152.247,544.5a6.663,6.663,0,0,1-5.648,7.558,5.415,5.415,0,0,1-.975.078,6.673,6.673,0,0,1-6.6-5.707c-5.168-35.42-4.443-162.161,20.5-247.007.593-2.023,1.2-4.046,1.832-6.049q23.27-75.232,68.529-125.786a274.459,274.459,0,0,1,85.4-64.238" transform="translate(531.961 402.911)" fill="#006989"/>
          <path id="Trazado_1174" data-name="Trazado 1174" d="M378.7,434.564a6.679,6.679,0,0,1-13.324.955c-5.511-75.822-20.206-140.937-43.7-193.879q-4.041-9.1-8.435-17.747c-19.564-38.438-43.664-68.362-71.967-89.469a187.779,187.779,0,0,0-19.025-12.442,26.226,26.226,0,0,1-3.336-4.428,88.367,88.367,0,0,1-7.122-15.9q36.3,16.26,65.516,47.025h.02q26.275,27.649,46.545,66.677v.02c.436.8.857,1.621,1.278,2.444,29.253,57.5,47.27,130.42,53.554,216.739" transform="translate(825.633 396.307)" fill="#006989"/>
          <path id="Trazado_1175" data-name="Trazado 1175" d="M250.18,363.629a6.682,6.682,0,0,1-6.343-4.595c-20.039-60.907-17.042-120.28,8.023-158.816,12.143-18.668,28.43-29.9,45.859-31.649a79.572,79.572,0,0,1,62.215,23.071c28.778,28.773,39.672,80.334,32.393,153.246a6.68,6.68,0,1,1-13.294-1.327c6.769-67.764-3.1-117.033-28.543-142.47a65.785,65.785,0,0,0-51.443-19.226c-13.319,1.332-26.1,10.438-35.989,25.638-17.664,27.157-28.651,80.123-6.53,147.358a6.688,6.688,0,0,1-6.348,8.768" transform="translate(899.288 656.129)" fill="#006989"/>
          <path id="Trazado_1176" data-name="Trazado 1176" d="M131.7,223.923a33.079,33.079,0,1,0,33.079-33.079A33.076,33.076,0,0,0,131.7,223.923" transform="translate(513.43 743.985)" fill="#006989"/>
          <path id="Trazado_1177" data-name="Trazado 1177" d="M135.507,209.093a14.445,14.445,0,1,0,14.44-14.445,14.442,14.442,0,0,0-14.44,14.445" transform="translate(528.26 758.815)" fill="#0084ad"/>
          <path id="Trazado_1178" data-name="Trazado 1178" d="M268.954,255.849h0a8.2,8.2,0,0,0,11.056-3.36l3.831-7.186a8.171,8.171,0,1,0-14.416-7.7l-3.836,7.186a8.2,8.2,0,0,0,3.365,11.056" transform="translate(1031.653 909.455)" fill="#006989"/>
          <path id="Trazado_1179" data-name="Trazado 1179" d="M244.457,90.591A48.261,48.261,0,1,1,196.2,42.332a48.26,48.26,0,0,1,48.259,48.259" transform="translate(576.705 165.027)" fill="#914141"/>
          <path id="Trazado_1180" data-name="Trazado 1180" d="M304.015,90.591a48.261,48.261,0,1,1-48.259-48.259,48.26,48.26,0,0,1,48.259,48.259" transform="translate(808.886 165.027)" fill="#914141"/>
          <path id="Trazado_1181" data-name="Trazado 1181" d="M239.354,48.31c.642,9.008-5.9,19.481-8.935,27.916-2.885,8.028-4.374,18.878-10.331,25.143-1.71,1.793-4.227.255-4.463-1.852-1.024-9.023,5.452-19.961,8.729-28.288,2.968-7.548,5.535-18.839,11.854-24.223a1.869,1.869,0,0,1,3.145,1.3" transform="translate(840.174 181.312)" fill="#38192a"/>
          <path id="Trazado_1182" data-name="Trazado 1182" d="M220.938,49.616c7.259,2.415,12.633,9.013,14.754,16.282,1.964,6.716,1.945,17.448-4,22.209a3,3,0,0,1-4.962-2.89c1.176-6.3,3.693-10.7,2.082-17.419-1.523-6.343-4.913-10.7-9.841-14.808-1.553-1.293.108-3.992,1.964-3.375" transform="translate(851.248 193.07)" fill="#38192a"/>
          <path id="Trazado_1183" data-name="Trazado 1183" d="M182.892,102.269c-9.846-16.429-21.734-32.942-29.248-50.581-1.773-4.159,3.5-7.47,6.157-3.6,10.86,15.827,18.408,34.759,26.99,51.9,1.293,2.581-2.39,4.791-3.9,2.278" transform="translate(597.574 180.77)" fill="#38192a"/>
          <path id="Trazado_1184" data-name="Trazado 1184" d="M163.177,52.921c-2.243,4.492-3.88,8.592-3.571,13.72.3,5.084,2.841,8.66,5.119,13,1.1,2.087-1.21,4.854-3.409,3.414-10.007-6.554-9.841-24.913-.842-32.217a1.73,1.73,0,0,1,2.7,2.087" transform="translate(599.435 196.437)" fill="#38192a"/>
          <path id="Trazado_1185" data-name="Trazado 1185" d="M207.392,43.242c4.134,12.413-4.6,26.966-10.047,37.708-3.336,6.579-6.789,13.466-7.818,20.857-.857,6.143-.073,10.341,6.667,11.369,6.064.931,11.129-.3,17.071-1.068,4.149-.534,5.271,5.1,1.778,6.838-7.833,3.889-20.794,4.644-28.626.1-7.6-4.413-5.863-15.606-4.017-22.709,2.361-9.082,7.083-17.414,11.595-25.565,4.987-9.008,7.509-17.845,10.551-27.558a1.559,1.559,0,0,1,2.846.029" transform="translate(704.875 164.92)" fill="#38192a"/>
          <path id="Trazado_1186" data-name="Trazado 1186" d="M197.732,57.912A13.365,13.365,0,1,0,211.1,44.544a13.369,13.369,0,0,0-13.368,13.368" transform="translate(770.837 173.65)" fill="#38192a"/>
          <path id="Trazado_1187" data-name="Trazado 1187" d="M167.4,58.34a13.365,13.365,0,1,0,13.368-13.368A13.369,13.369,0,0,0,167.4,58.34" transform="translate(652.591 175.319)" fill="#38192a"/>
          <path id="Trazado_1188" data-name="Trazado 1188" d="M229.956,67.041c-4.668,7.451-12.893,10.811-21.435,11.516-8.783.73-21.538-.3-28.166-6.662-1.935-1.861-1.112-5.653,1.646-6.226,7.147-1.484,13.848,2.052,20.99,2.7,8.357.764,15.361-1.626,22.415-5.883,2.812-1.7,6.324,1.714,4.551,4.551" transform="translate(698.975 241.842)" fill="#38192a"/>
          <path id="Trazado_1189" data-name="Trazado 1189" d="M259.522,47.6c-10.394-.289-20.99-.705-31.335.6-9.934,1.254-19.2,5.932-29.043,6.774-4.056.348-6.74-5.761-3.473-8.386C203.861,40,215.8,38.588,226,37.613c11.805-1.132,23.258-.157,34.3,4.227,2.861,1.136,2.782,5.854-.779,5.756" transform="translate(757.116 144.94)" fill="#38192a"/>
          <path id="Trazado_1190" data-name="Trazado 1190" d="M211.581,52.964c-14.509-3.644-27.255-6.544-42.234-3.14-7.014,1.6-9.9-9.444-2.949-10.693,15.788-2.831,34.3-2.15,47.99,7.176,3.341,2.273,1.347,7.7-2.807,6.657" transform="translate(633.142 146.812)" fill="#38192a"/>
          <path id="Trazado_1191" data-name="Trazado 1191" d="M219.018,157.247a62.053,62.053,0,1,1,62.053-62.053,62.124,62.124,0,0,1-62.053,62.053m0-120.726a58.673,58.673,0,1,0,58.673,58.673,58.738,58.738,0,0,0-58.673-58.673" transform="translate(611.912 129.197)" fill="#d7eeff"/>
          <path id="Trazado_1192" data-name="Trazado 1192" d="M251.35,157.809A62.053,62.053,0,1,1,313.4,95.756a62.124,62.124,0,0,1-62.053,62.053m0-120.726a58.673,58.673,0,1,0,58.673,58.673A58.737,58.737,0,0,0,251.35,37.083" transform="translate(737.954 131.388)" fill="#d7eeff"/>
          <path id="Trazado_1193" data-name="Trazado 1193" d="M183.1,64.65a1.687,1.687,0,0,1-1.69-1.69c0-9.993,10.135-18.761,21.685-18.761,9.924,0,17.673,6.236,20.725,16.679a1.691,1.691,0,1,1-3.248.945c-1.249-4.281-5.462-14.245-17.478-14.245-9.753,0-18.305,7.186-18.305,15.381a1.687,1.687,0,0,1-1.69,1.69" transform="translate(707.212 172.305)" fill="#d7eeff"/>
          <path id="Trazado_1194" data-name="Trazado 1194" d="M190.234,355.171C196.1,415.49,200.78,476.009,202.74,536.592c.157,4.727,7.6,4.722,7.348,0-3.194-60.7-7.891-121.118-15.606-181.422-.338-2.65-4.516-2.753-4.247,0" transform="translate(741.559 1376.697)" fill="#5a3d73"/>
        </g>
      </g>
    </g>
    <g id="Grupo_582" data-name="Grupo 582" transform="translate(3258.35 19122.977)">
      <g id="Grupo_562" data-name="Grupo 562" transform="translate(0 0)" clip-path="url(#clip-path-3)">
        <path id="Trazado_1195" data-name="Trazado 1195" d="M6.646,377.059c-4.368-.893-4.535-4.111-4.323-8.647.831-17.532,1.1-35.09,1.494-52.64.645-28.017,1.167-56.035,1.919-84.052.062-2.467.681-5.579,2.263-7.232,6.666-6.949,6.816-6.825-1.441-12.439-.637-.433-1.043-1.2-.681-.769,0-32.367-.239-63.691.088-95.006C6.186,95.779,7.38,75.295,7.822,54.792c.124-5.87-2.44-12.174-1.034-17.567C9.97,24.98,6.169,13.23,6.151,1.339,6.929.817,7.627-.058,8.229,0,28.492,1.887,48.235,5.6,65.678,16.988c1.689,1.105,3,2.953,4.8,3.7,27.292,11.37,46.5,32.173,64.231,54.744,3,3.819,6.313,7.382,9.248,11.246C160.87,109,178.154,131.038,194.4,153.83c9.062,12.7,16.55,26.559,24.278,40.165,1.883,3.324,1.9,7.7,2.988,12.545,8.443-1.4,12.475,4.633,15.923,11.529,1.034,2.078,1.963,5.34,3.6,5.817,10.733,3.1,16.718,12.4,24.72,18.84,15.888,12.775,34.065,18.54,53.657,20.529,5.738.575,11.856-1.6,17.664-3.033,14.526-3.581,29.087-6.79,40.528-17.868,8.965-8.673,20.175-15.286,28.088-24.737,12.112-14.473,22.81-30.237,33.039-46.142,8.779-13.668,14.11-29.52,26.232-41.748,4.173,3.837,8.249,7.586,12.678,11.661,3.678-2.511,6.923-4.73,10.786-7.373-.8-3.819.5-8.691-6.719-9.522v7.462c-7.586-2.6-7.7-9.743-12.554-14.8,3.9-4.385,7.524-8.461,11.149-12.546.5-.557,1.4-1.1,1.415-1.671.4-13.942,11.944-21.289,18.708-31.43,1.883-2.811,5.137-4.721,7.78-7.02,1.812-1.583,4.314-2.767,5.4-4.739,5.287-9.548,12.439-16.444,22.89-20.52,3.492-1.37,5.773-5.42,10.423-2.935.928.5,2.882.557,3.457-.044,6.189-6.489,15.136-6.5,22.616-9.911,6.958-3.183,13.377-5.667,21.82-4.085,8.885,1.671,18.434-.159,27.69-.389,1.521-.035,3.324-.186,4.536.513C638.2,28.79,651.7,27.19,662.8,33.7c2.882,1.689,7.029.946,8.726,5.181.451,1.114,3.059,2.537,3.864,2.148,5.773-2.847,7.144,2.131,10.556,4.73,20.326,15.507,32.482,37.787,48.37,56.946,1.229,1.476,3.077,3.413,2.891,4.924-.672,5.561,2.246,6.728,6.834,7.771,2.352.53,4.757,3.165,6.083,5.455,8.1,13.96,20.246,24.9,28.044,39.237,5.42,9.955,14.181,18.054,21.1,27.231,8.965,11.882,17.567,24.03,26.355,36.036a9.892,9.892,0,0,0,2.52,2.52c11,6.958,17.832,17.7,25.9,27.469,8.213,9.946,17.93,18.655,26.974,27.911,1.609,1.653,3.174,3.368,5.234,5.552-2.617,1.644-4.544,2.856-6.534,4.1.274.61.38,1.556.849,1.786,3.925,1.98,7.922,3.828,11.891,5.72,1.07.5,2.67,1.759,3.13,1.423,7.568-5.446,12.669,1.751,18.752,3.563,11.6,3.448,23.181,7.2,35.382,3.289a38.526,38.526,0,0,0,9.584-4.907c18.451-12.5,34.188-27.425,44.267-47.848,2.4-4.88,7.586-8.355,11.263-12.66,8.753-10.238,17.364-20.591,26.559-31.527,3.1,2.272,5.853,4.279,8.381,6.136,6.843-3.086,6.507-10.256,5.066-13.783-3.811-9.327.734-15.755,5.163-22.253,9.823-14.438,20.644-28.221,30.086-42.9,3.74-5.809,7.568-8.921,14.323-8.753,1.008.027,2.042-1.194,3.492-2.113-.566-2.555-1.15-5.172-1.875-8.479,2.82-.389,5.34-.734,8.125-1.114-5.384-12.431,4.43-18.911,11.122-24,7.418-5.649,10.821-16.772,22.112-17.267,6.1-10.105,16.046-16.48,25.453-22.235,12.766-7.807,24.79-18,41.067-19.114,5.853-.4,11.67-2.944,17.258-5.137,17.753-6.967,36.788-6.109,55.159-9.265,4.553-.778,9.513.822,14.3,1.326.5,16.984,1.335,33.517,1.353,50.049.009,14.765-1.105,29.538-1.344,44.312-.186,11.5.363,23.013.318,34.524-.106,23.455-.539,46.9-.575,70.357-.026,17.956.557,35.913.5,53.869-.08,23.075-.734,46.159-.716,69.235.009,12.669.866,25.339,1.362,38.008.035.8.645,1.98.309,2.334-5.747,5.968-1.441,12.192-.973,18.5.928,12.749.867,25.577.867,38.37,0,3.713-2.564,5.57-6.516,5.649-6.454.124-12.926.955-19.353.672-2.051-.088-4.465-2.414-5.871-4.332-3.085-4.217-7.1-5.048-8.169-.813-1.768,7.064-6.366,6.145-11.166,6.021q-23.884-.637-47.777-1.335c-1.158-.035-2.316-.3-4.137-.557-.248-3-.486-5.906-.911-11.219-3.483,3.333-6.03,5.031-7.568,7.391-3.05,4.677-9.327,7.312-13.757,5.057-1.441-.725-2.679-1.83-4.076-2.652-1.379-.813-2.829-1.485-4.306-2.246-8.408,7.179-18.275,4.518-27.708,4.73-12.4.283-24.8.875-37.2,1.061-3.51.062-7.037-1.273-10.539-1.22-17.673.283-35.347,1.167-53.011,1.149-14.5-.009-28.99-1.176-43.489-1.432-8.381-.15-16.789.8-25.17.628-4.4-.088-9.416-.5-10.733-7.108-7.382,5.676-15.552,5.4-24.083,6.145-23.393,2.06-46.646.088-69.942.265-7.064.044-13.925.177-20.953-.681-4.226-.513-8.779.725-13.058,1.724-8.956,2.113-15.825-.247-19.822-7.869-5.207,5.039-10.468,7.453-18.6,7.082-20.1-.9-40.307,1.149-60.482,1.353-13.041.133-26.09-1.105-39.14-1.353-15.728-.3-31.448-.194-47.176-.274-3.112-.018-6.224-.115-9.336-.124-9.195-.018-18.381,0-28.309,0-.08-.141-.867-1.494-2.29-3.934-6.383,13.1-17.5-.451-24.87,6.189-3.961-3.475-7.3-6.4-10.83-9.5-6.719,7.32-14.544,8.655-24.366,8.019-19.963-1.282-40.059-.637-60.1-.513-16,.088-32,.743-48,.866-12.4.1-24.808-.186-37.221-.4-18.3-.318-36.6-.645-54.9-1.158-3.536-.106-7.055-1.043-10.556-1.715-1.123-.212-2.59-1.468-3.2-1.1-12.749,7.833-26.417,1.812-39.59,2.582-17.346,1.008-34.763,1.149-52.145,1.308-15.56.141-31.121-.177-46.672-.345-14.367-.159-28.848-1.609-43.065-.239-17.046,1.636-34.1-1.662-50.863.84-13.73,2.051-27.045-1.459-40.554-.477-2.414.177-4.951-.424-7.259.1-14.208,3.209-28.23-.53-42.34-.919-1.538-.044-3.687-.849-4.5-.124-3.74,3.351-4.854.345-5.8-2.263-.513-1.415-.035-3.192,0-4.8.336-16.878.416-33.782,1.229-50.642.168-3.395,3.112-6.657,5.181-10.795m53.559-36.576c-4.456-1.335-8.921-2.661-14.367-4.288-1.662,5.057-3.068,9.319-4.314,13.129,5.87,1.309,10.247,2.281,14.278,3.183,1.432-4.129,2.838-8.187,4.146-12.386,1.521-3.112,3.033-6.215,4.978-10.2-7.948,2.122-5.517,6.6-4.721,10.565m455.4,14.552c-10.265-3.872-18.885-7.126-27.832-10.5-2.794,4.942-5.649,8.859-1.963,12.934,4.65-.345,9.106-2.025,11.9-.548,3.483,1.839,5.6,6.268,9.354,10.875,3.077-4.6,5.517-8.249,8.541-12.758M1137.82,210.36c-.486.946-.981,1.9-1.476,2.847,2.033,2.953,1.291,10.176,9.018,4.376.92-.69,3.59.442,5.172,1.247,3.961,2.033,7.763,4.359,11.661,6.578,3.015-5.092,5.084-8.567,7.551-12.731-6.047.778-10.645,2.175-15.048,1.724-5.7-.575-11.255-2.626-16.878-4.04m141.59-128.1c6.4-6.251,7.833-10.989,4.88-19.477-.654-1.874-3.793-2.891-8.09-5.932,1.477,6.047,2.237,9.151,3.386,13.863-4.173-1.176-6.719-1.892-9.309-2.626-2.785,9.124,2.635,12.006,9.133,14.172M611.43,342.738c-5.473-11.317-15.923-7.108-24.313-10.768,4.907,15.242,9.124,17.072,24.313,10.768m426.211-80.171c-1.043,5.411-1.68,8.7-2.307,11.944,17.275,3.9,19.769,3.917,24.905.69-6.861-3.837-13.81-7.718-22.6-12.634M585.225,378.73c.645-.15,1.291-.309,1.936-.46V359.058c1.9-1.335,3.872-2.723,6.586-4.642-4.306-2.131-7.55-3.749-10.494-5.207-1.53,6.2-2.794,11.343-4.376,17.753,1.689,3.13,4.014,7.453,6.348,11.767M217.073,325.9V312.7c-3.8-1.176-7.453-2.3-11.9-3.669a34.72,34.72,0,0,1,1.008,5.384,37.237,37.237,0,0,1-.681,4.659c-1.07,9.327,1.105,10.689,11.573,6.825m823.433,40.183c-5.331,2.193-9.522,5.013-13.925,5.393-3.731.318-6.843.937-7.179,4.341-.23,2.308,2.263,4.9,3.846,7.948,6.348-6.463,15.6-7.718,17.258-17.682m153.809-88.632c4.323,8.028,3.112,15.543-1.406,23.075.751.283,1.5.557,2.255.84,3.245-2.573,6.5-5.137,11.617-9.186-10.344-1.963-1.07-14.234-12.466-14.729M28.475,276.129c-10.309-1.026-10.309-1.026-16.5,3.89,3.3,3.864,6.065,9.4,12.068,6.914,2.254-.928,2.7-6.242,4.429-10.8M581.945,117.59c-.875-.575-2.078-1.945-3.43-2.122-1.848-.248-3.811.416-5.72.69,1.14,1.865,1.918,4.889,3.5,5.411,7.435,2.422,16.179-2.44,19.8-10.795-6.4-1.273-8.735,5.278-14.155,6.817M275.433,325.763c9.3-1.574,18.053-3.05,29.777-5.031-10.318-1.627-18.027-2.838-26.24-4.129-1.008,2.6-2.352,6.074-3.536,9.159M911.081,357.52c6.038-6.047,10.874-10.892,16.383-16.4-8.231-1.945-12.546,3.651-17.894,6.631.5,3.245.919,5.9,1.512,9.769m149.3,29.671c4.005-12.015,3.36-13.536-5.773-15.56,1.105,3.563.964,6.693-3.616,8.638,3.077,2.263,5.844,4.306,9.389,6.923M598.805,362.347c1.07,5.694,2.139,11.423,3.209,17.125,5.994-1.291,5.994-1.291,5.411-7.9-.734-8.231-1.733-9.239-8.62-9.221M1212.669,83.278c-.858.044-1.715.088-2.573.124a30.138,30.138,0,0,0-.486,4.244c.018,1.485.831,3.068.513,4.421-1.954,8.152-1.353,8.673,8.611,6.224-2.042-5.057-4.049-10.035-6.065-15.012M111.5,125.406c4.615,1.2,8.213,2.14,12.466,3.245.663-10.715-10.777-6.348-13.288-12.324.248,2.705.486,5.42.822,9.08m649.661,214.98c5.685,6.233,5.685,6.233,19.981,5-5.358-6.817-12.431-2.175-19.981-5M391.8,295.243c-.716-.858-1.432-1.715-2.148-2.582-2.246.451-4.491.884-6.728,1.353-3.439.716-5.26,3.315-3.439,5.977,1.087,1.583,5.269,2.529,7.135,1.7,2.237-1,3.5-4.2,5.181-6.445m772.942-22.775c-.071,8.717,5.358,9.637,12.952,9.867-3.245-5.977-4.6-12.289-12.952-9.867m1.229-157.106c-6.94,3.457-5.066,10.344-8.47,16.772,11.7-2.705,4.836-12.059,8.47-16.772M88.983,225c-9.089-3.713-11.935-1.936-14.729,10.105Q81.959,229.828,88.983,225m988.4,181.313c1.185,11.1,1.185,11.1,10.238,10.786.477-7.294-6.295-6.843-10.238-10.786m152.748-80.7c-2.325,2.608-3.386,3.368-3.793,4.385a7.318,7.318,0,0,0-.018,3.094c5.3.133,3.395,11.016,11.856,7.541-2.582-4.818-4.933-9.2-8.045-15.021M582.944,180.76c-.725.8-1.441,1.609-2.166,2.4,2.157,2.838,4.306,5.667,7.586,9.973,3.245-2.6,5.234-4.191,9.124-7.3-7.365-2.573-10.954-3.819-14.544-5.075M201.4,305.358c2.926-5.95,11.379-5.4,11.078-12.625-4.712,1.2-9.177,2.334-13.934,3.536.831,2.635,1.636,5.19,2.856,9.089m432.3-74.637c-7.869,4.96-4.677,9.168-2.635,13.96,9.769-3.422,5.119-8.178,2.635-13.96m485.791,5.87c-2.387-4.81-9.212-4.73-7.789-10.645.044-.195-2.741-1.7-3.757-1.335-.99.354-2.078,2.369-1.972,3.563.345,3.943,7.444,8.611,13.518,8.417M216.127,350.208c-7.347,12.89-6.675,15.189,1.406,16.524-.46-5.42-.928-10.972-1.406-16.524M1093.464,167.94c-2.025-5.2-2.4-10.123-8.028-8.938-5.941,1.255-2.546,5.384-1.883,8.938ZM482.377,233.073c-.973.4-1.945.8-2.909,1.194,5.747,4.553-5.543,9.937,2.67,15.242,2.069-4.871,3.881-9.115,5.95-13.969-2.281-.99-4-1.724-5.711-2.467M286.75,425.031c-3.13,4-5.614,7.188-8.107,10.371.345.734.69,1.459,1.034,2.193,3.342-.813,6.684-1.627,10.777-2.626-1.459-3.908-2.4-6.445-3.7-9.937m761.139-93.68c1.538-2.794,2.918-5.3,5.862-10.645-6.781,2-10.618,3.139-15.861,4.686,4.067,2.422,6.728,4,10,5.959m-360.5-147.2c-5.535-2.582-9.283-2.511-11.414,1.865-.451.937,1.229,4.058,2.5,4.491,5.092,1.742,6.41-2.343,8.912-6.357M12.092,183.121c4.5-2.078,11.272,3.307,14.827-3.881-6.489-3.6-11-1.194-14.827,3.881m85.37-37.84c-4.951-3.651-9.071-6.693-14.261-10.521,4.058,10.8,4.261,10.945,14.261,10.521M619.1,153.246c-.018.884-.044,1.768-.062,2.652,2.511,1.114,4.942,2.679,7.568,3.139,1.353.239,3.05-1.494,4.588-2.334-1.008-1.556-1.9-4.306-3.05-4.421-2.953-.309-6.021.566-9.044.964m-510.635,4.88c13.942.133,13.942.133,12.758-6.189-4.306,2.087-8.532,4.138-12.758,6.189m54.718,250.185c.778.919,1.565,1.83,2.352,2.75,2.8-.875,5.605-1.751,10.857-3.386-3.669-2.652-6.18-5.543-7.347-5.084-2.343.937-3.952,3.7-5.862,5.72M651.7,51.132c1.379-4.721,2.281-7.833,3.439-11.8-10.309,4.924-10.309,4.924-3.439,11.8M819.028,301.883c-10.079-4.721-10.158-4.65-10.309,6.808l10.309-6.808M94.615,70.9c-1.733,4.933-.645,6.816,3.183,6.481,3.439-.292,6.861-.875,12.121-1.574C103.969,73.9,99.6,72.5,94.615,70.9M662.532,324.87c-10.875,3.28-10.875,3.28-7.869,9.4,2.617-3.121,5.119-6.118,7.869-9.4M83.192,64.614c-6.136,10.954-5.985,11.414,4.244,13.094-1.423-4.394-2.635-8.143-4.244-13.094M867.168,429.929c4.474.309,7.656.539,11.4.8-5.393-8.284-5.393-8.284-11.4-.8M542.593,43.785c-6.065,7.02-6.065,7.02,3.192,10.768-1.061-3.581-1.883-6.374-3.192-10.768M996.8,346.195c-6.746-2.316-6.746-2.316-13.3,9.133,4.951-3.4,8.381-5.756,13.3-9.133M462.652,424.916c2.157-2.334,3.74-4.04,6.277-6.772-4.571-.707-7.488-1.158-12.546-1.936,2.758,3.837,4.253,5.906,6.268,8.708m347.34-21.342c-1.114-.477-2.219-.955-3.333-1.432-1.317,3.28-2.909,6.507-3.749,9.911-.177.707,2.431,2.1,4.765,3.987.946-5.11,1.627-8.788,2.316-12.466m268.831-205.635c-5.88-.088-9.478.265-7.86,5.614.548,1.83,2.59,3.209,5.26,6.3,1.079-4.942,1.706-7.807,2.6-11.918m-95,166.009q-2.811,6.432-5.614,12.873c6.949-2.431,6.684-7.533,5.614-12.873M363.287,401.92c-1.317-5.42-3.422-7.232-6.94-5.216-1.123.637-1.158,3.165-1.689,4.836,2.635.115,5.278.23,8.629.38M707.86,321.351c-2.131,4.217-6.737,6.578-5.3,12.492,7.736-7.736,7.736-7.736,5.3-12.492m-594.369-41.73v7.771c3-.522,5.57-.973,9.522-1.662-4-2.564-6.454-4.146-9.522-6.109M66.81,175.323c-2.926-5.764-5.738-6.7-8.779-2.546-.911,1.238-.424,3.51-.681,6.481,3.669-1.529,6.118-2.546,9.46-3.934m115.155,51.3c.787-.38,1.583-.76,2.369-1.141A67.516,67.516,0,0,0,181,217.663c-.23-.407-2.511.327-5.048.725l6.012,8.24m454.052-111.76c-.955-.416-1.91-.831-2.856-1.255q-2.361,5.238-4.712,10.477c.734.345,1.476.7,2.219,1.043,2.316-3.13,6.958-5.022,5.349-10.265M24.346,102.631c3.466-1.194,4.854-1.574,6.153-2.148,1.459-.645,2.838-1.476,5.128-2.7-6.056-4.438-8.2-1.591-11.281,4.845M383.834,415.774c3.545-3.536,3.66-6.277.1-8.178-1.308-.7-3.545.345-8.2.973,3.775,3.36,5.782,5.145,8.1,7.205m432.3-27.2c-4.544,3.89-5.87,7.559,1.087,12.439-.469-5.358-.778-8.894-1.087-12.439M1258.015,85.939c1.3,5.888,3.678,8.443,9.239,5.313-.212-5.87-3.351-6.825-9.239-5.313M769.288,379.251c-10.309-1.167-10.309-1.167-9.283,7.02,3.112-2.352,5.632-4.261,9.283-7.02m-380.415-7.577c1.972-1.68,3.324-2.829,4.668-3.97-1.468-1.344-2.767-3.307-4.482-3.784-.9-.256-3.386,1.945-3.581,3.262-.159,1.149,1.883,2.617,3.395,4.491m-62.666-11.4c.911-3.315,1.821-6.622,3.209-11.688-4.35,3.97-8,6.233-3.209,11.688M55.069,30.09c3.492-2.237,6.083-3.9,9.354-5.985-6.587-1.98-6.587-1.98-9.354,5.985M1235.293,378.969l-4.4-.69A53.317,53.317,0,0,0,1230.8,385c.018.3,3.023.69,3.05.583.628-2.166,1.008-4.394,1.441-6.613m-923.187,17.32c-3.192,6.242-5.075,10.459,3.3,12.439-1.105-4.164-1.954-7.382-3.3-12.439M265.637,316.55c-2.1-5.535-4.721-6.489-8.461-4.889-.486.212-.592,1.3-1.132,2.6,2.811.672,5.508,1.317,9.593,2.29M470.185,169.169c-1.141,7.612-1.141,7.612,6.657,4.924-2.449-1.8-4.412-3.254-6.657-4.924M690.92,184.261c8.054,2.626,8.187-3.059,9.752-6.852-2.909,2.042-5.817,4.085-9.752,6.852M993.975,287.269c-.6.318-1.2.637-1.8.964.751,2.078,1.034,4.624,2.449,6.056.76.778,3.457-.363,7.082-.911-3.687-2.909-5.711-4.509-7.727-6.109M643.753,234.231c1.185.23,2.369.451,3.554.681q.225-3.368.451-6.746c-1.07.009-2.979-.212-3.05.071a44.8,44.8,0,0,0-.955,5.994m43,29.7c.433-4.783-.539-8.24-6.878-5.526l6.878,5.526M1127.7,261.55c-7.02-3.8-7.02-3.8-8.143,3.519,2.484-1.07,4.482-1.936,8.143-3.519M930.841,439.778c8.143.9,8.143.9,6.03-8.372-2.29,3.174-3.536,4.907-6.03,8.372M1062.75,298.806c-2.927,2.555-4.659,4.076-7.055,6.171,5.906,2.891,7.665,1.432,7.055-6.171M65.431,145.13,57.314,150.1c4.8,2.873,7.382,2.219,8.116-4.969m745.853,171.1c.23,1.255.46,2.5.69,3.757q4.23-.8,8.443-1.591c-.194-1.114-.4-2.237-.6-3.36l-8.531,1.194M53.442,84.666c-3.625,6.87.584,7.957,4.889,8.991-1.441-2.652-2.891-5.313-4.889-8.991M583.961,83.49c-3.041-6.251-5.87-7.144-12.006-3.28,4.668,1.273,7.533,2.06,12.006,3.28M140.8,422.29c4.288-7.86,1.379-9.38-4.659-11,1.653,3.89,2.714,6.392,4.659,11m1080.134-85.608c-.513-1.114-1.017-2.228-1.529-3.351q-3.7,1.83-7.4,3.651c.309.725.619,1.459.937,2.184q3.992-1.247,7.992-2.484m-97.27,41.721c-3.643,2.891-5.968,4.73-9.885,7.833,7.347,1.273,10.83.9,9.885-7.833M717.391,359.341c0-6.816-1.459-8.93-6.162-6.675-.522.256-.654,1.317-1.185,2.476,1.883,1.079,3.784,2.166,7.347,4.2M1252.153,80.714l2.732-.5c-.451-2.246-.911-4.5-1.361-6.755-.831.159-1.662.309-2.5.46.38,2.263.751,4.527,1.132,6.8m-69.6,3.05c-.274-.955-.539-1.919-.813-2.873-2.131.8-4.261,1.6-6.392,2.4.195.654.4,1.308.592,1.963q3.315-.743,6.613-1.494M678.083,82.606c-.937-.15-1.874-.309-2.811-.46-.486,1.919-.981,3.828-1.468,5.747a28.749,28.749,0,0,0,2.935.592c.575-1.927.937-3.908,1.344-5.879M557.119,146.28c.619-5.641-.849-8.655-7.135-6.206l7.135,6.206m184.346,21.67,2.6.769,2.255-6.551a19.044,19.044,0,0,0-3.05-.628c-.743,2.087-1.247,4.261-1.8,6.41M318.4,422.078c-1.158,1.733-2.564,2.918-2.564,4.093.009.946,1.795,2.679,2.67,2.608,1.07-.088,2.847-1.733,2.8-2.643-.044-1.185-1.565-2.316-2.909-4.058m435.8,3.581c1.2.221,2.414.433,3.616.654q.305-3.62.61-7.223c-.769-.159-1.538-.309-2.308-.469-.637,2.352-1.282,4.695-1.919,7.038M411.108,415.6c-.628-.645-1.247-1.291-1.865-1.936-1.176.725-2.785,1.185-3.421,2.237-.76,1.255-.69,3.015-1.494,7.312,3.563-4,5.172-5.809,6.781-7.612M529.88,228.979c-4.677-4.332-6.074.318-8.8,1.786.345.2.7.407,1.521.893,2.21-.813,4.739-1.742,7.276-2.679M512.666,405.006c-3.245,2.4-7.639,4.553-2.652,10.282,1.1-4.244,1.874-7.267,2.652-10.282m31.854,5.9c1.034-.389,2.069-.778,3.112-1.167-.822-1.715-1.574-3.466-2.537-5.092-.106-.177-1.362.309-2.078.5.5,1.919,1,3.846,1.5,5.764m53.188-170.766c2.184-4.544,3.51-6.056,3.165-6.9a4.739,4.739,0,0,0-3.395-2.414c-.681-.071-2.21,1.919-2.237,3-.044,1.415,1.026,2.864,2.467,6.321m-41.421-1.362h10.433c-3.9-5.614-6.56-4.721-10.433,0M825.906,368.633c-.221,1-.442,2-.663,2.988a55.523,55.523,0,0,0,5.773.5c.327-.009.637-1.344.955-2.069q-3.024-.7-6.065-1.423m375.066-25.9c-5.164,3.811-4.925,6.277,0,9.487Zm-862.75-8.576c-.725.981-1.459,1.972-2.193,2.953l6.843,4.695c.477-.637.955-1.273,1.423-1.91q-3.037-2.865-6.074-5.738m538.1-12.4c.38-.6.76-1.194,1.141-1.786l-4.509-3.766-2.1,3.448q2.732,1.048,5.464,2.1m-608.6-26.912q-1.472-1.485-2.926-2.971c-2.537,1.079-6.259,1.273-1.812,8.1q2.361-2.573,4.739-5.128M988.688,315.9c.283,1.1.566,2.184.849,3.28,2.148-.716,4.305-1.441,6.454-2.157-.247-.813-.486-1.636-.734-2.449q-3.276.663-6.569,1.326M564.776,311.67c-.327-.919-.654-1.839-.99-2.758-1.662.38-3.51.433-4.907,1.255-.893.513-1.114,2.166-2.617,5.455,4.3-1.989,6.4-2.971,8.514-3.952m47.3-6.516c7.055.416,7.9-2.042,6.445-7.648-2.29,2.723-3.872,4.6-6.445,7.648m-255.234-5.375c-.866-.875-1.733-1.759-2.6-2.643-1.68,1.485-3.368,2.962-5.048,4.438,1,1.008,1.989,2.016,2.988,3.033,1.556-1.609,3.1-3.218,4.659-4.827m187.573,2.016-1.812,1.468q2.135,2.732,4.27,5.446c.637-.522,1.282-1.043,1.927-1.565-1.459-1.786-2.926-3.572-4.385-5.349m546.654,7.515c2.087,1.591,3.095,2.962,4.173,3.015,1.149.062,2.369-1.123,3.563-1.759-.884-1.07-1.592-2.714-2.7-3.05-1.008-.309-2.449.8-5.04,1.795m-920.7,11.661c.035-.981.062-1.963.1-2.944a33.929,33.929,0,0,0-5-.195c-.239.018-.318,1.812-.477,2.794l5.384.345m378.558-31.4c.628-.354,1.247-.716,1.865-1.07-.866-1.759-1.733-3.51-2.6-5.269a14.051,14.051,0,0,0-2.184,1.644,53.786,53.786,0,0,0,2.918,4.695m8.753-27.717c-.69.716-1.37,1.432-2.06,2.157q2.9,2.772,5.809,5.552l2.086-2.193-5.835-5.517m635.6,4.642c.575.69,1.149,1.388,1.724,2.078,2.025-1.22,4.058-2.44,6.083-3.669-.345-.6-.69-1.211-1.026-1.821-2.263,1.14-4.527,2.272-6.781,3.413M896.087,335.833l.053-1.8c-2.343-.159-4.677-.309-7.02-.46-.018.751-.044,1.512-.062,2.263Zm262.961-4.562c-.531.928-1.061,1.848-1.591,2.776q3.13,1.286,6.259,2.582c.336-.778.681-1.565,1.017-2.343-1.892-1.008-3.784-2.007-5.685-3.015M565.607,346.424c.875.628,1.759,1.247,2.643,1.865a54.755,54.755,0,0,0,2.608-5.19,16.2,16.2,0,0,0-2.529-1.547c-.911,1.627-1.812,3.254-2.723,4.871m116-94.511c1.034-1.459,2.228-2.484,2.042-3.024a16.269,16.269,0,0,0-2.422-3.616c-.955.99-2.7,2.016-2.661,2.962.044,1.1,1.662,2.131,3.041,3.678M218.992,382.5c-.76-.212-1.521-.415-2.281-.628-.513,1.98-1.026,3.952-1.538,5.932.707.168,1.415.345,2.122.513.566-1.936,1.132-3.881,1.7-5.818m97.844,3.625c-.725-.106-1.459-.2-2.193-.309-.256,1.8-.539,3.616-.672,5.428a15.486,15.486,0,0,0,2.033.407q.424-2.772.831-5.526m35.63,34.763c-.239.955-.486,1.91-.734,2.865l6.357.8.318-1.91-5.941-1.751m809.155,1.653.477,1.821c1.919-.451,3.846-.893,5.773-1.344-.2-.716-.4-1.423-.592-2.131-1.892.548-3.775,1.105-5.658,1.653M397.688,426.6c-1.114.133-2.228.274-3.342.415.557,2.131,1.114,4.27,1.671,6.4l2.343-.451c-.221-2.122-.451-4.244-.672-6.366M718.593,103.551l-1.45,1.768c1.539,1.556,3.068,3.121,4.606,4.677.415-.424.84-.849,1.255-1.282-1.468-1.724-2.944-3.439-4.412-5.163m449.808-.15c.548-.884,1.1-1.768,1.653-2.643-1.715-1.149-3.43-2.308-5.146-3.457-.5.964-1.6,2.626-1.423,2.776a46.953,46.953,0,0,0,4.916,3.324" transform="translate(0.002 0.002)" fill="#084675"/>
      </g>
    </g>
  </g>
</svg>
