<?xml version="1.0" encoding="UTF-8"?><svg id="Capa_2" xmlns="http://www.w3.org/2000/svg" viewBox="0 0 291.32 276.07"><defs><style>.cls-1{fill:#f9f9f9;}.cls-2{fill:#62c1cf;}</style></defs><g id="Capa_1-2"><g><path class="cls-2" d="M145.64,272.34h0c-10.52,0-20.39-4.67-27.06-12.81l-31.79-38.8c-6.87-8.38-5.64-20.75,2.74-27.62,8.38-6.87,20.75-5.64,27.62,2.74l28.5,34.78,44.4-54.18c6.87-8.38,19.23-9.61,27.62-2.74,8.38,6.87,9.61,19.23,2.74,27.62l-47.7,58.2c-6.67,8.14-16.53,12.81-27.06,12.81Z"/><path class="cls-2" d="M252.53,150.79c-5.02,0-10.04-1.91-13.87-5.74-7.67-7.66-7.67-20.09,0-27.75,12.15-12.16,16.45-29.9,11.21-46.3-3.3-10.32,2.4-21.37,12.72-24.66,10.32-3.3,21.37,2.4,24.66,12.72,9.72,30.45,1.74,63.39-20.84,85.98-3.83,3.83-8.86,5.75-13.88,5.75Z"/><path class="cls-2" d="M268.55,84.65c-8.31,0-16.02-5.32-18.69-13.66-2.22-6.96-5.99-13.14-11.21-18.35-8.64-8.63-20.13-13.39-32.32-13.39-4.77,0-9.47,.74-14,2.19-10.32,3.31-21.37-2.37-24.68-12.69-3.31-10.32,2.37-21.37,12.69-24.68,8.4-2.69,17.14-4.06,25.98-4.06,22.67,0,44,8.84,60.07,24.88,9.56,9.56,16.76,21.38,20.85,34.17,3.3,10.32-2.4,21.37-12.72,24.66-1.99,.63-4,.94-5.98,.94Z"/><path class="cls-2" d="M101.98,227.92c-5.68,0-11.31-2.45-15.19-7.19L24.16,144.31C8.57,128.34,0,107.31,0,84.97S8.84,40.94,24.89,24.89C40.94,8.84,62.27,0,84.96,0s44.01,8.84,60.06,24.89l.62,.62,.62-.62c9.55-9.54,21.34-16.74,34.09-20.83,10.32-3.31,21.37,2.37,24.68,12.69,3.31,10.32-2.37,21.37-12.69,24.68-6.94,2.23-13.12,6-18.34,11.22l-14.49,14.49c-7.66,7.66-20.09,7.66-27.75,0l-14.5-14.5c-8.64-8.64-20.11-13.4-32.31-13.4s-23.69,4.76-32.32,13.4c-8.64,8.64-13.39,20.12-13.39,32.32s4.76,23.69,13.39,32.32c.46,.46,.89,.94,1.3,1.44l63.2,77.13c6.87,8.38,5.64,20.75-2.74,27.62-3.65,2.99-8.05,4.45-12.43,4.45Z"/><g><path class="cls-1" d="M120.64,229.57H27.62c-9.29,0-16.82-7.53-16.82-16.82s7.53-16.82,16.82-16.82H120.64c9.29,0,16.82,7.53,16.82,16.82s-7.53,16.82-16.82,16.82Z"/><path class="cls-1" d="M74.13,276.07c-9.29,0-16.82-7.53-16.82-16.82v-93.01c0-9.29,7.53-16.82,16.82-16.82s16.82,7.53,16.82,16.82v93.01c0,9.29-7.53,16.82-16.82,16.82Z"/></g></g></g></svg>