<svg id="Grupo_674" data-name="Grupo 674" xmlns="http://www.w3.org/2000/svg" xmlns:xlink="http://www.w3.org/1999/xlink" width="1367.55" height="470.902" viewBox="0 0 1367.55 470.902">
  <defs>
    <clipPath id="clip-path">
      <rect id="Rectángulo_649" data-name="Rectángulo 649" width="1367.55" height="470.903" fill="#084675"/>
    </clipPath>
  </defs>
  <g id="Grupo_562" data-name="Grupo 562" transform="translate(0 0)" clip-path="url(#clip-path)">
    <path id="Trazado_1195" data-name="Trazado 1195" d="M6.981,396.049c-4.587-.938-4.764-4.318-4.541-9.082.873-18.415,1.152-36.858,1.569-55.291.678-29.429,1.226-58.857,2.015-88.286.065-2.591.715-5.86,2.377-7.6,7-7.3,7.16-7.169-1.514-13.066-.669-.455-1.1-1.263-.715-.808,0-34-.251-66.9.093-99.791C6.5,100.6,7.752,79.087,8.216,57.552c.13-6.166-2.563-12.787-1.087-18.452,3.343-12.862-.65-25.2-.669-37.693C7.278.858,8.012-.061,8.643,0,29.927,1.982,50.664,5.882,68.986,17.843c1.774,1.161,3.148,3.1,5.042,3.891,28.667,11.942,48.837,33.793,67.466,57.5,3.148,4.012,6.63,7.754,9.714,11.812,17.765,23.439,35.92,46.59,52.988,70.53,9.518,13.345,17.384,27.9,25.5,42.188,1.978,3.492,2,8.088,3.139,13.177,8.868-1.467,13.1,4.866,16.725,12.109,1.086,2.182,2.062,5.609,3.78,6.11,11.274,3.26,17.561,13.029,25.965,19.789,16.688,13.419,35.78,19.473,56.359,21.563,6.027.6,12.453-1.681,18.554-3.185,15.258-3.761,30.552-7.132,42.569-18.768,9.416-9.11,21.191-16.056,29.5-25.983,12.722-15.2,23.959-31.759,34.7-48.466,9.221-14.357,14.821-31.007,27.553-43.85,4.383,4.03,8.664,7.968,13.317,12.249,3.863-2.637,7.271-4.968,11.329-7.745-.836-4.012.529-9.128-7.058-10V138.6c-7.968-2.73-8.088-10.234-13.187-15.545,4.1-4.606,7.9-8.887,11.71-13.177.52-.585,1.467-1.152,1.486-1.755.418-14.645,12.546-22.362,19.65-33.013,1.978-2.953,5.4-4.959,8.172-7.373,1.9-1.662,4.532-2.907,5.674-4.978,5.553-10.029,13.066-17.273,24.042-21.554,3.668-1.439,6.064-5.693,10.948-3.083.975.52,3.028.585,3.631-.046,6.5-6.816,15.9-6.825,23.755-10.41,7.308-3.343,14.05-5.953,22.919-4.29,9.333,1.755,19.362-.167,29.085-.409,1.6-.037,3.492-.2,4.764.539,11.562,6.733,25.742,5.052,37.4,11.887,3.027,1.774,7.383.994,9.166,5.442.474,1.17,3.213,2.665,4.058,2.257,6.064-2.99,7.5,2.238,11.088,4.968,21.349,16.288,34.118,39.69,50.806,59.814,1.291,1.551,3.232,3.585,3.037,5.172-.706,5.841,2.359,7.067,7.178,8.163,2.47.557,5,3.325,6.389,5.73,8.506,14.663,21.266,26.15,29.456,41.213,5.693,10.456,14.9,18.963,22.167,28.6,9.416,12.481,18.452,25.24,27.683,37.851a10.39,10.39,0,0,0,2.647,2.647c11.552,7.308,18.731,18.591,27.2,28.853,8.627,10.447,18.833,19.594,28.333,29.317,1.69,1.737,3.334,3.538,5.5,5.832-2.749,1.727-4.773,3-6.863,4.309.288.641.4,1.634.892,1.876,4.123,2.08,8.321,4.021,12.49,6.008,1.124.529,2.8,1.848,3.287,1.5,7.949-5.72,13.307,1.839,19.7,3.742,12.184,3.622,24.349,7.559,37.164,3.455a40.466,40.466,0,0,0,10.067-5.154c19.381-13.131,35.91-28.806,46.5-50.258,2.526-5.126,7.968-8.776,11.831-13.3,9.193-10.754,18.238-21.628,27.9-33.115,3.26,2.387,6.148,4.495,8.8,6.445,7.188-3.241,6.835-10.772,5.321-14.477-4-9.8.771-16.548,5.423-23.374,10.317-15.165,21.684-29.642,31.6-45.057,3.928-6.1,7.949-9.37,15.044-9.194,1.059.028,2.145-1.254,3.668-2.219-.594-2.684-1.207-5.433-1.969-8.906,2.962-.409,5.609-.771,8.534-1.17-5.655-13.057,4.653-19.864,11.682-25.213,7.791-5.934,11.366-17.616,23.225-18.136,6.407-10.614,16.855-17.31,26.735-23.355,13.409-8.2,26.039-18.907,43.135-20.077,6.148-.418,12.258-3.092,18.127-5.4,18.647-7.318,38.64-6.417,57.938-9.732,4.782-.817,9.992.864,15.016,1.393.52,17.839,1.4,35.2,1.421,52.57.009,15.508-1.161,31.026-1.412,46.543-.195,12.082.381,24.172.334,36.263-.112,24.637-.566,49.264-.6,73.9-.028,18.861.585,37.721.529,56.582-.084,24.237-.771,48.484-.752,72.722.009,13.307.91,26.615,1.43,39.922.037.836.678,2.08.325,2.452-6.036,6.268-1.514,12.806-1.021,19.436.975,13.391.91,26.865.91,40.3,0,3.9-2.693,5.85-6.844,5.934-6.779.13-13.577,1-20.328.706-2.154-.093-4.69-2.535-6.166-4.55-3.241-4.43-7.457-5.3-8.581-.854-1.857,7.42-6.686,6.454-11.729,6.324q-25.087-.669-50.184-1.4c-1.216-.037-2.433-.316-4.346-.585-.26-3.148-.511-6.2-.957-11.784-3.659,3.5-6.333,5.284-7.949,7.763-3.2,4.912-9.8,7.68-14.449,5.312-1.514-.762-2.814-1.922-4.281-2.786-1.448-.854-2.972-1.56-4.522-2.359-8.831,7.541-19.195,4.745-29.1,4.968-13.029.3-26.048.919-39.077,1.114-3.687.065-7.392-1.337-11.069-1.282-18.563.3-37.127,1.226-55.681,1.207-15.23-.009-30.45-1.235-45.68-1.5-8.8-.158-17.635.845-26.438.659-4.625-.093-9.89-.52-11.274-7.466-7.754,5.962-16.335,5.674-25.3,6.454-24.572,2.164-48.995.093-73.464.279-7.42.046-14.626.186-22.009-.715-4.439-.539-9.222.761-13.716,1.811-9.407,2.219-16.622-.26-20.82-8.265-5.47,5.293-10.995,7.828-19.538,7.438-21.108-.947-42.337,1.207-63.528,1.421-13.7.139-27.4-1.161-41.111-1.421-16.521-.316-33.032-.2-49.552-.288-3.269-.019-6.538-.121-9.806-.13-9.658-.019-19.306,0-29.735,0-.084-.149-.91-1.569-2.405-4.132-6.7,13.762-18.378-.474-26.123,6.5-4.16-3.65-7.671-6.723-11.376-9.974-7.058,7.689-15.276,9.091-25.593,8.423-20.969-1.346-42.077-.669-63.129-.539-16.808.093-33.607.78-50.416.91-13.029.1-26.058-.2-39.1-.418-19.223-.334-38.446-.678-57.668-1.216-3.715-.112-7.411-1.1-11.088-1.8-1.179-.223-2.721-1.542-3.362-1.151-13.391,8.228-27.748,1.9-41.584,2.712-18.22,1.059-36.514,1.207-54.771,1.374-16.344.149-32.688-.186-49.023-.362-15.09-.167-30.3-1.69-45.234-.251-17.9,1.718-35.818-1.746-53.425.882-14.422,2.154-28.407-1.532-42.6-.5-2.535.186-5.2-.446-7.624.1-14.923,3.371-29.651-.557-44.472-.966-1.616-.046-3.872-.891-4.727-.13-3.928,3.52-5.1.362-6.092-2.377-.539-1.486-.037-3.352,0-5.042C.6,442.853.685,425.1,1.539,407.388c.176-3.566,3.269-6.993,5.442-11.339m56.257-38.418c-4.68-1.4-9.37-2.8-15.09-4.5-1.746,5.312-3.222,9.788-4.532,13.79,6.166,1.374,10.763,2.4,15,3.343,1.5-4.337,2.981-8.6,4.355-13.01,1.6-3.269,3.185-6.528,5.228-10.717-8.348,2.229-5.795,6.937-4.959,11.1m478.342,15.285c-10.782-4.067-19.836-7.485-29.234-11.032-2.935,5.191-5.934,9.3-2.062,13.586,4.885-.362,9.565-2.127,12.5-.576,3.659,1.932,5.878,6.584,9.825,11.422,3.232-4.829,5.795-8.664,8.971-13.4m653.547-151.962c-.511.994-1.031,2-1.551,2.99,2.136,3.1,1.356,10.689,9.472,4.6.966-.724,3.77.464,5.432,1.309,4.16,2.136,8.154,4.578,12.249,6.909,3.167-5.349,5.34-9,7.931-13.372-6.352.817-11.181,2.284-15.806,1.811-5.99-.6-11.822-2.758-17.728-4.244M1343.848,86.4c6.723-6.565,8.228-11.543,5.126-20.458-.687-1.969-3.984-3.037-8.5-6.231,1.551,6.352,2.349,9.611,3.557,14.561-4.383-1.235-7.057-1.987-9.778-2.758-2.925,9.584,2.767,12.611,9.593,14.886M642.225,360c-5.748-11.887-16.725-7.466-25.538-11.311,5.154,16.01,9.584,17.932,25.538,11.311M1089.9,275.791c-1.1,5.683-1.764,9.138-2.424,12.546,18.146,4.1,20.764,4.114,26.16.724-7.206-4.03-14.505-8.107-23.736-13.27M614.7,397.8c.678-.158,1.356-.325,2.034-.483V377.142c2-1.4,4.067-2.86,6.918-4.875-4.522-2.238-7.93-3.937-11.023-5.47-1.607,6.51-2.934,11.914-4.6,18.647,1.774,3.287,4.216,7.828,6.668,12.36m-386.694-55.5V328.445c-3.993-1.235-7.828-2.414-12.5-3.854a36.468,36.468,0,0,1,1.059,5.655,39.11,39.11,0,0,1-.715,4.894c-1.124,9.8,1.161,11.227,12.156,7.169m864.906,42.207c-5.6,2.3-10,5.265-14.626,5.665-3.919.334-7.187.984-7.54,4.56-.242,2.424,2.377,5.145,4.04,8.348,6.667-6.788,16.39-8.107,18.127-18.573m161.555-93.1c4.541,8.432,3.269,16.325-1.477,24.237.789.3,1.579.585,2.368.882,3.408-2.7,6.825-5.4,12.2-9.649-10.865-2.062-1.124-14.951-13.094-15.471M29.909,290.036c-10.828-1.077-10.828-1.077-17.328,4.086,3.464,4.058,6.37,9.871,12.676,7.262,2.368-.975,2.832-6.556,4.652-11.348M611.255,123.513c-.919-.6-2.182-2.043-3.6-2.229-1.941-.26-4,.436-6.008.724,1.2,1.959,2.015,5.135,3.677,5.683,7.81,2.544,16.994-2.563,20.8-11.339-6.723-1.337-9.175,5.544-14.868,7.16M289.305,342.17c9.769-1.653,18.963-3.2,31.277-5.284-10.837-1.709-18.935-2.981-27.562-4.337-1.059,2.73-2.47,6.38-3.715,9.621m667.663,33.357c6.342-6.352,11.422-11.441,17.208-17.226-8.646-2.043-13.177,3.835-18.8,6.965.529,3.408.966,6.194,1.588,10.261m156.819,31.165c4.207-12.62,3.529-14.217-6.064-16.344,1.161,3.742,1.012,7.03-3.8,9.073,3.232,2.377,6.138,4.522,9.862,7.271M628.964,380.6c1.123,5.98,2.247,12,3.371,17.988,6.3-1.356,6.3-1.356,5.683-8.3-.771-8.646-1.82-9.7-9.054-9.686M1273.745,87.472c-.9.046-1.8.093-2.7.13a31.673,31.673,0,0,0-.511,4.457c.018,1.56.873,3.222.539,4.643-2.052,8.562-1.421,9.11,9.045,6.538-2.145-5.312-4.253-10.54-6.37-15.768M117.117,131.722c4.847,1.263,8.627,2.247,13.094,3.408.7-11.255-11.32-6.668-13.957-12.945.26,2.842.511,5.693.864,9.537M799.5,357.53c5.971,6.547,5.971,6.547,20.987,5.247-5.628-7.16-13.057-2.284-20.987-5.247M411.533,310.113c-.752-.9-1.5-1.8-2.257-2.712-2.359.474-4.718.929-7.067,1.421-3.612.752-5.525,3.482-3.612,6.278,1.142,1.662,5.535,2.656,7.494,1.783,2.349-1.049,3.677-4.411,5.442-6.77M1223.4,286.192c-.074,9.156,5.628,10.122,13.6,10.364-3.408-6.278-4.829-12.908-13.6-10.364m1.291-165.019c-7.29,3.631-5.321,10.865-8.9,17.616,12.286-2.842,5.08-12.667,8.9-17.616M93.465,236.333c-9.546-3.9-12.537-2.034-15.471,10.614q8.093-5.544,15.471-10.614m1038.18,190.445c1.245,11.654,1.245,11.654,10.754,11.329.5-7.661-6.612-7.188-10.754-11.329m160.441-84.766c-2.442,2.739-3.557,3.538-3.984,4.606a7.687,7.687,0,0,0-.018,3.25c5.572.139,3.566,11.571,12.453,7.921-2.712-5.061-5.182-9.667-8.451-15.778M612.3,189.864c-.761.845-1.513,1.69-2.275,2.526,2.266,2.981,4.522,5.953,7.968,10.475,3.408-2.73,5.5-4.4,9.583-7.671-7.735-2.7-11.506-4.012-15.276-5.33M211.541,320.737c3.074-6.25,11.952-5.674,11.636-13.261-4.95,1.263-9.639,2.452-14.635,3.715.873,2.767,1.718,5.451,3,9.546m454.076-78.4c-8.265,5.21-4.913,9.63-2.767,14.663,10.261-3.594,5.377-8.59,2.767-14.663m510.258,6.166c-2.507-5.052-9.676-4.968-8.181-11.181.047-.2-2.879-1.783-3.947-1.4-1.04.371-2.182,2.489-2.071,3.742.362,4.142,7.819,9.045,14.2,8.841M227.012,367.847C219.3,381.386,220,383.8,228.489,385.2c-.483-5.693-.975-11.524-1.477-17.356M1148.537,176.4c-2.127-5.46-2.517-10.633-8.432-9.389-6.24,1.319-2.674,5.655-1.978,9.389ZM506.672,244.811c-1.022.418-2.043.836-3.055,1.254,6.036,4.783-5.823,10.438,2.8,16.01,2.173-5.117,4.077-9.574,6.25-14.672-2.4-1.04-4.2-1.811-6-2.591M301.192,446.437c-3.287,4.207-5.9,7.55-8.516,10.893.362.771.724,1.532,1.086,2.3,3.51-.854,7.021-1.709,11.32-2.758-1.532-4.1-2.526-6.77-3.891-10.438m799.474-98.4c1.616-2.935,3.065-5.572,6.157-11.181-7.123,2.1-11.153,3.3-16.66,4.922,4.272,2.544,7.067,4.207,10.5,6.259M722,193.421c-5.813-2.712-9.751-2.637-11.989,1.959-.474.984,1.291,4.262,2.628,4.717,5.349,1.829,6.733-2.461,9.361-6.677M12.7,192.343c4.727-2.182,11.84,3.473,15.573-4.077-6.816-3.78-11.552-1.254-15.573,4.077M102.37,152.6c-5.2-3.835-9.528-7.03-14.979-11.051,4.262,11.348,4.476,11.5,14.979,11.051m547.915,8.367c-.019.929-.046,1.857-.065,2.786,2.637,1.17,5.191,2.814,7.949,3.3,1.421.251,3.2-1.569,4.82-2.452-1.059-1.634-2-4.522-3.2-4.643-3.1-.325-6.324.594-9.5,1.012m-536.354,5.126c14.645.139,14.645.139,13.4-6.5-4.522,2.192-8.961,4.346-13.4,6.5m57.473,262.786c.817.966,1.644,1.922,2.47,2.888,2.944-.919,5.888-1.839,11.4-3.557-3.854-2.786-6.491-5.823-7.717-5.34-2.461.984-4.151,3.891-6.157,6.008M684.524,53.707c1.449-4.959,2.4-8.228,3.612-12.4-10.828,5.173-10.828,5.173-3.612,12.4m175.754,263.38c-10.586-4.959-10.67-4.885-10.828,7.151l10.828-7.151M99.38,74.471c-1.82,5.182-.678,7.16,3.343,6.807,3.612-.306,7.206-.919,12.732-1.653-6.25-2.006-10.837-3.473-16.075-5.154M695.9,341.232c-11.422,3.445-11.422,3.445-8.265,9.871,2.749-3.278,5.377-6.426,8.265-9.871M87.382,67.869C80.938,79.375,81.1,79.857,91.84,81.622c-1.5-4.615-2.767-8.553-4.457-13.753m823.46,383.713c4.7.325,8.042.566,11.97.845-5.665-8.7-5.665-8.7-11.97-.845M569.921,45.99c-6.371,7.373-6.371,7.373,3.352,11.311-1.114-3.761-1.978-6.7-3.352-11.311m477.088,317.641c-7.085-2.433-7.085-2.433-13.967,9.593,5.2-3.575,8.8-6.045,13.967-9.593M485.954,446.317c2.266-2.452,3.928-4.244,6.593-7.113-4.8-.743-7.866-1.216-13.177-2.034,2.9,4.03,4.467,6.2,6.584,9.147M850.788,423.9c-1.17-.5-2.331-1-3.5-1.5-1.384,3.445-3.055,6.835-3.937,10.41-.186.743,2.554,2.2,5.005,4.188.994-5.367,1.709-9.231,2.433-13.094m282.371-215.992c-6.176-.093-9.955.279-8.256,5.9.576,1.922,2.721,3.371,5.525,6.621,1.133-5.191,1.792-8.2,2.73-12.518m-99.782,174.37q-2.953,6.756-5.9,13.521c7.3-2.554,7.021-7.912,5.9-13.521M381.584,422.163c-1.384-5.693-3.594-7.6-7.29-5.479-1.179.669-1.217,3.325-1.774,5.08,2.767.121,5.544.241,9.063.4m361.927-84.627c-2.238,4.43-7.076,6.909-5.572,13.122,8.126-8.126,8.126-8.126,5.572-13.122M119.207,293.7v8.163c3.148-.548,5.85-1.022,10-1.746-4.2-2.693-6.779-4.355-10-6.417M70.175,184.153c-3.074-6.055-6.027-7.039-9.221-2.674-.957,1.3-.446,3.687-.715,6.807,3.854-1.607,6.426-2.674,9.936-4.132M191.13,238.042c.826-.4,1.662-.8,2.489-1.2a70.916,70.916,0,0,0-3.5-8.218c-.241-.427-2.637.344-5.3.761l6.315,8.655M668.05,120.653c-1-.436-2.006-.873-3-1.319q-2.479,5.5-4.95,11c.771.362,1.551.734,2.331,1.1,2.433-3.287,7.308-5.275,5.618-10.781M25.572,107.8c3.64-1.254,5.1-1.653,6.463-2.257,1.532-.678,2.981-1.551,5.386-2.832-6.361-4.662-8.608-1.672-11.849,5.089M403.166,436.714c3.724-3.715,3.845-6.593.1-8.59-1.374-.734-3.724.362-8.608,1.022,3.965,3.529,6.073,5.4,8.506,7.568M857.242,408.14c-4.773,4.086-6.166,7.94,1.142,13.066-.492-5.628-.817-9.342-1.142-13.066M1321.375,90.268c1.365,6.185,3.863,8.868,9.7,5.581-.223-6.166-3.52-7.169-9.7-5.581M808.033,398.352c-10.828-1.226-10.828-1.226-9.751,7.373,3.269-2.47,5.915-4.476,9.751-7.373m-399.574-7.958c2.071-1.764,3.492-2.972,4.9-4.17-1.542-1.412-2.907-3.473-4.708-3.975-.947-.269-3.557,2.043-3.761,3.427-.167,1.207,1.978,2.749,3.566,4.717m-65.822-11.97c.957-3.482,1.913-6.956,3.371-12.277-4.569,4.17-8.4,6.547-3.371,12.277M57.842,31.605c3.668-2.349,6.389-4.1,9.825-6.287-6.918-2.08-6.918-2.08-9.825,6.287m1239.667,366.45-4.625-.724a56,56,0,0,0-.093,7.058c.018.316,3.176.724,3.2.613.659-2.275,1.059-4.615,1.514-6.946M327.825,416.247c-3.352,6.556-5.33,10.986,3.464,13.066-1.161-4.374-2.052-7.754-3.464-13.066m-48.809-83.754c-2.2-5.813-4.959-6.816-8.887-5.135-.511.223-.622,1.365-1.189,2.73,2.953.706,5.785,1.384,10.076,2.405m214.85-154.8c-1.2,8-1.2,8,6.993,5.173-2.572-1.894-4.634-3.417-6.993-5.173m231.853,15.852c8.46,2.758,8.6-3.213,10.243-7.2-3.055,2.145-6.11,4.29-10.243,7.2m318.318,108.2c-.632.334-1.263.669-1.895,1.012.789,2.182,1.087,4.857,2.572,6.361.8.817,3.631-.381,7.438-.957-3.872-3.055-6-4.736-8.116-6.417M676.176,246.028c1.244.241,2.489.474,3.733.715q.237-3.538.474-7.086c-1.124.009-3.129-.223-3.2.074a47.06,47.06,0,0,0-1,6.3m45.169,31.193c.455-5.024-.566-8.655-7.225-5.8,3.065,2.461,5.145,4.132,7.225,5.8m463.149-2.5c-7.373-3.993-7.373-3.993-8.553,3.7,2.609-1.124,4.708-2.034,8.553-3.7m-206.771,187.2c8.553.947,8.553.947,6.333-8.794-2.405,3.334-3.715,5.154-6.333,8.794m138.553-148.071c-3.074,2.684-4.894,4.281-7.411,6.482,6.2,3.037,8.052,1.5,7.411-6.482M68.726,152.44,60.2,157.659c5.043,3.018,7.754,2.331,8.525-5.219M852.144,332.159c.241,1.319.483,2.628.724,3.947q4.444-.836,8.868-1.672c-.2-1.17-.418-2.349-.632-3.529l-8.961,1.254M56.134,88.93c-3.807,7.216.613,8.358,5.135,9.444-1.514-2.786-3.037-5.581-5.135-9.444M613.372,87.7c-3.194-6.565-6.166-7.5-12.611-3.445,4.9,1.337,7.912,2.164,12.611,3.445M147.892,443.559c4.5-8.256,1.449-9.853-4.894-11.552,1.737,4.086,2.851,6.714,4.894,11.552m1134.536-89.92c-.539-1.17-1.068-2.34-1.606-3.52q-3.887,1.922-7.773,3.835c.325.761.65,1.532.984,2.294q4.193-1.309,8.4-2.609m-102.169,43.822c-3.826,3.037-6.269,4.968-10.382,8.228,7.717,1.337,11.376.947,10.382-8.228M753.522,377.44c0-7.16-1.532-9.379-6.473-7.011-.548.269-.687,1.384-1.244,2.6,1.978,1.133,3.975,2.275,7.717,4.411m561.7-292.66,2.87-.529c-.474-2.359-.956-4.727-1.43-7.095-.873.167-1.746.325-2.628.483.4,2.377.789,4.755,1.189,7.141m-73.1,3.2c-.288-1-.567-2.015-.854-3.018-2.238.845-4.476,1.681-6.714,2.526.2.687.418,1.374.622,2.062q3.482-.78,6.946-1.569M712.235,86.767c-.984-.158-1.969-.325-2.953-.483-.511,2.015-1.031,4.021-1.542,6.036a30.2,30.2,0,0,0,3.083.622c.6-2.024.984-4.1,1.411-6.175M585.179,153.647c.65-5.925-.891-9.091-7.494-6.519l7.494,6.519m193.63,22.761,2.73.808,2.368-6.881a20,20,0,0,0-3.2-.659c-.78,2.192-1.309,4.476-1.894,6.733M334.437,443.336c-1.216,1.82-2.693,3.064-2.693,4.3.009.994,1.885,2.814,2.8,2.739,1.124-.093,2.99-1.82,2.944-2.777-.046-1.244-1.644-2.433-3.055-4.262M792.191,447.1c1.263.232,2.535.455,3.8.687q.32-3.8.641-7.587c-.808-.167-1.616-.325-2.424-.492-.669,2.47-1.347,4.931-2.015,7.392M431.814,436.529c-.659-.678-1.309-1.356-1.959-2.034-1.235.761-2.925,1.244-3.594,2.349-.8,1.319-.724,3.167-1.569,7.68,3.742-4.2,5.433-6.1,7.123-8M556.567,240.512c-4.913-4.55-6.38.334-9.24,1.876.362.214.734.427,1.6.938,2.322-.854,4.977-1.829,7.643-2.814M538.487,425.4c-3.408,2.526-8.023,4.782-2.786,10.8,1.152-4.457,1.969-7.633,2.786-10.8m33.459,6.194c1.087-.409,2.173-.817,3.269-1.226-.864-1.8-1.653-3.64-2.665-5.349-.111-.186-1.43.325-2.182.52.52,2.015,1.049,4.04,1.579,6.055m55.867-179.366c2.294-4.773,3.687-6.361,3.325-7.253a4.978,4.978,0,0,0-3.566-2.535c-.715-.074-2.322,2.015-2.349,3.148-.047,1.486,1.077,3.009,2.591,6.64m-43.507-1.43h10.958c-4.1-5.9-6.891-4.959-10.958,0M867.5,387.2c-.232,1.049-.464,2.1-.7,3.139a58.317,58.317,0,0,0,6.064.529c.343-.009.669-1.412,1-2.173q-3.176-.738-6.37-1.5M1261.459,360c-5.424,4-5.173,6.593,0,9.964Zm-906.2-9.008c-.761,1.031-1.532,2.071-2.3,3.1l7.188,4.931c.5-.669,1-1.337,1.5-2.006q-3.19-3.009-6.38-6.027m565.2-13.029c.4-.631.8-1.254,1.2-1.876l-4.736-3.956-2.2,3.622q2.869,1.1,5.739,2.21M281.2,309.7q-1.546-1.56-3.074-3.12c-2.665,1.133-6.575,1.337-1.9,8.506q2.479-2.7,4.977-5.386m757.286,22.111c.3,1.151.594,2.294.892,3.445,2.256-.752,4.522-1.514,6.779-2.266-.26-.854-.511-1.718-.771-2.572q-3.441.7-6.9,1.393m-445.263-4.439c-.344-.966-.687-1.932-1.04-2.9-1.746.4-3.687.455-5.154,1.319-.938.539-1.17,2.275-2.749,5.73,4.513-2.089,6.723-3.12,8.943-4.151m49.682-6.844c7.411.436,8.293-2.145,6.77-8.033-2.405,2.86-4.068,4.829-6.77,8.033m-268.089-5.646c-.91-.919-1.82-1.848-2.73-2.777-1.764,1.56-3.538,3.111-5.3,4.662,1.049,1.059,2.089,2.117,3.139,3.185,1.634-1.69,3.26-3.38,4.894-5.07m197.02,2.117-1.9,1.542q2.243,2.869,4.485,5.72c.669-.548,1.346-1.1,2.024-1.644-1.532-1.876-3.074-3.752-4.606-5.618m574.186,7.893c2.192,1.672,3.25,3.111,4.383,3.167,1.207.065,2.489-1.179,3.742-1.848-.929-1.124-1.672-2.851-2.832-3.2-1.059-.325-2.572.836-5.293,1.885M178.946,337.137c.037-1.031.065-2.062.1-3.092a35.636,35.636,0,0,0-5.256-.2c-.251.019-.334,1.9-.5,2.934l5.655.362M576.57,304.151c.659-.371,1.309-.752,1.959-1.124-.91-1.848-1.82-3.687-2.73-5.535a14.76,14.76,0,0,0-2.294,1.727,56.487,56.487,0,0,0,3.065,4.931m9.193-29.113c-.724.752-1.439,1.5-2.164,2.266q3.051,2.911,6.1,5.832l2.192-2.3-6.129-5.795m667.616,4.875c.6.724,1.207,1.458,1.811,2.182,2.127-1.281,4.262-2.563,6.389-3.854-.362-.631-.724-1.272-1.077-1.913-2.377,1.2-4.755,2.387-7.123,3.585M941.219,352.747l.056-1.894c-2.461-.167-4.912-.325-7.373-.483-.019.789-.046,1.588-.065,2.377Zm276.2-4.792c-.557.975-1.114,1.941-1.672,2.916q3.288,1.351,6.575,2.712c.353-.817.715-1.644,1.068-2.461-1.987-1.059-3.974-2.108-5.971-3.167m-623.33,15.917c.919.659,1.848,1.309,2.777,1.959a57.519,57.519,0,0,0,2.739-5.451,17.012,17.012,0,0,0-2.656-1.625c-.956,1.709-1.9,3.417-2.86,5.117M715.931,264.6c1.087-1.532,2.34-2.609,2.145-3.176a17.09,17.09,0,0,0-2.544-3.8c-1,1.04-2.832,2.117-2.8,3.111.046,1.152,1.746,2.238,3.195,3.863M230.021,401.77c-.8-.223-1.6-.436-2.4-.659-.539,2.08-1.077,4.151-1.616,6.231.743.176,1.486.362,2.229.539.594-2.034,1.189-4.077,1.783-6.111m102.772,3.807c-.761-.111-1.532-.214-2.3-.325-.269,1.894-.566,3.8-.706,5.7a16.263,16.263,0,0,0,2.136.427q.446-2.911.873-5.8m37.424,36.514c-.251,1-.511,2.006-.771,3.009l6.677.836.334-2.006-6.24-1.839m849.908,1.736.5,1.913c2.015-.474,4.04-.938,6.064-1.412-.213-.752-.418-1.5-.622-2.238-1.987.576-3.965,1.161-5.943,1.736M417.717,448.09c-1.17.139-2.34.288-3.51.436.585,2.238,1.17,4.485,1.755,6.723l2.461-.474c-.232-2.229-.474-4.457-.706-6.686M754.785,108.766l-1.523,1.857c1.616,1.634,3.222,3.278,4.838,4.912.436-.446.882-.892,1.319-1.347-1.542-1.811-3.092-3.612-4.634-5.423m472.463-.158c.576-.929,1.151-1.857,1.737-2.777-1.8-1.207-3.6-2.424-5.4-3.631-.529,1.012-1.681,2.758-1.495,2.916a49.3,49.3,0,0,0,5.163,3.492" transform="translate(0.003 0.003)" fill="#084675"/>
  </g>
</svg>
