<svg xmlns="http://www.w3.org/2000/svg" xmlns:xlink="http://www.w3.org/1999/xlink" width="2372" height="2377" viewBox="0 0 2372 2377">
  <defs>
    <clipPath id="clip-path">
      <ellipse id="Elipse_2" data-name="Elipse 2" cx="1186" cy="1188.5" rx="1186" ry="1188.5" transform="translate(3556.199 10057.355)" fill="#fff" stroke="#707070" stroke-width="1"/>
    </clipPath>
    <clipPath id="clip-path-2">
      <rect id="Rect치ngulo_720" data-name="Rect치ngulo 720" width="2202.286" height="4367.288" fill="none"/>
    </clipPath>
  </defs>
  <g id="Enmascarar_grupo_7" data-name="Enmascarar grupo 7" transform="translate(-3556.199 -10057.355)" clip-path="url(#clip-path)">
    <g id="Grupo_676" data-name="Grupo 676" transform="translate(3555.794 10056.563)">
      <g id="Grupo_675" data-name="Grupo 675" clip-path="url(#clip-path-2)">
        <path id="Trazado_1280" data-name="Trazado 1280" d="M1294.529,2511.918H68.3c5-191.117,26.969-521.278,56.705-865.8,15.6-180.724,33.352-365.372,51.91-535.989C189,998.967,201.442,893.752,213.855,799.493c3.57-27.046,7.132-53.213,10.717-78.346,1.18-8.512,2.4-16.946,3.593-25.242,1.974-13.561,3.94-26.837,5.913-39.736.732-4.888,1.48-9.76,2.2-14.548,12.875-83,25.435-150.687,37.346-197.308.285-1.172.586-2.313.9-3.462,6.993-26.938,13.754-46.459,20.184-57.391a195.277,195.277,0,0,1,64.631-66.813,220.09,220.09,0,0,1,26.1-14.093c24.147-11.063,50.977-18.349,79.757-22.312,70.444-9.761,152.676.262,236.188,23.137,1.311.347,2.637.717,3.94,1.087a1066.7,1066.7,0,0,1,121.49,42.188,1186.7,1186.7,0,0,1,140.741,69.465c23.777,13.777,46.521,28.11,67.823,42.743,41.255,28.318,77.244,57.846,105.423,86.858,16.807,17.285,31.972,63.328,45.641,130.773.825,4.148,1.673,8.4,2.5,12.736,12.921,67.183,24.471,153.617,34.763,252.825,6.538,63.212,12.552,131.621,18.11,203.507,35.241,458.113,50.506,1058.431,52.719,1366.358" transform="translate(458.295 1855.37)" fill="#b4dcf9"/>
        <path id="Trazado_1281" data-name="Trazado 1281" d="M742.374,689.184c-.27,1.465-.478,2.9-.748,4.387-4.68,27.1-10.154,57.553-16.244,90.689-10.825,58.648-23.623,125.854-37.685,198.464l.023.023c-1.411,7.263-2.791,15.081-4.2,23.376-3.377,20.292-6.677,43.568-9.922,69.527v.1c-32.736,262.347-57.947,798.328-76.673,1310.4H87.424c-4.117-289.569-7.818-592.74-9.969-865.8-1.488-184.787-2.267-355.774-2.02-499.467,0-6.546.023-13.007.023-19.444.478-192.15,2.876-332.575,8.034-387.229.154-1.357.262-2.714.4-3.94.023-.424.1-.8.131-1.172q3.273-30.08,6.569-56.967,4.788-39.378,9.545-72.071,4.672-32.439,9.313-58.7c.131-.717.239-1.434.37-2.151,7.687-43.3,15.188-74.229,22.42-94.336,4.279-11.888,8.458-20.03,12.528-24.71a16.659,16.659,0,0,1,1.673-1.7c3.115-2.984,6.168-3.831,9.121-2.768.185.054.378.131.617.208h.023c21.487,7.5,45.295,13.647,70.775,19.182,37.361,8.134,78.292,14.864,120.634,22.5,20.13,3.616,40.584,7.417,61.146,11.673,41.617,8.62,83.612,18.989,124.065,33.113a579.692,579.692,0,0,1,55.826,22.69h.031c5.4,2.552,10.686,5.158,16.005,7.872,58.671,30.207,110.72,72.394,149.022,133.934,1.619,2.552,3.184,5.158,4.734,7.795,3.909,6.646-2.691,56.3-16.067,134.519" transform="translate(505.848 1981.137)" fill="#71a4cd"/>
        <path id="Trazado_1282" data-name="Trazado 1282" d="M740.118,573.95C734.3,629.12,659.042,733.372,549.109,789.761,514.862,807.354,445.636,841.57,356.6,827.43,242.924,809.382,181.925,727.2,157.385,694.168c-17.008-22.89-37.963-50.761-48.51-77.83,29.706-47.253,68.331-87.012,119.879-121.143l.023-.031c21.009-7.91,32.342-15.905,47.207-25.727a102.242,102.242,0,0,0,8.666-6.492c11.734-9.822,20.045-21.5,26.337-32.944a247.206,247.206,0,0,0,12.806-27.879c3.623-8.866,9.537-25.211,12.521-55.086a412.973,412.973,0,0,0,1.881-45.981c-.147-14.695-.9-32.2-2.984-52.1a572.051,572.051,0,0,0-11.5-68.7c-1.65-7.209-3.477-14.571-5.536-22.1,30.654-15.682,58.24-29.1,83.042-40.453,145.953-66.936,195.935-63.513,212.133-43.93,10.316,12.467,7.91,32.574.756,59.488C600.918,182.8,571.59,255.391,575.191,345.618c.347,7.972.894,16.082,1.766,24.309,2.49,23.707,6.869,43.7,14.425,61.169a127.171,127.171,0,0,0,17.91,29.844c.177.208.347.44.524.64,25.989,31.965,67.221,52.1,84.028,59.666a422.02,422.02,0,0,1,46.274,52.7" transform="translate(730.522 412.041)" fill="#d5545e"/>
        <path id="Trazado_1283" data-name="Trazado 1283" d="M187.734,131.351c20.254-4.78,35.087-9.213,46.914-13.677-51.547,34.131-90.173,73.89-119.879,121.151a93.535,93.535,0,0,1-6.6-27.069c-.933-12.721,1.85-24.771,10.023-35.5,9.329-12.2,20.832-31.348,61.431-42.82q3.863-1.087,8.111-2.089" transform="translate(724.629 789.562)" fill="#fc7980"/>
        <path id="Trazado_1284" data-name="Trazado 1284" d="M231.023,173.757a422.049,422.049,0,0,0-46.274-52.7c1.881.863,3.477,1.565,4.7,2.082,29.2,12.806,31.093,16.753,36.567,24.286,4.6,6.314,6.168,15.358,5.011,26.336" transform="translate(1239.617 812.234)" fill="#fc7980"/>
        <path id="Trazado_1285" data-name="Trazado 1285" d="M397.987,20.531C384.773,26.306,356.362.07,327.5,0c-38.078-.085-66.342,17.948-76,24.286-7.964,5.227-43.144,29.413-57.769,73.99-9.329,28.441.864,31.171-6.946,56.5-15.975,51.856-61.686,50.175-74.63,95.655-9.113,32.034,4.7,64.029,15.443,88.924,11.272,26.105,27.454,29.49,33.977,53.621,7.147,26.46-3.192,43.352-5.667,62.6-8.589,66.99,82.248,131.559,94.336,140.148,94.475,67.159,205.842,46.551,236.326,40.908,32.959-6.1,106.965-20.839,164.3-82.656,18.58-20.022,70.421-75.918,59.2-135.129-4.726-24.941-17.385-33.322-16.8-61.4.817-38.7,25.349-44.786,30.037-79.379,7.756-57.16-49.759-110.126-58.517-117.951-31.61-28.233-47.415-21.78-74.661-52.681-30.022-34.054-17.463-49.412-40.291-68.247C513.626,9.314,458-5.72,397.987,20.531" transform="translate(732.584 0)" fill="#4d2237"/>
        <path id="Trazado_1286" data-name="Trazado 1286" d="M828.491,1471.017c-.216,261.406-.987,821.65-2,1352.6H348.621c-25.9-411.7-57.26-845.612-89.942-1158.3l-.694-6.515v-.047q-7.575-72.405-15.35-145.536-2.07-19.151-4.094-38.318v-.038c-.848-7.872-1.673-15.713-2.521-23.561v-.031c-.27-2.544-.532-5.1-.825-7.687-.64-6.183-1.334-12.382-2.028-18.612-1.4-13.245-1.087-27.339-5.181-46.7-12.312-58.563-41.494-88.323-70.96-158.374q-3.146-7.505-6.3-15.666a153.281,153.281,0,0,1-9.421-33.329c-.447-2.922-.825-6.831-1.087-11.6-.663-11.935-.748-29.1-.4-49.25.031-1.6.054-3.192.085-4.819.077-3.007.131-6.114.185-9.229.077-2.491.131-5.027.208-7.579.108-3.053.185-6.191.27-9.352v-.193c1.118-34.255,2.976-72.818,5.027-107.713,2.259-38.648,4.757-72.8,6.7-91.73.694-7.147,2.02-16.985,4.04-29.043.162-.925.293-1.858.486-2.814.285-1.658.578-3.323.9-5.05.023-.193.077-.4.108-.625.316-1.635.609-3.338.925-5.1.478-2.691,1.041-5.482,1.573-8.35A1258.743,1258.743,0,0,1,204.318,665.65c1.835-5.32,3.716-10.693,5.69-16.152.74-2.128,1.511-4.256,2.282-6.407.085-.27.216-.509.293-.771q4.475-12.316,9.39-24.949a4.232,4.232,0,0,1,.239-.547c.216-.594.455-1.156.663-1.735q1.122-2.868,2.236-5.7a1081.362,1081.362,0,0,1,56.651-121.135c35.187-64.1,78.886-126.339,132.715-178.411h.023a554.269,554.269,0,0,1,44.285-38.618,492.232,492.232,0,0,1,60.583-40.584c1.519-.84,3.832-.763,6.862.193,9.683,3,26.514,14.726,47.369,31.51,16.568,13.384,35.688,29.945,55.772,47.908h.023c51.54,46.066,109.309,101.136,146.254,133.98,2.868,2.536,8.774,58.2,15.049,127.365.077.64.131,1.287.185,1.927,6.461,71.585,13.407,157.178,17.794,213.29,1.673,21.148,2.976,38.109,3.778,48.54,0,.139.023.239.023.4v.031c.532,7.093.825,11.064.825,11.11.031,1.033.054,2.1.162,3.138,0,.046.108,3.346.316,9.383.085,3.323.239,7.5.4,12.4v.532c.609,18.565,1.542,47.469,2.637,81.885.686,21.418,1.457,44.979,2.228,69.473,1.758,53.984,3.647,112.655,5.266,163.516,2.236,70.135,3.963,125.4,4.179,133.109v.47c.077,6.391.077,60.83,0,150.217" transform="translate(936.8 1543.659)" fill="#71a4cd"/>
        <path id="Trazado_1287" data-name="Trazado 1287" d="M388.232,301.795C322.244,298,263.789,290.816,219.658,263.639c-58.378-35.958-60.637-48.787-71.423-58.525a570.576,570.576,0,0,0-11.5-68.694c36.675-46.744,154.133-87.39,256.141-59.172A260.309,260.309,0,0,1,427.127,89.43c-13.168,49.527-42.5,122.107-38.9,212.365" transform="translate(917.489 455.88)" fill="#4d2237"/>
        <path id="Trazado_1288" data-name="Trazado 1288" d="M119.034,248.324c1.473,13.793,2.159,6.43,26.676,88.739C179.231,449.625,176.9,459.91,194.127,490.31c13.993,24.71,42.28,74.646,100.273,101.422,69.3,32,156.747,9.221,199.937-33.645,83.342-82.718,112.57-229.095,81.854-328.142-20.963-67.63-36.051-88.778-103.627-154.573C404.872,9.477,366.724,17.95,349.47,14.789,277.161,1.535,218.189,40.7,206.917,48.187c-99.972,66.4-88.847,191.109-87.883,200.137" transform="translate(793.12 81.005)" fill="#d5545e"/>
        <path id="Trazado_1289" data-name="Trazado 1289" d="M359.728,14.687c6.97,9.66-1.033,50.861-11.8,63.821-19.143,23.029-62.472,38.148-68.031,70.752-4.117,24.131,5.705,50.144-10.331,67.954-22.227,24.694-50.761,3.809-82.448,43.275-30.361,37.8-6.021,100.149-4.356,131.975,1.781,33.846-22.589-4.14-24.849-7.008-22.466-28.534-34.586-45.765-40.6-88.061-10.431-73.289,14.548-158.921,74.052-216.374C253.68,20.87,346.714-3.361,359.728,14.687" transform="translate(771.691 59.35)" fill="#4d2237"/>
        <path id="Trazado_1290" data-name="Trazado 1290" d="M138,21.739c-1.6,5.5,65.679,17.748,74.823,34.91,11.989,22.482,7.848,26.676,9.121,54.516.123,2.544,3.045,53.2,33.769,79.31,30.916,26.267,57.445.023,99.641,26.09,21.765,13.438,46.86,40.276,56.158,74.144,7.548,27.47,16.776,74.476,30.862,86.866,12.39,10.886,17.046-46.551,30.569-55.579,32.975-22.035,14.255-82.656-5.4-133.178-11.094-28.534-47.608-122.431-140.34-161.627C268.689,2.449,141.478,9.75,138,21.739" transform="translate(925.765 71.673)" fill="#4d2237"/>
        <path id="Trazado_1291" data-name="Trazado 1291" d="M1252.044,1024.708v.462c-34.454-37.492-65.255-96.78-442.053-170.986-14.78-2.9-43.151-10.2-75.771-18.773-5.451-1.419-11.017-2.9-16.638-4.379-54.3-14.371-115.669-30.77-145.429-36.506-2.9-.555-5.651-1.133-8.311-1.712-23.476-5.1-39.5-11.272-69.92-19.644-23.646-6.492-51.9-13.507-89.279-20.369,0,0-66.728-12.258-138.906-17.385-63.49-4.526-128.1,3.593-189.243,16.684.031-.4.085-.779.116-1.156C97.9,556.141,118.859,463.3,137.37,442.006a19.6,19.6,0,0,1,1.65-1.711c98.315,32.134,241.461,39.32,369.011,83.913a563.982,563.982,0,0,1,71.863,30.569c.139-.925.285-1.85.463-2.806.285-1.658.578-3.338.894-5.073.031-.2.092-.409.116-.609.324-1.65.609-3.361.933-5.1.486-2.691,1.041-5.474,1.588-8.342a1254.721,1254.721,0,0,1,43.984-162.815q3.828-11.125,7.972-22.574c.085-.262.2-.493.293-.756q4.476-12.339,9.383-24.941c.093-.208.146-.378.231-.586,320.825-43.984,474.018-53.544,568.686-43.29,8.92,98.577,18.657,223.667,21.556,261.831,0,.146.031.262.031.4v.031c.547,7.1.84,11.071.84,11.125.023,1.048.054,2.089.139,3.13,0,.093.262,8.026.725,21.8v.517c1.8,55.58,6.584,203.846,10.146,314.881,2.228,70.12,3.97,125.384,4.171,133.116" transform="translate(513.255 1839.297)" fill="#efe6da"/>
        <path id="Trazado_1292" data-name="Trazado 1292" d="M734.016,577.5c-2.259,23.438-5.389,41.463-9.1,56.42-9.506,38.564-22.859,56.674-35.033,94.367-13.446,41.64-39.751,76.064-92.316,144.913-9.213,12.05-17.154,22.111-24.17,30.746-14.425,17.755-24.825,29.467-34.046,39.952-6.083,6.954-11.673,13.361-17.524,20.662-7.394,9.182-15.188,19.729-25.041,34.509-35.634,53.343-41.694,77.074-50.792,94.259-4.549,8.581-9.822,15.5-19.822,23.646-80.521,65.633-223.49,11.071-264.429-4.58-51.809-19.791-152.3-31.641-161.2-102.4-4.7-37.177,22.574-76.759,84.954-188.079,43.175-76.99,65.633-116.633,93.188-163.485,91.854-156.238,245.193-385.178,280.866-438.2,18.195-27.069,52.388-59.866,122.947-80.151C714.919,241.7,743.144,324.221,742.913,382.206c-.231,58.44,2.429,78.408-8.9,195.3" transform="translate(0.229 939.906)" fill="#d7eeff"/>
        <path id="Trazado_1293" data-name="Trazado 1293" d="M1365.419,739.6c-.061,2.814-.146,5.682-.2,8.489-3.1,114.019-12.058,219-24.664,270.234-57.484,233.2-24.625,499.652-6.923,642.969,8.088,65.633-48.679,73.628-53.837,76.935-71.022,45.634-315.953,36.969-339.506,34.625-9.475-.957-60.706-5.243-71.346-8.288-14.194-4.117-100.512-3.793-149.191-5.011-27.647-.725-42.743-3.593-83.3-10.377q-6.094-.995-13.045-2.174c-103.989-17.124-155.975-25.666-185.242-24.71-65.078,2.143-70.783,17.786-134.82,14.224-49.319-2.752-86.789-4.842-114.027-33.7-32.882-34.8-32.134-88.67-30.538-147.95,1.712-63.459,43.66-324.95,14.132-576.688C161,876.908,191.6,755.665,156.486,684.326c-41.748-84.838-105.323-263.195-84.753-322.6,15.558-44.909,125.815-86.866,273.1-156.469,38.1-17.995,76.118-35.264,107.381-48.849,1.334-.578,2.637-1.164,3.94-1.711,38.826-16.807,66.358-27.524,69.048-26.221,12.343,6,126.193,286.717,172.089,292.307,33.614,4.117,114.975-96.025,201.987-304.8,2.729-6.522,38.017,6.808,84.876,28.048,7.794,3.531,15.905,7.27,24.247,11.187,66.419,31.178,143.871,71.832,172.783,91.329,91.106,61.4,103.388,28.079,141.35,62.5,36.359,33.029,47.546,242.525,42.881,430.55" transform="translate(454.526 767.078)" fill="#71a4cd"/>
        <path id="Trazado_1294" data-name="Trazado 1294" d="M244.7,439.291c-9.506,38.572-22.859,56.682-35.033,94.383-13.446,41.64-39.751,76.064-92.316,144.9-9.213,12.058-17.154,22.112-24.162,30.746C81.475,648.942,73.827,395.461,71.652,260.633c-2.806-171.28,119.7-49.342,134.25-52.65,32.157-7.363,13.7,117.15,38.8,231.308" transform="translate(480.449 1133.804)" fill="#b4dcf9"/>
        <path id="Trazado_1295" data-name="Trazado 1295" d="M646.121,144.036c-40.568,96.025-254.907,399.28-286.872,393.482C318.072,530.055,167.709,270.09,118.12,154.7c38.834-16.807,66.365-27.524,69.056-26.221,12.343,6,126.185,286.717,172.081,292.307,33.614,4.117,114.983-96.025,202-304.8,2.721-6.522,38.017,6.808,84.869,28.048" transform="translate(792.554 767.078)" fill="#9bcff9"/>
        <path id="Trazado_1296" data-name="Trazado 1296" d="M548.037,116.577a.261.261,0,0,1-.023.131c-.324.987-.617,1.974-.879,2.984-9.9,33.052-15.265,77.1-17.956,125.823-1.727,31.063-2.367,64.045-2.367,97.312,0,20.323.239,40.715.586,60.876,1.542,89.094,5.559,173.007,2.822,219.627q-.162,2.475-.324,4.788c-3.431,46.6-11.218,189.976-19.706,355.08-6.276,122.824-12.952,257.636-18.426,373.568-.694,14.68-1.388,29.066-2.051,43.082-2.714,58.463-5.081,110.534-6.839,151.7-.023,1.226-.077,2.444-.131,3.67-1.966,46.359-3.107,78.215-3.138,88.8,0,2.344-.748,18.357-2.128,45.8q-.474,9.563-1.033,20.924c-1.334,26.522-3.061,60.214-5.135,99.949-20,386.7-71.037,1343.831-94.467,1777.742H64.343c7.787-274.922,34.308-811.627,59.488-1328.966q1.122-22.423,2.213-44.786c.1-2.2.208-4.441.316-6.645q.879-17.683,1.727-35.3c6.946-143.061,13.723-283.432,19.868-415q1.2-25.419,2.344-50.322,1.6-34.069,3.107-67.229,2.833-61.836,5.4-120.056c.447-10.108.871-20.084,1.326-30q.763-17.833,1.519-35.272.995-23.372,1.943-45.981c.077-1.758.131-3.485.208-5.212,5.027-119.948,8.774-222.071,10.693-298.243.077-2.953.162-5.852.208-8.728.725-29.413,1.118-54.731,1.2-75.37v-.555c0-.054.023-.085,0-.139.054-14.147-.054-26.09-.324-35.665-.262-8.851-.632-15.659-1.2-20.346-2.182-18.557-7.579-48.641-14.841-85.771-3.346-17.154-7.07-35.8-11.087-55.5-.532-2.637-1.064-5.3-1.6-7.957q-2.752-13.473-5.613-27.493c-6.2-30.353-12.767-62.372-19.313-94.76C92.368,546.441,63.7,392.77,75.214,359.557c4.95-14.286,21.441-30.615,46.359-48.456C175,272.776,267.209,227.427,367.636,179.951c33.645-15.9,68.193-29.652,97.952-40.26,7.61-2.714,14.918-5.243,21.811-7.555,31.779-10.585,54.808-16.46,59.681-16.036.64.054.956.208.956.478" transform="translate(431.724 778.847)" fill="#d7eeff"/>
        <path id="Trazado_1297" data-name="Trazado 1297" d="M445.914,613.04c-89.271,16.052-227.46,14.487-259.333-15.936,0,0-37.67-406.388-5.8-411.461,18.257-2.891,117.465,1.187,252.139,14.494,6.985,140.849,6.445,267.358,12.991,412.9" transform="translate(1127.096 1239.709)" fill="#9bcff9"/>
        <path id="Trazado_1298" data-name="Trazado 1298" d="M743.169,3600.341H432.983c-24.016-264.1-72.471-804.042-140.109-1601.328-.393-4.634-1.7-19.02-3.724-40.931-3.67-39.767-9.676-104.313-16.7-180.454-.077-.856-.162-1.727-.239-2.606-7.609-82.394-16.306-178.087-24.494-270.481-1.835-20.477-3.616-40.8-5.374-60.768q-.96-11.056-1.912-21.942-1.723-19.475-3.331-38.379c-.1-1.249-.208-2.529-.316-3.778q-.764-8.939-1.519-17.686c-2.2-26.112-4.3-51.038-6.191-74.283l-.347-4.41c-3.7-45.534-6.653-84.314-8.512-112.639-1.357-20.739-2.1-35.819-2.1-43.829q0-17.429-.1-33.3c-.108-16.191-.324-31.271-.563-45.58-.5-26.383-1.2-50.052-1.943-72.873-.532-16.892-1.087-33.3-1.6-50.029-1.218-39.443-2.151-80.505-1.858-133.055q.081-14.525.262-30.269c.378-27.046,2.051-62.819,3.993-101.915,1.141-22.5,2.336-46.12,3.454-69.843q.567-11.449,1.041-22.875c.771-17.894,1.465-35.665,1.966-52.819,1.195-41.856,1.357-80.289-.794-108.931-.347-4.711-.825-12.313-1.6-22.366-.748-9.66-1.735-21.6-3.092-35.4-2.683-27.47-6.831-62.4-13.43-101.784-6.3-37.793-14.81-79.68-26.406-123.055-.586-2.205-1.172-4.418-1.781-6.623a1.674,1.674,0,0,1-.085-.509c.031-.578.432-.956,1.2-1.141a10.377,10.377,0,0,1,3.639,0c.031,0,.085,0,.108.031,8.057,1.033,25.4,6.908,47.87,15.635a2.542,2.542,0,0,0,.347.131c4.418,1.727,9.043,3.539,13.808,5.451h.023c7.34,2.984,15.08,6.145,23.083,9.468,72.047,30.053,166.469,73.566,200.561,90.774,67.1,33.907,93.164,38.541,129.308,70.267.455.37.879.748,1.334,1.172.686.586,1.349,1.2,2.043,1.8.478.455.987.933,1.465,1.442.4.424.825.9,1.249,1.4.586.694,1.2,1.442,1.758,2.236.37.563.771,1.118,1.172,1.727.424.64.848,1.3,1.249,2,.077.131.154.27.239.4.393.694.794,1.38,1.172,2.1q1.353,2.44,2.552,5.189a2.479,2.479,0,0,1,.208.455c.347.771.694,1.565,1.041,2.39,1.2,2.876,2.367,5.96,3.485,9.283l.077.239c1.141,3.408,2.259,7.047,3.323,10.932.748,2.629,1.442,5.374,2.128,8.188q.486,2,.956,4.071c.725,3.007,1.388,6.091,2.051,9.283,1.226,6.014,2.421,12.343,3.539,18.989q.358,2.232.717,4.495c.37,2.367.748,4.788,1.118,7.24.347,2.259.663,4.541.987,6.862.023.185.046.393.077.578.054.4.131.825.185,1.249.023.247.054.486.077.748.455,3.138.856,6.33,1.28,9.575,1.01,8.188,1.966,16.73,2.845,25.558.185,1.889.37,3.8.555,5.721Q635.422,462.026,636.3,473v.023q.208,2.59.4,5.189c.162,2.02.324,4.017.455,6.036v.054c.162,2.228.316,4.464.478,6.7.933,13.562,1.727,27.555,2.39,41.887.139,2.29.216,4.572.324,6.892.9,20.639,1.542,41.91,1.966,63.536.023,2.043.077,4.117.108,6.168.023,2.606.077,5.212.108,7.818.077,6.384.154,12.744.208,19.151.031,4.125.054,8.273.054,12.42.108,30.292-.239,60.853-.987,90.852-.046,2.822-.154,5.69-.208,8.512l-.162,4.942c-1.01,31.309-3.693,61.786-6.916,90.589-8.373,74.253-20.477,137.31-17.578,174.679q1.561,19.983,3.084,40.908,1.2,15.913,2.367,32.365c3.138,43.992,6.307,90.582,9.414,139.438q2.833,44.165,5.667,90.7c4.549,75.286,9.075,154.888,13.538,237.575q.995,18.272,1.966,36.729,2.278,42.8,4.549,86.542,2.278,44.443,4.58,89.765.995,19.9,1.989,39.944c6.969,140.849,13.777,286.625,20.346,432.154,24.34,540.083,45.133,1077.822,58.725,1355.773" transform="translate(1178.136 766.948)" fill="#d7eeff"/>
        <path id="Trazado_1299" data-name="Trazado 1299" d="M237.437,628.547c-9.213,125.468-50.183,952.492-50.3,1015.9-.062,29.151-5.019,88.492-12.783,164.087-62.857-90.651-68.524-898-65.934-951.073,3.076-62.935,21.95-425.485,47.885-599.8,7.448-50.067,12.721-88.346,16.83-117.55,49.327-23.615,83.427-26.167,82.409-22.983-38.888,124.366-10.894,413.373-18.11,511.425" transform="translate(724.183 778.434)" fill="#ebf8ff"/>
        <path id="Trazado_1300" data-name="Trazado 1300" d="M334.749,891.619c-3.863,35.318.462,865.41-62.31,887.437-9.938-107.937-21.849-239.079-32.019-355.8-1.249-14.286-2.467-28.372-3.654-42.157-2.783-32.574-5.389-63.551-7.71-91.969-3.847-47.407-6.954-87.83-8.866-117.034-1.357-20.747-2.082-35.85-2.082-43.845.054-62.063-1.218-108.43-2.606-151.743-2.059-64.1-4.41-121.528-3.192-213.351,1.187-88.084,16.229-268.461,9.653-356.406-2.028-27.323-8.7-151.627-46.3-289.208-1.943-7.1,37.138-5.859,90,29.066,4.58,31.294,30.238,93.8,37.446,167.132,17.123,174.163,35.241,545.032,31.648,577.876" transform="translate(1178.156 765.519)" fill="#ebf8ff"/>
        <path id="Trazado_1301" data-name="Trazado 1301" d="M194.327,1064.7c2.321,28.433,4.926,59.411,7.71,91.977,62.988,60.93,135.429,128.614,158.088,146.061,54.654,42.1,178.781,112.392,262.671,156.963-13.16-254.121-26.838-486.184-40.6-664.241-4.086-52.619,21.556-156.215,24.664-270.234.054-2.8.139-5.682.2-8.481,3.416-137.318-1.65-286.085-18.773-369.212-40.831,9.845-85.57,29.49-114.891,68.463-39.181,52.01-102.748,34.054-110.488,203.969-2.29,50.291,14.456,165.6,26.313,301.859,6.43,73.99-137.727-11.965-208.456,30.261,1.388,43.313,2.667,89.672,2.606,151.743,0,8,.725,23.1,2.089,43.838Z" transform="translate(1212.885 989.941)" fill="#b4dcf9"/>
        <path id="Trazado_1302" data-name="Trazado 1302" d="M501.484,809.989c-89.271,16.052-192.026-4.549-259.132-64.469,0,0-62.295-412.186-30.423-417.259,18.257-2.891,134.535,36.282,269.216,49.581,6.977,140.849,13.793,286.6,20.338,432.146" transform="translate(1361.08 2201.526)" fill="#ebf8ff"/>
        <path id="Trazado_1303" data-name="Trazado 1303" d="M260.426,742.132c-51.169,45.7-123.086,68.524-193.938,69.658C74.514,734.021,79.471,683.8,79.733,674.3c.609-23.792,16.229-150.5,33.961-312.823,92.463-16.607,163.246-38.8,177.154-36.6,31.872,5.065-30.423,417.251-30.423,417.251" transform="translate(446.117 2178.841)" fill="#ebf8ff"/>
        <path id="Trazado_1304" data-name="Trazado 1304" d="M236.955,311.693c7.347,3.277,40.438,149.661,59.519,174.571,9.722,12.69,21.048,39.69,42.326,99.309,17.894,50.129,28.1,71.978,20.886,77.282-3.855,2.837-10.747-.486-16.291-3.176-15.4-7.425-23.237-19.035-36.174-39.242-18.311-28.6-26.838-43.175-43.545-59.673-9.452-9.352-14.255-14-17.91-12.76-11.888,4.055-34.347,95.593-37.223,106.772-14.286,55.618-20.878,133.594-16.977,180.231,5.119,61.154-8.6,119.37-26.761,51.809C138.463,788.756,150,712.8,144.8,756.167c-8.2,68.378,28.881,194.185,9.568,197.431-19.166,3.238-34.9-76.666-35.912-84.615-24.9-194.864-2.783-145.367-6.939-146.639s29.019,258.785,1.943,222.38C57.434,869.4,95.635,699.361,95.828,699.361c.547.015,14.24,128.521-5.119,203.853-9.529,37.077-44.447-162.2-25.6-234.16,10.794-41.224,33.476-126.332,17.609-212-1.835-9.884,32.72-46.705,59.257-82.664,18.419-24.941,76.9-70.721,94.976-62.7" transform="translate(400.008 2085.125)" fill="#d5545e"/>
        <path id="Trazado_1305" data-name="Trazado 1305" d="M382.744,340.432c-35.642,53.351-41.694,77.082-50.792,94.283-29.343-10.431-70.128-27.5-128.09-53.976-144.18-65.849-187.6-108.06-186.822-112.87C22.1,236.6,157.164,217.238,290.6,276.6c42.01,18.688,94.167,60.205,92.139,63.836" transform="translate(114.265 1597.811)" fill="#b4dcf9"/>
        <path id="Trazado_1306" data-name="Trazado 1306" d="M668.768,791.5c-.416,8.319-35.156,51.378-86.758,104.135-24.98,25.535-64.823,45.063-98.322,71.947-22.389,17.941-107.52-53.367-130.611-78.64-1.8-1.966-6.692-7.648-14.024-16.252C279.442,802.855,59.375,539.382,37.78,486.933c-23.877-58.07-34.555-87.6-36.506-98.577-4.41-25.234-.686-70.814,65.949-138.621,31.81-8.781,83.944-18.511,145.753-8.288C324.652,259.966,394.309,331.5,413,351.21c82.61,87.22,157.417,259.8,166.492,272.231,4.371,5.967,8.758,12.135,13.091,18.457,39.813,57.861,77.167,127.35,76.188,149.6" transform="translate(-0.002 1590.664)" fill="#d7eeff"/>
        <path id="Trazado_1307" data-name="Trazado 1307" d="M844.021,1318.914c-3.277,53.228-4,90.7-28.279,117.959-77.514,87.043-346.206,26.714-398.162-102.779-13.531-33.722-24.016-125.029-34.563-213.984-7.679-65.055-15.389-128.83-24.286-167.918-5.42-23.785-13.384-54.677-22.828-89.009-26.838-97.682-65.548-223.143-91.191-292.369-16.923-45.611-88.462-238.647,3.97-349.39,17.848-21.418,41.317-64.793,104.984-80.76,43.984-5.883,42.565-8.488,108.915,44.339,41.409,32.944,141.782,213.174,178.7,327.425,43.868,135.807,165.073,585.169,167.656,600.9,18.835,113.757,39.435,135.283,35.087,205.58" transform="translate(1357.679 923.525)" fill="#d7eeff"/>
        <path id="Trazado_1308" data-name="Trazado 1308" d="M605.223,535.85c-28.109,48.217-207.7,38.279-297.989-20.338-13.384-8.7-26.945-17.678-40.445-26.838C259.11,423.627,251.4,359.852,242.5,320.764c-5.42-23.792-13.384-54.677-22.836-89.017,216.22,63.69,421.831,241.862,385.556,304.1" transform="translate(1473.907 1554.961)" fill="#b4dcf9"/>
        <rect id="Rect치ngulo_719" data-name="Rect치ngulo 719" width="1057.233" height="646.988" transform="translate(789.32 2170.219) rotate(-86.328)" fill="#efe6da"/>
        <path id="Trazado_1309" data-name="Trazado 1309" d="M127.369,479.529c-22.227-.532-38.009-13.176-55.88-44.555a4.344,4.344,0,0,1,7.548-4.3c19.066,33.468,33.167,40.191,49.851,40.183,92.154-.046,177.725-248,181.325-258.554a4.346,4.346,0,0,1,8.226,2.806c-9.221,27.061-92.91,264.39-189.552,264.436-.509,0-1.018,0-1.519-.015" transform="translate(475.818 1404.753)" fill="#77c0e0"/>
        <path id="Trazado_1310" data-name="Trazado 1310" d="M189.646,522.225a51.288,51.288,0,0,1-14.494-2.56C83.113,490.221,75.588,238.676,75.033,210.1a4.349,4.349,0,0,1,8.7-.17c.216,11.148,6.306,273.38,94.066,301.458,15.859,5.073,31.363,2.968,59.712-23.114a4.349,4.349,0,0,1,5.89,6.4c-21.071,19.382-37.3,27.948-53.752,27.555" transform="translate(503.444 1379.937)" fill="#77c0e0"/>
        <path id="Trazado_1311" data-name="Trazado 1311" d="M99.046,269.91h0a12.435,12.435,0,0,0,17.54-.278l8.612-8.874a12.407,12.407,0,1,0-17.817-17.27l-8.612,8.882a12.449,12.449,0,0,0,.278,17.539" transform="translate(639.384 1608.552)" fill="#5a3d73"/>
        <path id="Trazado_1312" data-name="Trazado 1312" d="M383.936,120.2A292.856,292.856,0,0,1,411.7,109.218c-6.291,11.441-14.61,23.122-26.344,32.944a549.574,549.574,0,0,0-55.865,32.219l-.031.031c-51.547,34.131-90.173,73.89-119.871,121.151-51.085,81.1-76.033,184.309-95.562,319.106a10.131,10.131,0,1,1-20.053-2.9c20.716-143.17,46.567-234.993,86.5-307.025a416.139,416.139,0,0,1,22.512-36.251,401.763,401.763,0,0,1,71.454-78.323c31.093-26.306,67.283-49.373,109.5-69.974" transform="translate(629.81 732.824)" fill="#5a3d73"/>
        <path id="Trazado_1313" data-name="Trazado 1313" d="M492.485,809.814a10.553,10.553,0,0,1-1.072.069,10.162,10.162,0,0,1-10.084-9.074c-.432-4.086-.956-10.03-1.6-17.625C475.3,731,464.9,608.805,427.176,480.392,399.822,387.259,364.033,310.963,320.2,252.2a422.6,422.6,0,0,0-46.274-52.7,345.689,345.689,0,0,0-59.6-46.127c-8.111-4.957-16.283-9.452-24.424-13.538-.178-.2-.347-.432-.524-.632a127.438,127.438,0,0,1-17.91-29.837,354.193,354.193,0,0,1,53.405,26.683c98.839,60.144,173.446,174.078,221.778,338.6,38.31,130.395,48.826,254.036,53.32,306.824.609,7.394,1.1,13.192,1.534,17.154a10.15,10.15,0,0,1-9.013,11.187" transform="translate(1150.444 733.783)" fill="#5a3d73"/>
        <path id="Trazado_1314" data-name="Trazado 1314" d="M288.581,475a10.158,10.158,0,0,1-9.383-13.993c40.754-99.433,29.821-180.84,6.006-223.875-13.338-24.085-31.71-39.258-51.74-42.7-7.363-1.264-45.781-6.091-79.989,23.561-41.27,35.789-61.531,109.34-58.586,212.7a10.142,10.142,0,0,1-20.277.578c-3.169-111.213,18.9-188.118,65.579-228.594,41.108-35.65,87.775-29.767,96.711-28.233,26.213,4.518,49.666,23.3,66.042,52.873,33.807,61.069,31.949,151.3-4.973,241.392a10.151,10.151,0,0,1-9.39,6.3" transform="translate(498.629 1161.618)" fill="#5a3d73"/>
        <path id="Trazado_1315" data-name="Trazado 1315" d="M316.632,251.608A55.515,55.515,0,1,1,265.2,192.29a55.513,55.513,0,0,1,51.432,59.319" transform="translate(1380.451 1289.252)" fill="#5a3d73"/>
        <path id="Trazado_1316" data-name="Trazado 1316" d="M264.478,225.322a27.593,27.593,0,1,1-25.565-29.482,27.595,27.595,0,0,1,25.565,29.482" transform="translate(1404.749 1313.557)" fill="#8fb7ef"/>
        <path id="Trazado_1317" data-name="Trazado 1317" d="M92.249,269.533h0a12.447,12.447,0,0,1-16.63-5.6l-5.5-11.079a12.406,12.406,0,0,1,22.227-11.025l5.5,11.071a12.445,12.445,0,0,1-5.6,16.63" transform="translate(461.888 1576.425)" fill="#5a3d73"/>
        <path id="Trazado_1318" data-name="Trazado 1318" d="M1205.206,968.47c-63.019,44.824-251.507,10.693-404.36-70.328-90.867-48.155-82.232-55.194-168.727-97.644-125.2-61.432-291.289-158.99-340.724-201.41-2.752-2.351-8.088-6.607-15.211-12.228-44.215-35.01-156.993-123.441-141.574-144.072,14.024-18.75,48.7-56.882,83.535-158.844,15.851-46.451,23.908-69.75,29.613-73.2,9.329-5.62,77.945,13.446,175.042,46.852,187.3,64.446,480.656,182.4,659.375,280.087,104.166,56.936,172.467,163.8,177.563,282.369,3.13,72.672-18.28,122.623-54.531,148.413" transform="translate(893.546 1407.525)" fill="#d7eeff"/>
        <path id="Trazado_1319" data-name="Trazado 1319" d="M355.174,345.378c-2.112-5.72-39.335-57.731-50.345-75.941-4.541-7.509-55.518-63.868-59.157-66.89-2.59-2.136-65.718-31.355-69.064-22.212-1.773,4.842-3.284,13.816,5.559,24.872,7.27,9.1,36.4,20.778,41.532,28.248,6.06,8.835,23.569,51.57,16.414,52.156-10.493.863-45.472-19.945-68.578-30.9-41.224-19.567-41.386-28.449-47.083-36.829-7.417-10.909-22.1,46,6.414,66.088,32.728,23.06,61.1,54.014,42.118,45.6-45.148-20.045-52.519-39.944-58.054-30.862-8.211,13.477-5.2,39.312,4.032,45.9,45.464,32.4,61.3,43.375,53.1,41.039-23.908-6.815-56.181-36.567-61.161-21.587-5.62,16.907-6.214,28.48,21.024,49.535,17.856,13.808,29.559,30.538,24.879,28.526-28.079-12.066-47.222-38.842-49.072-23.8-3.654,29.683.162,34.617,23.029,58.656,7.926,8.334,59.982,67.352,93.5,85.37,80.366,43.205,92.8,44.269,160.825,148.9,37.061,57.014,60.938-126.054,91.738-191.363,23.345-49.5-97.744-109.663-121.652-174.495" transform="translate(714.745 1198.15)" fill="#d5545e"/>
        <path id="Trazado_1320" data-name="Trazado 1320" d="M373.692,439.177c-.416,8.319-35.156,51.378-86.758,104.136-24.979,25.534-64.823,45.064-98.322,71.947C166.223,633.2,81.092,561.893,58,536.62c-1.8-1.966-6.692-7.648-14.024-16.252,56.929-18.9,123.34-45.379,180.192-110.8,45.634-52.5,55.4-95.94,73.335-119.987,39.813,57.862,77.167,127.35,76.188,149.6" transform="translate(295.074 1942.985)" fill="#ebf8ff"/>
        <path id="Trazado_1321" data-name="Trazado 1321" d="M422.8,257.6c-6.407,17.038-25.1,43.575-34.054,66.088-38.888,97.821-52.326,130.071-88.863,199.266-10.169,19.3-15.127,47.993-23.7,63.9-44.215-35-156.993-123.433-141.582-144.064,14.032-18.75,48.71-56.882,83.543-158.851,15.851-46.444,23.9-69.742,29.613-73.189,9.329-5.62,77.945,13.446,175.042,46.852" transform="translate(893.541 1407.525)" fill="#ebf8ff"/>
        <path id="Trazado_1322" data-name="Trazado 1322" d="M457.611,221.4l-312.4-20.053a14.864,14.864,0,0,1-13.885-15.782l1.819-28.341a14.871,14.871,0,0,1,15.79-13.885l312.4,20.053a14.864,14.864,0,0,1,13.885,15.782l-1.82,28.341A14.871,14.871,0,0,1,457.611,221.4" transform="translate(880.961 961.538)" fill="#5a3d73"/>
        <path id="Trazado_1323" data-name="Trazado 1323" d="M212.642,214.963l-31.51-2.02a36.419,36.419,0,0,1,4.672-72.687l31.5,2.02a36.418,36.418,0,0,1-4.664,72.687" transform="translate(986.661 940.565)" fill="#5a3d73"/>
        <path id="Trazado_1324" data-name="Trazado 1324" d="M258.864,123.753a72.78,72.78,0,1,1-72.78-72.78,72.776,72.776,0,0,1,72.78,72.78" transform="translate(760.24 342.015)" fill="#d5545e"/>
        <path id="Trazado_1325" data-name="Trazado 1325" d="M316.885,115.6a72.78,72.78,0,1,1-72.78-72.78,72.776,72.776,0,0,1,72.78,72.78" transform="translate(1149.545 287.324)" fill="#d5545e"/>
        <path id="Trazado_1326" data-name="Trazado 1326" d="M150.469,362.236c9.229,94.938,16.6,190.191,19.683,285.546.247,7.44,11.958,7.432,11.565,0C176.69,552.25,169.3,457.15,157.153,362.236c-.532-4.171-7.108-4.333-6.684,0" transform="translate(1009.476 2409.106)" fill="#5a3d73"/>
        <path id="Trazado_1327" data-name="Trazado 1327" d="M207.4,48.684c2.113,13-6.014,29.066-9.306,41.71-3.138,12.035-3.878,27.986-11.7,37.863-2.251,2.829-6.1.925-6.723-2.1-2.668-12.976,5.3-29.706,8.959-42.226,3.323-11.349,5.566-28.087,14.039-36.729a2.722,2.722,0,0,1,4.734,1.48" transform="translate(1201.931 310.651)" fill="#38192a"/>
        <path id="Trazado_1328" data-name="Trazado 1328" d="M184.672,49.255c10.855,2.552,19.529,11.434,23.561,21.711,3.732,9.491,5.112,25.08-2.891,32.766-3.138,3.022-8.01.948-7.586-3.539.887-9.306,3.963-16.029.74-25.573-3.045-9-8.542-14.888-16.237-20.207-2.421-1.673-.362-5.813,2.413-5.158" transform="translate(1215.716 330.018)" fill="#38192a"/>
        <path id="Trazado_1329" data-name="Trazado 1329" d="M167.375,133.317c-16.453-22.566-35.889-44.979-49.111-69.611-3.115-5.8,4.094-11.295,8.458-6.029,17.856,21.549,31.294,48.055,46.012,71.816,2.213,3.585-2.845,7.278-5.358,3.824" transform="translate(788.432 372.758)" fill="#38192a"/>
        <path id="Trazado_1330" data-name="Trazado 1330" d="M130.467,62.637c-2.668,6.815-4.51,12.991-3.385,20.392,1.11,7.34,5.266,12.2,9.144,18.2,1.866,2.883-1.126,7.209-4.51,5.4-15.389-8.2-17.555-34.879-5.451-46.667a2.523,2.523,0,0,1,4.2,2.675" transform="translate(794.987 396.879)" fill="#38192a"/>
        <path id="Trazado_1331" data-name="Trazado 1331" d="M184.382,50.471c5.489,18.272-7.872,39.1-16.268,54.523-5.142,9.444-10.47,19.328-12.289,30.053-1.519,8.92-.555,15.065,9.221,16.861,8.8,1.611,16.237.046,24.926-.817,6.068-.609,7.463,7.663,2.3,10.038-11.58,5.327-30.507,5.867-41.725-1.095-10.886-6.762-7.872-23-4.873-33.268,3.832-13.13,11.071-25.064,18-36.752,7.648-12.914,11.711-25.681,16.56-39.705.624-1.819,3.616-1.611,4.148.162" transform="translate(958.664 329.041)" fill="#38192a"/>
        <path id="Trazado_1332" data-name="Trazado 1332" d="M158.419,70.921a19.488,19.488,0,1,0,17.655-21.163,19.5,19.5,0,0,0-17.655,21.163" transform="translate(1062.409 333.316)" fill="#38192a"/>
        <path id="Trazado_1333" data-name="Trazado 1333" d="M130.472,73.845a19.488,19.488,0,1,0,17.655-21.163,19.5,19.5,0,0,0-17.655,21.163" transform="translate(874.892 352.942)" fill="#38192a"/>
        <path id="Trazado_1334" data-name="Trazado 1334" d="M218.36,74.07c-5.8,11.434-17.3,17.393-29.613,19.536-12.659,2.213-31.317,2.382-41.771-5.983-3.053-2.444-2.352-8.057,1.565-9.244,10.192-3.1,20.385,1.156,30.839,1.164,12.235.008,22.1-4.371,31.772-11.487,3.863-2.83,9.414,1.665,7.209,6.014" transform="translate(973.419 450.709)" fill="#38192a"/>
        <path id="Trazado_1335" data-name="Trazado 1335" d="M249.047,55.011c-15.134.941-30.569,1.735-45.418,4.988-14.263,3.122-27.1,11.125-41.285,13.639C156.5,74.678,151.8,66.159,156.2,61.919c11.025-10.624,28.179-14.248,42.866-17.008,16.992-3.192,33.753-3.277,50.36,1.642,4.3,1.272,4.811,8.134-.378,8.458" transform="translate(1036.452 286.253)" fill="#38192a"/>
        <path id="Trazado_1336" data-name="Trazado 1336" d="M197.687,64.966c-21.549-3.385-40.43-5.929-61.74.987-9.976,3.23-15.62-12.42-5.682-15.142,22.551-6.183,49.52-7.625,70.621,4.117,5.15,2.868,2.968,11.01-3.2,10.038" transform="translate(839.142 309.381)" fill="#38192a"/>
        <path id="Trazado_1337" data-name="Trazado 1337" d="M156.173,83.888a16.715,16.715,0,1,1-16.715-16.715,16.718,16.718,0,0,1,16.715,16.715" transform="translate(823.58 450.713)" fill="#d7eeff"/>
        <path id="Trazado_1338" data-name="Trazado 1338" d="M210.394,76.249A16.715,16.715,0,1,1,193.68,59.534a16.718,16.718,0,0,1,16.715,16.715" transform="translate(1187.388 399.457)" fill="#d7eeff"/>
      </g>
    </g>
  </g>
</svg>
