<?xml version="1.0" encoding="UTF-8"?><svg id="Capa_2" xmlns="http://www.w3.org/2000/svg" viewBox="0 0 291.32 272.44"><defs><style>.cls-1{fill:#62c1cf;}</style></defs><g id="Capa_1-2"><path class="cls-1" d="M145.64,272.44h0c-10.52,0-20.39-4.67-27.06-12.81l-31.79-38.8c-6.87-8.38-5.64-20.75,2.74-27.62,8.38-6.87,20.75-5.64,27.62,2.74l28.5,34.78,44.4-54.18c6.87-8.38,19.23-9.61,27.62-2.74,8.38,6.87,9.61,19.23,2.74,27.62l-47.7,58.2c-6.67,8.14-16.53,12.81-27.06,12.81Z"/><path class="cls-1" d="M252.53,150.89c-5.02,0-10.04-1.91-13.87-5.74-7.67-7.66-7.67-20.09,0-27.75,12.15-12.16,16.45-29.9,11.21-46.3-3.3-10.32,2.4-21.37,12.72-24.66,10.32-3.3,21.37,2.4,24.66,12.72,9.72,30.45,1.74,63.39-20.84,85.98-3.83,3.83-8.86,5.75-13.88,5.75Z"/><path class="cls-1" d="M268.35,84.94c-8.31-.04-16-5.39-18.62-13.75-2.19-6.97-5.93-13.16-11.12-18.41-8.6-8.67-20.06-13.49-32.26-13.54-4.77-.02-9.48,.69-14.01,2.12-10.34,3.26-21.36-2.47-24.62-12.81-3.26-10.33,2.47-21.36,12.81-24.62C188.94,1.29,197.69-.04,206.53,0c22.67,.11,43.96,9.04,59.95,25.16,9.51,9.61,16.66,21.45,20.69,34.27,3.25,10.34-2.5,21.35-12.84,24.6-1.99,.62-4,.92-5.98,.91Z"/><path class="cls-1" d="M101.98,228.02c-5.68,0-11.31-2.45-15.19-7.19L24.16,144.41C8.57,128.44,0,107.41,0,85.07S8.84,41.04,24.89,24.99C40.94,8.94,62.27,.1,84.96,.1s44.01,8.84,60.06,24.89l.62,.62,.62-.62c9.55-9.54,21.34-16.74,34.09-20.83,10.32-3.31,21.37,2.37,24.68,12.69,3.31,10.32-2.37,21.37-12.69,24.68-6.94,2.23-13.12,6-18.34,11.22l-14.49,14.49c-7.66,7.66-20.09,7.66-27.75,0l-14.5-14.5c-8.64-8.64-20.11-13.4-32.31-13.4s-23.69,4.76-32.32,13.4c-8.64,8.64-13.39,20.12-13.39,32.32s4.76,23.69,13.39,32.32c.46,.46,.89,.94,1.3,1.44l63.2,77.13c6.87,8.38,5.64,20.75-2.74,27.62-3.65,2.99-8.05,4.45-12.43,4.45Z"/></g></svg>