<svg id="Grupo_678" data-name="Grupo 678" xmlns="http://www.w3.org/2000/svg" xmlns:xlink="http://www.w3.org/1999/xlink" width="153.493" height="209.621" viewBox="0 0 153.493 209.621">
  <defs>
    <clipPath id="clip-path">
      <rect id="Rectángulo_714" data-name="Rectángulo 714" width="153.493" height="209.622" fill="none"/>
    </clipPath>
  </defs>
  <g id="Grupo_662" data-name="Grupo 662" transform="translate(0 0)" clip-path="url(#clip-path)">
    <path id="Trazado_1276" data-name="Trazado 1276" d="M2.233,65.57a7.337,7.337,0,0,0,.654-.576.572.572,0,0,0-.07-.935c-.183-.116-.393-.189-.579-.3a.511.511,0,0,1-.258-.55c.116-.574.238-1.145.385-1.708q.585-2.225,1-4.491a17.732,17.732,0,0,1,.974-3.592A25.851,25.851,0,0,0,5.269,50.5a12.375,12.375,0,0,1,1.437-3.173c.762-1.246,1.411-2.558,2.14-3.825.439-.757.928-1.489,1.419-2.215a1.3,1.3,0,0,1,.488-.408,1.051,1.051,0,0,0,.628-.832,2.33,2.33,0,0,1,.535-1.181c.333-.388.651-.788.977-1.181A10.35,10.35,0,0,0,14.257,35.7c.326-.651.755-1.251,1.142-1.871a6.372,6.372,0,0,0,1.158-2.083,18.392,18.392,0,0,1,2.266-3.225c.336-.382.91-.442,1.142-.982a5.681,5.681,0,0,1,.765-1.052,36.424,36.424,0,0,1,3.385-3.729,61.222,61.222,0,0,1,7.386-6.2A13.217,13.217,0,0,1,34.59,14.5c.426-.4.879-.768,1.279-1.186a15.572,15.572,0,0,1,3.672-2.752c1.527-.855,2.993-1.819,4.564-2.6A60.259,60.259,0,0,1,50.39,5.386c1.23-.45,2.478-.85,3.721-1.266.3-.1.473.005.672.39.1.191.171.4.277.584s.209.15.362.034c.382-.295.411-.755.581-1.15a.827.827,0,0,1,.7-.447.948.948,0,0,1,.434,0,2.479,2.479,0,0,0,2.419-.656,4.573,4.573,0,0,1,1.163-.579.887.887,0,0,1,.842.057.53.53,0,0,0,.762-.078A1.536,1.536,0,0,1,63.28,1.8q1.958-.244,3.913-.491a2.429,2.429,0,0,0,.649-.1A6.455,6.455,0,0,1,70.219.9c.292-.01.584-.028.873-.065.509-.062.861-.545,1.424-.512A2.364,2.364,0,0,0,73.8.16c.059-.034.1-.106.15-.16H75.7c.147.222.295.217.439,0h3.08c-.111.258-.227.514-.326.775-.018.047.034.134.078.181s.14.1.173.078c.248-.137.483-.3.726-.444A1.467,1.467,0,0,1,81.313.424a4.171,4.171,0,0,0,2.274.483c.6-.034.871.354,1.173.744.039.047.132.052.2.078A.545.545,0,0,0,85,1.917c.016.028.088.028.134.039.028-.129-.047-.189-.225-.176.284-.628.284-.633.731-.587A52.336,52.336,0,0,1,94.9,2.918c1.4.413,2.781.892,4.212,1.186.6.664,1.5.266,2.212.664a16.739,16.739,0,0,0,2.455.928c.757.274,1.527.517,2.269.83,1.142.481,2.29.964,3.4,1.525a52.824,52.824,0,0,1,6.207,3.706c.778.538,1.434,1.248,2.2,1.809.5.367.357.705.16,1.127a.217.217,0,0,0,.191.318,1.216,1.216,0,0,0,.406-.1,1.422,1.422,0,0,1,1.264.178,6.494,6.494,0,0,1,2.261,2.018.861.861,0,0,0,.491.4A6.275,6.275,0,0,1,125.2,19.11a48.452,48.452,0,0,1,5.024,4.574c1.868,1.956,3.592,4.049,5.349,6.109a11.076,11.076,0,0,1,1.085,1.649c.592,1.01,1.153,2.039,1.726,3.06a.411.411,0,0,1-.258.509,5.381,5.381,0,0,0-.618.2.267.267,0,0,0-.114.372c.028.065.047.163.1.183a4.973,4.973,0,0,0,.814.3c.351.085.713.116,1.083.173.483.664.956,1.313,1.426,1.964.085.119.121.289.23.367a9.087,9.087,0,0,1,2.235,2.949c.424.685.871,1.354,1.3,2.036a1.12,1.12,0,0,1,.173.837l-.085.1.059-.142c.656.328.731,1.041,1.109,1.545a3.392,3.392,0,0,0-.4.323.451.451,0,0,0,.127.721.719.719,0,0,0,.2.078,1.69,1.69,0,0,1,1.452,1.171c.359.881.705,1.765,1.023,2.662.413,1.171.817,2.349,1.184,3.538a14.689,14.689,0,0,1,.514,2.129c.251,1.667.677,3.295,1.049,4.933a3.228,3.228,0,0,1,.178,1.93c-.039.109.041.266.075.4.32,1.2.664,2.4.959,3.6a16.047,16.047,0,0,1,.455,3.256,10.71,10.71,0,0,0,.2,1.3c.966,1.171.646,2.46.351,3.752a2.213,2.213,0,0,0-.083.866,1.963,1.963,0,0,1-.992,2.016,8.481,8.481,0,0,0-1.45,1.641c-1.3,1.768-2.595,3.538-3.954,5.261a24.84,24.84,0,0,0-1.6,2.618c-.716,1.189-1.411,2.393-2.166,3.556A9,9,0,0,1,141.8,92.96c-.2.2-.54.279-.693.5a3.15,3.15,0,0,0-.214.83c-.065.207-.222.39-.266.6-.106.517-.866.447-.884,1.111a3.778,3.778,0,0,1-.522,1.416.532.532,0,0,1-.721.287.321.321,0,0,0-.212-.021,1.565,1.565,0,0,0-.37.2c-.018.016.023.14.062.2.155.238.32.468.5.726-.442.773-.84,1.561-1.326,2.284a14.341,14.341,0,0,0-.6,1.406c-.486.9-.925,1.814-1.323,2.757s-.948,1.809-1.416,2.721a4.315,4.315,0,0,1-1.018,1.134,7.5,7.5,0,0,0,.323-1.036,1.537,1.537,0,0,0-.119-.628.4.4,0,0,0-.5-.284c-.132.052-.328.127-.354.227-.121.481-.2.974-.277,1.468-.008.044.085.147.14.152.284.026.574.028.861.041.155.855-.359,1.538-.594,2.292a15.437,15.437,0,0,0-1.476,3.161,23.251,23.251,0,0,1-2.362,4.424,11.521,11.521,0,0,0-1.256,2.049,20.709,20.709,0,0,1-2.054,3.1c-1.481,2.078-2.861,4.225-4.23,6.375-.351.553-.594,1.171-.9,1.752-.437.84-.868,1.685-1.339,2.507a.937.937,0,0,1-.532.339c-.2.054-.45-.005-.574.207a.762.762,0,0,0,.059.817,1.094,1.094,0,0,1,.065,1.047c-.69,1.607-1.359,3.225-2.083,4.82a25.781,25.781,0,0,1-1.333,2.5,3.874,3.874,0,0,1-.783.734.629.629,0,0,0-.016-.2c-.013-.039-.075-.057-.114-.085.062.075.127.15.191.227a2.923,2.923,0,0,1-.1.848,6.344,6.344,0,0,1-.737,1.336,4.055,4.055,0,0,0-.677,1.362,1.238,1.238,0,0,1-.731.773.593.593,0,0,0-.382.486,2.116,2.116,0,0,1-.563,1.171,16.992,16.992,0,0,0-1.747,2.77,2.234,2.234,0,0,1-.848.974c-.155.088-.158.225-.1.388a.665.665,0,0,1,.034.426c-.326.731-.643,1.468-1.036,2.16-.124.217-.476.3-.724.45a.339.339,0,0,0-.152.519.873.873,0,0,1-.018,1.021c-.238.367-.478.736-.729,1.1a.924.924,0,0,1-1.321.357,3.391,3.391,0,0,0-.824-.256.526.526,0,0,0-.375.176.9.9,0,0,0-.171.385c-.008.026.093.106.155.127.207.072.424.111.625.191a.847.847,0,0,1,.566,1.041,14.462,14.462,0,0,1-.576,1.421,17.85,17.85,0,0,0-1.062,1.638,4.9,4.9,0,0,1-1.147,1.584,20.9,20.9,0,0,0-1.9,2.672c-.455.633-.545,1.553-1.457,1.832a.475.475,0,0,0-.209.354,3.6,3.6,0,0,1-.628,1.388c-.654,1.225-1.362,2.414-1.928,3.69a9.423,9.423,0,0,1-1.517,2.385,5.731,5.731,0,0,0,.054-.811c-.008-.109-.142-.23-.248-.3-.121-.088-.45.023-.553.163a.585.585,0,0,0,.388.933,2.222,2.222,0,0,0,.413-.028,14.97,14.97,0,0,1-1.271,2.781,19.215,19.215,0,0,0-1.416,2.959c-.778,1.9-1.848,3.657-2.732,5.5a3.97,3.97,0,0,1-.465.747,13.083,13.083,0,0,0-1.941,3.409c-.393,1.008-1.052,1.907-1.514,2.9a5.888,5.888,0,0,1-1.346,2.21c-.2.176-.274.509-.421.76-.447.755-.881,1.517-1.364,2.251a10.331,10.331,0,0,0-1.147,1.579,12.472,12.472,0,0,1-.977,1.7,5.806,5.806,0,0,0-.977,2.641c-.005.1-.183.235-.3.269a1.877,1.877,0,0,1-1.29-.072c-.181-.083-.413-.258-.45-.429-.328-1.545-1.346-2.739-2.054-4.088-.168-.323-.385-.62-.571-.935-.142-.246.034-.507.38-.584a1.431,1.431,0,0,0,.393-.111c.171-.09.165-.5,0-.569a2.344,2.344,0,0,0-.6-.217,3.134,3.134,0,0,0-.654.065.751.751,0,0,1-.76-.331,19.3,19.3,0,0,0-1.429-2.2,22.025,22.025,0,0,1-1.207-2.326,2.471,2.471,0,0,0-.721-1.548,5.412,5.412,0,0,1-.659-1.134,18.134,18.134,0,0,0-1.424-2.719,2.048,2.048,0,0,1-.331-.8c-.054-.4-.313-.6-.543-.879a13.669,13.669,0,0,1-1.158-1.845.743.743,0,0,1-.028-.429c.031-.209.119-.447-.127-.561a2.5,2.5,0,0,1-1.158-1.53,38.94,38.94,0,0,0-2.088-4.341c-.861-1.527-1.607-3.117-2.419-4.672a31.579,31.579,0,0,0-1.99-3.659c-1.057-1.5-1.941-3.093-2.9-4.644a7.27,7.27,0,0,0-.951-1.189,12.014,12.014,0,0,1-2.352-3.4,31.433,31.433,0,0,0-2.3-3.982,7.052,7.052,0,0,1-.556-.943Q46.2,156.79,44.955,154.1a2.087,2.087,0,0,1-.07-.643c.142-.031.284-.059.426-.088.248-.049.264-.134.039-.233-.059-.026-.176-.023-.2.013a2.68,2.68,0,0,0-.2.37,1.882,1.882,0,0,1-1.013-1.566c.3-.158.612-.313.923-.47a1.218,1.218,0,0,0-1.315-.667,1.069,1.069,0,0,1-1.1-.558,7.005,7.005,0,0,1-.868-1.251c-.625-1.566-1.721-2.871-2.367-4.422a3.948,3.948,0,0,0-.362-.793,13.143,13.143,0,0,1-1.876-3.936c-1.15-2.2-1.9-4.577-3.129-6.74-.212-.38-.341-.806-.556-1.186a51.548,51.548,0,0,0-3.083-5.021c-1.165-1.589-2.3-3.2-3.362-4.866-.9-1.411-1.781-2.843-2.61-4.292a21.707,21.707,0,0,1-2.16-4.53,12.175,12.175,0,0,0-.734-1.584,18.49,18.49,0,0,1-.811-1.791,4.471,4.471,0,0,0-.778-1.551c-.437-.5-.328-1.246-.83-1.765a6.9,6.9,0,0,1-.879-1.5,2.1,2.1,0,0,1-.357-1.243l-.052.052a7.9,7.9,0,0,0,.713-.509.39.39,0,0,0,.07-.362,1.644,1.644,0,0,0-.959-.853,1.487,1.487,0,0,1-1.039-.716c-.264-.437-.561-.855-.809-1.3q-1.376-2.492-2.732-5a18.565,18.565,0,0,0-1.266-2.047,3.764,3.764,0,0,1-.473-.972,1.505,1.505,0,0,0-.527-.649,12.762,12.762,0,0,1-2.3-3.419.453.453,0,0,1,.07-.388.5.5,0,0,1,.38-.145c.359.057.711.165,1.067.245.165.036.38-.256.295-.468-.111-.277-.246-.517-.031-.806a4.84,4.84,0,0,0,.31-.543,3.9,3.9,0,0,0-.121-.452c-.183-.468-.455-.659-.778-.569-.543.152-.693.558-.434,1.178.028.067.1.129.1.194a.714.714,0,0,1-.052.39c-.15.22-.638.421-.765.333a4.686,4.686,0,0,1-1.359-1.047C5.879,84.4,4.732,82.889,3.579,81.38c-.708-.928-1.432-1.848-2.184-2.742a10.484,10.484,0,0,0-.842-.677,1,1,0,0,1-.3-.569c-.1-1.308-.183-2.62-.246-3.931a1.554,1.554,0,0,1,.134-.85,7.108,7.108,0,0,0,.742-3.163,8.388,8.388,0,0,1,.47-2.571c-.049-.7.519-.979.938-1.362ZM57.7,93.267l-.142.075.083-.134a.627.627,0,0,0,.171-.054c.026-.016.031-.07.044-.109-.052.075-.1.15-.155.222M99.061,16.33a.5.5,0,0,0-.2.008c-.036.016-.075.129-.07.132.1.059.168-.008.207-.191a.75.75,0,0,0,.16-.106c.021-.021.005-.078.005-.116-.121.021-.158.114-.106.274M88.91,26.413l-.137.1.078-.16a.274.274,0,0,0,.362-.129c.016-.026-.075-.1-.116-.158l-.186.351M50.617,80.866c.222-.044.269-.093.134-.132a1.386,1.386,0,0,0-.078.186c-.044.036-.085.07-.127.106l.07-.16M25.587,35.649a.706.706,0,0,0-.189.065c-.026.021-.016.093-.023.142.129.008.181-.08.158-.264a.589.589,0,0,0,.168-.036c.028-.016.036-.07.052-.109-.054.067-.111.134-.165.2M69.529,78.271a.864.864,0,0,0,.114.124c.021.018.059.01.09.016l-.258-.078c-.013-.266-.209-.377-.4-.491.039-.287.09-.571.111-.861a1.5,1.5,0,0,0-.072-.419.574.574,0,0,0-.669-.372,1.42,1.42,0,0,0-.793.69c-.083.158-.067.315.072.372.463.191.938.357,1.406.532.134.16.269.323.4.486m13.218,51.416.085.137-.137-.085a.647.647,0,0,0-.041-.176c-.016-.031-.072-.036-.111-.052-.028.111.039.168.2.176m-51.465-5.259.114.114-.165-.062a.6.6,0,0,0-.021-.168c-.01-.028-.065-.041-.1-.062l.173.178M53.68,72.5c.129-.023.413.114.243-.227-.062.093-.124.189-.189.282-.031.039-.062.075-.1.114.016-.057.028-.111.041-.168m75.224-3.92c.15-.147.3-.292.444-.439.251-.021.385-.16.32-.4-.028-.109-.158-.2-.258-.277-.039-.031-.137-.01-.189.018s-.1.114-.088.147c.078.191.176.375.266.561a.508.508,0,0,0-.437.452l-.367.111c.036.054.072.106.106.16l.2-.333M11.968,48.4a.6.6,0,0,0-.171.028c-.026.016-.031.075-.047.116.109.028.163-.036.165-.2a.216.216,0,0,0,.315-.142c.008-.026-.1-.127-.132-.116-.158.044-.2.16-.132.31m32.561,72.472a.586.586,0,0,0,0,.2c.013.036.088.052.134.075.052-.1-.013-.178-.2-.22a.912.912,0,0,0-.093-.155c-.021-.021-.072-.008-.111-.01l.266.109M120.1,50.162a.506.506,0,0,0-.039-.155c-.013-.026-.067-.026-.1-.039l.2.142a.5.5,0,0,0,.031.189c.016.028.134.034.137.031.039-.137-.039-.194-.222-.168M14.565,66.826l.111.106-.163-.057c-.016-.145.1-.421-.238-.235l.289.186M23.4,66.36c.016.225.062.277.137.15l-.189-.1c-.039-.106-.049-.251-.124-.3s-.186.062-.121.168c.041.065.194.059.3.088m97.136,51.876.137-.07-.088.121-.116.088ZM83.621,60.2l.062.109-.109-.062c-.078-.2-.137-.235-.132-.121,0,.028.116.052.178.075m16.291,59.016c-.124.026-.274.016-.362.085-.178.14-.111.54.052.491a.435.435,0,0,0,.248-.23,1.249,1.249,0,0,0,.016-.4l.1-.1c-.016.049-.034.1-.049.145m-5.277-74.4.147.333.132-.137-.339-.14c-.3-.406-.473-.486-.416-.246.018.075.171.127.269.168a.669.669,0,0,0,.207.021M56.339,129.7a1.15,1.15,0,0,0,.408.059c.124-.026.225-.145.339-.225a1.241,1.241,0,0,0-.245-.271.252.252,0,0,0-.375.093,1.55,1.55,0,0,0-.088.385c-.214.036-.253.083-.116.142l.078-.183m45.725,3.944a.4.4,0,0,0,.465-.235.235.235,0,0,0-.155-.323.146.146,0,0,0-.137.062c-.052.178-.083.364-.121.548a.671.671,0,0,0-.171.075c-.026.018-.023.078-.034.119.049-.083.1-.163.152-.245m6.665-35.189a3,3,0,0,0,0,.4c.026.209.127.251.24.106a.2.2,0,0,0-.005-.194,2.417,2.417,0,0,0-.292-.269,2.023,2.023,0,0,0-.044-.4c-.057-.183-.165-.222-.256-.116a.272.272,0,0,0-.054.181c.036.23.16.351.408.289m-16.787,39.58c.339-.062.737.013.915-.408.271-.016.543-.021.811-.047.057-.005.106-.083.16-.127-.111-.07-.22-.194-.336-.2a.5.5,0,0,0-.587.426.9.9,0,0,0-.9.413c-.114.062-.227.121-.339.181l.147.121c.041-.121.085-.243.127-.362M38.332,15.355c.036.041.07.08.1.121-.052-.023-.1-.047-.158-.067a2.24,2.24,0,0,0-.171-.344c-.026-.039-.116-.049-.176-.044a.25.25,0,0,0-.165.078c-.078.093-.013.186.165.222a3.44,3.44,0,0,0,.4.034M16.759,91.867a3.85,3.85,0,0,0,.388-.023c.059-.01.163-.09.155-.1-.054-.145-.186-.217-.31-.137-.09.059-.121.207-.178.315-.041.039-.08.08-.119.119.021-.057.044-.114.065-.171m86.61,3.52c.165.036.3-.01.333-.158a.6.6,0,0,0-.023-.37c-.052-.1-.176-.028-.217.163a3.571,3.571,0,0,0-.041.411.222.222,0,0,0-.279.186c0,.023.114.1.142.088a.2.2,0,0,0,.085-.32M26.925,90.538a.692.692,0,0,0,.026.168c.013.034.065.049.1.072-.059-.065-.119-.127-.178-.189a3.607,3.607,0,0,0-.212-.558.436.436,0,0,0-.491-.222c-.044.008-.114.127-.1.163.075.173.14.4.282.488a1.445,1.445,0,0,0,.574.078M77,161.858a.739.739,0,0,0-.326-.532c-.134-.127-.295-.168-.326-.062a.379.379,0,0,0,.1.344,2.92,2.92,0,0,0,.6.191.484.484,0,0,0,.525.277.259.259,0,0,0,.235-.295.278.278,0,0,0-.08-.173.2.2,0,0,0-.176-.041c-.191.088-.372.194-.558.292m46.183-50.175c.093.217.2.416.468.444.016.266.016.535.054.8.023.183.127.243.212.165a.287.287,0,0,0,.1-.163c.039-.346.044-.68-.413-.757a.4.4,0,0,0-.481-.429,1.059,1.059,0,0,0-.382-.749c-.16-.14-.274-.106-.323.1a.324.324,0,0,0,.026.209c.158.289.481.271.739.375M25.62,54.132c-.333-.044-.475.178-.592.429-.07.147-.021.279.145.284a.393.393,0,0,0,.315-.168,2.613,2.613,0,0,0,.075-.592.35.35,0,0,0,.346-.382c-.005-.1-.124-.2-.194-.295-.041.052-.114.1-.116.155-.008.189.01.377.021.569M76.1,192.233c.09.059-.191-.264.052-.052a.735.735,0,0,0,.432.659.469.469,0,0,0,.382-.021.436.436,0,0,0,.171-.339.417.417,0,0,0-.23-.279.958.958,0,0,0-.806.031m-1.277-13.278c.08.116.14.269.251.336a.191.191,0,0,0,.31-.155c.005-.023-.119-.078-.186-.088-.145-.021-.289-.018-.434-.026a3,3,0,0,0-.2-.6c-.036-.065-.23-.052-.351-.052-.021,0-.062.111-.059.171s.034.155.08.176c.189.09.39.16.589.235M40.092,78.235c.062.1.111.181-.052.052a1.284,1.284,0,0,0-.152-.995,2.131,2.131,0,0,0-.659,1.021,3.644,3.644,0,0,0-1.649-.336c-.114.005-.23.124-.323.214a.2.2,0,0,0,0,.2c.538.38.77,1,1.189,1.473.106.121.4.026.512-.173a1.024,1.024,0,0,0,.181-.375c.036-.351.031-.705.041-1.06l.915-.021m77.351-33.786c.013-.137.031-.271.036-.408a.922.922,0,0,0-.023-.207.277.277,0,0,0-.473-.1,2.73,2.73,0,0,0-.261.5,1.915,1.915,0,0,0,.37.158,1.825,1.825,0,0,0,.411-.005c.067.2.124.4.2.592.018.044.116.07.178.072s.171-.034.173-.062c.01-.121.031-.32-.028-.351a2.888,2.888,0,0,0-.587-.191M50.63,51.421l.1.116-.152-.062a4.038,4.038,0,0,0-.088-.618c-.067-.23-.277-.282-.491-.277-.251.008-.447.189-.39.37.041.124.111.3.207.331a5.358,5.358,0,0,0,.814.14M29.938,31.7c-.059-.339-.111-.677-.181-1.013-.01-.047-.1-.1-.155-.106-.165-.018-.258.088-.178.23.165.295.37.569.556.853a2.441,2.441,0,0,0-.065.408.407.407,0,0,0,.569.385,1.329,1.329,0,0,0,.344-.235.633.633,0,0,0,.212-.344c0-.072-.176-.186-.289-.222a1.011,1.011,0,0,0-.811.044m-4.8,51.865a3.543,3.543,0,0,0-.633-.059.465.465,0,0,0-.349.2c-.036.078.059.284.152.341.168.106.426.253.566.191a.49.49,0,0,0,.22-.716c.189-.008.233-.044.129-.114l-.085.158m96.278-27.744a.983.983,0,0,0,1.168-.217.5.5,0,0,0,.044-.385c-.034-.173-.173-.217-.339-.134a5.76,5.76,0,0,0-.737.4c-.08.059-.065.248-.1.377a.554.554,0,0,0-.165.039c-.026.016-.023.08-.034.121.116.026.168-.041.158-.2M80.571,62.4a.713.713,0,0,0,.026.168c.013.028.065.044.1.065l-.181-.178c-.023-.354-.028-.708-.072-1.06-.021-.176-.163-.225-.333-.176-.277.075-.439.214-.413.408a.568.568,0,0,0,.14.367,6.532,6.532,0,0,0,.737.406M69.513,71.3a1.109,1.109,0,0,0-.044-.165c-.016-.031-.057-.049-.085-.075l.186.183a1.239,1.239,0,0,0,.693.739.471.471,0,0,0,.385-.026.436.436,0,0,0,.124-.359.43.43,0,0,0-.23-.284,1.684,1.684,0,0,0-1.029-.013M54.147,134.532l.088.109-.137-.062a2.072,2.072,0,0,0-.8-.964c-.147-.093-.292-.085-.359.041a.582.582,0,0,0-.088.382.476.476,0,0,0,.264.3c.339.093.687.132,1.034.191M45.8,142.445a3.235,3.235,0,0,0,1.561-1.362.162.162,0,0,0-.023-.152.249.249,0,0,0-.181-.078,1.361,1.361,0,0,0-1.243,1.23c-.018.14-.039.279-.057.419a1.483,1.483,0,0,0-.165.067.5.5,0,0,0-.08.07c.065-.065.127-.129.189-.194M59.455,167.52c.031.357.049.716.1,1.07.028.181.165.207.333.093.238-.165.5-.318.411-.677s-.38-.388-.669-.426c-.072-.01-.145-.013-.217-.021a1.108,1.108,0,0,0-.052-1.388.261.261,0,0,0-.189-.093.771.771,0,0,0-.612.757c.09.413.375.631.894.685M134.625,88.4a.673.673,0,0,0-.078-.176c-.018-.023-.08-.013-.121-.018,0,.137.08.183.248.142a.6.6,0,0,0,.258.747.713.713,0,0,0,.811-.039,1.359,1.359,0,0,0,.284-.31c.106-.145.059-.266-.121-.336a2.348,2.348,0,0,0-1.282-.01m1.752-41.8c.14.23.238.507.55.558.145.023.233-.065.24-.227,0-.062-.018-.181-.041-.186-.269-.034-.54-.054-.811-.078.129-.53.6-.783.917-1.163.062-.072.008-.266-.031-.39-.054-.173-.2-.212-.344-.085-.215.186-.411.388-.612.587-.1.1-.2.207-.289.315-.245.292-.129.473.421.669M52.015,84.8a.7.7,0,0,0-.016.217,3.048,3.048,0,0,0,.137.349c.023-.057.08-.129.065-.163a3.556,3.556,0,0,0-.24-.354c.075-.2.158-.406.227-.61.158-.463.145-.514-.178-.734-.295-.2-.5-.031-.656.548-.018.07-.062.155-.039.207a1.931,1.931,0,0,0,.318.538c.062.065.251.005.382,0M69.531,28.6c-.047-.106-.07-.264-.15-.3a.105.105,0,0,0-.121.168c.062.07.217.054.331.078-.062.357-.127.711-.176,1.07-.005.036.075.116.127.127a1.141,1.141,0,0,0,1.186-.261c.121-.129.129-.31-.013-.38-.385-.186-.786-.333-1.184-.5m-9.29,77.289c.424-.413.46-.561.2-.868a.619.619,0,0,0-.951-.07c-.279.22-.53.473-.8.724.452.336.7-.114,1.026-.163a.624.624,0,0,1,.406.083c.1.072.127.233.186.351a3.554,3.554,0,0,0-.253.308.2.2,0,0,0,.083.315,1.114,1.114,0,0,0,.129-.284,2.056,2.056,0,0,0-.023-.4m38.776-22.32c-.227-.047-.5,0-.543.209a5.908,5.908,0,0,0-.072,1.266c0,.083.181.2.3.23a.565.565,0,0,0,.4-.052.726.726,0,0,0,.3-.742,1.748,1.748,0,0,0-.442-.961,4.343,4.343,0,0,0,.762-.4,1.511,1.511,0,0,0,.344-.545c.062-.132-.036-.238-.212-.284a.514.514,0,0,0-.558.235c-.251.3-.189.693-.284,1.041M94.575,15.43a.535.535,0,0,0-.326-.641c-.158-.085-.269-.052-.32.114a.269.269,0,0,0,.016.191.679.679,0,0,0,.687.279,10.081,10.081,0,0,0,1.6,1.264c.129.1.385.049.581.067,0,.214.028.444.266.155.067-.078-.116-.2-.277-.145a.7.7,0,0,0-.2-.938,1.72,1.72,0,0,0-1.176-.421c-.284.021-.566.052-.85.075M73.953,163.6c-.039-.028-.078-.057-.116-.088l.168.036c-.145.295.127.525.121.8s-.214.543.14.8a7.629,7.629,0,0,0,.708-.341.633.633,0,0,0,.256-.731.557.557,0,0,0-.437-.4c-.277-.047-.558-.049-.84-.072m31.672-42.7c.036.217.085.261.127.124,0,0-.119-.047-.181-.072.2-.587.837-.713,1.2-1.132a2.762,2.762,0,0,0-.15-.4.677.677,0,0,0-1.057-.315c-.1.052-.251.245-.225.295.22.429-.062.84-.01,1.253a.281.281,0,0,0,.3.251M28.67,62.879a6.384,6.384,0,0,0,.837-.158.432.432,0,0,0,.292-.5,2.176,2.176,0,0,0-.147-.607.559.559,0,0,0-.525-.287.524.524,0,0,0-.47.359,1.714,1.714,0,0,0,.067,1.24c.008-.044-.173.1-.054-.052M48.413,98.9c.581-.01,1.163-.016,1.744-.034a.985.985,0,0,0,.421-.072.73.73,0,0,0,.256-.313c.078-.147,0-.274-.181-.315a6.492,6.492,0,0,0-.641-.106,1.319,1.319,0,0,0-1.543.9.869.869,0,0,0-.207.057c-.031.018-.031.09-.047.137.137.026.2-.059.2-.253m-27.7-20.622c-.059.041-.16.067-.178.121-.39,1.181-.251,1.636.672,2.2a.494.494,0,0,0,.6-.059.723.723,0,0,0,.212-.354.449.449,0,0,0-.313-.488c-.07-.021-.145-.013-.214-.034-.755-.209-.752-.209-.78-1.01a4.054,4.054,0,0,0-.054-.429c.059-.026.119-.049.176-.075-.039.044-.08.088-.121.129M63.836,5.3c-.1-.186-.155-.214-.129-.1.005.026.121.026.183.036-.155.326-.289.664-.473.974a1.1,1.1,0,0,0-.062,1.034,5.9,5.9,0,0,1,.183.933c.2-.173.457-.292.463-.424a8.076,8.076,0,0,0,.168-1.925c-.034-.191-.217-.357-.333-.532M47.1,39.195a1.2,1.2,0,0,0-.067-.168c-.016-.031-.052-.052-.078-.078.067.062.134.124.2.189.336.876,1.2,1.176,1.868,1.68.052.039.269-.054.339-.142a.9.9,0,0,0,.152-.819,4.861,4.861,0,0,1-1.788-.6c-.14-.109-.413-.044-.628-.057M17.2,69.513c-.034-.282-.049-.566-.106-.842a.759.759,0,0,0-.209-.323c-.031-.036-.132-.034-.189-.013s-.129.114-.116.134c.189.354.171.855.674.995a2.979,2.979,0,0,1-.377,1.212c-.116.183.07.351.336.341.212-.01.426,0,.636-.026a.8.8,0,0,0,.38-.15.858.858,0,0,0-.181-1.295,1.418,1.418,0,0,0-.848-.034M59.866,123.1a2.758,2.758,0,0,1,1.579.576.984.984,0,0,0,.8.245c.238-.028.349-.222.444-.419a.2.2,0,0,0-.158-.313,3.215,3.215,0,0,1-1.328-.651c-.475-.318-.99-.049-1.287.618-.421-.078-.84-.176-1.264-.222a.475.475,0,0,0-.357.209c-.049.072.01.326.057.336.558.114,1.158.326,1.517-.38m5.305-8.75a2.093,2.093,0,0,0-1.827.37c-.09.065-.189.271-.15.336A13.075,13.075,0,0,0,64,116.311c.031.047.318.005.357-.065.269-.491.512-1,.742-1.512a1.269,1.269,0,0,0,.034-.413c.124-.041.282-.049.364-.132a.453.453,0,0,0,.1-.364c-.018-.083-.176-.134-.271-.2a1.073,1.073,0,0,0-.207.328,1.3,1.3,0,0,0,.054.4M52.837,27.264c.023-.486-.065-1,.32-1.406a.5.5,0,0,0,.075-.191.625.625,0,0,0-.313-.517.5.5,0,0,0-.214-.008.377.377,0,0,0-.344.434c.044.494.08.987.158,1.476.013.085.207.142.318.212-.075.491.044,1.008-.258,1.465a1.429,1.429,0,0,0-.14,1.047c.021.134.07.32.165.372.372.207.768.372,1.158.543.049.021.134-.021.194-.049.132-.062.14-.178.052-.344a3.842,3.842,0,0,0-.827-.987.432.432,0,0,1-.036-.382c.083-.2.258-.354.333-.55a.884.884,0,0,0-.641-1.114m7.921-10.125a2.637,2.637,0,0,0,1.114,1.246c.047.026.145-.008.2-.041s.132-.127.119-.158a2.089,2.089,0,0,0-.845-.964c-.158-.1-.416-.028-.628-.036a.394.394,0,0,0-.4-.4,1.565,1.565,0,0,1-.954-.444.749.749,0,0,1-.289-.93.751.751,0,0,0-.488-1.021,4.734,4.734,0,0,1-1.372-.558c-.15-.111-.289-.047-.344.129a.262.262,0,0,0,.005.2,12.182,12.182,0,0,0,.972,1.147,2.5,2.5,0,0,1,.783,1.271.607.607,0,0,0,.62.491,4.425,4.425,0,0,0,1.509.07M33.052,81.333a1.271,1.271,0,0,0,1.406-.277.62.62,0,0,1,.793-.085c.127.07.238.168.37.23a.675.675,0,0,0,.948-.53,6.262,6.262,0,0,0-.031-1.928c-.028-.168-.181-.2-.351-.124a2.033,2.033,0,0,0-1.057,1.3c-.22.61-.473.7-.982.444a3.626,3.626,0,0,0-1.209-.46.235.235,0,0,0-.173.1.247.247,0,0,0-.054.189c.134.4.468.734.393,1.2-.429.031-.615-.32-.884-.55-.388-.331-.6-.349-.964-.08s-.682.535-1.013.8a1.3,1.3,0,0,0,.37,1c.155.189.685.3.793.134.408-.636,1.134-.866,1.646-1.364m.377-4.882c.109-.083.3-.155.313-.245.1-.868.643-1.6.718-2.478.016-.168.233-.362.4-.463a1.572,1.572,0,0,1,.623-.158c.432-.049.592-.3.662-.7a2.275,2.275,0,0,1,.3-.553.241.241,0,0,0,0-.194c-.085-.168-.2-.142-.367-.072-.465.2-.941.372-1.421.527-.408.134-.832.22-1.243.344a.725.725,0,0,0-.426.69c.016.142-.021.313.047.424a4.612,4.612,0,0,1,.46,2.936,1.184,1.184,0,0,0-.643.556.28.28,0,0,0,.005.165c.134.021.328.09.4.026a.79.79,0,0,0,.176-.8m43.33,112.786a1.469,1.469,0,0,1-.235-.362.806.806,0,0,0-.749-.664.638.638,0,0,1-.532-.331c-.088-.168-.235-.225-.308-.119a.5.5,0,0,0-.093.38,7.494,7.494,0,0,1,.923,2.2c.013.212.191.341.46.225a1.542,1.542,0,0,1,1.274.039c.251.111.421.39.662.545a.4.4,0,0,0,.37-.106.9.9,0,0,0,.026-1.018,4.188,4.188,0,0,0-.592-.641.728.728,0,0,0-.8-.168,1.928,1.928,0,0,1-.408.023m-3.422-79.5c-.3.078-.579.129-.84.214a.363.363,0,0,0-.168.53,1.485,1.485,0,0,0,.672.811,1,1,0,0,1,.32.271.217.217,0,0,1,.005.207.631.631,0,0,1-.289.243c-.315.075-.494-.274-.778-.295a.483.483,0,0,0-.359.134.52.52,0,0,0-.078.393c.026.111.158.284.246.287.718.021,1.437.013,2.155.008.2,0,.4-.3.313-.46-.212-.375-.447-.737-.643-1.119s-.354-.778-.556-1.225m-37.7-15.588c-.137.106-.292.168-.328.271a.434.434,0,0,0,.065.385,1.111,1.111,0,0,0,1.357.308.61.61,0,0,1,.6.09,1.463,1.463,0,0,0,.584.23c.5.031.941-.408,1.473-.176.041.016.142-.047.183-.1a1.693,1.693,0,0,0,.209-.346c.016-.034-.047-.145-.075-.145a1.931,1.931,0,0,1-1.535-.654c-.054-.067-.274-.047-.39,0-.264.109-.512.261-.765.393a.787.787,0,0,1-.817-.021,4.91,4.91,0,0,0-.566-.238M131.144,82.1a5.524,5.524,0,0,0-.835-1.972,1.121,1.121,0,0,0-1.191-.217,3.674,3.674,0,0,0-.4.186c-.15.078-.23.47-.114.574a3.056,3.056,0,0,0,.842.674,3.265,3.265,0,0,1,1.2.9.344.344,0,0,0,.2.083.278.278,0,0,0,.176-.059.787.787,0,0,0,.119-.168M59.8,136.251a1.39,1.39,0,0,0,.028-.421.52.52,0,0,0-.22-.333.469.469,0,0,0-.4.072,1.214,1.214,0,0,0-.432.465,3.536,3.536,0,0,1-.861,1.468.215.215,0,0,0-.013.207c.062.111.145.279.24.292.509.072.935-.266,1.442-.31.535-.049.646-.437.3-.9-.134-.183-.258-.323-.093-.535m-14.875,2.757c-.023-.137,0-.308-.078-.4a13.828,13.828,0,0,0-.987-1.106c-.052-.052-.274.008-.372.078a1.114,1.114,0,0,0-.514,1.29c.057.207.121.411.191.612a.586.586,0,0,0,.861.336,3.2,3.2,0,0,0,.718-.437c.1-.078.121-.243.181-.37M68.071,55.026c-.124-.685-.248-1.385-.382-2.083-.041-.214-.535-.437-.7-.31a7.939,7.939,0,0,0-.809.687c-.078.08-.059.264-.065.4a.451.451,0,0,0,.07.2c.295.6,1.072.7,1.354,1.318.016.034.121.041.186.036a.362.362,0,0,0,.191-.059,1.1,1.1,0,0,0,.152-.183m69.485,7.28a5.462,5.462,0,0,0,.385-.5c.261-.432.152-.747-.292-.76a2.035,2.035,0,0,1-1.393-.488,2.921,2.921,0,0,0-.757-.408.861.861,0,0,0-.419-.093.329.329,0,0,0-.258.566c.507.517,1.243.711,1.75,1.248a2.474,2.474,0,0,0,.765.4.791.791,0,0,0,.22.036M24.54,75.576c-.256.137-.512.274-.765.413a1.536,1.536,0,0,0-.711,1.036.448.448,0,0,0,.1.388,1.455,1.455,0,0,0,1,.346c.127-.008.328-.083.359-.176.189-.54.349-1.091.491-1.646a.473.473,0,0,0-.1-.393c-.059-.057-.246.016-.372.031M101,63.078c-.057.044-.137.078-.163.134-.054.124-.147.284-.111.385.178.491.46.917,1.039.954a1.871,1.871,0,0,1,1.341.576c.023.026.14.013.15-.013.062-.121.165-.271.134-.377a5.189,5.189,0,0,0-.341-.768.8.8,0,0,0-.824-.556A2.4,2.4,0,0,1,101,63.078M18.754,78.633c-.01-.217-.01-.437-.036-.651a.661.661,0,0,0-.61-.517c-.432.01-.863.034-1.295.057-.16.008-.3.375-.212.54a1.092,1.092,0,0,0,.214.372,10.383,10.383,0,0,0,1.052.765.637.637,0,0,0,.886-.566m59.057,61.76a5.073,5.073,0,0,0,.584.075.232.232,0,0,0,.251-.256c0-.065-.01-.168-.052-.191-.5-.279-.964-.669-1.61-.4a1.869,1.869,0,0,1-.641.054c-.072,0-.145-.034-.214-.036a1.07,1.07,0,0,0-1.119,1.047.4.4,0,0,0,.235.3c.3.109.561-.072.822-.194a3.081,3.081,0,0,1,1.744-.408M142.1,75.617c.393-.008.55-.114.594-.331.075-.351.165-.7.217-1.057a1.238,1.238,0,0,0-.514-1.124c-.109-.1-.532.057-.543.2a1.382,1.382,0,0,0,.015.426.67.67,0,0,1-.171.783,2.823,2.823,0,0,0-.323.284.492.492,0,0,0,.2.713,3.948,3.948,0,0,0,.525.1m-58.068,107.3c-.031-.225,0-.406-.08-.494-.331-.377-.69-.731-1.049-1.083-.034-.031-.145,0-.212.023-.452.191-.721.78-.413,1.01.393.3.393.765.659,1.1a.417.417,0,0,0,.576.049c.194-.209.372-.432.519-.607M70.177,107.4c-.054-.416-.119-.835-.16-1.256-.031-.284-.047-.576-.4-.643a.988.988,0,0,0-.964.3.736.736,0,0,0-.173.773,2.208,2.208,0,0,0,.964,1.091.57.57,0,0,0,.408,0c.119-.041.209-.165.32-.258M3.391,77.511a4.254,4.254,0,0,0,.6-1.4.729.729,0,0,0-.7-.863,2.013,2.013,0,0,0-.631.09c-.292.09-.519.68-.349.889.349.432.711.85,1.075,1.284M126.167,92.337c-.215.016-.357.023-.5.036-.349.028-.478.269-.341.592a2.475,2.475,0,0,0,1.036,1.3.59.59,0,0,0,.594.018.384.384,0,0,0,.124-.54c-.2-.3-.408-.594-.261-.972.067-.176.065-.292-.111-.336-.2-.052-.411-.078-.545-.1M6.042,56.054c.248.326-.183.615-.165.969a.293.293,0,0,0,.088.183c.041.036.134.072.171.052a2.979,2.979,0,0,0,1.3-1.419.964.964,0,0,0-.059-.618c-.078-.227-.522-.336-.765-.233a.916.916,0,0,0-.571,1.065m61.293,82.491a1.122,1.122,0,0,0-.778.339c-.214.176-.279.39-.168.556a.574.574,0,0,0,.535.292,2.958,2.958,0,0,0,.408-.124c.282-.067.426.013.468.243.036.209.036.426.083.633a.3.3,0,0,0,.339.222.51.51,0,0,0,.527-.282c.049-.121.1-.333.036-.39a7.033,7.033,0,0,1-1.072-1.336c-.059-.1-.253-.106-.377-.152m6.1-70c-.277-.408-.509-.773-.762-1.119a.892.892,0,0,0-.339-.264.836.836,0,0,0-.406-.057.545.545,0,0,0-.354.5,1.106,1.106,0,0,0,.527.9c.444.233.519.672.7,1.062a1.289,1.289,0,0,0,.284-.269c.137-.251.243-.519.349-.755m24.186,55.078a2.872,2.872,0,0,0-.08-.344c-.039-.124-.315-.114-.563.026a5.58,5.58,0,0,0-.724.452.46.46,0,0,0-.14.377,6.591,6.591,0,0,0,.3,1.013c.062.16.217.165.367.1a1.214,1.214,0,0,0,.842-1.129c0-.145,0-.287,0-.494m-52.9-55.682a11.673,11.673,0,0,1,.646,1.034c.246.5-.147.961-.127,1.45,0,.054.075.124.129.147s.173.036.207,0c.287-.31.571-.625.832-.956.078-.1.155-.313.106-.388a9.17,9.17,0,0,0-1.005-1.341.576.576,0,0,0-.788.054m2.38,8.73c-.031-.129-.078-.341-.132-.55-.044-.168-.163-.279-.32-.233a.441.441,0,0,0-.271.246.541.541,0,0,0,.023.419,1.056,1.056,0,0,1-.225,1.545,1.937,1.937,0,0,0-.258.349c-.078.119.106.439.289.509a.3.3,0,0,0,.38-.111,3.754,3.754,0,0,0,.514-2.173M85.411,42.283c-.07-.021-.163-.083-.2-.057-.372.217-.718.483-1.106.669s-.814.282-1.2.455a.4.4,0,0,0-.1.375c.036.109.225.258.313.238.7-.16,1.4-.341,2.078-.558a1.333,1.333,0,0,0,.483-.416c.171-.186.01-.6-.256-.705M61.352,96.709c-.047-.121-.057-.289-.145-.357-.687-.522-1.072-.481-1.646.145-.047.054-.088.114-.129.171a.67.67,0,0,0,.457.982,1.283,1.283,0,0,0,1.463-.941M109.3,38.422a1.767,1.767,0,0,0,.912.566.454.454,0,0,0,.388-.093,1.381,1.381,0,0,0,.359-.99c-.021-.411-.284-.809-.55-.835a.753.753,0,0,0-.835.538c-.111.266-.186.545-.274.814M90.9,33.463a2.908,2.908,0,0,0,.253.47,1.033,1.033,0,0,0,1.5.3.313.313,0,0,0,.111-.183,1.024,1.024,0,0,0-.561-1.065c-.349-.083-.708-.124-1.065-.176-.269-.041-.444.134-.238.654m-75.94,53.4c.814.256.809.261,1.137.729a2.06,2.06,0,0,0,.421.486.579.579,0,0,0,.406.054c.16-.026.351-.416.277-.53-.243-.359-.483-.721-.742-1.067a.6.6,0,0,0-.935-.145c-.178.121-.333.277-.563.473M48.018,18.358l0,.028c.426-.016.85-.026,1.277-.049.189-.01.328-.326.238-.517a.554.554,0,0,0-.855-.3,3.375,3.375,0,0,0-.318.292.535.535,0,0,1-.587.1c-.2-.072-.4-.158-.6-.214a.263.263,0,0,0-.341.191.417.417,0,0,0,.32.465c.289.005.576,0,.863,0M66.795,93.009c-.726,0-.917.209-.84.9.065.576.121,1.155.194,1.731.005.039.114.078.178.09.155.031.295-.057.256-.2a1.13,1.13,0,0,1,.044-1.036,9.783,9.783,0,0,0,.543-.948c.152-.287-.031-.545-.375-.545m-13-14.28a3.567,3.567,0,0,0-.481.341c-.207.2-.23.444-.075.548.411.271.827.535,1.246.8a.526.526,0,0,0,.527-.261.89.89,0,0,0,0-.592,2.7,2.7,0,0,0-1.215-.835M106.214,32.46c-.168.052-.434.127-.7.217a.419.419,0,0,0-.163.535,1.968,1.968,0,0,0,1.078.636.784.784,0,0,0,.827-.509.653.653,0,0,0-.509-.791c-.14-.028-.282-.047-.535-.088M99.8,34.1a3.442,3.442,0,0,0,.421.1.536.536,0,0,0,.561-.512.544.544,0,0,0-.631-.638,3.3,3.3,0,0,1-1.458.158c-.382-.07-.463.2-.333.569.121.351.284.452.623.375A1.221,1.221,0,0,1,99.8,34.1M13.622,78.951c-.005.062-.039.145-.01.178a1.926,1.926,0,0,1,.525,1.786.22.22,0,0,0,.065.194.984.984,0,0,0,.349.155c.047.01.152-.07.165-.124.075-.336.1-.687.2-1.016.142-.463.145-.718-.145-.873a7.108,7.108,0,0,0-.985-.393c-.039-.016-.111.059-.168.093M109.8,110.163c.07-.163.258-.385.209-.525a2.013,2.013,0,0,1-.08-1.432c.021-.052-.183-.277-.24-.261a1.5,1.5,0,0,0-.912.563.55.55,0,0,0-.1.406,2.984,2.984,0,0,0,.842,1.228c.044.039.142.013.282.021m6.272,19.607c.132-.008.217.013.271-.018.424-.261.845-.525,1.253-.809a.645.645,0,0,0,.233-.346.874.874,0,0,0-.028-.406c-.039-.163-.163-.183-.328-.085-.473.284-.873.768-1.538.512-.078-.031-.264.106-.344.209a.421.421,0,0,0,.059.566,5.151,5.151,0,0,0,.421.377m-40.2-4.233c.61.667,1.318.367,2.011.2.059-.016.152-.109.145-.147a2.137,2.137,0,0,0-.173-.6.438.438,0,0,0-.333-.2,5.973,5.973,0,0,0-1.067.176.841.841,0,0,0-.581.566m27.225-19.317c-.023-.041-.036-.116-.067-.124a14.031,14.031,0,0,0-1.465-.351c-.171-.023-.39.134-.55.258-.134.106-.1.455.008.6a.9.9,0,0,0,1.455.2c.217-.183.413-.39.62-.589M52.155,67c-.057.041-.15.07-.168.124-.388,1.1-.14,1.582.964,1.886a.8.8,0,0,0,.2-.015.455.455,0,0,0,.4-.424c-.01-.124-.07-.326-.147-.346a1.624,1.624,0,0,1-1.1-1.181c-.01-.028-.1-.031-.152-.044m24.93-.351a1.685,1.685,0,0,0,0-.346,1.513,1.513,0,0,0-.168-.385c-.078-.114-.439-.052-.589.075a1.5,1.5,0,0,0-.581,1.124.707.707,0,0,0,.509.625.565.565,0,0,0,.682-.367c.07-.282.119-.566.15-.726M135.445,51.6c.191-.065.4-.124.6-.2a.379.379,0,0,0,.142-.532c-.344-.341-.682-.69-1.052-1-.121-.1-.284,0-.341.158a1.51,1.51,0,0,0,.287,1.406c.062.093.233.114.367.173m-79.909,81.31c.072-.326.114-.465.132-.61.028-.225-.163-.385-.416-.359a.622.622,0,0,0-.612.726c.121.491.282.974.439,1.455a.231.231,0,0,0,.364.132.615.615,0,0,0,.284-.277c.034-.116-.044-.266-.07-.4-.052-.277-.1-.556-.121-.664m15.5.088v-.041a2.938,2.938,0,0,0-.623.013c-.1.021-.2.163-.245.274-.067.171.026.287.207.295a4.327,4.327,0,0,1,1.352.543c.22.083.465-.059.677-.375.116-.168.047-.375-.173-.53-.114-.08-.233-.2-.357-.212a6.5,6.5,0,0,0-.837.034m32.2-78.069a1.457,1.457,0,0,0,1.269-.382c.132-.132.2-.437.062-.566-.1-.093-.248-.2-.357-.186a4.46,4.46,0,0,0-1.473.711c-.034.028-.031.186,0,.2.183.1.382.173.5.222m-1.122,99.358a1.7,1.7,0,0,0-.034-.473.487.487,0,0,0-.261-.274c-.109-.034-.323,0-.367.078a3.652,3.652,0,0,0-.638,1.517c-.008.116.109.248.191.357.021.026.134-.008.2-.028a1.081,1.081,0,0,0,.907-1.176m-6.786,8.388a5.071,5.071,0,0,0-.016-1.021.782.782,0,0,0-.581-.563c-.168-.047-.354.028-.333.173.083.623.2,1.246.333,1.861.013.059.227.09.349.1a.211.211,0,0,0,.168-.111c.049-.2.072-.4.08-.442M24.659,56.651c0,.331-.005.476,0,.62a.448.448,0,0,0,.473.318,2.252,2.252,0,0,0,1.124-.6c.129-.129.1-.5-.067-.558-.4-.158-.8-.313-1.2-.455-.14-.047-.261.044-.289.222a3.692,3.692,0,0,0-.041.457m101.284-2.67a1.2,1.2,0,0,0-.455-1.018.444.444,0,0,0-.576.034,3.875,3.875,0,0,0-.341.548c-.261.558-.026.892.607,1.134a.68.68,0,0,0,.561-.2,1.24,1.24,0,0,0,.2-.5M48.209,127.3c.189-.724.186-.775-.1-1.147a.547.547,0,0,0-.357-.214,1.312,1.312,0,0,0-1.026.992c-.023.106.109.346.183.354.429.034.861.016,1.3.016m30.434-19.276c-.062-.121-.093-.3-.191-.357a13.85,13.85,0,0,0-1.344-.636c-.059-.026-.209.127-.292.222a.219.219,0,0,0,0,.2c.468.318.938.638,1.426.923.07.041.248-.08.359-.155.039-.026.028-.132.039-.2M24.214,60.758a1,1,0,0,0-.783-1.124.364.364,0,0,0-.4.041c-.452.341-.47.773-.031,1,.253.134.517.245.775.37a.345.345,0,0,0,.442-.289M37,84.85c-.111.253-.137.32-.171.382-.075.142-.054.3.1.344a.479.479,0,0,0,.362-.16,4.117,4.117,0,0,0,.519-.68,1.3,1.3,0,0,0-.075-1.411.26.26,0,0,0-.158-.1c-.168-.041-.318.01-.344.16-.1.55-.181,1.106-.238,1.463m19.175-33.4c-.468.393-.817.868-1.46.889a.21.21,0,0,0-.163.31.316.316,0,0,0,.129.163c.191.088.455.274.576.209a3.946,3.946,0,0,1,1.22-.351.42.42,0,0,0,.209-.53c-.152-.238-.336-.455-.512-.69M49.093,27.93c.729.238.979.186,1.341-.264.214-.261.111-.53,0-.793a1.757,1.757,0,0,0-.189-.382.9.9,0,0,0-.3-.217c-.028-.013-.134.07-.16.127-.235.507-.457,1.016-.687,1.53M42.909,64a10.409,10.409,0,0,0-.894-.6c-.08-.044-.258.062-.38.124a.2.2,0,0,0-.083.173,2.965,2.965,0,0,0,.587,1.39.657.657,0,0,0,.372.129c.034.005.109-.1.129-.163A2.148,2.148,0,0,0,42.909,64m70.384,25.106c-.152.147-.375.266-.432.437a3.875,3.875,0,0,0-.129,2.31c.013.049.1.121.127.114a.257.257,0,0,0,.163-.132c.142-.55.289-1.1.4-1.659a1.338,1.338,0,0,0-.129-1.07m-77.77-.889a1.041,1.041,0,0,0-.429.039c-.09.052-.181.277-.142.339a1.313,1.313,0,0,0,1.463.682.43.43,0,0,0,.248-.677.922.922,0,0,0-1.14-.382m32.9,14.9c-.274-.315-.488-.7-.925-.842-.052-.015-.134.041-.194.08a.982.982,0,0,0-.39,1.129.422.422,0,0,0,.3.248,1.158,1.158,0,0,0,1.145-.426.621.621,0,0,0,.059-.189M56.1,121.239c-.072-.269-.132-.548-.227-.817a.562.562,0,0,0-.9-.1.666.666,0,0,0-.018.951,3.556,3.556,0,0,0,.54.346c.245.14.55.137.579,0a2.635,2.635,0,0,0,.023-.385M53.173,57.29c.028-.494.039-.638.044-.78,0-.072,0-.145,0-.217a.363.363,0,0,0-.406-.364.508.508,0,0,0-.421.413,1.787,1.787,0,0,0,.189,1.442c.057.085.24.1.367.116.041.008.124-.078.137-.129.062-.274.106-.55.093-.481m34.1,112.644a1.657,1.657,0,0,0-2.018.214c-.1.065-.127.23-.171.354a.308.308,0,0,0,.181.1,13.75,13.75,0,0,0,1.5-.088.582.582,0,0,0,.512-.581m-19.712-1.279a1.766,1.766,0,0,0-.233-.351c-.129-.116-.266-.07-.393.054-.1.1-.235.171-.349.261-.437.349-.473.6-.121,1.114.059.088.271.183.333.147a1.323,1.323,0,0,0,.762-1.225m21.56-39.583c.246-.819.225-.9-.31-1.22a5.81,5.81,0,0,0-.563-.292.279.279,0,0,0-.2-.01,1.377,1.377,0,0,0-.344.2c-.028.023-.01.129.01.191a1.885,1.885,0,0,0,1.411,1.134M29.765,77.63a3.542,3.542,0,0,0,.9-1.147c.018-.044-.026-.129-.067-.171s-.134-.1-.171-.085a6.53,6.53,0,0,0-1.486.721c-.129.1-.085.258.049.375a1.156,1.156,0,0,0,.773.308m70.73,74.405c-.284-.643-.416-.827-.752-.933a1.023,1.023,0,0,0-.972.292.258.258,0,0,0-.065.385c.036.054.065.134.116.158a2.683,2.683,0,0,0,1.672.1m10.236-4.876c-.163-.421-.6-.581-.881-.894-.1-.114-.439.021-.553.2a.848.848,0,0,0-.054.819.708.708,0,0,0,.868.442.931.931,0,0,0,.62-.563m-73.87-36.3c.207-.773.429-1.147.5-1.584a.6.6,0,0,0-.4-.68,3.377,3.377,0,0,0-.424-.1.305.305,0,0,0-.38.377c.189.545.382,1.088.7,1.99m16.746,32.429a5.476,5.476,0,0,0-.377-.587.688.688,0,0,0-.349-.155c-.168-.041-.37.194-.4.408a1.283,1.283,0,0,0,.372,1.137.263.263,0,0,0,.38.026.849.849,0,0,0,.37-.83M64.583,74.622a2.213,2.213,0,0,0,.525-.008.711.711,0,0,0,.313-.227c.124-.152.034-.385-.183-.54a.907.907,0,0,0-1.269.282.369.369,0,0,0,.114.344,2.1,2.1,0,0,0,.5.15m-17.56,77.1c.109-.016.457-.059.8-.121.028-.005.054-.132.052-.2s-.034-.168-.072-.178a9.788,9.788,0,0,0-1.667-.245.285.285,0,0,0-.2.075,1,1,0,0,0-.251.315c-.062.147.036.261.222.279.289.026.576.041,1.111.078M76.343,3.781a5.612,5.612,0,0,0-.15-.641C76.072,2.8,75.8,2.7,75.555,2.9a1.942,1.942,0,0,0-.8.959.477.477,0,0,0,.119.372c.083.09.274.189.357.152.38-.173.737-.393,1.116-.6M56.987,155.9c.054.026.119.085.163.072q.713-.217,1.419-.457c.031-.01.057-.106.049-.158a.309.309,0,0,0-.1-.183c-.755-.55-1.424-.323-1.6.543-.01.054.047.121.07.183M10.95,78.475a11.676,11.676,0,0,0-1.439-.53c-.145-.031-.372.158-.507.3a.5.5,0,0,0-.021.4.431.431,0,0,0,.5.287c.408-.119.814-.251,1.463-.452m73.762,101.7c.266-.413.532-.824.793-1.238.028-.049.039-.168.018-.181a.852.852,0,0,0-.38-.145,1.105,1.105,0,0,0-.731.38.642.642,0,0,0-.049.943,1.337,1.337,0,0,0,.349.24M26,73.389a2.462,2.462,0,0,0,.111.581.444.444,0,0,0,.333.189c.194.008.256-.121.194-.295a1.127,1.127,0,0,1,.308-1.194c.072-.085.119-.3.065-.364a.575.575,0,0,0-.39-.14c-.295-.01-.465.111-.5.31-.041.284-.078.571-.124.912m74.692,61.866c.075,0,.16.026.217-.005a1.294,1.294,0,0,1,1.4.1c.075.047.248-.067.375-.106-.034-.111-.036-.282-.109-.32a5.265,5.265,0,0,0-.974-.429,1.2,1.2,0,0,0-1.023.145.425.425,0,0,0-.145.349c.021.1.168.183.256.271M43.252,21.341c-.057-.181-.062-.349-.147-.442a3.584,3.584,0,0,0-.654-.563.424.424,0,0,0-.377.065c-.093.08-.2.282-.158.367a5.132,5.132,0,0,0,.538.91.4.4,0,0,0,.38.072,2.165,2.165,0,0,0,.419-.408m73.382,109.215c-.2.047-.408.085-.6.142-.121.031-.315.432-.253.532a.917.917,0,0,0,.277.287,1.3,1.3,0,0,0,.4.137.7.7,0,0,0,.925-.584.4.4,0,0,0-.134-.346,2.907,2.907,0,0,0-.607-.168m-72.818-100c.129.059.274.189.382.163a2.339,2.339,0,0,0,1.269-.768.284.284,0,0,0,.021-.4.709.709,0,0,0-.336-.243.583.583,0,0,0-.4.088,2.239,2.239,0,0,0-.935,1.163M68.461,32.4c.072-.018.171-.013.2-.057.08-.111.189-.248.178-.367a1.3,1.3,0,0,0-.863-1.1.449.449,0,0,0-.377.1c-.08.078-.155.295-.109.359.282.388.5.842.969,1.057M41.945,125.96c.067.013.165.057.2.028a2.713,2.713,0,0,0,1.116-1.476c.034-.16.114-.3-.054-.349a.38.38,0,0,0-.344.142A2.537,2.537,0,0,1,41.8,125.33c-.158.088-.225.2-.137.341a1.84,1.84,0,0,0,.279.289m16-59.373a1.465,1.465,0,0,0-.349.194.988.988,0,0,0-.2,1.013.235.235,0,0,0,.346.176,1.2,1.2,0,0,0,.664-.527.7.7,0,0,0-.463-.855m43.978,52a.62.62,0,0,0-.158.134c-.034.054-.059.155-.034.194.318.465.636.928.982,1.372.041.052.245,0,.367-.036a.2.2,0,0,0,.1-.165,1.739,1.739,0,0,0-1.049-1.468.954.954,0,0,0-.212-.031M60.634,38.334a.61.61,0,0,0-.78-.465.535.535,0,0,0-.375.638c.085.388.416.7.68.643a.724.724,0,0,0,.475-.817m-13.5,79.6a1.451,1.451,0,0,0-.429.039.762.762,0,0,0-.289.284.247.247,0,0,0,.109.372,6.868,6.868,0,0,0,.78.39c.168.067.587-.3.615-.527a.5.5,0,0,0-.351-.483c-.142-.031-.289-.049-.434-.075m14.11-.858a4.631,4.631,0,0,0-.548.346.466.466,0,0,0,.054.744.876.876,0,0,0,1.171-.085.487.487,0,0,0-.075-.747,4.633,4.633,0,0,0-.6-.258m5.939-11.376a8.074,8.074,0,0,1-1.062-1.292.218.218,0,0,0-.2-.026c-.1.07-.233.158-.266.264a.55.55,0,0,0,.034.4,1.942,1.942,0,0,0,1.168.827.285.285,0,0,0,.191-.049.614.614,0,0,0,.137-.124m55.853-5.331c.243-.313.432-.53.592-.768a.437.437,0,0,0-.333-.641,6.92,6.92,0,0,0-.863.059c-.22.026-.362.313-.23.463.238.269.491.522.835.886m-104.7-9.817c.4-.282.806-.561,1.2-.861.145-.111.142-.271.023-.333s-.292-.145-.388-.1a13.118,13.118,0,0,0-1.295.711c-.039.021.013.271.088.367a1.178,1.178,0,0,0,.372.217m52.889,7.362c.328.173.636.339.948.5a.428.428,0,0,0,.53-.2c.1-.333.176-.674.248-1.016.01-.054-.049-.132-.1-.178s-.129-.08-.158-.059a5.169,5.169,0,0,0-.664.488c-.233.214-.649.106-.809.468m-27.478-.654c.227-.452.39-.76.535-1.078.129-.279.579-.264.62-.636a.916.916,0,0,0-1.326,1.176c.039.137.085.269.171.538m97.668-41.678c-.289-.023-.566-.067-.842-.062-.393.01-.556.207-.669.7-.039.163-.034.308.114.385a.551.551,0,0,0,.38.08,1.5,1.5,0,0,0,1.018-1.106m7.872,6.641a.886.886,0,0,0,.607-.806,1.187,1.187,0,0,0-.178-1.008c-.034-.041-.124-.047-.189-.054s-.178-.005-.183.018a3.017,3.017,0,0,0-.057,1.85M68.4,91.681a2.9,2.9,0,0,0-.426-.444c-.522-.354-.811-.3-1.259.2a.394.394,0,0,0-.023.548c.1.088.246.214.351.2a2.068,2.068,0,0,0,1.357-.5m79.382-15.846a4.989,4.989,0,0,0,.532-.233.213.213,0,0,0,.067-.349c-.178-.214-.354-.429-.543-.633a.266.266,0,0,0-.478.062c-.093.186-.183.377-.264.569a.374.374,0,0,0,.243.486,3.848,3.848,0,0,0,.442.1m-41.265,67.291c.109-.072.274-.121.315-.222a1.01,1.01,0,0,0-.018-1,.285.285,0,0,0-.362-.134.612.612,0,0,0-.452.612.761.761,0,0,0,.315.726c.047.034.134.01.2.016m8.549-82.14c-.127-.145-.191-.279-.3-.331a.611.611,0,0,0-.755.189.6.6,0,0,0-.072.768.418.418,0,0,0,.708.07c.163-.222.284-.473.416-.7M67.655,7.36c-.2.044-.416.078-.623.14a1.375,1.375,0,0,0-.37.2c-.047.031-.062.114-.085.176-.065.176,0,.284.181.331.713.186.964.114,1.271-.413a.5.5,0,0,0-.005-.385c-.059-.147-.209-.152-.37-.044m1.817,162.419a.688.688,0,0,0-.331-.822.509.509,0,0,0-.579.075.445.445,0,0,0-.178.535,2.055,2.055,0,0,0,.411.46.431.431,0,0,0,.377.059,1.257,1.257,0,0,0,.3-.308m2.659,25.488c-.008-.072.016-.171-.023-.212-.344-.372-.687-.744-1.06-1.088-.052-.047-.289.028-.367.116s-.137.333-.085.377c.424.38.876.731,1.326,1.083.016.013.109-.044.14-.085a.767.767,0,0,0,.07-.191M36.461,18.2c-.075.134-.209.261-.186.341a1.9,1.9,0,0,0,.979,1.093.443.443,0,0,0,.522-.235c.028-.129.031-.344-.044-.4-.408-.289-.842-.538-1.271-.8M91.04,22.824a.7.7,0,0,0-.468-.837.578.578,0,0,0-.646.406.694.694,0,0,0,.463.832.574.574,0,0,0,.651-.4m-33.4,111.093.041.008c-.062.274-.129.548-.173.824-.008.044.1.155.132.15.124-.021.333-.062.346-.127a5.924,5.924,0,0,1,.406-1.848c.026-.044-.158-.277-.2-.264a.477.477,0,0,0-.323.233,10.451,10.451,0,0,0-.225,1.023M94.167,70c-.295.106-.628.222-.959.351-.057.023-.142.127-.129.158a.625.625,0,0,0,.2.3,3.21,3.21,0,0,0,.587.258.432.432,0,0,0,.561-.171,1.4,1.4,0,0,0,.1-.6c-.008-.088-.194-.163-.359-.289m-53.886,59.5a1.823,1.823,0,0,0-.109-.416c-.186-.367-.339-.426-.682-.292a.93.93,0,0,0-.38.2.788.788,0,0,0-.116.39.2.2,0,0,0,.109.152,1.3,1.3,0,0,0,1.044.1c.054-.021.09-.09.134-.14M5.287,81.39c-.044.057-.142.134-.127.165.2.457.408.915.636,1.359a.222.222,0,0,0,.377.054A3.32,3.32,0,0,0,6.5,82.45c-.38-.32-.553-.832-1-1.083-.052-.028-.14.013-.209.023m85.835,27.367c-.127.093-.266.15-.326.253-.085.15-.028.3.1.328.545.119,1.093.235,1.646.32.057.008.158-.183.212-.292a.2.2,0,0,0-.049-.173c-.532-.155-1.067-.3-1.584-.437M39.637,45.175c.132-.031.3-.021.393-.1a5.747,5.747,0,0,0,.584-.618c.041-.049.085-.168.062-.194-.085-.093-.2-.217-.3-.222a.913.913,0,0,0-1,.868c.005.093.171.178.264.266m52.142,20.9A.839.839,0,0,0,91.7,67.12a1.536,1.536,0,0,0,.46.432.471.471,0,0,0,.563-.173.49.49,0,0,0-.023-.4c-.284-.318-.6-.6-.917-.91m-7.4-25.328a1.662,1.662,0,0,0-.31-1.228.282.282,0,0,0-.2-.078.2.2,0,0,0-.155.08.832.832,0,0,0-.134.39,6.39,6.39,0,0,0,.158.85c.054.235.354.468.444.354a2.5,2.5,0,0,0,.194-.37m39.857,42.761c-.09-.1-.127-.16-.183-.186a.614.614,0,1,0-.672,1.029c.145.067.54.018.589-.1.106-.253.186-.517.266-.747M38.906,119.35c-.393.134-.793.251-1.178.413a.392.392,0,0,0-.111.351c.031.106.173.191.279.264a.247.247,0,0,0,.2.028,5.131,5.131,0,0,0,.9-.535c.173-.142.093-.37-.09-.522m95.8-76c-.1-.07-.217-.214-.287-.194a9.025,9.025,0,0,1-1.6.463c-.052.005-.121.1-.129.158-.005.041.07.124.121.142a1.473,1.473,0,0,0,.6.132,2.655,2.655,0,0,0,1.3-.7m-15.275-5.869a.877.877,0,0,0,.827-.623.441.441,0,0,0-.1-.362.659.659,0,0,0-.346-.155c-.052-.01-.129.049-.183.09a3.76,3.76,0,0,0-.473.406c-.085.1-.186.313-.15.351a2.007,2.007,0,0,0,.429.292M86.213,85.236c-.049.026-.119.041-.152.088a.239.239,0,0,0-.039.183,6.718,6.718,0,0,0,.3.778.509.509,0,0,0,.509.289c.217-.013.269-.349.14-.693a.948.948,0,0,0-.757-.646m-9.44-50.56a2.867,2.867,0,0,0-.494.393.5.5,0,0,0,.158.724.7.7,0,0,0,.775.119c.214-.1.23-.419.005-.744a4.439,4.439,0,0,0-.444-.491m14.862,10.4a.9.9,0,0,0-.163-.127c-.065-.023-.163-.052-.207-.021a1.228,1.228,0,0,0-.55.876.517.517,0,0,0,.279.525c.15.088.3.075.359-.054a2.283,2.283,0,0,0,.282-1.2m19.4.84c-.041-.041-.078-.106-.129-.121-.765-.269-1.207-.111-1.318.509a.962.962,0,0,0,.183.563c.021.036.279-.01.382-.085a9.918,9.918,0,0,0,.811-.667c.047-.039.047-.129.07-.2M36.513,33.029a3.252,3.252,0,0,0,.6-.093c.109-.039.194-.181.258-.295.093-.16-.1-.434-.31-.465a.942.942,0,0,0-1.109.406c-.1.173-.07.279.116.328.137.039.274.072.442.119m62.4-2.339c-.292.047-.643.093-.99.16a.225.225,0,0,0-.16.331c.047.116.15.3.227.3a2.594,2.594,0,0,0,1.424-.344.248.248,0,0,0,.106-.178c-.008-.054-.085-.119-.147-.142a4.458,4.458,0,0,0-.46-.124m.788,97.658c.067-.008.15.01.2-.023.344-.227.69-.45,1.013-.705a.185.185,0,0,0-.026-.331.332.332,0,0,0-.183-.062,1.66,1.66,0,0,0-1.072.574.646.646,0,0,0-.054.385c0,.057.08.109.124.163m10.908-58.729a2.826,2.826,0,0,0-.411-.452.5.5,0,0,0-.845.256.281.281,0,0,0,.127.377.874.874,0,0,0,1.01.018c.047-.031.065-.1.119-.2M79.786,105.108c.088.124.155.3.24.315a1.011,1.011,0,0,0,.592-.078c.209-.129.062-.357-.008-.532a1.949,1.949,0,0,0-.207-.354c-.036-.052-.119-.124-.155-.111-.121.039-.287.088-.331.181a2.566,2.566,0,0,0-.132.579M123.014,71.5c-.1-.083-.189-.214-.3-.238a.707.707,0,0,0-.827.889.208.208,0,0,0,.308.173,4.266,4.266,0,0,0,.7-.442c.085-.07.083-.251.119-.382M119.229,25.24a4.916,4.916,0,0,0,.667-.119c.121-.036.289-.14.3-.235s-.111-.264-.217-.318c-.638-.323-.925-.3-1.352.116a.366.366,0,0,0,.034.346,2.623,2.623,0,0,0,.563.209m-40.257,179.4c.031-.059.1-.132.088-.186a1.619,1.619,0,0,0-.152-.4c-.1-.189-.233-.372-.475-.357a.518.518,0,0,0-.447.416c-.121.359.021.612.336.589.217-.016.432-.039.651-.059M44.609,51.191c-.021-.067-.021-.155-.062-.194-.2-.194-.413-.38-.631-.556-.1-.083-.442.018-.545.183a.461.461,0,0,0-.059.37.793.793,0,0,0,1.034.46c.106-.036.176-.173.264-.264M78.126,64.427c-.4.052-.561.336-.685.672a.532.532,0,0,0,.132.569.474.474,0,0,0,.349.145.409.409,0,0,0,.31-.2,1.257,1.257,0,0,0-.106-1.189M62.319,99.963a.855.855,0,0,0,.45.638.417.417,0,0,0,.563.008c.2-.183.4-.367.633-.579a2.011,2.011,0,0,0-1.646-.067M51.013,137.158c-.016-.134.016-.313-.057-.4a4.344,4.344,0,0,0-.654-.556c-.22-.158-.483-.093-.517.114a.743.743,0,0,0,.018.413.977.977,0,0,0,1.054.563c.057-.008.1-.09.155-.14M27.16,52.594c.37.052.713.1,1.06.142a1.063,1.063,0,0,0,.2-.021c.147-.013.3-.38.194-.522a.692.692,0,0,0-.3-.269c-.512-.145-.791.021-1.153.669M21.3,99.245a.817.817,0,0,0,.341-.049.673.673,0,0,0,.2-.323.209.209,0,0,0-.041-.194,1.378,1.378,0,0,0-1.215-.147.407.407,0,0,0-.194.32.378.378,0,0,0,.222.279,3.97,3.97,0,0,0,.685.114m87.176-9.789a.718.718,0,0,0-.1-.209c-.413-.4-.85-.339-1,.158a1.621,1.621,0,0,0-.036.641c.015.106.14.207.235.287.026.021.147-.031.191-.078.243-.264.476-.535.708-.8m-49.7-34.585c.14-.016.279-.023.413-.052.052-.01.132-.07.137-.114.036-.318-.171-.512-.38-.708-.152-.14-.362-.109-.553.085s-.271.447-.158.561a1.092,1.092,0,0,0,.331.209.616.616,0,0,0,.209.018m27.711,89.378c.067-.005.137-.005.2-.016a1.452,1.452,0,0,0,.4-.083.464.464,0,0,0,.235-.256c.049-.176-.15-.416-.333-.46a.974.974,0,0,0-.933.287c-.049.049-.005.269.065.349.08.1.235.121.359.178m-9.1-14.914a4.866,4.866,0,0,0-.566.225c-.155.085-.1.426.059.512a.653.653,0,0,0,.768-.047.4.4,0,0,0,.114-.53.335.335,0,0,0-.375-.16m18.366-85.6c.034.052.054.121.1.152a.562.562,0,0,0,.607.026.624.624,0,0,0,.406-.682c-.028-.251-.279-.421-.439-.284-.217.183-.426.38-.628.581-.044.044-.036.137-.049.207M92.6,93.4c-.065-.357-.124-.7-.191-1.049-.034-.176-.145-.282-.264-.225s-.256.168-.274.277a1.3,1.3,0,0,0,.357,1.147c.031.034.145.018.207-.008A.694.694,0,0,0,92.6,93.4M63.73,93.65c-.106-.158-.165-.341-.248-.351a1.627,1.627,0,0,0-.607.065.253.253,0,0,0-.152.359.41.41,0,0,0,.514.238,2.068,2.068,0,0,0,.494-.31M55.535,44.909c-.271-.062-.512.155-.543.488s.124.638.346.669a.377.377,0,0,0,.209-.023.707.707,0,0,0,.31-.9c-.052-.1-.212-.155-.323-.23m5.308,85.445a1.373,1.373,0,0,0-.336-.207.621.621,0,0,0-.858.344.382.382,0,0,0,.036.357.392.392,0,0,0,.349.1,1.412,1.412,0,0,0,.809-.592M57.168,96.309a4.954,4.954,0,0,0,.747-.22.388.388,0,0,0,.114-.357.375.375,0,0,0-.31-.194,8.381,8.381,0,0,0-1.023.32c-.049.018-.085.119-.093.186a.165.165,0,0,0,.085.134,4.939,4.939,0,0,0,.481.129M95.441,34.784a.41.41,0,0,0-.413-.406c-.344.005-.633.214-.631.457,0,.261.315.587.538.558a.692.692,0,0,0,.507-.61M27.972,49.6c-.049-.047-.1-.132-.152-.137a1.019,1.019,0,0,0-.871.478c-.052.065.039.256.085.382a.171.171,0,0,0,.147.075,1.173,1.173,0,0,0,.8-.6c.026-.052-.005-.132-.01-.2m21.7,69.748c-.1.1-.194.155-.191.2a.786.786,0,0,0,.654.734.4.4,0,0,0,.326-.191.407.407,0,0,0-.059-.382,5.047,5.047,0,0,0-.729-.364m17.668-34.4c-.109.059-.261.09-.331.183-.127.173-.075.494.065.556.189.083.39.14.581.214.158.059.3.036.357-.119a.475.475,0,0,0-.034-.372c-.15-.225-.3-.473-.638-.463m62.538-1.331a3.621,3.621,0,0,0-.607.266.361.361,0,0,0,.1.649.548.548,0,0,0,.78-.406c.005-.155-.165-.318-.277-.509m-83,.31c-.052-.1-.067-.194-.109-.207-.124-.044-.3-.119-.382-.07a.836.836,0,0,0-.4.917c.01.062.083.163.127.163.132,0,.328.005.382-.075a5.678,5.678,0,0,0,.385-.729m56.553-53.349a.456.456,0,0,0,.333-.659.41.41,0,0,0-.535-.2.466.466,0,0,0-.277.522.427.427,0,0,0,.478.339M86.551,115.494c.124-.018.212,0,.256-.039a.953.953,0,0,0,.3-1.091.221.221,0,0,0-.147-.124.224.224,0,0,0-.183.078,2.46,2.46,0,0,0-.426.677c-.041.14.132.341.2.5M74.118,200.208a1.8,1.8,0,0,0,.047.256,1.2,1.2,0,0,0,.68.734c.181.08.287.057.31-.14.065-.5-.106-.9-.494-1.005-.158-.044-.364.1-.543.155M113.9,13.792a.5.5,0,0,0-.178.07.47.47,0,0,0-.1.581c.09.2.225.393.47.375a.4.4,0,0,0,.295-.222.745.745,0,0,0-.279-.762c-.047-.041-.137-.031-.207-.041M28.212,28.739c-.1-.16-.168-.393-.32-.488a.875.875,0,0,0-.574-.047c-.163.028-.246.39-.152.53a.65.65,0,0,0,.9.183c.054-.034.085-.1.15-.178m79.253,106.1a2.741,2.741,0,0,0-1.176-.4c-.044-.013-.217.2-.225.318s.093.323.183.349a1.4,1.4,0,0,0,1.217-.264m5.029-22.573c-.062.039-.181.1-.176.119a1.946,1.946,0,0,0,.907,1.171c.026.016.119-.049.155-.1a.267.267,0,0,0,.065-.194,1.646,1.646,0,0,0-.747-1c-.054-.028-.137,0-.2,0m-5.706-.786c-.008-.07.01-.158-.026-.212a1.278,1.278,0,0,0-.879-.558c-.044-.01-.121.057-.152.109a.627.627,0,0,0,.178.765.531.531,0,0,0,.765.049.618.618,0,0,0,.114-.152M87.882,75.656c-.052-.121-.07-.3-.16-.354a4.769,4.769,0,0,0-.594-.22c-.15-.067-.261-.047-.331.124a.33.33,0,0,0,0,.212.96.96,0,0,0,.507.633.422.422,0,0,0,.579-.4m-2.925-13.8c0-.207-.005-.424,0-.641.005-.171-.067-.313-.233-.313a.344.344,0,0,0-.22.253c.016.432.065.861.114,1.29.005.036.1.083.152.083a.236.236,0,0,0,.178-.07.5.5,0,0,0,.005-.6M4.2,62.864c.047.005.121.034.134.013A1.708,1.708,0,0,0,4.8,61.685a.431.431,0,0,0-.078-.2.127.127,0,0,0-.121,0c-.24.357-.558.687-.463,1.178a1.521,1.521,0,0,0,.07.2m81.039,2.747a.373.373,0,0,0-.367-.434.567.567,0,0,0-.525.292c-.109.173-.049.38.16.574a.349.349,0,0,0,.545-.054,2.225,2.225,0,0,0,.186-.377m10.812,71.454a.541.541,0,0,0-.028-.186.439.439,0,0,0-.481-.274.639.639,0,0,0-.333.214.461.461,0,0,0,.026.561.317.317,0,0,0,.168.09.67.67,0,0,0,.649-.406m23.106-33.473a2.467,2.467,0,0,0,.463-.4.408.408,0,0,0-.049-.367.45.45,0,0,0-.558-.116,1.691,1.691,0,0,0-.349.214c-.155.1-.183.235-.044.346a4.773,4.773,0,0,0,.538.318M45.917,22.519c-.274.008-.571.385-.432.569a.984.984,0,0,0,.5.3c.109.028.258-.067.382-.127a.256.256,0,0,0,.152-.346.7.7,0,0,0-.207-.331,1.027,1.027,0,0,0-.4-.065m2.607,114.3a.751.751,0,0,0-.217.013,4.047,4.047,0,0,0-.377.163c.093.109.165.261.282.315a1.574,1.574,0,0,0,.623.14c.1,0,.24-.129.3-.235.085-.163,0-.292-.178-.328-.142-.031-.287-.047-.429-.067M17.971,72.606c-.109-.171-.163-.362-.248-.375a1.641,1.641,0,0,0-.623.044.263.263,0,0,0-.186.339.453.453,0,0,0,.631.357c.168-.057.289-.243.426-.364M56.9,106.183c-.235.114-.491.235-.739.37-.052.028-.116.134-.1.16a3.761,3.761,0,0,0,.372.5.281.281,0,0,0,.4.021.709.709,0,0,0,.246-.923c-.028-.047-.093-.07-.176-.129M81.6,137.049c-.186-.041-.284-.093-.318-.067a.9.9,0,0,0-.227.274c-.026.049-.005.178.028.191a10.855,10.855,0,0,0,1.165.452c.137.041.253-.114.217-.246s-.093-.3-.194-.359a4.478,4.478,0,0,0-.672-.245M33.771,68.386a.717.717,0,0,0,.214-.034,1.084,1.084,0,0,0,.507-.68c.059-.163.041-.308-.127-.367a.555.555,0,0,0-.4.005c-.359.191-.437.45-.32.93.013.054.08.1.124.145m32.882,1.357c.509.036.783.067,1.06.072.194,0,.3-.121.217-.269-.059-.111-.23-.261-.308-.24a7.878,7.878,0,0,0-.969.437m39.172-47.981a1.213,1.213,0,0,0,.039,1.184.969.969,0,0,0,.3.274.175.175,0,0,0,.158-.018c.057-.036.129-.1.134-.158.052-.553-.439-.842-.633-1.282M30.615,70.971c-.062-.031-.129-.093-.191-.09a5.8,5.8,0,0,0-.633.075.24.24,0,0,0-.207.326c.013.062.044.15.09.168.121.047.287.119.382.072a2.372,2.372,0,0,0,.5-.385c.039-.034.039-.109.054-.165m83.437-49.214c-.057-.041-.109-.106-.171-.119a.542.542,0,0,0-.576.2.246.246,0,0,0,.047.375.408.408,0,0,0,.558-.1,1.175,1.175,0,0,0,.142-.362m-23.726,49.9a2.3,2.3,0,0,0-.457.4c-.1.152.062.375.292.483a.509.509,0,0,0,.584-.072.255.255,0,0,0,.065-.37,3.791,3.791,0,0,0-.483-.437m12.616,65.67c-.09.085-.23.155-.261.261a.707.707,0,0,0,.034.411c.075.212.4.429.463.339a.846.846,0,0,0,.14-.382,1.135,1.135,0,0,0-.047-.416.281.281,0,0,0-.328-.212M81.525,185.209a.686.686,0,0,0,.654-.47.3.3,0,0,0,.034-.194.234.234,0,0,0-.341-.16,2.892,2.892,0,0,0-.571.289c-.083.065-.16.269-.119.339.062.1.23.137.344.2M31.551,19.022c-.07-.116-.114-.269-.214-.336a.236.236,0,0,0-.357.116.694.694,0,0,0-.078.393c.023.1.15.186.251.248.031.021.142-.031.181-.08a2.928,2.928,0,0,0,.217-.341m40.487,3.7a1.943,1.943,0,0,0-.452-.336c-.088-.034-.287.07-.351.165a.4.4,0,0,0,.057.359.549.549,0,0,0,.344.22.639.639,0,0,0,.359-.15c.039-.026.026-.129.044-.258m-46.774,84.6a.5.5,0,0,0,.39-.677.428.428,0,0,0-.344-.176c-.289.026-.587.39-.473.571.093.147.315.212.426.282m79.517-.336c-.07-.121-.116-.315-.215-.344s-.277.083-.351.183a2.423,2.423,0,0,0-.269.566.243.243,0,0,0,.052.178.267.267,0,0,0,.38.078c.351-.178.439-.32.4-.662M49.516,65.66c.026.054.036.137.078.152.121.052.326.147.37.1a4.025,4.025,0,0,0,.488-.654.258.258,0,0,0-.07-.375c-.031-.023-.121.01-.173.039a1.27,1.27,0,0,0-.693.737m6.711-2.5a.91.91,0,0,0-.005-.264c-.023-.062-.106-.16-.129-.15-.253.1-.507.207-.749.328a.221.221,0,0,0-.085.165c-.015.168.072.238.23.186.253-.085.5-.181.739-.266M76.24,23.847a.914.914,0,0,0-.225.1c-.021.018,0,.119.028.142a3.607,3.607,0,0,0,.481.341.23.23,0,0,0,.346-.116.357.357,0,0,0-.1-.32,2.551,2.551,0,0,0-.535-.145M73.821,74.188l.388-.067a1.138,1.138,0,0,0-.181-.31.661.661,0,0,0-.359-.168.46.46,0,0,0-.346.134.2.2,0,0,0,.109.315,2.865,2.865,0,0,0,.39.1m42.593,37.3c.08-.093.155-.14.168-.2a.486.486,0,0,0-.351-.641.375.375,0,0,0-.328.147.421.421,0,0,0,.054.375,2.292,2.292,0,0,0,.457.318M58.864,58.473c.155-.1.328-.142.364-.238a.441.441,0,0,0-.538-.607.3.3,0,0,0-.233.45,3.436,3.436,0,0,0,.406.4m34.551-1.057c-.039-.052-.07-.142-.111-.147-.194-.021-.442-.09-.574,0s-.15.344-.2.53a.208.208,0,0,0,.114.165.725.725,0,0,0,.768-.545m-6-42.629c.023.062.026.152.07.183.106.078.264.207.344.173.248-.1.509-.24.532-.55.008-.106-.1-.313-.165-.318a.785.785,0,0,0-.78.512m30.628,41.544a.3.3,0,0,0-.308.388,1.624,1.624,0,0,0,.152.377c.065.093.191.222.274.209a.479.479,0,0,0,.295-.24.5.5,0,0,0-.413-.734m-55.075-.326c-.119.044-.287.049-.351.134a1.064,1.064,0,0,0-.132,1.005c.021.065.09.171.121.163.111-.018.292-.057.313-.124a8.737,8.737,0,0,0,.2-1.036c.005-.039-.1-.093-.152-.142m4.21,78.961a.66.66,0,0,0,.217-.005c.127-.044.3-.083.349-.178a.426.426,0,0,0-.111-.364.627.627,0,0,0-.351-.116.4.4,0,0,0-.194.067c-.227.116-.385.377-.274.45a1.888,1.888,0,0,0,.364.147M21.028,30.181a2.026,2.026,0,0,0-.054-1.411,6.232,6.232,0,0,0-.4.574c-.243.46-.171.587.455.837M115.9,138.819c-.013-.052-.01-.119-.041-.147a.522.522,0,0,0-.822.23.209.209,0,0,0,.2.277.642.642,0,0,0,.667-.359M95.043,113.38c.359-.008.53-.127.61-.429a.254.254,0,0,0-.016-.186.516.516,0,0,0-.54-.2c-.243.026-.351.142-.38.4s.1.419.326.411m-6.008,50.566c.413.052.85-.243.85-.525a.22.22,0,0,0-.093-.152.57.57,0,0,0-.861.181c-.054.14.067.346.1.5M128.4,29.124c-.088.085-.248.165-.253.256a1.661,1.661,0,0,0,.106.579.829.829,0,0,0,.323-.052.4.4,0,0,0-.176-.783M133.6,54.5c-.021-.067-.021-.168-.062-.191-.251-.134-.512-.253-.773-.372a.226.226,0,0,0-.333.147c-.031.109.026.341.1.364a7.167,7.167,0,0,0,.995.212c.016.005.052-.1.078-.16M78.53,160.369c-.034.059-.1.127-.093.176a2.468,2.468,0,0,0,.538.9c.021.018.114-.013.142-.047a.4.4,0,0,0,.085-.189.763.763,0,0,0-.5-.861c-.044-.021-.114.016-.171.023M32.349,31.424a.716.716,0,0,0,.631-.853.237.237,0,0,0-.344-.129c-.357.147-.473.367-.421.827.008.054.088.1.134.155m70.627,68.425a.515.515,0,0,0,.584-.46.364.364,0,0,0-.357-.416.482.482,0,0,0-.571.457.346.346,0,0,0,.344.419m-12.053-.057.375-.165a1.473,1.473,0,0,0-.2-.351.658.658,0,0,0-.359-.189.486.486,0,0,0-.362.1c-.132.127-.031.455.147.519a2.533,2.533,0,0,0,.4.083M60.44,31.295c-.018-.065-.021-.147-.062-.189a.671.671,0,0,0-.315-.214.411.411,0,0,0-.46.279.238.238,0,0,0,.005.194.5.5,0,0,0,.553.137c.1-.023.189-.134.279-.207M90.97,158.483a.724.724,0,0,0-.8-.512c-.093.018-.173.165-.23.269a.213.213,0,0,0,.041.2.92.92,0,0,0,.752.282c.088-.005.163-.155.24-.235M31.112,84.176c-.323.178-.388.538-.558.817-.049.08.01.256.065.364.067.129.421-.008.494-.189a.935.935,0,0,0,0-.992m26.47,56.315a.593.593,0,0,0-.039-.2c-.227-.354-.519-.37-.819-.047-.041.047-.1.142-.083.173.057.093.137.217.23.24.359.1.641.016.711-.168M70.741,51.364a.264.264,0,0,0-.318.191.364.364,0,0,0,.214.53.5.5,0,0,0,.388-.057c.145-.109.083-.367-.1-.556a.959.959,0,0,0-.181-.109M36.278,98.3c-.028-.062-.039-.142-.085-.186a.906.906,0,0,0-.328-.238.431.431,0,0,0-.359.059.517.517,0,0,0-.109.349,1.514,1.514,0,0,0,.556.191c.1.01.217-.111.326-.176M76.258,120.67c.1-.072.248-.121.3-.22a.681.681,0,0,0,.036-.413.715.715,0,0,0-.2-.354c-.1-.09-.478.062-.553.194a.543.543,0,0,0,.416.793m29.571,32.424a.466.466,0,0,0-.491.4c-.018.2.155.351.416.359s.478-.171.4-.344a2.028,2.028,0,0,0-.32-.413m-2.191-63.642c.444.181.706.289.969.393.067.026.165.08.2.054a.606.606,0,0,0,.235-.264c.057-.165-.044-.264-.212-.323a1.642,1.642,0,0,0-1.194.14m-9.115,30.639c-.181.072-.23.181-.163.333a.688.688,0,0,0,.693.413.445.445,0,0,0,.346-.168.415.415,0,0,0-.083-.375.866.866,0,0,0-.793-.2M22.6,35.82a.8.8,0,0,0-.054-.2c-.173-.292-.447-.377-.672-.212a.428.428,0,0,0-.116.543.434.434,0,0,0,.553.114c.111-.041.194-.16.289-.245m83.362,115.474a1.665,1.665,0,0,0-.4.127c-.142.08-.041.3.217.483a.752.752,0,0,0,.189.106c.067.021.181.049.209.016a.583.583,0,0,0,.183-.323.37.37,0,0,0-.4-.408m-8.071.651c-.168-.279-.476-.308-.742-.4-.127-.041-.245.072-.24.245a5.265,5.265,0,0,0,.1.623,4.173,4.173,0,0,0,.566-.194,1.7,1.7,0,0,0,.32-.279m2.8-104.635a2.342,2.342,0,0,0-.336-.2.247.247,0,0,0-.349.165,1.958,1.958,0,0,0-.093.607c.005.093.137.191.233.261.026.021.14-.039.183-.085a1.173,1.173,0,0,0,.362-.749M61.109,90.288c-.1.078-.225.137-.277.235a.219.219,0,0,0,.171.326,1.08,1.08,0,0,0,.406.031,1.394,1.394,0,0,0,.331-.15,1.2,1.2,0,0,0-.24-.326,1.248,1.248,0,0,0-.39-.116m11.616,1.6a2.925,2.925,0,0,0-.46.408c-.111.152.057.393.287.47a.68.68,0,0,0,.6-.088.219.219,0,0,0,.065-.357,4.4,4.4,0,0,0-.5-.434m4.9,2.819a.621.621,0,0,0-.07-.194.5.5,0,0,0-.553-.2.263.263,0,0,0-.152.127.254.254,0,0,0-.023.194c.093.277.339.357.674.217.052-.021.083-.09.124-.14M64.068,39.337c.191.01.264.021.333.018.152-.008.227-.1.233-.274a.3.3,0,0,0-.23-.323.853.853,0,0,0-.806.1.274.274,0,0,0-.072.2c0,.065.026.181.062.189a4.522,4.522,0,0,0,.481.09M40.991,144.758a.233.233,0,0,0-.16.31,1.229,1.229,0,0,0,.61.793c.059.031.181.07.191.054.065-.109.163-.238.147-.346a1.2,1.2,0,0,0-.581-.806c-.047-.034-.134-.005-.207-.005m9.324-2.357a1.5,1.5,0,0,0-.194.1.635.635,0,0,0-.15.15.68.68,0,0,0-.078.2.285.285,0,0,0,.173.364.322.322,0,0,0,.207.023c.243-.085.308-.351.178-.726-.018-.047-.09-.072-.137-.109M131.687,41.107a2.376,2.376,0,0,0-.463.372.4.4,0,0,0-.005.377.465.465,0,0,0,.354.163c.388,0,.519-.364.287-.77-.028-.049-.093-.078-.173-.142m-79.946.985c.049-.124.158-.261.134-.37a1.017,1.017,0,0,0-.641-.768c-.1-.039-.256.062-.375.119-.028.013-.034.119-.016.173a1.459,1.459,0,0,0,.9.845m-31.393.346a.431.431,0,0,0-.264-.488.465.465,0,0,0-.455.359.44.44,0,0,0,.3.468c.176.085.388-.09.413-.339M88.034,41.8c-.173.057-.264.171-.183.279a2.369,2.369,0,0,0,.455.455.223.223,0,0,0,.362-.085.243.243,0,0,0,0-.181c-.209-.416-.357-.53-.631-.468m-55.222.662a.83.83,0,0,0-.2-.121.289.289,0,0,0-.2.021.533.533,0,0,0-.2.54.412.412,0,0,0,.072.189c.083.114.194.088.282-.08s.163-.367.243-.548m72.41,1.031c.132-.016.266-.021.4-.047.049-.013.129-.072.129-.109a.254.254,0,0,0-.1-.173,1.691,1.691,0,0,0-.359-.186c-.243-.09-.393-.026-.457.191-.018.062-.018.178.01.194a2.705,2.705,0,0,0,.377.129m-33.616.388c.127-.057.3-.083.362-.178a.4.4,0,0,0-.075-.37c-.142-.147-.411-.013-.463.214a.268.268,0,0,0,.176.333M64.461,90.153c-.142.052-.266.1-.393.142.085.067.163.173.258.189a2.4,2.4,0,0,0,.623.031c.106-.01.2-.116.3-.178a.648.648,0,0,0-.178-.109c-.207-.034-.416-.052-.607-.075m29.455,59.977a.558.558,0,0,0-.783-.005,2.11,2.11,0,0,0,.186.375.217.217,0,0,0,.377-.016,4.066,4.066,0,0,0,.22-.354m-50.594-8.877c.036-.227-.036-.344-.207-.351a.8.8,0,0,0-.419.088.647.647,0,0,0-.248.318c-.052.147.282.388.45.3a2.346,2.346,0,0,0,.424-.357M86.2,89.709c-.155.065-.235.183-.152.284a2.13,2.13,0,0,0,.439.4.206.206,0,0,0,.333-.1.274.274,0,0,0-.016-.186c-.163-.357-.3-.442-.6-.39m-15.017.651a.724.724,0,0,0,.809.085.456.456,0,0,0,.16-.354.218.218,0,0,0-.282-.222,1.126,1.126,0,0,0-.687.491m53.132,6.388c-.07.016-.142.023-.212.044-.168.049-.264.158-.217.289a1.172,1.172,0,0,0,.222.351.256.256,0,0,0,.4.013c.209-.176.315-.426.2-.525a1.412,1.412,0,0,0-.385-.173m-24.568,43.6c-.109.07-.264.119-.313.22a.7.7,0,0,0-.013.413,1.9,1.9,0,0,0,.16.385.789.789,0,0,0,.468-.633.273.273,0,0,0-.3-.385M43.172,37.978a.239.239,0,0,0-.328.158c-.083.22-.013.47.142.527a.49.49,0,0,0,.494-.246.386.386,0,0,0-.308-.439M125.56,85.166c-.155.121-.32.238-.465.375-.034.031-.015.142.008.2.072.171.191.191.354.1.3-.168.354-.245.271-.488-.021-.059-.088-.1-.168-.189m-41.591.085a4,4,0,0,0-.349-.45c-.127-.127-.266-.08-.341.09-.028.062-.052.171-.021.2a4.173,4.173,0,0,0,.46.419.17.17,0,0,0,.152-.031.917.917,0,0,0,.1-.233M46.583,124.172c-.209.023-.341.173-.331.452a1.253,1.253,0,0,0,.15.39,1.062,1.062,0,0,0,.323-.212.776.776,0,0,0,.132-.4c.01-.15-.109-.23-.274-.235M62.389,98.381a.374.374,0,0,0-.538-.129.543.543,0,0,0-.152.367.289.289,0,0,0,.429.279.493.493,0,0,0,.261-.517M81.4,84.726c.116-.052.295-.078.328-.16a.388.388,0,0,0-.114-.346.462.462,0,0,0-.359-.065.213.213,0,0,0-.132.333c.057.1.181.158.277.238m-7.58-47.134a.28.28,0,0,0,.362-.155.247.247,0,0,0-.124-.364c-.158-.07-.32-.013-.346.142-.021.116.067.251.109.377m63.275,45.674c-.044.047-.116.09-.137.15a.384.384,0,0,0,.2.514.811.811,0,0,0,.39-.026.206.206,0,0,0,.114-.147c.039-.251-.284-.527-.571-.491m-2.217-1.375a.236.236,0,0,0-.116-.364.222.222,0,0,0-.2.031,1.2,1.2,0,0,0-.183.362c-.01.031.1.15.134.14a2.5,2.5,0,0,0,.37-.168m-54.23,41.425c-.039-.054-.067-.132-.121-.16a.571.571,0,0,0-.755.134.37.37,0,0,0,.636.364,1.267,1.267,0,0,0,.24-.339m10.363,38.017a.258.258,0,0,0-.165-.344.484.484,0,0,0-.556.152c-.057.137.1.424.282.5.194.083.388-.052.439-.31m-12.655,2.61c.137-.016.274-.021.408-.044.165-.028.277-.142.23-.292s-.189-.147-.344-.065c-.121.065-.261.1-.382.158-.044.021-.062.093-.093.14.059.036.119.07.181.1M94.247,79.5a2.476,2.476,0,0,0,.253.289c.044.039.171.052.2.023.08-.1.183-.222.178-.331a.358.358,0,0,0-.447-.287.222.222,0,0,0-.181.3m5.817,84.734a2.745,2.745,0,0,0,.357-.22.238.238,0,0,0,.013-.388.883.883,0,0,0-.346-.233c-.147-.036-.287.24-.235.5.023.121.14.225.212.336M44.826,122.952c.116-.052.284-.075.333-.163a.393.393,0,0,0-.065-.351c-.121-.14-.406-.013-.421.2-.008.1.1.212.152.318M83,101.666c.129-.264.085-.39-.093-.452-.274-.093-.514-.039-.576.121s.085.563.214.54a1.709,1.709,0,0,0,.455-.209M48.6,16.18c-.031-.052-.052-.124-.1-.155a.535.535,0,0,0-.788.522.227.227,0,0,0,.152.129.562.562,0,0,0,.734-.5m-35.466,60.3c-.085-.09-.165-.191-.178-.183a2.04,2.04,0,0,0-.507.359c-.057.065-.016.264.044.367.07.119.233.1.341-.039a4.615,4.615,0,0,0,.3-.5M81.228,34.1a3.292,3.292,0,0,0-.4.463.735.735,0,0,0-.041.4c.005.044.111.1.178.111a.38.38,0,0,0,.452-.346A1.159,1.159,0,0,0,81.4,34.3c-.01-.062-.088-.111-.171-.207m-5.866,42.1c.124-.044.217-.049.235-.09a3.914,3.914,0,0,0,.22-.563c.008-.028-.083-.114-.14-.129a.222.222,0,0,0-.308.194,4.421,4.421,0,0,0-.008.589m35.66-41.8a.21.21,0,0,0,.3-.176,1.968,1.968,0,0,0-.026-.589.214.214,0,0,0-.32-.165c-.1.047-.238.15-.251.243a.621.621,0,0,0,.3.687M88.169,50.113a2.193,2.193,0,0,0,.517-.209c.065-.044.039-.23.031-.351a.172.172,0,0,0-.142-.08,4.584,4.584,0,0,0-.563.227c-.054.023-.127.134-.116.147a2.75,2.75,0,0,0,.274.266M36.867,102.9c-.036-.057-.07-.16-.111-.165a.713.713,0,0,0-.705.284.183.183,0,0,0,0,.168.483.483,0,0,0,.548.158.345.345,0,0,0,.269-.444M106.142,18.64c-.168,0-.289.08-.269.23a.487.487,0,0,0,.406.45c.119.018.258-.093.388-.147a.949.949,0,0,0-.152-.344,1.293,1.293,0,0,0-.372-.189M45.6,19.351a.294.294,0,0,0-.4-.287.268.268,0,0,0-.137.145c-.065.2.127.455.3.4.1-.034.155-.168.233-.256M44.2,32.422a2.606,2.606,0,0,0-.331.217.22.22,0,0,0,.01.357.632.632,0,0,0,.344.186c.2,0,.271-.421.124-.674-.026-.041-.1-.057-.147-.085M61.011,178.795a.676.676,0,0,0,.031-.235c-.016-.059-.085-.158-.114-.152a2.507,2.507,0,0,0-.553.155c-.158.072-.183.2-.085.279a.241.241,0,0,0,.176.065c.189-.026.372-.075.545-.111M142.443,71.769c-.021-.24-.168-.258-.662-.124-.155.041-.3.1-.284.253.01.078.2.186.308.183a2.173,2.173,0,0,0,.594-.121c.031-.01.031-.124.044-.191M39.735,71c.036.116.1.3.155.486.235-.1.233-.357.341-.538a.764.764,0,0,0,.08-.2c.047-.152-.021-.251-.2-.274a.263.263,0,0,0-.323.233L39.735,71M18.78,51.77a.254.254,0,0,0-.359-.158.264.264,0,0,0-.158.364.235.235,0,0,0,.351.155.283.283,0,0,0,.165-.362M147.689,66.906a.243.243,0,0,0-.129-.346c-.2-.093-.452-.008-.46.176a.507.507,0,0,0,.14.351c.142.132.367.028.45-.181M39.032,118.515a.62.62,0,0,0,.031-.212c-.016-.067-.088-.181-.111-.176-.271.065-.538.14-.8.23a.2.2,0,0,0-.07.178c.109.245.716.227.948-.021m94.053-53.506c-.044-.052-.1-.152-.129-.145a1.251,1.251,0,0,0-.359.16.221.221,0,0,0-.041.2.2.2,0,0,0,.333.116,1.122,1.122,0,0,0,.2-.331M27.2,62.9c-.062-.07-.111-.171-.158-.168a.509.509,0,0,0-.463.589c.021.059.111.147.152.14a.565.565,0,0,0,.486-.375A.471.471,0,0,0,27.2,62.9M58.83,111.863a2.9,2.9,0,0,0-.4-.543c-.057-.052-.279-.005-.354.07a.5.5,0,0,0-.147.571.426.426,0,0,0,.341.2,2.248,2.248,0,0,0,.561-.3m50.555-87.417a.813.813,0,0,0-.212,1.023c.026.059.093.1.142.155.078-.1.222-.207.22-.3a7.135,7.135,0,0,0-.15-.873M61.5,53.871c-.106-.1-.214-.194-.318-.3-.155-.158-.279-.137-.315.078a1.1,1.1,0,0,0,.028.429.2.2,0,0,0,.344.111,1.681,1.681,0,0,0,.261-.32M51.139,58.727a.465.465,0,0,0-.3-.5.53.53,0,0,0-.519.558.544.544,0,0,0,.47.4c.152,0,.336-.235.351-.46m-7.027,56.23a3.789,3.789,0,0,0-.481-.408c-.088-.057-.233-.021-.351-.028,0,.129-.059.295,0,.382a.534.534,0,0,0,.731.191c.044-.018.067-.088.1-.137m32.559-1.719c.085-.152-.054-.351-.328-.447a.266.266,0,0,0-.2.016c-.129.085-.119.214,0,.357.171.2.444.238.535.075M97.891,134.7a.628.628,0,0,0,.062.165.4.4,0,0,0,.556.067.5.5,0,0,0,.186-.527.215.215,0,0,0-.163-.1c-.344-.023-.61.147-.641.4M43.973,27.538c-.155-.1-.248-.2-.351-.207-.248-.021-.424.165-.346.346.039.09.2.217.245.2a2.913,2.913,0,0,0,.452-.336m1.809,27.47c-.047-.119-.065-.271-.147-.349-.129-.119-.53-.023-.522.1a.634.634,0,0,0,.132.367.471.471,0,0,0,.336.168c.078-.01.134-.186.2-.287m57.409,78.865c.132.047.269.142.39.127.178-.021.222-.173.158-.346s-.194-.251-.341-.134a1.132,1.132,0,0,0-.207.354m7.675-21.609c-.065.028-.181.052-.183.088-.016.152.274.388.424.344.034-.01.062-.124.054-.186a.265.265,0,0,0-.295-.245m-64.931,3.843c.109-.057.253-.085.313-.176.09-.132-.106-.424-.256-.424-.191,0-.426.251-.346.4.052.093.191.137.289.2M82.181,59.789c-.067.01-.147,0-.2.034a2.233,2.233,0,0,0-.261.235,3.212,3.212,0,0,0,.359.165.259.259,0,0,0,.2-.026,2.365,2.365,0,0,0,.253-.23l-.351-.178M76.757,194.964a.545.545,0,0,0-.165-.106.556.556,0,0,0-.566.124c0,.005.075.127.119.127a4.378,4.378,0,0,0,.581-.026c.013,0,.021-.078.031-.119M31.941,53.5c.01.214.217.457.388.429a.2.2,0,0,0,.111-.165,1.139,1.139,0,0,0-.155-.375c-.023-.041-.14-.049-.2-.031s-.1.09-.145.142M88.66,24.778c.021-.186-.165-.432-.354-.408a.363.363,0,0,0-.233.227c-.065.24.08.424.3.388.1-.018.189-.134.282-.207m-70.7,35.8c-.031-.062-.052-.173-.093-.181-.155-.031-.372.282-.3.447a.2.2,0,0,0,.171.047,2.764,2.764,0,0,0,.227-.313m54.416,47.881a1.322,1.322,0,0,0-.266-.22.221.221,0,0,0-.323.152c-.085.23-.044.486.083.543.176.078.509-.238.507-.475M36.1,117.624a.3.3,0,0,0-.377-.124c-.186.052-.256.171-.129.318a1.013,1.013,0,0,0,.346.173c.054-.121.106-.243.16-.367M14.366,64.05c-.075.111-.207.22-.212.333s.109.246.171.37c.078-.111.212-.222.217-.336s-.111-.243-.176-.367m101.488,43.924a1.1,1.1,0,0,0-.377-.145,1.2,1.2,0,0,0-.4.137,1.139,1.139,0,0,0,.375.15,1.319,1.319,0,0,0,.4-.142M43.922,23.421c-.1.078-.176.109-.209.163a.582.582,0,0,0-.021.6.829.829,0,0,0,.147.155c.088-.109.245-.214.243-.32a2.323,2.323,0,0,0-.16-.594m35.931,84.724c.114,0,.227-.1.341-.152-.109-.054-.217-.155-.328-.158s-.22.1-.331.147c.106.059.212.163.318.163m4.515-77.491c-.142-.034-.23.039-.266.214a.26.26,0,0,0,.181.339.473.473,0,0,0,.382-.106c.111-.116-.062-.357-.3-.447m-23,35.151c.023.062.028.147.072.178a1.324,1.324,0,0,0,.346.189c.021.01.114-.09.121-.147.036-.258-.057-.4-.292-.426a.2.2,0,0,0-.248.207m-7.045,71.211c-.059-.023-.121-.075-.176-.067a.381.381,0,0,0-.354.416c0,.057.067.16.111.163.251.026.512-.3.419-.512m67.614-69.989a.63.63,0,0,0-.189.047,2.112,2.112,0,0,0,.15.318.187.187,0,0,0,.173.062.226.226,0,0,0,.093-.163.218.218,0,0,0-.227-.264M36.582,22.478a.278.278,0,0,0-.37.142.34.34,0,0,0,.005.214c.047.194.176.248.326.114a1.019,1.019,0,0,0,.2-.349c.005-.013-.106-.08-.165-.121m-6.391,97.014a1.038,1.038,0,0,0-.222-.24.216.216,0,0,0-.326.147.47.47,0,0,0,.109.37c.116.114.38-.057.439-.277M97.211,103.08c-.044.052-.109.1-.124.152a.239.239,0,0,0,.044.194.721.721,0,0,0,.318.207c.183.026.269-.277.106-.447-.072-.075-.227-.072-.344-.106M39.627,20.769c-.142-.054-.289-.026-.323.116-.023.1.062.23.1.349a1.14,1.14,0,0,0,.323-.176c.121-.124.072-.235-.1-.289m45.751-1.308c-.258-.039-.357.059-.32.336.005.059.052.147.1.158.134.031.39-.227.372-.38-.005-.044-.1-.075-.147-.114M16.17,51.287a2.506,2.506,0,0,0-.357.2.309.309,0,0,0-.059.2.787.787,0,0,0,.388.134c.163-.028.212-.191.152-.354a.971.971,0,0,0-.124-.173M54.848,18.4c-.2-.018-.463.214-.37.323a.883.883,0,0,0,.331.2.247.247,0,0,0,.2,0,2.754,2.754,0,0,0,.3-.22,3.576,3.576,0,0,0-.271-.253.613.613,0,0,0-.191-.057M16.353,73.32c-.057-.109-.088-.261-.178-.318-.163-.1-.457.088-.421.261a.686.686,0,0,0,.194.333c.147.137.372-.021.406-.277m71.033,99.516c-.034-.054-.054-.145-.1-.16-.152-.049-.419.183-.4.344a.2.2,0,0,0,.129.127.28.28,0,0,0,.367-.31M57.845,73.462c-.1-.072-.2-.147-.315-.212a.358.358,0,0,0-.106.152.208.208,0,0,0,.2.274.245.245,0,0,0,.181-.049c.036-.031.028-.109.039-.165m44.973.344c-.049-.054-.1-.152-.145-.152-.217-.008-.465.23-.429.408.01.052.116.129.158.119a1.194,1.194,0,0,0,.38-.168c.039-.026.026-.134.036-.207M85.5,120.014c.026-.059.08-.121.078-.181-.008-.147-.439-.163-.522-.008a.322.322,0,0,0,0,.191c.036.181.137.222.287.124.054-.036.1-.085.155-.127M6.83,75.542c.041-.15-.026-.24-.2-.289-.158-.047-.32-.026-.37.124a.418.418,0,0,0,.093.357c.145.142.385.031.475-.191m101.214,26.726a.582.582,0,0,0-.507-.569c-.049,0-.127.1-.137.16-.065.359.083.525.457.514.062,0,.124-.07.186-.106M77.765,168.463c-.1.062-.279.116-.287.189a.436.436,0,0,0,.152.349c.163.111.478-.129.411-.31-.036-.1-.181-.152-.277-.227M35.683,101.738c-.235.008-.344.134-.326.4a.225.225,0,0,0,.106.165c.147.062.359-.1.421-.32.039-.14-.041-.225-.2-.248m68.43-85.863.359-.2a1.068,1.068,0,0,0-.339-.207c-.274-.044-.512.147-.38.258a1.283,1.283,0,0,0,.359.15m27.574,19.88c.047-.036.121-.067.132-.114a.221.221,0,0,0-.191-.289.289.289,0,0,0-.186.023c-.031.016-.062.114-.047.129a3.455,3.455,0,0,0,.292.251M49.08,101.725a1.078,1.078,0,0,0-.168-.336.191.191,0,0,0-.318.062c-.1.2-.016.437.173.439.1,0,.207-.106.313-.165M27.01,78.5c-.121-.031-.282-.127-.359-.08a.4.4,0,0,0-.049.563.2.2,0,0,0,.165.01.437.437,0,0,0,.243-.494M60.44,48.033c.039.059.088.171.111.165a.535.535,0,0,0,.413-.411c.01-.028-.083-.124-.132-.127-.253-.016-.362.1-.393.372m3.091,117.014a1.1,1.1,0,0,0-.354-.119,1.243,1.243,0,0,0-.364.147c.036.047.062.114.109.14a.529.529,0,0,0,.563-.034c.031-.021.031-.088.047-.134m42.684-86.1c.039-.052.121-.119.111-.15a1.3,1.3,0,0,0-.2-.339c-.021-.026-.137-.008-.178.026a.172.172,0,0,0-.023.168,3.415,3.415,0,0,0,.287.295M88.143,101.17a.264.264,0,0,0,.3.225c.047-.005.129-.111.119-.129a1.617,1.617,0,0,0-.238-.326c-.018-.021-.127.005-.152.041a.523.523,0,0,0-.034.189M70.41,36.195c-.057.036-.111.072-.165.109l.39.429c.036-.052.1-.1.1-.16.023-.295-.057-.38-.328-.377M82.956,80.481a.424.424,0,0,0-.481.266c-.044.186.124.372.375.419a.258.258,0,0,0,.315-.191.357.357,0,0,0-.209-.494m2.732,20.483c-.047.041-.114.075-.129.127a.228.228,0,0,0,.018.189c.134.176.535.212.5.072a.75.75,0,0,0-.222-.3.6.6,0,0,0-.171-.09M71.968,36.639a.644.644,0,0,0-.158.92c.039.059.1.137.158.134s.111-.08.152-.137a.616.616,0,0,0-.152-.917m66.407,44.922c-.129-.039-.261-.127-.382-.111-.171.023-.212.168-.15.333s.186.233.328.111a1.294,1.294,0,0,0,.2-.333M60.525,12.712c.013-.062.062-.178.041-.191a.662.662,0,0,0-.351-.168.365.365,0,0,0-.264.23c-.026.119.023.341.1.377.212.093.362-.062.473-.248M22.92,83.078a.577.577,0,0,0,.016-.2c-.041-.16-.308-.217-.5-.109a.241.241,0,0,0-.106.137c-.036.163.189.432.357.4.09-.018.158-.15.238-.23M82.822,158l-.3-.256c-.036.119-.124.256-.093.354.044.129.207.142.341.052.036-.021.036-.1.052-.15m22.2-145.358c0-.059.026-.137-.005-.173a1.83,1.83,0,0,0-.274-.274c-.142-.119-.264-.088-.336.083a.327.327,0,0,0-.026.2c.065.233.258.279.463.274.059,0,.116-.067.178-.106M24.638,87.548a.775.775,0,0,0,.021-.2.329.329,0,0,0-.442-.289.217.217,0,0,0-.178.3.519.519,0,0,0,.463.339c.039.005.09-.1.137-.152m85.569,38.117c-.07.111-.189.222-.189.333s.121.233.189.346c.065-.111.181-.222.178-.333s-.114-.23-.178-.346M38.409,87.3c-.116-.059-.227-.16-.344-.165a1.034,1.034,0,0,0-.372.129,1,1,0,0,0,.341.16,1.1,1.1,0,0,0,.375-.124m-11.11.969a.724.724,0,0,0,.212,0,.244.244,0,0,0,.173-.344c-.023-.065-.07-.147-.124-.163a.238.238,0,0,0-.189.075,3.323,3.323,0,0,0-.258.331l.186.1M105.961,38.1c-.083-.109-.121-.207-.171-.212a3.508,3.508,0,0,0-.594-.013c-.054,0-.106.085-.16.132.109.08.22.222.331.225a2.48,2.48,0,0,0,.594-.132M45.2,38.973a2.759,2.759,0,0,0,.357-.222.282.282,0,0,0,.062-.2c-.109-.07-.235-.168-.346-.155a.309.309,0,0,0-.23.465c.028.049.1.072.158.109m53.5-.646c-.116.052-.279.072-.336.163-.085.132.212.426.406.375a.354.354,0,0,0,.178-.289c-.013-.093-.16-.168-.248-.248M51.643,90.363c-.062-.044-.119-.116-.171-.111-.186.013-.372.052-.558.08.013.041.021.114.039.114a4.427,4.427,0,0,0,.556.036c.047,0,.09-.078.134-.119m77.945-46.824-.1.023c.013.189.034.377.052.566.031-.062.085-.121.085-.181a3.077,3.077,0,0,0-.039-.408M49.5,128.516c-.049-.052-.093-.106-.142-.158-.152-.15-.266-.127-.318.07-.013.057.013.178.044.186a1.778,1.778,0,0,0,.39.057c.005,0,.016-.1.026-.155M62.44,148.211c-.031-.121-.026-.277-.1-.359-.109-.116-.4.026-.444.2-.052.186.147.457.32.406.09-.028.152-.16.225-.243m7.412-53.53c-.044.047-.119.09-.121.134-.005.173.225.424.4.4.065-.01.163-.191.152-.282-.031-.24-.181-.313-.429-.253M45.994,147.562c-.065.028-.15.036-.189.083a.867.867,0,0,0-.217.349c-.028.145.442.2.532.034a.694.694,0,0,0,.023-.375c-.005-.034-.1-.059-.15-.09M69.433,4.936c.07-.1.14-.207.209-.308a.449.449,0,0,0-.186-.036.279.279,0,0,0-.158.119.3.3,0,0,0-.008.2c.005.021.093.018.142.028m24.219-.827-.165.1c.137.14.277.277.413.416.044-.049.121-.1.124-.15.016-.256-.083-.341-.372-.367m-42.3,89.355a.9.9,0,0,0-.152-.339c-.075-.072-.271-.132-.323-.088a.424.424,0,0,0-.109.349.352.352,0,0,0,.248.222c.106.01.222-.09.336-.145m9.127-52.891a2.438,2.438,0,0,0-.566-.137c-.078,0-.23.173-.22.253.026.227.45.295.7.1.041-.031.044-.106.085-.217m54.357.5a.8.8,0,0,0-.065-.2c-.036-.057-.1-.134-.15-.137s-.124.067-.163.121a.392.392,0,0,0,.041.55c.031.028.142.034.155.013a3.228,3.228,0,0,0,.181-.351M74.232,1.592a.678.678,0,0,0,.186.036c.023,0,.044-.075.065-.114a.722.722,0,0,0-.189-.039c-.023,0-.041.075-.062.116M77.749,142.53a.485.485,0,0,0,.023-.178c-.01-.044-.07-.075-.106-.114-.028.052-.078.1-.083.152a.348.348,0,0,0,.054.168l.111-.028m.574,1.566c-.047-.049-.09-.137-.14-.14s-.127.067-.152.121a.278.278,0,0,0,0,.2c.023.059.1.158.121.15a.259.259,0,0,0,.171-.331m21.883,1.124c-.057.034-.111.07-.168.1.036.054.067.147.106.152.186.018.282-.057.24-.178-.016-.041-.116-.052-.178-.078m-19.842.439c-.088.057-.212.1-.258.176a.212.212,0,0,0,.132.32c.145.044.31-.183.271-.37-.01-.052-.093-.085-.145-.127m22.951,3.62c-.036-.059-.057-.15-.106-.171a.239.239,0,0,0-.336.145c-.01.031.065.119.119.15a.2.2,0,0,0,.323-.124m-40.541.421c.013.052.01.127.044.15s.14.062.178.036c.15-.1.129-.194-.057-.243-.047-.013-.111.036-.165.057M95.151,92.228l.147-.111a1.826,1.826,0,0,0-.315-.127c-.041-.008-.1.065-.147.1.1.047.209.09.315.137M87.825,5.851a.237.237,0,0,0-.351-.075c-.059.034-.142.09-.147.142s.075.158.121.158a1.139,1.139,0,0,0,.367-.07c.018-.005.031-.114.01-.155M61.983,150.857l-.07-.158c-.034.044-.09.085-.1.134s.039.1.062.155l.1-.132m76.3-57.365c-.013-.034-.018-.093-.044-.1a.3.3,0,0,0-.176-.023c-.041.008-.078.059-.114.093l.333.034m-30.626,58.225-.039-.2c-.047.021-.127.041-.129.065a.832.832,0,0,0,.047.2c.041-.021.08-.044.121-.065m-12.8,1.124a1.007,1.007,0,0,0-.2-.24c-.142-.09-.284-.034-.3.129-.01.078.09.2.173.248.137.08.256.016.328-.137M68.053,10.187c.106-.168.083-.264-.065-.251-.023,0-.049.119-.047.181,0,.026.072.047.111.07m-27.2,1.346c.008-.22-.059-.277-.168-.14-.028.034.018.129.031.2.047-.021.093-.039.137-.057M48.8,95.769c.005-.044-.075-.1-.116-.145-.044.044-.127.085-.129.132a1.38,1.38,0,0,0,.036.341.222.222,0,0,0,.116.008,1.3,1.3,0,0,0,.093-.336M99.216,154.7c-.078.147-.059.23.054.227.016,0,.039-.106.036-.16,0-.023-.059-.047-.09-.067M82.16,156.366a.244.244,0,0,0-.339-.158.667.667,0,0,0-.16.124,2.33,2.33,0,0,0,.357.163c.031.01.093-.085.142-.129M66.7,11.536a.633.633,0,0,0,.036-.15c0-.021-.054-.039-.085-.057a.674.674,0,0,0-.036.155c0,.016.054.034.085.052m26.028,145.8.362-.124c-.047-.047-.1-.137-.14-.132a2.043,2.043,0,0,0-.359.109l.137.147m-11.089,1.305a.643.643,0,0,0-.054.191c0,.021.08.044.124.065a.744.744,0,0,0,.059-.191c0-.021-.085-.044-.129-.065M37.815,139.556c.01.047.008.116.036.129a.24.24,0,0,0,.186.036c.176-.09.158-.184-.041-.225-.054-.013-.121.039-.181.059M67.244,160l-.078-.147c-.036.034-.1.059-.109.1-.039.155.016.235.124.2.034-.01.044-.1.062-.15m62.347-64.391c.016.041.021.1.047.116a.273.273,0,0,0,.176.028c.163-.067.145-.142-.049-.183a.478.478,0,0,0-.173.039m-46.922,70c.147.072.233.054.225-.052,0-.018-.106-.036-.16-.034-.023,0-.044.054-.065.085M72.193,14.968c.067.109.137.214.2.32.078-.106.209-.209.212-.315s-.121-.222-.189-.333l-.227.328M69.857,97.291a.505.505,0,0,0,.023-.183c-.01-.041-.072-.075-.111-.111-.031.054-.08.1-.085.16a.516.516,0,0,0,.044.176c.044-.013.085-.026.129-.041m-14.485-8.14c-.041-.049-.106-.145-.121-.137a.232.232,0,0,0-.119.328.836.836,0,0,0,.119.152c.041-.114.083-.23.121-.344m37.249,78.728a.238.238,0,0,0,.168-.346c-.026-.057-.106-.088-.163-.132a3.033,3.033,0,0,0-.168.362c-.005.018.106.078.163.116m-3.546-29.158a2.1,2.1,0,0,0-.339-.158c-.031-.008-.129.085-.132.134s.085.155.114.15a2.67,2.67,0,0,0,.357-.127M97.715,15.562l-.2.057.2.054ZM64.968,88.021c.01-.059.041-.121.026-.173s-.072-.072-.114-.109c-.031.049-.083.1-.088.147a.248.248,0,0,0,.052.16c.01.013.083-.016.124-.026M80.215,16.048a.712.712,0,0,0-.171-.041c-.023,0-.041.07-.062.106a.587.587,0,0,0,.171.041c.021,0,.041-.067.062-.106M38.572,97.428c-.036-.049-.065-.129-.111-.145a.255.255,0,0,0-.2.036c-.127.106-.075.191.134.2.057,0,.116-.059.176-.093m22.974-9.6c-.034-.059-.067-.119-.1-.176-.052.036-.145.067-.152.111-.026.194.049.295.173.251.044-.016.054-.121.08-.186M89.815,18.508c-.088.065-.261.15-.251.191a.226.226,0,0,0,.323.145c.054-.021.1-.08.145-.121-.072-.07-.145-.142-.217-.214m-48.16.656c-.041.016-.109.018-.124.047a.246.246,0,0,0-.023.183c.072.168.155.147.194-.052.013-.054-.028-.119-.047-.178M15.723,97.772c.016.044.016.116.047.132.152.078.266.047.3-.088a.336.336,0,0,0-.165-.085.5.5,0,0,0-.186.041M73.78,20.433l-.127.052c.021.1.054.207.083.31a.581.581,0,0,0,.085-.176.551.551,0,0,0-.041-.186m47.028-.036a.218.218,0,0,0-.32-.119.709.709,0,0,0-.145.121c.083.065.163.173.253.181.065.005.142-.119.212-.183m-30.944.517c-.013-.044-.01-.114-.041-.132-.054-.034-.145-.072-.186-.049-.171.1-.15.194.047.238.054.013.121-.036.181-.057m-56.589,66.4c-.034-.044-.059-.109-.1-.124a.194.194,0,0,0-.171.021c-.1.1-.054.178.121.186.047,0,.1-.052.15-.083M21.449,84.613c-.075.065-.181.119-.225.207a.215.215,0,0,0,.127.326c.057.013.176-.109.225-.191.078-.14.023-.261-.127-.341m66.709,51.069c-.018-.034-.036-.093-.057-.1-.191-.013-.235.041-.114.121.036.023.114-.016.171-.026M99.4,98.518c.072-.15.031-.258-.129-.3a.173.173,0,0,0-.15.059c-.1.158.01.408.158.372.049-.013.08-.088.121-.132M108,24.064c-.049.039-.114.07-.142.121a.189.189,0,0,0,.132.308c.041.008.15-.078.145-.1a2.273,2.273,0,0,0-.134-.331M34.435,99.459l-.354.137c.052.047.1.111.155.132a.251.251,0,0,0,.344-.14c.008-.016-.093-.085-.145-.129m-2.949-73.7a2.164,2.164,0,0,0-.132.349c-.008.034.083.088.129.129.065-.08.173-.158.178-.24s-.109-.155-.176-.238M125.3,99.891a.37.37,0,0,0-.023-.191.709.709,0,0,0-.124-.158c-.057.111-.16.22-.163.328,0,.163.109.233.214.173a.248.248,0,0,0,.1-.152M104.2,28.832c.14.072.22.054.217-.054,0-.016-.1-.036-.152-.034-.023,0-.044.057-.065.088m-41.828,105.3c-.026-.258-.088-.269-.158-.023-.016.057.036.132.057.2l.1-.176M72.88,29.951l-.052-.183-.054.178ZM38.689,133.558c-.044-.049-.109-.15-.134-.142a.243.243,0,0,0-.16.328c.018.057.1.147.129.14a.244.244,0,0,0,.165-.326m76.333-103.09a.236.236,0,0,0-.129.351c.026.062.088.152.134.152a.2.2,0,0,0,.2-.261c-.023-.093-.137-.165-.207-.243m18.214,1.008c-.047-.036-.1-.114-.14-.106-.16.036-.2.15-.127.295a.668.668,0,0,0,.129.127c.047-.106.093-.209.137-.315M45.082,80.1c.041-.016.116-.028.116-.047a.8.8,0,0,0-.031-.189c-.041.016-.119.028-.119.047a.829.829,0,0,0,.034.189m71.779-47.234c.057-.031.163-.08.158-.093a2.786,2.786,0,0,0-.145-.326c-.075.072-.189.129-.217.217-.039.119.059.2.2.2M32,34.455c.085-.15.067-.233-.054-.217-.021,0-.036.106-.036.16,0,.018.059.039.09.057M98.942,78.891c-.057-.041-.124-.124-.165-.114a.237.237,0,0,0-.2.3.265.265,0,0,0,.1.155c.114.065.217,0,.264-.158a.582.582,0,0,0-.005-.189M90.9,100.909a2.279,2.279,0,0,0,.344.158c.034.008.145-.1.134-.132a.231.231,0,0,0-.323-.15c-.059.018-.1.08-.155.124m-43.1-65.9c-.034-.044-.057-.111-.1-.124a.2.2,0,0,0-.173.023c-.109.09-.062.168.121.181.049,0,.1-.052.152-.08m58.13.106.364-.147c-.047-.049-.083-.121-.14-.147a.232.232,0,0,0-.344.134c-.013.034.075.106.119.16M49.493,131.281a.253.253,0,0,0-.331-.145c-.059.018-.15.106-.14.137a.229.229,0,0,0,.328.158c.057-.021.093-.1.142-.15M29.323,36.264a.659.659,0,0,0,.044-.191c0-.023-.075-.044-.116-.067a.668.668,0,0,0-.049.194c0,.023.078.044.121.065m9.133,65.156c-.018-.036-.036-.1-.057-.1-.209-.005-.258.057-.129.132.044.026.124-.016.186-.028M62.319,78.514c-.041-.047-.1-.142-.129-.137a2.619,2.619,0,0,0-.349.134c.049.047.106.134.145.127a1.817,1.817,0,0,0,.333-.124m7.3,51.92c-.01-.044-.008-.109-.034-.124-.049-.031-.129-.059-.171-.036-.16.083-.145.173.036.215.049.01.111-.036.168-.054m.124-92.461a2.087,2.087,0,0,0-.114.346.2.2,0,0,0,.119.15c.147.039.24-.251.132-.439-.021-.034-.09-.039-.137-.057M3.809,78.527a2.55,2.55,0,0,0-.165.364c-.008.034.09.129.145.137s.152-.088.145-.121a2.1,2.1,0,0,0-.124-.38m68.983,51.418a2.534,2.534,0,0,0-.341-.158c-.028-.008-.121.088-.124.137s.083.152.114.147a1.973,1.973,0,0,0,.351-.127M12.11,78a.475.475,0,0,0-.186-.054.572.572,0,0,0-.178.1c.052.041.1.106.158.124a.288.288,0,0,0,.189-.034c.023-.01.013-.085.018-.132M90.554,41.684a.282.282,0,0,0,.178-.021.622.622,0,0,0,.145-.119c-.1-.062-.2-.165-.3-.171-.145-.008-.209.1-.158.212a.234.234,0,0,0,.137.1m7.045,34.9c-.049.028-.1.057-.145.085.031.047.057.121.093.129.16.031.245-.031.2-.142-.013-.039-.1-.049-.152-.072m-70.916.176c-.034.059-.09.116-.1.178a.6.6,0,0,0,.054.2c.036-.059.093-.116.1-.178a.547.547,0,0,0-.054-.2m89.882-33.784c.253-.021.261-.08.021-.152-.054-.018-.129.034-.2.052l.176.1m-36.6,33.473c-.028-.054-.059-.109-.09-.16-.044.034-.124.065-.129.1-.021.168.047.256.16.22.034-.01.041-.106.059-.163M43.34,102.108c.041-.018.119-.034.119-.054.013-.22-.054-.277-.152-.142-.028.036.021.129.034.2M74.175,44.12A.439.439,0,0,0,74,44.071a.552.552,0,0,0-.176.093c.047.047.085.111.142.132a.23.23,0,0,0,.178-.028c.028-.018.021-.1.026-.147m-29.843.535c-.044.013-.111.013-.127.041a.2.2,0,0,0-.021.16c.072.145.152.127.194-.047.01-.047-.031-.1-.047-.155M27.685,74.121c-.052-.039-.111-.119-.147-.111-.165.041-.212.16-.129.313a.662.662,0,0,0,.134.134c.047-.114.1-.225.142-.336M117,125.619c.222-.021.233-.075.028-.14-.049-.016-.114.031-.171.047.047.031.093.062.142.093M46.01,46.25c.041-.031.1-.057.114-.1a.233.233,0,0,0-.013-.178c-.1-.121-.176-.078-.181.111,0,.054.052.109.08.163M30.321,46.8c-.044-.116-.09-.235-.134-.351-.047.044-.137.1-.132.132a2.1,2.1,0,0,0,.111.341l.155-.121m36.262-.023c-.194-.008-.248.057-.132.168.023.023.114-.026.176-.041-.016-.041-.028-.085-.044-.127m54.5,26.137.163-.116c-.047-.049-.085-.114-.145-.14a.308.308,0,0,0-.2-.008c-.059.021-.163.1-.155.111a.255.255,0,0,0,.336.152M113.2,123.343l-.214.034a.66.66,0,0,0,.155.031c.018,0,.039-.041.059-.065M125.126,102.8c-.093.171-.067.266.075.258.021,0,.047-.121.044-.183,0-.028-.078-.052-.119-.075M8.626,47.188c.013.059,0,.142.039.171a.208.208,0,0,0,.189.023c.163-.1.142-.2-.057-.258-.047-.013-.111.041-.171.065M21.9,103.18a2.278,2.278,0,0,0,.357.132c.034.005.109-.088.124-.147.013-.044-.039-.145-.07-.147a1.154,1.154,0,0,0-.351.026c-.028.005-.039.09-.059.137m98.81-32.455c-.021.062-.075.132-.059.183.062.209.163.217.245.018a.256.256,0,0,0-.049-.189c-.016-.023-.09-.01-.137-.013M88.244,122.9a2.153,2.153,0,0,0,.137-.357c.008-.034-.09-.124-.142-.124s-.145.093-.137.124a2.627,2.627,0,0,0,.142.357m27.189-52.315c.044.049.1.147.132.142a2.3,2.3,0,0,0,.357-.116c-.047-.049-.085-.116-.142-.142a.252.252,0,0,0-.346.116m8.443,51.881c.041-.034.106-.059.119-.1a.209.209,0,0,0-.023-.168c-.1-.1-.171-.054-.176.119,0,.049.052.1.08.15m9.655-73.873c-.044.047-.127.1-.121.134a1.762,1.762,0,0,0,.1.333c.044-.041.129-.09.124-.127a2.349,2.349,0,0,0-.1-.341M46.108,121.053a.576.576,0,0,0,.023-.2c-.01-.047-.075-.08-.114-.121a.283.283,0,0,0-.041.364l.132-.047M25.891,49.315l-.039-.155c-.034.013-.1.026-.1.039a.654.654,0,0,0,.028.155l.109-.039m91.081.951c-.047-.109-.093-.217-.142-.328a.661.661,0,0,0-.121.137.206.206,0,0,0,.129.308c.028.01.088-.075.134-.116M60.623,120.115c0-.168-.052-.212-.132-.111-.021.026.018.1.028.15l.1-.039M28.967,67.4a.489.489,0,0,0,.016-.171c-.013-.041-.067-.07-.1-.106-.028.049-.075.1-.08.147a.306.306,0,0,0,.049.16c.005.01.078-.018.119-.031m23.806-15.48c.072-.155.031-.274-.132-.323-.036-.01-.147.08-.142.109a2.754,2.754,0,0,0,.129.344l.145-.129M48.594,119.4a1.973,1.973,0,0,0-.315-.137c-.034-.008-.09.075-.137.116.041.041.088.121.121.119a2.007,2.007,0,0,0,.331-.1m85.256-13.283c-.214,0-.274.072-.147.189.026.023.127-.034.194-.052l-.047-.137m-52.584.625c-.044.013-.114.013-.127.041a.26.26,0,0,0-.031.191c.08.181.171.163.209-.047.013-.057-.034-.124-.052-.186M36.293,65.815a.469.469,0,0,0-.047.178c.034.225.109.233.186.023a.294.294,0,0,0-.028-.183c-.008-.018-.072-.013-.111-.018m59.458,52.294a2.393,2.393,0,0,0,.367.132c.034.008.111-.088.129-.145.013-.041-.041-.145-.072-.147a1.29,1.29,0,0,0-.359.028c-.031.005-.044.085-.065.132m13.056-.351c.054-.041.111-.085.165-.129-.049-.049-.09-.119-.15-.142a.308.308,0,0,0-.2,0,.714.714,0,0,0-.168.119l.357.15m-48.219-53.4a.464.464,0,0,0,.013-.176c-.016-.044-.083-.07-.127-.1-.034.047-.088.093-.093.145a.214.214,0,0,0,.062.158c.023.021.1-.016.145-.026M87.3,52.54a2.312,2.312,0,0,0-.375-.15c-.031-.008-.124.1-.127.158s.078.132.134.152a.3.3,0,0,0,.367-.16m4.856,63.745c.013.054.01.137.044.158a.239.239,0,0,0,.191.018c.171-.088.147-.186-.054-.235-.052-.01-.121.039-.181.059M12.585,63.877c.031-.018.09-.031.09-.049a.673.673,0,0,0-.028-.16c-.031.016-.088.028-.088.047a.594.594,0,0,0,.026.163M34.678,53a.689.689,0,0,0,.173.036c.018,0,.039-.065.057-.1a.7.7,0,0,0-.173-.041c-.018,0-.039.067-.057.1m65.376,9.223c-.031-.039-.057-.1-.1-.114a.235.235,0,0,0-.173.023c-.114.085-.07.158.116.165.049,0,.1-.049.155-.075M53.832,53.447c-.018-.036-.034-.1-.052-.106a.749.749,0,0,0-.181.036c.018.034.034.1.052.1a.759.759,0,0,0,.181-.031m1.153,56.163a.25.25,0,0,0-.158-.336c-.028-.01-.121.075-.142.132a.245.245,0,0,0,.155.336c.028.01.1-.085.145-.132m90.887-56.031-.132-.018.052.2ZM93.149,114.835l-.088-.155c-.044.031-.114.052-.124.09-.049.163.01.251.142.222.034-.008.047-.1.07-.158m-51.6-4.985c-.018.065-.065.134-.054.194s.075.114.116.171c.047-.049.119-.093.132-.152a.274.274,0,0,0-.052-.194c-.015-.026-.093-.013-.142-.018M54.8,55.111c.047-.018.132-.039.132-.057,0-.214-.075-.266-.171-.134-.026.036.026.127.039.191m46.043,6.337.168-.085c-.049-.036-.093-.1-.145-.109-.178-.015-.256.049-.194.14.026.039.111.036.171.054M84.53,54.889l.163-.121a2.181,2.181,0,0,0-.344-.16c-.036-.01-.152.1-.145.119a.239.239,0,0,0,.326.163M45.366,113.8c.052-.039.106-.08.16-.119a.657.657,0,0,0-.134-.145.285.285,0,0,0-.194-.026c-.057.018-.147.1-.14.129.034.165.147.217.308.16M64.2,110.786l-.171-.258a2.493,2.493,0,0,0-.134.339c-.008.036.07.093.106.142l.2-.222M82.091,56.067c-.044-.054-.08-.132-.137-.158a.239.239,0,0,0-.354.142c-.013.034.067.14.121.16a.287.287,0,0,0,.37-.145m10.52.362c.041-.039.1-.07.127-.121A.207.207,0,0,0,92.6,56c-.031-.01-.137.085-.129.111a1.993,1.993,0,0,0,.137.32M69.283,60.8l.085-.165-.119-.026Zm54.894-.788c-.023.059-.072.124-.065.178s.075.116.114.171c.052-.044.127-.083.147-.14a.221.221,0,0,0-.031-.183c-.026-.034-.109-.018-.165-.026M16.565,56.925c.049-.034.121-.062.134-.106a.239.239,0,0,0-.028-.194c-.1-.121-.189-.07-.194.129,0,.057.057.114.088.171m77.715-.362c-.01-.041-.01-.1-.034-.114a.251.251,0,0,0-.173-.031c-.171.072-.155.152.034.194.052.01.114-.031.173-.049M68.138,112.285c.008.052,0,.129.028.15a.226.226,0,0,0,.186.031c.165-.1.15-.2-.036-.248-.052-.013-.119.044-.178.067M86.063,57.8a.679.679,0,0,0,.039-.2c0-.023-.078-.044-.121-.067a.811.811,0,0,0-.044.2c0,.023.083.041.127.065m62.029-.212a.579.579,0,0,0,.186-.016.607.607,0,0,0,.152-.124c-.09-.067-.173-.178-.271-.194a.162.162,0,0,0-.2.2c.013.049.085.085.134.132M82.9,112.2a.622.622,0,0,0-.209.016.763.763,0,0,0-.16.134,2.251,2.251,0,0,0,.375.137c.039.005.1-.093.147-.145-.052-.047-.1-.1-.152-.142M57.447,59.972c.018.052.018.127.052.147a.254.254,0,0,0,.2.031c.176-.088.155-.183-.059-.233-.057-.01-.127.036-.191.054m-8.215-3.021-.155-.083-.01.14Zm.837,57.106c-.041-.023-.1-.075-.124-.065-.052.023-.124.078-.124.124s.072.09.114.137l.134-.2M47.855,54.31l-.085-.072-.016.124Zm6.944-.375.07-.1-.1-.018Zm26.99,61.507c-.044-.039-.083-.1-.129-.106s-.09.057-.137.088c.039.039.075.109.116.114s.093-.057.15-.1m25.822-7.184-.078.137.129.013Zm10.536-45.674-.083.129.129.016Zm-57.6,53.669-.072.109.106.018Zm6.272-52.682c-.036-.041-.07-.111-.114-.116s-.088.057-.134.09c.036.041.072.111.114.114s.09-.054.134-.088m-9.854.478.093-.129-.134-.026Zm36.562,43.1.075-.1-.124-.013Zm49.609-41.872.106.072.018-.106ZM99.7,105.873l.059-.1-.1-.008Zm15.009-1.832c-.039-.041-.072-.111-.114-.116s-.085.062-.129.1c.036.041.07.111.111.116s.088-.059.132-.1M86.026,50.483c.044-.036.116-.07.121-.109s-.062-.088-.1-.132c-.041.036-.116.07-.121.109s.062.088.1.132m-7.019-.907.078-.129-.124-.013Zm65.19-.556-.109-.065-.01.106ZM83.832,70.061l-.072.114.114.016ZM73.71,122.536l.083-.129-.124-.018ZM43.8,71.084l.083-.114-.127-.021Zm83.116-24.168.07-.106-.1-.016Zm-35.58,75.878c-.171.062-.181.142-.015.222.021.01.085-.065.129-.1-.039-.041-.078-.083-.114-.124m19.4-50.423-.114-.088-.023.14Zm6.207-.1c-.054-.031-.106-.083-.14-.072-.054.018-.1.075-.145.116l.129.137c.052-.059.1-.119.155-.181M89.453,124.676l.124.083.013-.14Zm51.077-79.7c-.018.039-.065.09-.054.124.016.052.093.137.106.129.147-.072.171-.165.07-.251-.026-.018-.078,0-.121,0M36.265,125.516l.1.078.021-.119ZM57.5,102.16l-.09.114.14.023ZM41.172,73.736l.083-.134-.121-.018Zm57.2,1.584-.075.1.119.015ZM10.978,77.2c-.047-.047-.106-.14-.134-.132-.2.065-.209.165-.013.248.028.01.1-.075.147-.116m9.533.07.09-.119-.155-.016Zm83.576.444.065-.1-.109-.01ZM36.482,41.128c-.039-.047-.085-.1-.129-.16-.054.052-.145.1-.147.152s.083.114.129.168c.049-.052.1-.106.147-.16m59.347-1.822c-.044-.041-.093-.119-.14-.119a.184.184,0,0,0-.129.124c0,.134.083.189.194.134.036-.021.047-.085.075-.14m-39.376-.4.137.08.013-.132Zm23.08-2.2-.1-.065-.013.1Zm43.361-.853.111.07.013-.109Zm-52.6-.91c-.031-.036-.07-.08-.106-.127-.041.041-.114.08-.116.124s.067.085.1.129l.119-.127m1.791,96.319-.119-.067-.01.109ZM87.51,32.3l-.14-.152c-.052.047-.142.09-.145.142a.193.193,0,0,0,.132.142c.049,0,.1-.083.152-.132M36.3,133.537l.08-.093-.124-.021ZM148.014,80.369l.065-.111-.1-.013ZM50.343,30.977l.114.08.021-.119ZM34.169,29.6l-.072.109.109.018Zm73.4,51.25c.044-.036.116-.07.121-.111s-.057-.09-.09-.137c-.044.036-.116.07-.121.111s.057.09.09.137m5.623-52.013.145.09.01-.158ZM51.232,133.922l.088.07.013-.114ZM80.3,200.792l.072-.1-.1-.021ZM60.06,27.85l-.083.121.14.016ZM68.42,192.5l.137-.109c-.039-.041-.075-.116-.116-.121s-.09.065-.137.1c.039.041.078.085.116.129M108.163,23.1l-.109-.14c-.044.039-.121.075-.127.116s.065.09.1.137l.134-.114M67.7,186.656l-.145-.085-.008.152ZM28.969,85.515c-.039-.047-.093-.14-.114-.132-.181.062-.189.158-.018.248.018.008.085-.075.132-.116M51.152,23.1l.155.083.008-.15ZM44.86,136.969c-.044-.039-.088-.106-.132-.109s-.093.059-.14.093c.039.044.078.114.121.116s.09-.057.15-.1M79.437,97.741c-.044.036-.129.09-.124.111.057.176.147.183.23.018.01-.021-.067-.085-.106-.129M68.573,182.749l-.093-.14c-.041.039-.111.072-.116.111s.054.09.085.137l.124-.109m-4.515-45.185c.047-.041.127-.083.129-.129s-.07-.134-.111-.134c-.132-.005-.186.075-.137.186.016.036.078.052.119.078M56.517,16.48l.09.072.018-.114ZM89.556,137.773l-.09.145.147.018Zm-5.292,33.375-.065.119.114.008Zm13.172-1.091.08-.111-.127-.018ZM48.222,138.623c-.171.057-.181.137-.018.217.021.01.085-.059.132-.093l-.114-.124M105.447,14.317l-.109-.083-.021.124ZM80.005,96.523c-.034-.047-.067-.09-.1-.134-.044.036-.116.067-.121.109s.059.088.093.134l.127-.109m-5.877-82.6.083-.111-.127-.021ZM141.8,89.905l.111.078.018-.114Zm-113.68.47c-.08-.194-.178-.2-.269-.016-.01.026.08.1.121.147l.147-.132M54.5,12.554c-.036-.047-.072-.093-.106-.14-.047.039-.121.075-.124.119s.062.09.1.137l.132-.116m30.69,144.109-.083.134.127.018Zm39.032-64.949.1.072.013-.121Zm-44.35,62.319-.088.15.147.015ZM48.214,140.424l-.078.111.124.016ZM82.84,151.888l.129.088.018-.142Zm-9.626.08.09.067.01-.111ZM60.636,7.246l-.124-.085-.013.147ZM76.377,91.991c-.044.039-.134.09-.129.111.057.178.147.186.235.021.01-.018-.07-.085-.106-.132M54.445,93.859l-.093-.067-.013.111Zm22.441,57.124c-.039-.021-.093-.072-.127-.062-.054.021-.142.1-.134.116.072.158.173.183.258.072.021-.026,0-.083,0-.127m-9.75-9.936.088-.142-.147-.013ZM55.856,5.954c-.041-.049-.08-.132-.127-.137s-.1.07-.15.111c.041.047.08.129.127.134s.1-.07.15-.109M59.631,148.1l.08-.127-.134-.013Zm2.623-55.486.075-.1-.1-.023Zm47.94,52.217-.072.109.114.016Zm-1.406-.8.116.075.01-.129Z" transform="translate(0 0.001)" fill="#00529f"/>
  </g>
</svg>
