<svg id="Grupo_659" data-name="Grupo 659" xmlns="http://www.w3.org/2000/svg" xmlns:xlink="http://www.w3.org/1999/xlink" width="1972.255" height="416.684" viewBox="0 0 1972.255 416.684">
  <defs>
    <clipPath id="clip-path">
      <rect id="Rectángulo_708" data-name="Rectángulo 708" width="1972.255" height="416.683" fill="none"/>
    </clipPath>
  </defs>
  <g id="Grupo_638" data-name="Grupo 638" transform="translate(0 0)" clip-path="url(#clip-path)">
    <path id="Trazado_1275" data-name="Trazado 1275" d="M1349.9,107.233c-6.018-3.92-9.771-6.351-15.179-9.873,16.2-11.139,31.791-22.01,47.543-32.641,15.78-10.649,31.772-20.994,47.589-31.6C1445.974,22.306,1462,11.343,1477.737.666c1.424.481,2.357.564,2.967,1.054,50.252,40.018,106.373,71.4,158.844,108.167,22.9,16.048,46.942,30.441,70.191,46,6.406,4.28,11.028,1.692,16.187-1.553,13.977-8.773,27.529-18.368,42.126-25.949,13.33-6.924,24.987-17.564,40.665-19.662,18.4-17.73,42.773-26.281,63.092-41.386,30.21-22.463,62.463-42.181,93.875-63.018.98-.647,2.292-.8,5.177-1.738.213,5.852.545,11.065.582,16.288.323,43.642.749,87.275.814,130.917.046,29.258-.86,58.534-.435,87.783.12,7.95-3.309,12.877-8.717,16.649-23.314,16.233-46.905,32.05-70.432,47.978a33.093,33.093,0,0,1-4.5,2.172c-5.75-10.039-5.75-10.039-18.84-6.184,1.9,1.96,3.457,3.374,4.788,4.983,3.319,3.975,2.838,7.922-.943,11.13a120.086,120.086,0,0,1-11.324,8.246q-68.347,45.412-136.685,90.843c-5.454,3.642-9.993,3.541-15.114-.009-10.085-6.979-20.282-13.792-30.4-20.707-22.38-15.29-44.871-30.432-67.03-46.046-5.611-3.957-10.141-9.466-16.159-15.2-1.96-.878-5.861-1.978-9.032-4.141-34.684-23.656-69.23-47.534-103.886-71.236-5.528-3.781-16.889-2.514-22.214,1.581-15.077,11.592-29.914,23.545-45.491,34.416-23.286,16.261-47.053,31.837-70.737,47.506-36.811,24.34-73.843,48.347-110.5,72.918-6.813,4.557-12.341,4.446-18.451-.1-40.462-30.071-84.982-54.384-123.336-87.515-11.823-10.206-25.588-18.146-38.456-27.132-12.119-8.458-24.109-17.111-36.413-25.292-6.526-4.345-15.345-6.055-14.874-15.909-5.057-.24-9.642.934-11.916-.841-5.722-4.483-10.409-2.348-15.1.675-12.822,8.264-25.477,16.8-38.179,25.264-3.134,2.089-6.175,4.336-11.657,8.209-3.346-3.578-6.665-7.127-8.838-9.457.795,2.514,2.33,7.349,4.169,13.136-15.031,9.91-30.793,20.587-46.951,30.654-2.468,1.535-6.711.213-11.038.213,1.035,5.131-.758,9.161-6.009,12.452-20.864,13.034-41.423,26.559-62.019,40.009-12.433,8.107-24.673,16.51-37.162,24.534-2.635,1.7-6.147,3.633-8.9,3.2-4.705-.74-5.805,1.9-7.525,4.881-4.678,8.024-7.774,9.207-14.745,4.41q-58.53-40.282-116.81-80.905c-22.593-15.752-44.871-31.957-67.474-47.7-7.765-5.4-15.382-10.52-16.778-20.938-.194-1.461-1.442-2.782-3.106-5.833-1.618,3.393-2.551,5.362-4.225,8.865-8.532-4.807-17.12-9.651-27.335-15.4-9.91,6.083-20.9,12.378-31.421,19.385-26.808,17.841-53.358,36.062-80.083,54.023q-57.961,38.964-116.006,77.772c-2.459,1.645-4.936,3.263-7.516,4.964-3.984-1.119-7.654-6.785-12.35-.379.971,1.719,2.08,3.688,3.291,5.815-1.156.924-2.3,2.487-3.041,2.311-4.354-1.035-9.281-1.516-12.822-3.938-34.666-23.61-70.154-46.193-103.313-71.791-35.692-27.557-73.3-52.147-110.542-77.328C-3.7,248.318.362,255.214.224,230.828c-.388-70.45-.111-140.9.055-211.351C.289,13.839-1.117,7.34,5.567,3.531a15.671,15.671,0,0,1,3.485,1.4c18.322,13.395,35.609,28.13,55.262,39.8C83.634,56.2,102.262,68.842,121,81.275c16.566,11,32.863,22.417,48.56,33.159,3.152,10.3-13.691,11.833-7.71,23.083,9.087-2.33,9.614-11.343,14.763-17.8,5.112,3.356,10.9,6.73,16.214,10.742,12.711,9.6,27.825,15.3,40.379,25.033,5.436,4.225,10.122,3.143,15.1-.018,7.858-5,15.438-10.455,23.5-15.1,35.535-20.467,71.319-40.49,106.743-61.141a243.01,243.01,0,0,0,32.475-22.408c10.085-8.338,21.252-15.382,32.077-22.8,8.042-5.5,16.15-10.945,24.543-15.872,2.727-1.6,6.471-1.461,10.243-2.219.49-8.7,11-9.087,15.706-15.937,3.162,2.089,6.055,3.725,8.634,5.75,28.315,22.2,58.322,41.932,88.606,61.335,27.862,17.851,54.9,36.986,82.486,55.271,17.647,11.7,35.664,22.824,53.422,34.361,5.352,3.476,9.651,1.082,14.051-1.673,8.958-5.611,17.712-11.583,26.873-16.843,24.229-13.922,48.634-27.52,72.937-41.3,13.644-7.737,27.659-14.929,40.739-23.536,13.691-9.013,26.207-19.8,39.695-29.156C942.552,29.267,964.443,14.874,986.074.314c22.926,16.408,45.315,32.429,68.6,49.1,1.7,2.81-4.8,7.987,1.747,11.324,4.234,2.154,7.247,2.431,11.62.176,2.071-1.063,6.434.971,9.1,2.635,14.384,9.013,28.611,18.285,42.81,27.585,28.389,18.59,56.649,37.365,85.13,55.8,5.537,3.578,8.708,7.007,3.125,13.746,16.9,1.636,28.028-8.311,40.2-15.225,16.529-9.4,32.688-19.45,49.318-28.657,8.6-4.761,17.915-7.349,27.76-2.709,1.387.647,4.613.629,4.789.12,3.115-8.569,11.287-3.43,19.625-6.97m-63.748,231.623c-.924,3.226-1.618,5.63-2.357,8.218,9.411,3.226,12.1-2.588,14.68-10.344-2.875-1.83-5.963-5.417-8.9-5.306-4.863.194-9.679,2.653-14.375,4.511-.5.2-.065,2.783-.065,5.315,2.579-1.146,3.947-2.006,5.436-2.32,1.47-.314,3.051-.074,5.583-.074M613.809,94.642c-2.089,4.114-2.755,7.58-4.779,8.828-2.293,1.414-5.815.841-10.862,1.34,5.454,5.805,9.817,10.446,14.5,15.438,5.519-9.355,5.944-16.445,1.137-25.606M657.46,302.8c-5.981-7.719-9.522-17.231-22.371-15.567,6.3,7.525,8.089,19.006,22.371,15.567m767.15-44.409c-13.21,4.446-13.913,7.238-6.48,20.836,9.522-4.28,2.561-13.432,6.48-20.836M312.3,340.751c-6.083,6.443-9.965,10.548-14.079,14.9l17.351,2.339c-.961-5.047-1.8-9.512-3.272-17.241M1720.9,230.69c2.154,5.38,4.872,8.514,10.289,7.571,4.9-.86,9.355-2.607,9.42-9.586-6.7.684-12.7,1.3-19.709,2.015M698.079,327.458c-.129-6.767-1.128-12.267-10.455-10.252v14.467c3.846-1.553,6.868-2.764,10.455-4.215m387.2-247.292c1.22,6.027,1.951,9.679,2.653,13.136,6.536-.989,11.648-1.766,16.76-2.542.213-.749.416-1.5.629-2.256-5.815-2.413-11.629-4.835-20.042-8.338m-25.708,21.918c-3.716,2.764-7.294,5.426-10.88,8.1.176.943.36,1.877.545,2.819,4.123.971,8.255,1.951,11.823,2.792,6.092-5.833,2.283-9.429-1.488-13.709M1722.728,323.15c-.434,1.1-.878,2.2-1.313,3.3,3.365,1.368,6.721,3.818,10.086,3.846,4.705.028,8.181-3.088,9.836-9.669-6.832.924-12.72,1.729-18.609,2.524m-411.46-150.736c-4.188,4.178-7.469,7.46-11.232,11.2,7.3,3.975,11.657,2.219,15.5-2.653-1.507-3-2.783-5.574-4.271-8.551m-363.289-101c4.594-.222,6.619.074,6.813-.4,1.377-3.291,3.679-6.942,3.2-10.095-.721-4.641-3.5-8.976-5.408-13.441-2.293,2.209-3.531,5.075-2.662,6.036,4.881,5.426,5.454,10.686-1.941,17.9m-154.064,91.8c11.916,4.373,16.88-.046,15.373-11.4-4.992,3.7-9.272,6.868-15.373,11.4M402.31,267.186c.693,12.027,8.523,12.637,13.829,15.475-1.941-4.067-3.476-8.486-6.046-12.175-1.174-1.682-4.382-1.951-7.784-3.3M934.131,52.461c-4.169-.9-7.118-1.525-11.509-2.468,1.433,5.2,2.514,9.106,3.6,13.016l2.875-.028c1.5-3.125,3-6.258,5.038-10.52m474.885,36.052c-4.2,2.709-7.654,4.955-12.286,7.95,4.872,2.57,8.024,6.443,12.84,3.078,4.992-3.485,1.886-7.174-.555-11.028M1568.21,279.139c-9.679-2.912-10.585,4.862-15.087,9.993,8.985,1.063,12.813-2.681,15.087-9.993M548.961,235.95c4.252-2.274,8.514-4.548,13.811-7.386-3.929-2.459-6.11-4.752-7.164-4.317a22.561,22.561,0,0,0-7.756,5.5c-3.568,3.9-1.941,6.61,1.109,6.2m-55.2-161c.213-.425.434-.86.647-1.285H474.249c1.035,3.309,1.682,5.362,2.348,7.488,6.332-2.293,11.749-4.243,17.167-6.2M1837.966,266.2c-6.268,8.828,3.744,13.589,3.966,20.929,4.668-8.172-1.83-14.079-3.966-20.929M734.7,204.149c-2.856-4.3-4.252-9.189-9.577-6.573-5.824,2.866-2.773,7.164-1.082,12.47,4.068-2.246,7.063-3.91,10.659-5.9m691.523,8.385c1.183,8.19,1.84,12.72,2.875,19.921,4.687-6.406,9.364-9.6,5.537-15.161-1.22-1.766-4.086-2.4-8.412-4.761M1472.413,68.2c-1.84-9.041-1.84-9.041-9.337-8.237-.055,5.574.786,10.067,9.337,8.237m159,60.411c7.534-10.945,6.628-12.72-5.066-14.208,1.479,4.141,2.93,8.227,5.066,14.208M475.506,170.094c.166,1.008.342,2.015.508,3.023,6.036-2.071,12.073-4.141,17.925-6.157-7.035-3.91-13.136-2.3-18.433,3.134m909,80.332c-5.047,2.542-8.875,4.465-12.7,6.388,2.191,2.542,4.705,3.651,6.591,3,3.476-1.22,8.468-2.108,6.111-9.383M1013.15,214.845l-.444-2.736c-4.53.25-9.069.5-14.818.814,4.687,5.2,4.687,5.2,15.262,1.923M1492.417,26.984c-4.927,7.9,2.783,9.364,6.5,13.016,2.394-6.36-4.151-8.69-6.5-13.016M731.146,385.66c-6.822-2.237-6.582,2.468-7.617,5.8-1.414,4.53.832,6.027,5.436,6.277.73-4.049,1.442-7.978,2.182-12.073m778.964-323c10.178-6.591-.462-11.056.832-17.361-8.8,6.822-2.108,11.555-.832,17.361M537.452,94.55c-3.485-6.157-6.933-8.616-10.557-4.086-.73.915.786,5.269,1.322,5.278,3.069.065,6.157-.7,9.235-1.193M1301.5,359.97c4.262-.85,8.532-1.553,7.137-7.571-.2-.9-1.877-2.228-2.644-2.089-5.639.989-6.147,4.724-4.493,9.66M459.449,247.56c-3.522,2.672-5.057,6.1-1.322,9.106,2.5,2.006,6.314,6.915,9.6.814-2.866-3.439-5.5-6.582-8.283-9.919m513.323-41.812,2.024.832c2.1-3.651,4.2-7.312,6.924-12.054-3.568-.5-5.491-.758-7.959-1.1-.37,4.548-.684,8.44-.989,12.323m329.094,71.125c7.821,2.043,11.6.647,13.561-6.12-6.147-1.59-9.133,1.433-13.561,6.12m-36.755-70.524c-1.026,3.624-1.867,6.582-3.467,12.2,5.362-3.254,8.449-5.131,13.459-8.181-4.807-1.932-7-2.81-9.993-4.021m317.04,106.318c4.271,1.266,7,2.08,11.084,3.282-.7-3.966-1.119-6.36-1.719-9.79-3.448,2.4-5.7,3.966-9.364,6.508m-319.573-128.19c-2.69,7.691,2.9,7.34,5.824,9.79.712-.675,1.423-1.359,2.135-2.043q-3.979-3.869-7.959-7.747m-.333,125.916c4.881-3.051,7.83-4.9,10.788-6.758-6.8-4.539-9.808-2.625-10.788,6.758M625.327,331.221c1.784-3.18,3.568-6.369,6.277-11.186-9.29,1.156-8.985,5.611-6.277,11.186M1540,267.907c1.451,4.382,2.441,7.377,3.615,10.917,5.676-7.978,5.676-7.978-3.615-10.917m-183.9-144.413c-4.077,3.541-6.24,5.417-9.3,8.07,3.947.749,6.915,1.322,11.093,2.117-.61-3.494-1-5.685-1.793-10.187m16.935,120.535c4.021.194,6.868-.989,5.7-5.454-.379-1.461-3.217-3.725-4.049-3.393-4.8,1.877-3.624,5.334-1.655,8.847m110.6-165.638c-10.686,1.96-10.686,1.96-10.039,10.437,3.383-3.522,5.907-6.147,10.039-10.437m.019,92.183c-10.742,1.877-10.742,1.877-9.993,10.289,3.337-3.439,5.852-6.027,9.993-10.289M451.527,212.386c-3.642-2.219-6.231-3.79-9.79-5.963,1,8.6,1,8.6,9.79,5.963m353.758,140.79h11.195c-1.442-3.069-2.394-5.094-3.8-8.089-2.246,2.45-3.762,4.1-7.4,8.089m36.783-84.169c1.008-10.224,1.008-10.224-5.334-10.871,1.673,3.42,3.088,6.286,5.334,10.871m538.2-121.016c-1.951-2.117-3.263-3.559-4.576-4.992-1.4,1.608-3.439,3.041-3.92,4.89-.268,1.017,2.1,3.836,3.263,3.827,1.507,0,3.014-2.024,5.232-3.725M842.234,176.629c1.082-11.537,1.082-11.537-6.166-10.409,1.951,3.282,3.679,6.212,6.166,10.409M663.072,305.29c5.889,3.448,9.512,5.565,13.136,7.691-2.034-4.927-3.273-10.936-13.136-7.691M462.6,241.653l1.451-1.978c-2.977-2.274-3.282-10.048-11.195-4.234,3.716,2.367,6.73,4.289,9.743,6.212m658.651,41.091c-1.923-2.135-3.781-4.955-4.354-4.715-2.015.86-3.587,2.755-5.334,4.262,1.618,1.433,3.041,3.5,4.918,4.049,1.008.3,2.773-2.006,4.77-3.6M187.29,154.166c2.672-8.532,2.672-8.532-6-8.283,2.08,2.875,3.892,5.371,6,8.283M1617.223,307.62c-1.035-.222-2.08-.434-3.125-.647.148,3.938-7.867,6.961.592,13.21,1.008-5.01,1.775-8.791,2.533-12.563m-578.9-68.5c-4.308-7-7.275-9.226-11.574-2.182,3.476.656,6.508,1.229,11.574,2.182M1963.7,200.627c-3.559,2.912-5.648,4.622-8.468,6.924,2.727,1.7,4.613,2.866,7.4,4.6.361-3.966.619-6.748,1.063-11.528M875.476,303.34c-4.317-1.266-6.905-2.034-11.112-3.263,2.709,6.277,5.232,7.275,11.112,3.263m3.919-14.181c-.231-.814-.462-1.636-.693-2.45q-5.852,1.331-11.694,2.653c.25.86.49,1.719.74,2.579q5.824-1.4,11.648-2.783m-433.859-175.6c-1.34,1.165-2.69,2.33-4.03,3.494-.971,5.537,2.015,6.147,9.512,1.682q-2.732-2.593-5.482-5.177M430.847,228.989c.545-.915,1.082-1.84,1.618-2.764-2-1.313-4-2.625-6-3.938-.582,1.313-1.821,3.679-1.655,3.79a49.731,49.731,0,0,0,6.036,2.912m294.392,73.676c3.161-3.864,4.742-5.8,6.8-8.311-7.321-2.949-8.1.055-6.8,8.311M406.036,76.524c-.675.536-1.35,1.063-2.025,1.6q3.55,4.354,7.118,8.7c.638-.5,1.276-1.008,1.923-1.507l-7.016-8.791m923.812,212.46c-3.725,4.641-3.725,4.641-.518,8.107.176-2.755.342-5.436.518-8.107M487,237.04c2.764-.277,5.537-.555,9.531-.961-4.188-4.973-6.952-3.744-9.531.961M1719.779,404.222l.139,2.986h8.348c-.749-2.736-1.914-4.077-3.143-4.151-1.747-.1-3.559.73-5.343,1.165m-6.526-63.267c4.576-3.457,7.174-5.426,11.527-8.717-7.4,1.636-7.4,1.636-11.527,8.717m-51.823,5.232c.712,4.936,1.063,7.414,1.516,10.585,5.251-4.631,5.251-4.631-1.516-10.585M588.092,298.2c-.98.333-1.969.656-2.958.98-1.137,4.206,1.4,6.138,7.451,8.671l-4.493-9.651M31.183,213.033c1.045.213,2.089.434,3.134.656a47.926,47.926,0,0,0,.333-5.741c-.018-.425-1.276-.795-1.951-1.183-.508,2.089-1.008,4.178-1.516,6.268M1724.04,240.8c-6.536-1.738-8.31,1.248-8.782,6.175,2.561-1.8,5.121-3.605,8.782-6.175m40.222,112.89c-5.389,5.916-5.389,5.916-.8,10.908.287-3.892.5-6.8.8-10.908M645.683,143.2c-.832,1-1.664,2-2.5,3,2.024,1.377,4.058,2.755,6.083,4.132.545-.73,1.091-1.461,1.636-2.182q-2.621-2.482-5.223-4.955m643.675,221.251.832,2.857q3.3-1,6.6-1.978l-.555-2.191q-3.439.652-6.878,1.313m-533.087-2.635c2.126,1.082,3.411,2.3,4.391,2.1,1.285-.277,2.339-1.673,3.485-2.579-1.091-1.119-2.108-3-3.309-3.125-1.063-.111-2.33,1.738-4.567,3.605m404.841-228.933c-1.793-1.276-2.94-2.718-4.1-2.727-1.276-.018-2.57,1.276-3.855,2.006q1.705,2.2,3.393,4.409c1.239-1.008,2.487-2.015,4.557-3.688m-738.336.1c2.561,1.4,3.809,2.5,5.167,2.653.823.092,2.681-1.719,2.57-1.932-.666-1.35-1.572-3.143-2.764-3.485-.971-.277-2.459,1.276-4.973,2.764m492.4,133.773c2.172-1.9,4.345-3.79,8.227-7.174-7.026-.629-9.614.823-8.227,7.174M369.909,87.339c-1.516,2.644-3,4.086-2.783,5.2.176.943,2.237,1.821,3.6,2.117.462.1,1.96-1.729,1.867-2.551-.139-1.229-1.248-2.367-2.681-4.77m45.306,148.4c-1.137,3.014-2.293,4.539-1.941,5.537.379,1.1,2.154,1.71,3.319,2.524.471-1.008,1.433-2.089,1.3-3.014-.166-1.239-1.183-2.367-2.681-5.047M1040,270.43c-3.494,4.548-5.833,7.081-.675,10.27.231-3.448.388-5.861.675-10.27M430.773,207.745c.573.6,1.156,1.2,1.729,1.8,1.331-1.747,2.653-3.494,3.984-5.241-.453-.4-.915-.786-1.377-1.174l-4.336,4.613M872.5,107c.592-.841,1.183-1.692,1.775-2.533-2.256-1.229-4.5-2.459-6.758-3.688-.4.712-.795,1.433-1.193,2.145Q869.4,104.964,872.5,107m-435.911,5.047c-.5-.37-1-.749-1.488-1.128q-2.038,2.718-4.077,5.426l1.442,1.109c1.377-1.8,2.746-3.605,4.123-5.408m689.822,59.376c.629-.527,1.257-1.045,1.9-1.572q-2.4-3.162-4.788-6.323l-2.08,1.608q2.482,3.148,4.974,6.286m.268,92.655c.545-.49,1.1-.98,1.645-1.47-1.35-1.433-2.69-2.866-4.04-4.289l-1.331,1.248c1.239,1.507,2.487,3,3.725,4.511M442.5,82.643c-3.1,4.678-3.929,5.944-4.761,7.2,1.266.73,2.588,2.117,3.79,2.015a4.138,4.138,0,0,0,2.755-2.893c.176-1.5-.814-3.134-1.784-6.323M856.766,290.62l-2.052-2.274c-1.488,1.294-2.967,2.6-4.456,3.9.462.6.915,1.2,1.377,1.8,1.71-1.146,3.42-2.283,5.131-3.43M833.3,171.517c-5.953-1.414-7.821,1.211-9.642,7.71,4.188-3.346,6.573-5.26,9.642-7.71M282.1,213.273c-.277-.74-.545-1.479-.814-2.209q-2.787,1-5.574,2.015a14.32,14.32,0,0,0,.878,2.015c1.867-.508,3.679-1.183,5.51-1.821m1555.5-40.656c-.98,2.422-1.858,3.725-1.914,5.057-.037.832,1.183,1.71,1.839,2.57.906-1.2,2.154-2.293,2.588-3.651.213-.666-1.081-1.812-2.514-3.975M463.96,100.7c-.832.416-1.655.841-2.477,1.257q1.65,2.967,3.3,5.916c.749-.37,1.5-.749,2.246-1.119q-1.539-3.037-3.069-6.055M637.779,307.574l-2-.776c-.869,2.625-1.747,5.251-2.616,7.876.4.139.8.287,1.193.425,1.137-2.505,2.283-5.01,3.42-7.525m1132.445-137.5c-.8,2.071-1.8,3.356-1.5,4.151a7.788,7.788,0,0,0,2.875,3.263c.277.194,2.4-1.433,2.32-1.627-.582-1.35-1.525-2.542-3.7-5.787m-4.927-15.909c.647-.416,1.294-.823,1.951-1.239a45.161,45.161,0,0,0-2.866-4.955c-.12-.176-1.821.8-2.792,1.248q1.844,2.468,3.707,4.946M531.23,191.411c2.44-6.739-.592-7.765-5.168-7.774,1.4,2.1,2.792,4.2,5.168,7.774m1184.342,161.45c.61.314,1.229.619,1.84.934,1.082-1.719,2.172-3.448,3.254-5.168-.934-.49-1.858-.98-2.792-1.47-.767,1.9-1.535,3.8-2.3,5.7M121.231,121.728c-.86-.841-1.729-1.682-2.6-2.524q-2.177,2.565-4.363,5.131c.666.61,1.331,1.229,2,1.849,1.655-1.488,3.309-2.967,4.964-4.456M56.244,110.459l3.374-.25c-.3-2.367-.582-4.724-.878-7.09l-2.5.222ZM19.812,218.635c.573-.721,1.137-1.442,1.71-2.163-1.941-1.34-3.892-2.681-5.833-4.021-.305.453-.619.906-.924,1.368q2.524,2.4,5.047,4.816" transform="translate(-0.002 -0.003)" fill="#005199"/>
  </g>
</svg>
